<svg width="43" height="43" viewBox="0 0 43 43" fill="none" xmlns="http://www.w3.org/2000/svg">
<path d="M21.4999 3.58331C11.6278 3.58331 3.58325 11.6279 3.58325 21.5C3.58325 31.3721 11.6278 39.4166 21.4999 39.4166C31.372 39.4166 39.4166 31.3721 39.4166 21.5C39.4166 11.6279 31.372 3.58331 21.4999 3.58331ZM27.5199 25.6208C28.0395 26.1404 28.0395 27.0004 27.5199 27.52C27.2512 27.7887 26.9108 27.9141 26.5703 27.9141C26.2299 27.9141 25.8895 27.7887 25.6208 27.52L21.4999 23.3991L17.3791 27.52C17.1103 27.7887 16.7699 27.9141 16.4295 27.9141C16.0891 27.9141 15.7487 27.7887 15.4799 27.52C14.9603 27.0004 14.9603 26.1404 15.4799 25.6208L19.6008 21.5L15.4799 17.3791C14.9603 16.8596 14.9603 15.9996 15.4799 15.48C15.9995 14.9604 16.8595 14.9604 17.3791 15.48L21.4999 19.6008L25.6208 15.48C26.1403 14.9604 27.0003 14.9604 27.5199 15.48C28.0395 15.9996 28.0395 16.8596 27.5199 17.3791L23.3991 21.5L27.5199 25.6208Z" fill="#C4C4C4"/>
</svg>
