<svg width="33" height="32" viewBox="0 0 33 32" fill="none" xmlns="http://www.w3.org/2000/svg">
<g clip-path="url(#clip0_486_7420)">
<path opacity="0.2" d="M28.834 12L19.0152 19H14.6527L4.83398 12L16.834 4L28.834 12Z" fill="#40A2E3"/>
<path d="M29.389 11.1675L17.389 3.16748C17.2247 3.05784 17.0315 2.99933 16.834 2.99933C16.6364 2.99933 16.4433 3.05784 16.279 3.16748L4.27898 11.1675C4.142 11.2589 4.0297 11.3827 3.95207 11.5279C3.87444 11.6731 3.83388 11.8353 3.83398 12V25C3.83398 25.5304 4.0447 26.0391 4.41977 26.4142C4.79484 26.7893 5.30355 27 5.83398 27H27.834C28.3644 27 28.8731 26.7893 29.2482 26.4142C29.6233 26.0391 29.834 25.5304 29.834 25V12C29.8341 11.8353 29.7935 11.6731 29.7159 11.5279C29.6383 11.3827 29.526 11.2589 29.389 11.1675ZM16.834 5.20123L27.0727 12.0275L18.6977 18H14.9727L6.59773 12.0275L16.834 5.20123ZM5.83398 25V13.9412L14.0715 19.8162C14.2411 19.9374 14.4443 20.0025 14.6527 20.0025H19.0152C19.2237 20.0025 19.4269 19.9374 19.5965 19.8162L27.834 13.9412V25H5.83398Z" fill="#40A2E3"/>
</g>
<defs>
<clipPath id="clip0_486_7420">
<rect width="32" height="32" fill="white" transform="translate(0.833984)"/>
</clipPath>
</defs>
</svg>
