<svg width="33" height="32" viewBox="0 0 33 32" fill="none" xmlns="http://www.w3.org/2000/svg">
<g clip-path="url(#clip0_486_7412)">
<path opacity="0.2" d="M27.167 14.4425V27H19.167V20C19.167 19.7348 19.0616 19.4804 18.8741 19.2929C18.6866 19.1053 18.4322 19 18.167 19H14.167C13.9018 19 13.6474 19.1053 13.4599 19.2929C13.2723 19.4804 13.167 19.7348 13.167 20V27H5.16699V14.4425C5.16701 14.3031 5.19615 14.1653 5.25254 14.0379C5.30894 13.9104 5.39135 13.7962 5.49449 13.7025L15.4945 4.25998C15.6786 4.09239 15.9186 3.99951 16.1676 3.99951C16.4166 3.99951 16.6566 4.09239 16.8407 4.25998L26.8407 13.7025C26.9437 13.7963 27.0258 13.9106 27.082 14.038C27.1382 14.1655 27.1671 14.3032 27.167 14.4425Z" fill="#40A2E3"/>
<path d="M30.167 26H28.167V14.4438C28.167 14.167 28.1096 13.8932 27.9984 13.6397C27.8871 13.3862 27.7245 13.1586 27.5207 12.9713L17.5207 3.53626C17.5159 3.532 17.5113 3.5274 17.507 3.52251C17.1388 3.18768 16.659 3.00214 16.1614 3.00214C15.6637 3.00214 15.1839 3.18768 14.8157 3.52251L14.802 3.53626L4.81324 12.9713C4.60949 13.1586 4.44685 13.3862 4.33561 13.6397C4.22437 13.8932 4.16695 14.167 4.16699 14.4438V26H2.16699C1.90178 26 1.64742 26.1054 1.45989 26.2929C1.27235 26.4804 1.16699 26.7348 1.16699 27C1.16699 27.2652 1.27235 27.5196 1.45989 27.7071C1.64742 27.8947 1.90178 28 2.16699 28H30.167C30.4322 28 30.6866 27.8947 30.8741 27.7071C31.0616 27.5196 31.167 27.2652 31.167 27C31.167 26.7348 31.0616 26.4804 30.8741 26.2929C30.6866 26.1054 30.4322 26 30.167 26ZM6.16699 14.4438L6.18074 14.4313L16.167 5.00001L26.1545 14.4288L26.1682 14.4413V26H20.167V20C20.167 19.4696 19.9563 18.9609 19.5812 18.5858C19.2061 18.2107 18.6974 18 18.167 18H14.167C13.6366 18 13.1279 18.2107 12.7528 18.5858C12.3777 18.9609 12.167 19.4696 12.167 20V26H6.16699V14.4438ZM18.167 26H14.167V20H18.167V26Z" fill="#40A2E3"/>
</g>
<defs>
<clipPath id="clip0_486_7412">
<rect width="32" height="32" fill="white" transform="translate(0.166992)"/>
</clipPath>
</defs>
</svg>
