<svg width="33" height="32" viewBox="0 0 33 32" fill="none" xmlns="http://www.w3.org/2000/svg">
<g clip-path="url(#clip0_486_7416)">
<path opacity="0.2" d="M28.4925 21.76C28.2983 23.2113 27.5836 24.5427 26.4813 25.5065C25.3791 26.4704 23.9642 27.0011 22.5 27C17.9913 27 13.6673 25.2089 10.4792 22.0208C7.29107 18.8327 5.5 14.5087 5.5 9.99997C5.49888 8.53573 6.0296 7.12091 6.99345 6.01864C7.95731 4.91637 9.28869 4.20167 10.74 4.00747C10.9545 3.98199 11.1716 4.02666 11.3586 4.13482C11.5456 4.24299 11.6926 4.40881 11.7775 4.60747L14.4188 10.5075C14.4836 10.659 14.5101 10.8242 14.4957 10.9885C14.4813 11.1527 14.4265 11.3108 14.3363 11.4487L11.665 14.625C11.5702 14.768 11.5142 14.9331 11.5024 15.1042C11.4906 15.2753 11.5233 15.4466 11.5975 15.6012C12.6313 17.7175 14.8188 19.8787 16.9413 20.9025C17.0967 20.9763 17.2688 21.0084 17.4404 20.9954C17.612 20.9825 17.7773 20.925 17.92 20.8287L21.045 18.1662C21.1835 18.0741 21.3428 18.0179 21.5084 18.0029C21.6741 17.9878 21.8409 18.0143 21.9938 18.08L27.8888 20.7212C28.0883 20.8056 28.2551 20.9525 28.364 21.1398C28.4729 21.3272 28.518 21.5448 28.4925 21.76Z" fill="#40A2E3"/>
<path d="M19.5 12V7.00003C19.5 6.73481 19.6054 6.48045 19.7929 6.29292C19.9804 6.10538 20.2348 6.00003 20.5 6.00003C20.7652 6.00003 21.0196 6.10538 21.2071 6.29292C21.3947 6.48045 21.5 6.73481 21.5 7.00003V9.58628L25.7925 5.29253C25.9802 5.10488 26.2346 4.99947 26.5 4.99947C26.7654 4.99947 27.0199 5.10488 27.2075 5.29253C27.3952 5.48017 27.5006 5.73466 27.5006 6.00003C27.5006 6.26539 27.3952 6.51988 27.2075 6.70753L22.915 11H25.5C25.7652 11 26.0196 11.1054 26.2071 11.2929C26.3947 11.4805 26.5 11.7348 26.5 12C26.5 12.2652 26.3947 12.5196 26.2071 12.7071C26.0196 12.8947 25.7652 13 25.5 13H20.5C20.2348 13 19.9804 12.8947 19.7929 12.7071C19.6054 12.5196 19.5 12.2652 19.5 12ZM29.485 21.885C29.2621 23.5788 28.4303 25.1336 27.1449 26.2589C25.8595 27.3842 24.2084 28.0031 22.5 28C12.575 28 4.50001 19.925 4.50001 10C4.49672 8.29171 5.11559 6.64064 6.24097 5.35538C7.36635 4.07012 8.92122 3.23862 10.615 3.01627C11.0432 2.96388 11.4768 3.05132 11.8512 3.26556C12.2256 3.47979 12.5207 3.80934 12.6925 4.20502L15.3325 10.0988V10.1138C15.4639 10.4168 15.5181 10.7477 15.4904 11.0769C15.4627 11.406 15.3539 11.7232 15.1738 12C15.1513 12.0338 15.1275 12.065 15.1025 12.0963L12.5 15.1813C13.4363 17.0838 15.4263 19.0563 17.3538 19.995L20.3963 17.4063C20.4261 17.3812 20.4574 17.3578 20.49 17.3363C20.7666 17.1518 21.0849 17.0392 21.416 17.0086C21.7471 16.978 22.0806 17.0305 22.3863 17.1613L22.4025 17.1688L28.2913 19.8075C28.6879 19.9785 29.0185 20.2732 29.2337 20.6477C29.4489 21.0222 29.537 21.4563 29.485 21.885ZM27.5 21.635C27.5 21.635 27.4913 21.635 27.4863 21.635L21.6113 19.0038L18.5675 21.5925C18.5383 21.6179 18.5074 21.6413 18.475 21.6625C18.1872 21.8545 17.8545 21.9686 17.5094 21.9936C17.1644 22.0186 16.8187 21.9536 16.5063 21.805C14.165 20.6738 11.8313 18.3575 10.6988 16.0413C10.5488 15.7311 10.4815 15.3874 10.5034 15.0436C10.5253 14.6998 10.6357 14.3674 10.8238 14.0788C10.845 14.0449 10.8688 14.0127 10.895 13.9825L13.5 10.8938L10.875 5.01878C10.8745 5.01379 10.8745 5.00876 10.875 5.00377C9.66283 5.1619 8.54986 5.75648 7.74453 6.67617C6.9392 7.59586 6.49674 8.77758 6.50001 10C6.50465 14.2421 8.19184 18.309 11.1914 21.3086C14.191 24.3082 18.258 25.9954 22.5 26C23.7217 26.0042 24.9031 25.5633 25.8233 24.7597C26.7436 23.9561 27.3396 22.8449 27.5 21.6338V21.635Z" fill="#40A2E3"/>
</g>
<defs>
<clipPath id="clip0_486_7416">
<rect width="32" height="32" fill="white" transform="translate(0.5)"/>
</clipPath>
</defs>
</svg>
