<svg width="24" height="15" viewBox="0 0 24 15" fill="none" xmlns="http://www.w3.org/2000/svg">
<path d="M0.291193 14V0.909091H2.66264V6.92401H2.82244L7.92969 0.909091H10.8253L5.76278 6.78338L10.87 14H8.01918L4.11364 8.38778L2.66264 10.1009V14H0.291193ZM21.0796 5.08949C20.9731 4.74432 20.826 4.43537 20.6385 4.16264C20.4553 3.88565 20.2337 3.64915 19.9738 3.45312C19.7181 3.2571 19.4241 3.11008 19.0917 3.01207C18.7593 2.9098 18.3971 2.85866 18.005 2.85866C17.3019 2.85866 16.6755 3.03551 16.1258 3.3892C15.576 3.7429 15.1435 4.26278 14.8282 4.94886C14.5171 5.63068 14.3616 6.46165 14.3616 7.44176C14.3616 8.4304 14.5171 9.26776 14.8282 9.95384C15.1393 10.6399 15.5718 11.1619 16.1258 11.5199C16.6797 11.8736 17.3232 12.0504 18.0562 12.0504C18.7209 12.0504 19.2962 11.9226 19.782 11.6669C20.2721 11.4112 20.6492 11.049 20.9134 10.5803C21.1776 10.1072 21.3097 9.55327 21.3097 8.91832L21.8466 9.00142H18.2927V7.14773H23.6045V8.72017C23.6045 9.84091 23.3658 10.8104 22.8885 11.6286C22.4113 12.4467 21.755 13.0774 20.9198 13.5206C20.0846 13.9595 19.1258 14.179 18.0434 14.179C16.8374 14.179 15.7785 13.9084 14.8665 13.3672C13.9589 12.8217 13.2493 12.0483 12.738 11.0469C12.2309 10.0412 11.9773 8.84801 11.9773 7.46733C11.9773 6.41051 12.1265 5.46662 12.4248 4.63565C12.7273 3.80469 13.1492 3.09943 13.6904 2.51989C14.2316 1.93608 14.8665 1.4929 15.5952 1.19034C16.3239 0.883522 17.1165 0.730113 17.9731 0.730113C18.6975 0.730113 19.3729 0.836647 19.9993 1.04972C20.6258 1.25852 21.1819 1.55682 21.6677 1.9446C22.1577 2.33239 22.5604 2.79261 22.8758 3.32528C23.1911 3.85795 23.3978 4.44602 23.4958 5.08949H21.0796Z" fill="#40A2E3"/>
</svg>
