<svg width="86" height="74" viewBox="0 0 86 74" fill="none" xmlns="http://www.w3.org/2000/svg">
<path d="M77.0094 12.7H66.7094V6.09999C66.7094 2.69999 64.0094 0 60.6094 0H52.1094C48.7094 0 46.0094 2.69999 46.0094 6.09999V12.7H35.0094C30.3094 12.7 26.6094 16.5 26.6094 21.1V53.7C26.6094 55.1 27.9094 55.8 29.3094 55.8C36.1094 55.6 43.7094 51.1 46.6094 49.3L46.8094 49.1L34.2094 47.8C33.5094 47.7 33.3094 46.8 33.9094 46.5C38.4094 44.2 46.7094 43 50.1094 42.6C51.1094 42.5 52.1094 42 52.8094 41.2L60.9094 32.8C61.4094 32.3 61.0094 31.4 60.3094 31.4L52.4094 31.6C51.7094 31.6 51.5094 30.7 52.0094 30.4C56.3094 27.8 68.6094 25.8 68.6094 25.8C76.3094 16.8 79.8094 16.3 80.8094 16.2C81.3094 16.2 82.1094 16.1 83.0094 16.1C83.4094 16.1 83.8094 16.3 84.1094 16.5C82.7094 14.2 80.0094 12.7 77.0094 12.7ZM49.4094 12.7V6.5C49.4094 5 50.6094 3.79999 52.1094 3.79999H60.6094C62.1094 3.79999 63.3094 5 63.3094 6.5V12.7H49.4094Z" fill="#40A2E3"/>
<path d="M84.6093 17.5C84.7093 17.9 84.6093 18.2 84.4093 18.6C82.0093 22.5 75.5093 27.1 75.1093 31.5C74.9093 34.3 73.8093 36.8 72.8093 38.5C72.4093 39.3 71.2093 39 71.2093 38.1L71.4093 33.3C66.2093 40.1 57.6093 45.8 51.3093 49.4C41.8093 68.9 13.1093 70 0.709279 69.5C-0.0907205 69.5 -0.29072 70.7 0.50928 70.9C7.40928 72.6 21.3093 74.5 45.2093 72.2C82.3093 68.6 85.4093 27.2 85.4093 27.2V21.2C85.5093 19.8 85.2093 18.6 84.6093 17.5Z" fill="#0D9276"/>
<path d="M84.6094 17.5C84.5094 17.2 84.4094 16.9 84.1094 16.6C84.3094 16.9 84.5094 17.2 84.6094 17.5Z" fill="#0D9276"/>
</svg>
