<svg width="872" height="424" viewBox="0 0 872 424" fill="none" xmlns="http://www.w3.org/2000/svg">
<g clip-path="url(#clip0_29_1173)">
<path d="M688.32 385.32H191.28C188.464 385.32 186.18 387.603 186.18 390.42V390.43C186.18 393.247 188.464 395.53 191.28 395.53H688.32C691.137 395.53 693.42 393.247 693.42 390.43V390.42C693.42 387.603 691.137 385.32 688.32 385.32Z" fill="#FFF6E9"/>
<path d="M847.26 352.75H507.73V360.14H847.26V352.75Z" fill="#FFF6E9"/>
<path d="M157.19 281.5L169.75 317.28L171.67 312.17L157.19 281.5Z" fill="#FFE3CA"/>
<path d="M170.75 261.12L169.6 338.12L177.61 336.6L178.75 264.55L170.75 261.12Z" fill="#FFE3CA"/>
<path d="M193.82 154.64C193.82 154.64 176.09 139.8 156.44 156.76C121.92 186.53 148.85 231.21 148.85 274.66C148.85 294.86 191.69 307.09 203 259.75C211.91 222.44 210.75 165.24 193.82 154.64Z" fill="#FFE3CA"/>
<path d="M648.4 244.63L657.31 319.78L669.16 319.7L667.6 245.01L648.4 244.63Z" fill="#FFE3CA"/>
<path d="M670.44 81.45C670.44 81.45 652.44 90.85 654.78 114.33C657.12 137.81 632.08 142.51 628.95 177.73C625.82 212.95 641.48 253.65 662.61 257.57C683.74 261.49 709.61 241.13 714.27 201.21C718.93 161.29 686.09 163.64 696.27 128.42C706.45 93.2 689.23 68.15 670.44 81.45Z" fill="#FFE3CA"/>
<path d="M555.37 251.22L554.44 338.68L563.32 338.21L564.72 255.43L555.37 251.22Z" fill="#FFE3CA"/>
<path d="M585.29 139.49C585.29 139.49 565.54 122.56 547.9 141.6C530.26 160.64 502.05 231.9 527.44 251.65C552.83 271.4 574 277.05 594.44 244.6C614.88 212.15 602.23 150.07 585.29 139.49Z" fill="#FFE3CA"/>
<path d="M382.32 350.57C382.32 350.57 391.37 331.76 425.51 335.24C459.65 338.72 489.6 312.24 532.1 324.79C574.6 337.34 629.63 350.57 629.63 350.57H382.32Z" fill="#0D9276"/>
<path d="M587.77 327.32H527V388.09H587.77V327.32Z" fill="#E39536"/>
<path d="M572.62 327.32H511.85V388.09H572.62V327.32Z" fill="#FFB357"/>
<path d="M546.25 327.53H538.67V388.09H546.25V327.53Z" fill="#E39536"/>
<path d="M572.73 361.6V354.02H512.17V361.6H572.73Z" fill="#E39536"/>
<path d="M665.07 327.32H604.3V388.09H665.07V327.32Z" fill="#E39536"/>
<path d="M649.91 327.32H589.14V388.09H649.91V327.32Z" fill="#FFB357"/>
<path d="M623.54 327.53H615.96V388.09H623.54V327.53Z" fill="#E39536"/>
<path d="M650.03 361.6V354.02H589.47V361.6H650.03Z" fill="#E39536"/>
<path d="M603.63 284.23H559.94V327.92H603.63V284.23Z" fill="#E39536"/>
<path d="M592.74 284.23H549.05V327.92H592.74V284.23Z" fill="#FFB357"/>
<path d="M573.77 284.38H568.32V327.92H573.77V284.38Z" fill="#E39536"/>
<path d="M592.81 308.88V303.43H549.27V308.88H592.81Z" fill="#E39536"/>
<path d="M131.23 350.57C131.23 350.57 140.23 331.76 174.42 335.24C208.61 338.72 238.51 312.24 281.01 324.79C323.51 337.34 327.01 350.57 327.01 350.57H131.23Z" fill="#0D9276"/>
<path d="M518.58 377.14V388.24H481.85C482.036 387.417 482.375 386.637 482.85 385.94C482.96 385.78 483.08 385.63 483.2 385.48C483.869 384.685 484.715 384.058 485.67 383.65L500.95 377.17L518.58 377.14Z" fill="#74C5AD"/>
<path d="M518.58 385.91V388.24H481.85C482.036 387.417 482.375 386.637 482.85 385.94L518.58 385.91Z" fill="#424378"/>
<path d="M472.79 95.16C472.79 95.16 471.48 89.07 481.79 87.16C492.1 85.25 498.08 91.16 498.41 92.39C500.256 92.8241 501.866 93.9475 502.91 95.53C504.43 98.27 503.24 109.64 503.24 109.64C503.24 109.64 486.83 95.98 485.24 95.12C483.65 94.26 474.41 94.7 472.79 95.16Z" fill="#A16448"/>
<path d="M463.61 377.3V388.37H426.88C427.062 387.546 427.401 386.765 427.88 386.07C427.99 385.91 428.11 385.76 428.23 385.61C428.9 384.812 429.75 384.185 430.71 383.78L445.98 377.3H463.61Z" fill="#74C5AD"/>
<path d="M431.34 186.73L423.23 195.24C422.18 196.343 421.596 197.808 421.6 199.33V203.88C421.6 204.591 421.882 205.272 422.385 205.775C422.888 206.278 423.569 206.56 424.28 206.56H429.54C429.54 206.56 431.34 186.38 431.34 186.73Z" fill="#40A2E3"/>
<path d="M519.33 379.73C519.33 379.73 498.2 381.53 498.33 377.68C499.23 354.121 498.109 330.528 494.98 307.16L488.25 218.52L515.9 212.65L524.08 215.92C524.08 215.92 529.37 237.33 521.75 251.74L522.93 249.06L522.3 303.24L523.3 320.07C523.541 324.191 523.517 328.322 523.23 332.44L519.33 379.73Z" fill="#424378"/>
<path d="M505.3 217.96L491.87 263.8L489.32 272.49L479.04 307.67L477.04 323.41C476.866 324.777 476.612 326.133 476.28 327.47L463.74 377.68L443.79 377.39L451.44 303L468.13 221.76L468.55 219.7L505.3 217.96Z" fill="#424378"/>
<path d="M520.63 186.86L512.71 160.78L504.86 134.94V134.84C505.27 134.84 505.67 134.84 506.07 134.84C509.409 134.924 512.714 135.538 515.86 136.66L518.65 166.3L520.63 186.86Z" fill="#40A2E3"/>
<path d="M480.99 191.61L469.75 192.2L440.95 193.72L451.33 155.24C453.66 146.62 459.69 139.76 467.88 137.14C469.947 136.381 472.138 136.015 474.34 136.06L475.84 136.17L478.17 161.24L480.99 191.61Z" fill="#40A2E3"/>
<path d="M427.23 197.24V208.24H442.23C442.23 209.168 441.861 210.059 441.205 210.715C440.549 211.371 439.658 211.74 438.73 211.74H429.5C428.174 211.74 426.902 211.213 425.965 210.276C425.027 209.338 424.5 208.066 424.5 206.74V199.88C424.495 199.238 424.717 198.615 425.127 198.121C425.537 197.626 426.108 197.293 426.74 197.18C427.03 197.15 427.23 197.16 427.23 197.24Z" fill="#CF8B6D"/>
<path d="M523.094 222.21L489.804 223.48C486.588 223.608 483.367 223.511 480.164 223.19L467.424 221.9C466.923 221.849 466.436 221.699 465.993 221.459C465.55 221.218 465.159 220.892 464.843 220.5C464.527 220.107 464.292 219.656 464.151 219.172C464.011 218.688 463.967 218.181 464.024 217.68L473.224 136.27L480.004 136.17L504.604 135H504.654C504.814 135 505.334 135 506.084 135H506.944V136L521.234 145.48L528.594 215.88C528.671 216.661 528.588 217.45 528.349 218.198C528.111 218.946 527.722 219.637 527.208 220.23C526.693 220.822 526.062 221.303 525.355 221.644C524.648 221.984 523.879 222.177 523.094 222.21Z" fill="#40A2E3"/>
<path d="M473.92 92.3C473.92 92.3 467.19 94.83 469.83 99.9C472.47 104.97 475.27 101.7 475.27 101.7L484.27 92.58L473.92 92.3Z" fill="#A16448"/>
<path d="M498.23 112.98V135.31C498.23 139.07 493.96 139.89 490.23 139.89C486.48 139.89 483.23 139.07 483.23 135.31V115.51L484.38 115.32L486 115.05L486.32 115L496.82 113.24L498.23 112.98Z" fill="#CF8B6D"/>
<path d="M496.23 118.61L495.69 119.08L495.89 120.3L494.89 124.72L493.96 125.98C489.82 130.68 486.07 132.69 483.15 133.33V122.62L483.38 121.02L484.44 118.37L485.18 116.55L485.35 116.11L487.14 116.51L494.55 118.13L495.79 118.4L498.22 118.93L496.77 118.34L496.23 118.61Z" fill="#353B3D"/>
<path d="M471.41 100.32C471.768 103.905 471.838 107.513 471.62 111.11C471.19 115.44 469.46 126.74 479.73 129.79C490 132.84 495.59 126.61 498.06 119.01C498.06 119.01 504 118.68 505.06 113.94C506.76 106.05 498.7 108.94 498.7 108.94C498.7 108.94 497.13 96.73 485.23 95.14C473.33 93.55 471.41 100.32 471.41 100.32Z" fill="#CF8B6D"/>
<path d="M481.87 93.3C481.87 93.3 479.48 95.54 482.95 99.12C486.95 103.27 494.16 105.52 495.7 113.29C495.7 113.29 496.06 114.13 496.58 113.12C497.1 112.11 498.58 107.51 502.74 108.5C502.74 108.5 490.34 87.55 481.87 93.3Z" fill="#A16448"/>
<path d="M498.75 115.48C498.75 115.48 500.45 114.66 499.34 113.28C499.34 113.28 500.45 110.41 502.51 111.48" stroke="#805643" stroke-miterlimit="10" stroke-linecap="round"/>
<path d="M486.39 120.95C486.118 121.585 485.671 122.129 485.1 122.519C484.53 122.909 483.86 123.128 483.17 123.15" stroke="#805643" stroke-miterlimit="10" stroke-linecap="round"/>
<path d="M475.23 109.9C475.12 110.68 474.61 111.25 474.09 111.17C473.57 111.09 473.25 110.41 473.36 109.64C473.47 108.87 473.98 108.29 474.5 108.37C475.02 108.45 475.31 109.13 475.23 109.9Z" fill="#353B3D"/>
<path d="M486.6 111.37C486.48 112.14 485.98 112.71 485.46 112.63C484.94 112.55 484.61 111.87 484.73 111.1C484.85 110.33 485.34 109.76 485.86 109.83C486.38 109.9 486.71 110.59 486.6 111.37Z" fill="#353B3D"/>
<path d="M526.3 207.61L516.51 209.87C513.95 210.462 511.267 210.188 508.88 209.09L483.78 211.09L502.6 196.24L503.6 194.99C505.05 193.096 507.074 191.721 509.37 191.07L520.95 187.77L520.67 186.86L518.73 166.32L515.94 136.68C521.445 138.628 526.311 142.045 530.013 146.561C533.715 151.077 536.11 156.52 536.94 162.3L540.85 189.4C541.158 191.562 541.021 193.764 540.447 195.87C539.873 197.977 538.873 199.944 537.51 201.65C536.147 203.355 534.45 204.764 532.522 205.789C530.594 206.814 528.476 207.434 526.3 207.61Z" fill="#40A2E3"/>
<path d="M427.9 386.07H463.61V388.37H426.88C427.068 387.545 427.414 386.763 427.9 386.07Z" fill="#424378"/>
<path d="M503.01 147.46H442.24V208.23H503.01V147.46Z" fill="#E39536"/>
<path d="M487.86 147.46H427.09V208.23H487.86V147.46Z" fill="#FFB357"/>
<path d="M461.49 147.67H453.91V208.23H461.49V147.67Z" fill="#E39536"/>
<path d="M487.97 181.73V174.15H427.41V181.73H487.97Z" fill="#E39536"/>
<path d="M508.93 209.07L503.23 195.99L490.33 196.21C489.824 196.222 489.341 196.426 488.979 196.781C488.617 197.135 488.403 197.614 488.38 198.12C488.372 198.383 488.416 198.644 488.509 198.89C488.602 199.136 488.743 199.361 488.923 199.552C489.104 199.743 489.32 199.897 489.559 200.005C489.799 200.113 490.058 200.172 490.32 200.18L494.32 200.28L487.17 207.52C486.947 207.749 486.679 207.93 486.383 208.052C486.088 208.174 485.77 208.234 485.45 208.23H481.92C480.42 208.23 478.33 209.01 478.64 210.47C478.64 210.67 478.53 211.64 481.19 211.7C481.59 211.7 500.75 210.76 501.24 210.7L508.93 209.07Z" fill="#CF8B6D"/>
<path d="M483.23 133.24C483.826 134.817 484.779 136.234 486.015 137.38C487.25 138.527 488.734 139.372 490.35 139.85C488.716 141.31 487.259 142.958 486.01 144.76C485.877 144.969 485.695 145.144 485.48 145.268C485.266 145.393 485.024 145.464 484.776 145.476C484.528 145.487 484.281 145.439 484.056 145.336C483.83 145.232 483.633 145.076 483.48 144.88C481.77 142.69 478.95 139.08 479.73 135.94L483.23 133.24Z" fill="#0D9276"/>
<path d="M498.23 131.94C498.23 131.94 496.11 137.88 490.05 139.77C491.803 141.339 493.367 143.108 494.71 145.04C494.853 145.265 495.048 145.453 495.278 145.587C495.508 145.721 495.767 145.799 496.034 145.812C496.3 145.826 496.566 145.776 496.809 145.666C497.051 145.556 497.264 145.389 497.43 145.18C499.26 142.83 501.82 138.79 500.98 135.42L498.23 131.94Z" fill="#0D9276"/>
<path d="M491.87 263.8L489.32 272.49L479.04 307.67L477.04 323.41C476.866 324.777 476.612 326.133 476.28 327.47L463.37 378.47L457.42 379.47C453.29 380.14 447.24 379.87 443.42 378.18L443.58 378.34L451.44 303.01L468.13 221.77L481.88 223.45C481.88 223.45 482.75 243.93 483.19 247.03C483.63 250.13 490.3 253.25 490.3 253.25L491.87 263.8Z" fill="#373863"/>
<path d="M514.23 223.33C514.23 223.33 518.09 354.42 513.92 376.76" stroke="#373863" stroke-miterlimit="10"/>
<path d="M484.91 106.64C485.707 106.614 486.494 106.826 487.169 107.25C487.844 107.674 488.378 108.291 488.7 109.02" stroke="#805643" stroke-miterlimit="10" stroke-linecap="round"/>
<path d="M472.39 107.31C472.799 106.712 473.378 106.25 474.051 105.983C474.725 105.716 475.462 105.655 476.17 105.81" stroke="#805643" stroke-miterlimit="10" stroke-linecap="round"/>
<path d="M477.31 111.73C477.31 111.73 475.44 117.42 476.09 117.68C476.74 117.94 477.38 118.13 477.38 118.13" stroke="#805643" stroke-miterlimit="10" stroke-linecap="round"/>
<path d="M503.19 195.99L524.95 186.54" stroke="#4D9480" stroke-miterlimit="10" stroke-linecap="round"/>
<path d="M516.32 159.55L520.73 188.36" stroke="#4D9480" stroke-miterlimit="10" stroke-linecap="round"/>
<path d="M508.93 209.07L527.77 207.47" stroke="#4D9480" stroke-miterlimit="10" stroke-linecap="round"/>
<path d="M490.37 257.21L489.34 224.79" stroke="#373863" stroke-miterlimit="10"/>
<path d="M499.14 226.5C499.14 226.5 511.65 231.76 513.85 232.31" stroke="#373863" stroke-miterlimit="10"/>
<path d="M466.22 231.38L475.2 226.71" stroke="#424378" stroke-miterlimit="10"/>
<path d="M655.04 377.14V388.24H618.31C618.496 387.417 618.835 386.637 619.31 385.94C619.42 385.78 619.54 385.63 619.66 385.48C620.329 384.685 621.175 384.058 622.13 383.65L637.41 377.17L655.04 377.14Z" fill="#74C5AD"/>
<path d="M655.04 385.91V388.24H618.31C618.496 387.417 618.835 386.637 619.31 385.94L655.04 385.91Z" fill="#6668BA"/>
<path d="M600.07 377.3V388.37H563.34C563.522 387.546 563.861 386.765 564.34 386.07C564.45 385.91 564.57 385.76 564.69 385.61C565.36 384.812 566.21 384.185 567.17 383.78L582.44 377.3H600.07Z" fill="#74C5AD"/>
<path d="M655.8 379.73C655.8 379.73 634.67 381.53 634.8 377.68C635.7 354.121 634.575 330.527 631.44 307.16L624.72 218.52L652.37 212.65L660.54 215.92C660.54 215.92 665.84 237.33 658.21 251.74L659.39 249.06L658.77 303.24L659.77 320.07C660.008 324.197 659.981 328.336 659.69 332.46L655.8 379.73Z" fill="#6668BA"/>
<path d="M641.77 217.96L628.34 263.8L625.79 272.49L615.51 307.67L613.51 323.41C613.336 324.777 613.082 326.133 612.75 327.47L600.23 377.68L580.23 377.39L587.88 303L604.57 221.76L604.99 219.7L641.77 217.96Z" fill="#6668BA"/>
<path d="M614.64 161.24L617.46 191.62L604.34 200.69L599.94 200.35L585.46 190.7L599.05 184.02C599.05 184.02 597.38 163.65 598.4 149.34C598.542 147.144 599.322 145.037 600.643 143.277C601.965 141.516 603.771 140.18 605.84 139.43H605.92C610.523 138.018 615.222 136.939 619.98 136.2L614.64 161.24Z" fill="#3094D7"/>
<path d="M677.3 189.4L669.47 161.29C665.15 147.19 663.74 139.58 648.86 135.81C642.51 134.2 619.13 136.06 619.13 136.06L600.49 217.47C600.433 217.971 600.476 218.478 600.617 218.962C600.758 219.446 600.993 219.897 601.309 220.29C601.625 220.682 602.016 221.008 602.459 221.249C602.902 221.489 603.389 221.639 603.89 221.69L616.63 222.98C619.82 223.29 623.028 223.377 626.23 223.24L659.52 221.94C660.309 221.909 661.084 221.716 661.796 221.374C662.507 221.031 663.142 220.547 663.659 219.95C664.176 219.353 664.566 218.656 664.803 217.903C665.041 217.15 665.121 216.356 665.04 215.57L664.18 207.39C668.275 206.682 671.934 204.409 674.383 201.052C676.831 197.694 677.878 193.515 677.3 189.4Z" fill="#40A2E3"/>
<path d="M564.36 386.07H600.07V388.37H563.34C563.528 387.545 563.874 386.763 564.36 386.07Z" fill="#6668BA"/>
<path d="M628.34 263.8L625.79 272.49L615.51 307.67L613.51 323.41C613.336 324.777 613.082 326.133 612.75 327.47L599.84 378.47L593.84 379.47C589.72 380.14 583.67 379.87 579.84 378.18L580 378.34L587.86 303.01L604.55 221.77L618.3 223.45C618.3 223.45 619.17 243.93 619.61 247.03C620.05 250.13 626.72 253.25 626.72 253.25L628.34 263.8Z" fill="#414275"/>
<path d="M650.7 223.33C650.7 223.33 654.55 354.42 650.39 376.76" stroke="#414275" stroke-miterlimit="10"/>
<path d="M626.84 257.21L625.81 224.79" stroke="#414275" stroke-miterlimit="10"/>
<path d="M635.61 226.5C635.61 226.5 648.12 231.76 650.32 232.31" stroke="#414275" stroke-miterlimit="10"/>
<path d="M602.68 231.38L611.67 226.71" stroke="#6668BA" stroke-miterlimit="10"/>
<path d="M602.37 166.57L569.31 167.9L592.87 204.48H625.38L602.37 166.57Z" fill="#FFB357"/>
<path d="M648.09 163.11L651.28 181.99" stroke="#944D4D" stroke-miterlimit="10" stroke-linecap="round"/>
<path d="M623.16 183.31L658.1 181.76" stroke="#944D4D" stroke-miterlimit="10" stroke-linecap="round"/>
<path d="M625.09 197.46L663.56 207.46" stroke="#944D4D" stroke-miterlimit="10" stroke-linecap="round"/>
<path d="M625.09 197.46L622.09 183.15L610.91 180.47L612.99 183.88L599.99 187C599.68 187.17 599.37 188.76 602.24 190.92C604.57 192.67 609.01 194.81 617.24 196.87L625.09 197.46Z" fill="#CF8B6D"/>
<path d="M582.44 187.57L580.38 193.24C579.77 194.32 586.12 201.09 588.38 201.88C588.38 201.88 586.8 202.51 586.83 202.51L591.46 202.31C591.917 202.291 592.362 202.152 592.748 201.906C593.134 201.66 593.449 201.316 593.66 200.91C594.72 198.85 596.23 195.06 593.46 194.42L585.53 192.59L582.44 187.57Z" fill="#CF8B6D"/>
<path d="M597.6 113.41C597.6 113.41 587.66 113.58 584.17 102.41C584.17 102.41 588.81 104.5 599.34 96.16L597.6 113.41Z" fill="#353B3D"/>
<path d="M595.78 106.53C595.78 106.53 591.86 101.7 600.18 95.35C608.5 89 616.51 91.54 617.37 92.5C619.215 92.0542 621.161 92.3296 622.81 93.27C625.39 95.03 629.47 105.71 629.47 105.71C629.47 105.71 608.66 100.94 606.84 100.91C605.02 100.88 597.01 105.39 595.78 106.53Z" fill="#353B3D"/>
<path d="M595.49 103.47C595.49 103.47 590.63 108.77 595.28 112.1C599.93 115.43 600.95 111.24 600.95 111.24L604.84 99.04L595.49 103.47Z" fill="#353B3D"/>
<path d="M630.59 114.85L634.59 136.85C635.26 140.55 631.21 142.12 627.5 142.79C625.856 143.176 624.144 143.176 622.5 142.79C621.772 142.576 621.123 142.151 620.636 141.569C620.148 140.987 619.844 140.274 619.76 139.52L616.23 120.02L617.33 119.63L618.87 119.07L619.18 118.97L625.83 116.58L629.28 115.33L630.59 114.85Z" fill="#CF8B6D"/>
<path d="M626.23 116.52L626.94 116.43L626.8 116.58L626.39 117.32L627.09 118.58L627.7 123.89L627.17 125.65C624.8 131.53 621.97 135.09 619.32 137.14L616.23 120.02L617.33 119.63L618.87 119.07L619.18 118.97L625.83 116.58L626.23 116.52Z" fill="#353B3D"/>
<path d="M629.12 116.16L626.93 116.43L627.28 116.07L629.12 116.16Z" fill="#353B3D"/>
<path d="M596.88 111.75C598.819 114.791 600.514 117.981 601.95 121.29C603.51 125.29 607.09 136.2 617.62 134.29C628.15 132.38 630.34 124.29 629.1 116.38C629.1 116.38 634.25 113.38 633.02 108.71C630.96 100.9 625.09 107.14 625.09 107.14C625.09 107.14 618.2 96.93 606.84 100.91C595.48 104.89 596.88 111.75 596.88 111.75Z" fill="#CF8B6D"/>
<path d="M603.04 100.77C603.04 100.77 601.92 103.84 606.63 105.47C612.1 107.35 619.52 106.11 624.41 112.34C624.41 112.34 625.11 112.93 625.12 111.8C625.13 110.67 624.36 105.89 628.53 104.89C628.53 104.89 607.99 91.81 603.04 100.77Z" fill="#353B3D"/>
<path d="M628.12 112.93C628.12 112.93 629.26 111.42 627.66 110.69C627.66 110.69 627.34 107.63 629.66 107.69" stroke="#805643" stroke-miterlimit="10" stroke-linecap="round"/>
<path d="M619.57 123.39C619.614 124.08 619.46 124.768 619.127 125.373C618.794 125.979 618.296 126.477 617.69 126.81" stroke="#805643" stroke-miterlimit="10" stroke-linecap="round"/>
<path d="M604.59 118.59C604.84 119.34 604.65 120.07 604.15 120.24C603.65 120.41 603.06 119.94 602.8 119.24C602.54 118.54 602.75 117.76 603.24 117.6C603.73 117.44 604.34 117.85 604.59 118.59Z" fill="#353B3D"/>
<path d="M615.42 114.75C615.67 115.49 615.42 116.22 614.98 116.39C614.54 116.56 613.88 116.09 613.63 115.39C613.38 114.69 613.57 113.91 614.07 113.75C614.57 113.59 615.17 114 615.42 114.75Z" fill="#353B3D"/>
<path d="M611.78 111.29C612.478 110.908 613.275 110.743 614.067 110.816C614.86 110.889 615.613 111.197 616.23 111.7" stroke="#805643" stroke-miterlimit="10" stroke-linecap="round"/>
<path d="M600.92 117.55C601.014 116.832 601.32 116.158 601.799 115.614C602.278 115.071 602.909 114.683 603.61 114.5" stroke="#805643" stroke-miterlimit="10" stroke-linecap="round"/>
<path d="M607.31 119.24C607.31 119.24 608.2 125.16 608.9 125.1C609.6 125.04 610.25 124.91 610.25 124.91" stroke="#805643" stroke-miterlimit="10" stroke-linecap="round"/>
<path d="M860.03 128.81H746.61C746.61 128.81 760.71 114.08 776.09 117.92C776.09 117.92 782.5 96.78 803 96.14C823.5 95.5 828 112.14 828 112.14C828 112.14 832.48 95.49 858.75 101.25C885.02 107.01 860.03 128.81 860.03 128.81Z" fill="#40A2E3" stroke="#40A2E3" stroke-miterlimit="10"/>
<path d="M633.99 33.24H495.81C495.81 33.24 509.9 18.5 525.28 22.34C525.28 22.34 531.69 1.19999 552.19 0.559991C572.69 -0.0800085 577.19 16.56 577.19 16.56C577.19 16.56 588.08 9.97 607.52 14.11C623.13 17.41 633.99 33.24 633.99 33.24Z" fill="#40A2E3" stroke="#40A2E3" stroke-miterlimit="10"/>
<path d="M346.59 63.47C345.97 64.94 517.59 63.47 517.59 63.47C517.59 63.47 499.59 47.06 482.64 52.35C482.64 52.35 472.99 29.19 444.18 41.44C444.18 41.44 407.8 10.44 377.27 49.18C377.31 49.18 354.01 46 346.59 63.47Z" fill="#40A2E3"/>
<path d="M30.8801 124.13C30.2601 125.59 201.88 124.13 201.88 124.13C201.88 124.13 183.88 107.71 166.93 113.01C166.93 113.01 152.64 87.01 116.63 102.42C116.63 102.42 77.9701 70.11 61.5601 109.83C61.5901 109.83 38.2901 106.65 30.8801 124.13Z" fill="#40A2E3" stroke="#40A2E3" stroke-miterlimit="10"/>
<path d="M857.03 423.14H618.03C618.03 423.14 648.82 405.39 687.96 407.48C727.1 409.57 782.96 374.08 855.49 379.82L857.03 423.14Z" fill="#0D9276"/>
<path d="M0 423.14H239C239 423.14 208.23 405.39 169.1 407.48C129.97 409.57 74.1 374.08 1.57 379.82L0 423.14Z" fill="#0D9276"/>
</g>
<defs>
<clipPath id="clip0_29_1173">
<rect width="871.26" height="423.13" fill="white"/>
</clipPath>
</defs>
</svg>
