<svg width="811" height="538" viewBox="0 0 811 538" fill="none" xmlns="http://www.w3.org/2000/svg">
<g clip-path="url(#clip0_0_1)">
<path d="M69.6612 536.515C69.6612 536.515 -26.8978 437.459 34.5932 321.004C96.0841 204.548 178.601 263.145 174.653 127.571C170.706 -8.0032 364.52 -19.5965 426.198 19.7391C487.876 59.0746 487.489 106.423 614.849 90.7995C742.209 75.1761 766.479 205.78 733.336 272.323C686.296 366.741 863.779 351.225 751.883 536.759L69.6612 536.515Z" fill="#FFF6E9"/>
<path d="M667.708 208.407C667.714 217.881 666.866 227.335 665.175 236.656C661.245 258.223 652.812 278.719 640.427 296.807C612.193 338.112 564.713 365.215 510.908 365.215C446.904 365.215 391.855 326.87 367.489 271.886C364.246 264.586 361.576 257.046 359.503 249.332C355.904 235.986 354.087 222.221 354.099 208.398C354.091 197.179 355.284 185.992 357.657 175.027C357.679 174.903 357.711 174.786 357.733 174.659C364.162 145.473 378.811 118.738 399.949 97.6124C405.839 91.7061 412.19 86.2785 418.942 81.3811C422.165 79.0405 425.481 76.8244 428.892 74.7329C453.553 59.5519 481.953 51.5375 510.911 51.5874C514.9 51.5874 518.85 51.7362 522.76 52.0338C528.227 52.4344 533.669 53.1265 539.063 54.1074C561.114 58.1057 582.044 66.8135 600.424 79.6367C611.662 87.4623 621.83 96.7215 630.671 107.18C635.32 112.673 639.586 118.48 643.437 124.56C645.837 128.359 648.079 132.257 650.164 136.255C655.209 145.971 659.214 156.192 662.114 166.748C665.837 180.321 667.719 194.333 667.708 208.407Z" fill="#40A2E3"/>
<path opacity="0.7" d="M457.632 138.211C451.374 148.12 460.243 165.33 441.488 160.638C422.732 155.946 411.241 153.854 410.199 164.282C409.158 174.71 424.28 174.729 424.28 185.667C424.28 196.605 417.499 200.23 407.072 195.041C396.644 189.852 393.64 182.273 381.519 186.968C369.398 191.663 362.355 188.532 359.617 179.146C359.201 177.675 358.543 176.284 357.67 175.03C357.692 174.906 357.724 174.789 357.746 174.663C364.171 145.477 378.815 118.74 399.949 97.6124C405.839 91.7061 412.19 86.2785 418.942 81.3811C422.165 79.0405 425.481 76.8244 428.892 74.7328C433.779 74.9133 439.623 76.7685 444.606 82.9324C455.555 96.4949 462.855 89.7136 460.25 105.359C457.645 121.005 461.814 123.088 470.677 122.569C479.541 122.05 489.971 122.043 491.013 128.824C492.054 135.606 463.893 128.299 457.632 138.211Z" fill="#9FBDFF"/>
<path opacity="0.7" d="M522.554 232.078C522.554 232.078 508.734 236.511 505.084 226.864C501.434 217.218 505.606 215.128 493.352 212.26C481.098 209.392 480.057 201.05 472.232 202.092C464.406 203.133 468.322 206.264 459.196 213.042C450.069 219.82 441.728 216.696 441.988 229.21C442.247 241.725 455.809 243.681 458.544 251.897C461.279 260.112 456.591 263.629 462.456 269.888C468.322 276.147 479.272 273.405 474.188 282.013C469.104 290.621 461.282 297.266 465.195 310.563C469.107 323.859 466.366 324.644 473.017 334.031C479.667 343.418 492.57 346.546 494.542 340.29C496.515 334.034 485.546 325.816 489.066 319.56C492.586 313.304 498.452 317.604 500.798 308.217C503.143 298.83 512.662 298.83 513.46 292.312C514.257 285.793 501.988 275.884 506.679 271.712C511.371 267.539 520.76 279.275 528.059 268.843C535.359 258.412 530.405 250.07 537.968 240.161C545.53 230.252 527.768 226.342 522.554 232.078Z" fill="#9FBDFF"/>
<path opacity="0.7" d="M667.708 208.407C667.714 217.881 666.866 227.335 665.175 236.656C661.245 258.223 652.812 278.719 640.427 296.807C636.345 298.211 631.893 298.092 627.891 296.472C608.335 288.649 622.808 267.529 630.626 256.968C638.445 246.407 618.506 251.102 604.036 241.323C589.566 231.543 605.619 205.34 590.74 209.642C575.862 213.944 557.888 219.421 549.272 204.95C540.655 190.479 557.094 188.13 549.664 176.005C542.235 163.88 553.966 156.842 568.825 155.668C583.684 154.493 581.731 143.935 600.114 142.371C618.496 140.807 618.103 164.272 638.439 162.708C658.775 161.145 657.863 165.836 657.863 165.836C659.328 165.801 660.781 166.107 662.108 166.729C665.835 180.308 667.718 194.326 667.708 208.407Z" fill="#9FBDFF"/>
<path opacity="0.7" d="M650.164 136.245C633.254 144.476 626.464 122.094 612.01 128.821C597.448 135.606 599.981 122.566 588.522 114.217C577.062 105.869 554.106 121.002 555.144 107.962C556.182 94.9214 573.393 98.5748 577.046 88.1465C580.699 77.7182 597.382 80.3237 597.382 80.3237C598.357 79.9547 599.379 79.7224 600.418 79.6336C611.655 87.4591 621.824 96.7183 630.665 107.176C635.314 112.67 639.58 118.477 643.431 124.557C645.835 128.347 648.079 132.244 650.164 136.245Z" fill="#9FBDFF"/>
<path opacity="0.7" d="M507.692 91.2744C507.692 91.2744 516.555 78.4844 502.478 74.7107C488.401 70.937 488.657 75.8758 477.708 74.7107C466.758 73.5457 462.456 82.0175 470.668 91.2744C478.879 100.531 485.53 118.295 492.959 108.826C500.389 99.3568 498.958 92.1862 507.692 91.2744Z" fill="#9FBDFF"/>
<path d="M770.034 462.837C776.271 442.955 744.289 429.985 744.289 429.985C744.289 429.985 705.925 447.242 699.825 444.339C693.725 441.435 729.743 423.178 729.743 423.178C719.474 415.127 683.01 410.73 683.01 410.73C683.01 410.73 662.69 446.46 657.477 442.145C652.263 437.83 677.103 411.436 677.103 411.436C664.482 407.846 646.714 413.889 646.714 413.889C621.5 426.122 631.202 470.102 614.985 479.137C614.985 479.137 611.687 480.61 607.227 483.845L610.114 485.691C610.846 485.058 611.584 484.477 612.329 483.95L612.364 483.924C612.845 483.608 613.536 483.152 614.384 482.604C616.369 481.439 617.777 480.546 618.743 479.866C624.849 476.133 636.736 471.042 636.657 471.634C634.833 485.384 658.42 502.938 674.01 508.909C689.601 514.88 686.062 507.162 682.674 496.122C679.287 485.083 662.69 476.811 659.68 471.429C656.669 466.047 664.954 467.839 673.684 474.408C682.415 480.977 681.139 493.086 695.064 503.977C708.99 514.867 738.116 494.182 738.116 494.182C725.846 490.819 711.095 473.442 712.646 469.46C714.197 465.477 741.155 483.196 746.068 484.845C750.981 486.495 763.801 482.731 770.034 462.837Z" fill="#FFE3CA"/>
<path d="M40.3766 393.188C43.3522 366.623 87.6067 367.963 87.6067 367.963C87.6067 367.963 123.694 408.083 132.358 407.836C141.022 407.589 108.202 367.494 108.202 367.494C124.422 363.379 169.497 377.096 169.497 377.096C169.497 377.096 174.878 429.567 183.197 427.192C191.516 424.818 176.078 380.971 176.078 380.971C192.751 383.295 210.487 399.596 210.487 399.596C233.757 427.012 199.591 473.613 213.938 492.611C213.938 492.611 217.046 496.049 220.608 502.156L216.261 502.824C215.725 501.714 215.16 500.65 214.565 499.633V499.614L214.539 499.573C214.137 498.94 213.561 498.057 212.849 496.977C211.124 494.58 209.93 492.801 209.148 491.503C203.916 483.959 192.602 471.828 192.371 472.572C187.391 489.667 150.617 498.041 129.246 496.983C107.876 495.926 115.999 488.67 125.685 477.466C135.372 466.262 159.136 465.163 165.47 460.37C171.804 455.577 161.136 453.425 147.49 456.616C133.843 459.807 129.066 474.683 107.084 480.246C85.1027 485.808 61.6365 446.469 61.6365 446.469C77.7808 448.878 104.09 436.12 104.334 430.64C104.577 425.16 63.7669 432.004 57.1382 431.39C50.5095 430.776 37.401 419.749 40.3766 393.188Z" fill="#FFE3CA"/>
<path opacity="0.5" d="M650.842 411.911C650.842 411.911 662.307 371.018 687.527 349.477C690.88 346.628 695.983 349.566 695.213 353.909C695.213 353.979 695.188 354.055 695.172 354.128C693.738 361.514 664.951 389.145 650.842 411.911Z" fill="#FFE3CA"/>
<path opacity="0.5" d="M646.391 423.435C646.391 423.435 675.777 374.681 715.701 357.297C718.135 356.236 721.057 357.211 722.206 359.608C722.953 361.166 723.045 363.432 721.424 366.7C717.103 375.409 671.773 399.931 646.391 423.435Z" fill="#FFE3CA"/>
<path opacity="0.5" d="M163.989 367.136C163.989 367.136 152.526 326.246 127.303 304.703C123.951 301.854 118.848 304.791 119.617 309.135C119.633 309.208 119.645 309.281 119.658 309.353C121.092 316.742 149.87 344.383 163.989 367.136Z" fill="#FFE3CA"/>
<path opacity="0.5" d="M168.442 378.663C168.442 378.663 139.056 329.909 99.1325 312.522C96.6981 311.462 93.7763 312.44 92.6272 314.833C91.877 316.391 91.7852 318.661 93.406 321.928C97.7301 330.637 143.058 355.147 168.442 378.663Z" fill="#FFE3CA"/>
<path d="M507.135 154.977L507.011 512.686C507.01 518.328 504.767 523.738 500.778 527.727C496.788 531.716 491.377 533.957 485.736 533.957L298.762 533.891C295.968 533.89 293.202 533.339 290.621 532.269C288.04 531.199 285.695 529.631 283.72 527.654C281.745 525.678 280.178 523.332 279.11 520.75C278.041 518.168 277.492 515.401 277.493 512.607L277.616 154.898C277.619 149.256 279.864 143.845 283.855 139.858C287.847 135.87 293.259 133.631 298.901 133.633L485.875 133.697C491.516 133.7 496.924 135.944 500.911 139.935C504.898 143.925 507.137 149.336 507.135 154.977Z" fill="#BBE2EC"/>
<path d="M485.736 536.626L298.762 536.563C292.414 536.553 286.328 534.026 281.841 529.535C277.354 525.044 274.831 518.956 274.827 512.607L274.951 154.898C274.959 148.55 277.486 142.464 281.976 137.976C286.466 133.488 292.553 130.966 298.901 130.961L485.878 131.025C492.226 131.036 498.31 133.564 502.797 138.054C507.284 142.545 509.807 148.632 509.813 154.981L509.689 512.689C509.68 519.038 507.153 525.124 502.662 529.612C498.171 534.099 492.084 536.622 485.736 536.626ZM298.895 136.302C293.963 136.307 289.235 138.268 285.748 141.755C282.26 145.242 280.298 149.97 280.291 154.901L280.167 512.61C280.172 517.543 282.132 522.272 285.618 525.761C289.105 529.251 293.833 531.214 298.765 531.222L485.739 531.285C490.671 531.282 495.401 529.322 498.89 525.835C502.379 522.348 504.342 517.619 504.349 512.686L504.472 154.977C504.468 150.045 502.508 145.315 499.022 141.826C495.535 138.337 490.807 136.373 485.875 136.365L298.895 136.302Z" fill="#163560"/>
<path d="M312.501 167.616L309.357 169.87L306.192 167.654C306.551 167.148 307.025 166.736 307.576 166.451C308.127 166.166 308.738 166.017 309.357 166.017C309.971 166.014 310.576 166.157 311.123 166.435C311.67 166.713 312.142 167.118 312.501 167.616Z" fill="white"/>
<path d="M309.36 160.505C307.86 160.504 306.382 160.864 305.051 161.555C303.72 162.246 302.575 163.248 301.712 164.475L303.707 165.877C304.345 164.971 305.192 164.232 306.176 163.723C307.16 163.213 308.252 162.948 309.36 162.949C310.459 162.948 311.543 163.21 312.52 163.713C313.498 164.216 314.341 164.945 314.979 165.839L316.967 164.415C316.101 163.205 314.959 162.22 313.637 161.54C312.314 160.86 310.848 160.505 309.36 160.505Z" fill="white"/>
<path d="M309.363 150.055C306.19 150.052 303.063 150.814 300.246 152.276C297.429 153.738 295.006 155.857 293.181 158.454L295.175 159.856C296.778 157.582 298.903 155.727 301.372 154.447C303.841 153.166 306.582 152.498 309.363 152.499C312.124 152.5 314.844 153.159 317.298 154.422C319.752 155.685 321.87 157.515 323.476 159.761L325.454 158.336C323.625 155.774 321.211 153.686 318.412 152.246C315.613 150.805 312.511 150.054 309.363 150.055Z" fill="white"/>
<path d="M309.363 155.772C307.104 155.771 304.876 156.311 302.868 157.348C300.86 158.384 299.13 159.887 297.822 161.73L299.816 163.133C300.9 161.612 302.331 160.372 303.992 159.516C305.652 158.661 307.493 158.215 309.36 158.216C311.214 158.215 313.042 158.654 314.692 159.498C316.343 160.341 317.771 161.564 318.857 163.066L320.835 161.648C319.525 159.83 317.802 158.349 315.807 157.328C313.813 156.306 311.604 155.773 309.363 155.772Z" fill="white"/>
<path d="M351.336 96.422C351.336 96.422 337.702 89.8687 320.085 93.4683C320.085 93.4683 340.234 92.0912 352.184 104.865C352.184 104.865 360.538 92.05 374.343 89.1121C374.349 89.1279 364.058 87.9027 351.336 96.422Z" fill="#40A2E3"/>
<path d="M312.912 90.2487C312.912 90.2487 302.396 85.12 288.756 87.8236C288.756 87.8236 304.346 86.8485 313.53 96.7956C313.53 96.7956 320.047 86.9214 330.744 84.7116C330.744 84.7116 322.789 83.7175 312.912 90.2487Z" fill="#40A2E3"/>
<path d="M278.993 85.5727C278.993 85.5727 269.231 81.3115 256.926 84.3064C256.926 84.3064 271.07 82.8216 279.807 91.515C279.807 91.515 285.356 82.2834 295.002 79.8584C294.998 79.8489 287.727 79.2505 278.993 85.5727Z" fill="#40A2E3"/>
<path d="M259.978 75.7618C259.978 75.7618 253.127 73.5045 245.017 76.2936C245.017 76.2936 254.463 74.3941 260.902 79.7096C260.902 79.7096 264.067 73.1373 270.399 70.8927C270.411 70.8927 265.47 70.9497 259.978 75.7618Z" fill="#40A2E3"/>
<path d="M328.05 51.638C328.05 51.638 321.323 49.0294 313.083 51.3911C313.083 51.3911 322.611 49.9918 328.765 55.6302C328.765 55.6302 332.247 49.2288 338.721 47.3198C338.721 47.3198 333.789 47.1109 328.05 51.638Z" fill="#40A2E3"/>
<path d="M361.193 74.8753C361.193 74.8753 351.81 70.1266 339.525 72.4092C339.525 72.4092 353.539 71.719 361.684 80.7638C361.684 80.7638 367.66 71.9723 377.293 70.1171C377.277 70.1171 370.142 69.1262 361.193 74.8753Z" fill="#40A2E3"/>
<path d="M348.113 60.1921C348.113 60.1921 339.278 56.1462 328.009 58.6694C328.009 58.6694 340.931 57.5423 348.756 65.6152C348.756 65.6152 353.97 57.2859 362.805 55.2345C362.805 55.2345 356.182 54.5696 348.113 60.1921Z" fill="#40A2E3"/>
<path d="M593.719 194.323C593.719 210.006 620.13 235.076 620.13 235.076C620.13 235.076 646.546 210.003 646.546 194.323C646.546 178.642 634.723 165.919 620.136 165.919C605.549 165.919 593.719 178.633 593.719 194.323ZM604.568 192.654C604.575 188.529 606.217 184.575 609.134 181.658C612.051 178.741 616.005 177.098 620.13 177.091C624.257 177.092 628.214 178.732 631.132 181.65C634.051 184.569 635.691 188.527 635.691 192.654C635.695 194.699 635.294 196.724 634.514 198.614C633.733 200.504 632.587 202.221 631.141 203.667C629.695 205.112 627.978 206.259 626.089 207.04C624.199 207.821 622.174 208.221 620.13 208.217C616.002 208.217 612.044 206.576 609.125 203.657C606.207 200.738 604.568 196.779 604.568 192.651V192.654Z" fill="white"/>
<path d="M503.536 94.4845C503.536 109.551 528.904 133.633 528.904 133.633C528.904 133.633 554.273 109.551 554.273 94.4845C554.273 79.4183 542.915 67.2013 528.904 67.2013C514.894 67.2013 503.536 79.4183 503.536 94.4845ZM513.957 92.8858C513.963 88.9231 515.54 85.1246 518.342 82.3226C521.144 79.5205 524.942 77.9434 528.904 77.9367C532.869 77.9367 536.671 79.5117 539.474 82.3152C542.277 85.1187 543.852 88.921 543.852 92.8858C543.855 94.8497 543.47 96.795 542.72 98.61C541.97 100.425 540.869 102.074 539.481 103.463C538.092 104.852 536.443 105.953 534.628 106.703C532.813 107.453 530.868 107.838 528.904 107.835C524.94 107.834 521.139 106.259 518.336 103.455C515.533 100.652 513.958 96.8503 513.957 92.8858Z" fill="white"/>
<path d="M588.084 514.009H671.573V516.247C671.573 518.912 670.514 521.468 668.63 523.353C666.746 525.237 664.19 526.296 661.525 526.296H598.949C596.067 526.296 593.304 525.151 591.267 523.114C589.229 521.076 588.084 518.312 588.084 515.431V514.009Z" fill="#163560"/>
<path d="M674.438 410.866V510.511C674.437 511.683 674.306 512.851 674.049 513.993H662.374C660.627 513.99 658.915 514.491 657.445 515.437C656.563 515.996 655.785 516.703 655.144 517.526C653.883 519.139 653.201 521.128 653.207 523.174V526.28H607.411V523.174C607.412 521.656 607.037 520.16 606.319 518.822C605.601 517.484 604.562 516.345 603.295 515.507C602.585 515.036 601.811 514.668 600.997 514.414C600.108 514.135 599.181 513.993 598.249 513.993H585.619C585.361 512.851 585.231 511.683 585.229 510.511V410.866C585.228 408.794 585.635 406.743 586.427 404.828C587.219 402.914 588.38 401.174 589.844 399.708C591.308 398.243 593.047 397.08 594.961 396.287C596.874 395.493 598.926 395.085 600.997 395.084H658.677C662.859 395.088 666.869 396.752 669.825 399.712C672.78 402.671 674.44 406.683 674.438 410.866Z" fill="#0D9276"/>
<path d="M646.625 395.037C625.963 386.891 611.551 394.907 611.408 394.989L610.661 393.691C610.816 393.606 614.498 391.516 620.867 390.459C626.71 389.484 636.024 389.25 647.173 393.647L646.625 395.037Z" fill="#163560"/>
<path d="M599.766 521.68H593.723V529.911H599.766V521.68Z" fill="#163560"/>
<path d="M592.447 531.168C592.446 530.603 592.557 530.044 592.773 529.521C592.989 528.999 593.305 528.525 593.705 528.125C594.104 527.725 594.578 527.408 595.1 527.191C595.621 526.975 596.181 526.863 596.746 526.863C597.311 526.863 597.87 526.975 598.392 527.191C598.913 527.408 599.387 527.725 599.787 528.125C600.186 528.525 600.502 528.999 600.718 529.521C600.934 530.044 601.045 530.603 601.044 531.168C601.044 532.309 600.592 533.402 599.786 534.209C598.979 535.016 597.886 535.47 596.746 535.47C595.605 535.47 594.512 535.016 593.706 534.209C592.9 533.402 592.447 532.309 592.447 531.168Z" fill="#1F4777"/>
<path d="M594.134 531.168C594.134 530.475 594.409 529.811 594.899 529.321C595.388 528.832 596.053 528.556 596.745 528.556C597.088 528.556 597.428 528.624 597.744 528.755C598.061 528.887 598.349 529.079 598.591 529.322C598.833 529.564 599.025 529.852 599.156 530.169C599.287 530.486 599.354 530.825 599.354 531.168C599.354 531.511 599.287 531.851 599.156 532.167C599.025 532.484 598.833 532.772 598.591 533.015C598.349 533.257 598.061 533.45 597.744 533.581C597.428 533.712 597.088 533.78 596.745 533.78C596.053 533.78 595.388 533.505 594.899 533.015C594.409 532.525 594.134 531.861 594.134 531.168Z" fill="#163560"/>
<path d="M661.915 521.68H655.872V529.911H661.915V521.68Z" fill="#163560"/>
<path d="M654.593 531.168C654.592 530.603 654.703 530.044 654.919 529.521C655.135 528.999 655.451 528.525 655.851 528.125C656.25 527.725 656.724 527.408 657.246 527.191C657.767 526.975 658.327 526.863 658.892 526.863C659.457 526.863 660.016 526.975 660.538 527.191C661.059 527.408 661.533 527.725 661.933 528.125C662.332 528.525 662.648 528.999 662.864 529.521C663.08 530.044 663.191 530.603 663.19 531.168C663.188 532.307 662.734 533.398 661.928 534.203C661.122 535.008 660.03 535.46 658.892 535.461C657.753 535.46 656.661 535.008 655.855 534.203C655.049 533.398 654.595 532.307 654.593 531.168Z" fill="#1F4777"/>
<path d="M656.283 531.168C656.283 530.825 656.35 530.486 656.481 530.169C656.612 529.852 656.804 529.564 657.046 529.322C657.288 529.079 657.576 528.887 657.893 528.755C658.209 528.624 658.549 528.556 658.892 528.556C659.584 528.556 660.249 528.832 660.738 529.321C661.228 529.811 661.503 530.475 661.503 531.168C661.503 531.861 661.228 532.525 660.738 533.015C660.249 533.505 659.584 533.78 658.892 533.78C658.549 533.78 658.209 533.712 657.893 533.581C657.576 533.45 657.288 533.257 657.046 533.015C656.804 532.772 656.612 532.484 656.481 532.167C656.35 531.851 656.283 531.511 656.283 531.168Z" fill="#163560"/>
<path d="M603.286 395.081V515.519C602.575 515.049 601.801 514.681 600.987 514.427V395.075L603.286 395.081Z" fill="#0F705C"/>
<path d="M621.684 395.081H619.386V526.293H621.684V395.081Z" fill="#0F705C"/>
<path d="M638.854 395.081H636.556V526.293H638.854V395.081Z" fill="#0F705C"/>
<path d="M657.433 395.081V515.45C656.551 516.008 655.772 516.715 655.131 517.539V395.081H657.433Z" fill="#0F705C"/>
<path d="M535.387 343.491C535.387 343.32 537.92 338.109 537.103 337.716C536.286 337.324 534.868 337.377 534.701 338.286C534.533 339.195 535.387 343.491 535.387 343.491Z" fill="#FFB27D"/>
<path d="M536.337 346.6C536.337 346.087 535.749 338.299 534.438 336.747C533.127 335.196 530.44 332.993 529.598 333.059C528.756 333.126 525.454 337.514 526.432 340.873C527.41 344.232 531.611 348.787 531.611 348.787L536.337 346.6Z" fill="#FFB27D"/>
<path d="M541.345 337.156L533.697 339.451C533.576 339.488 533.445 339.475 533.333 339.416C533.221 339.356 533.137 339.255 533.099 339.134L528.727 324.549C528.69 324.428 528.703 324.297 528.762 324.185C528.822 324.073 528.923 323.989 529.044 323.951L536.692 321.659C536.813 321.622 536.944 321.635 537.056 321.694C537.168 321.754 537.252 321.855 537.29 321.976L541.662 336.564C541.697 336.684 541.684 336.814 541.625 336.925C541.565 337.036 541.465 337.119 541.345 337.156Z" fill="#F1A34F"/>
<path d="M539.357 337.754L532.418 339.834C532.311 339.866 532.199 339.877 532.088 339.865C531.977 339.854 531.869 339.821 531.771 339.767C531.673 339.714 531.586 339.642 531.515 339.555C531.445 339.468 531.393 339.368 531.361 339.261L527.205 325.388C527.172 325.281 527.161 325.169 527.172 325.058C527.183 324.946 527.216 324.838 527.269 324.74C527.322 324.641 527.394 324.554 527.481 324.483C527.567 324.412 527.667 324.36 527.775 324.328L534.713 322.248C534.93 322.183 535.163 322.206 535.362 322.313C535.561 322.42 535.709 322.602 535.774 322.818L539.93 336.694C539.962 336.801 539.973 336.913 539.962 337.025C539.95 337.136 539.917 337.244 539.864 337.343C539.811 337.441 539.738 337.528 539.652 337.599C539.565 337.669 539.465 337.722 539.357 337.754Z" fill="#D86713"/>
<path d="M528.803 333.62C528.803 333.62 531.988 328.719 532.766 328.991C533.878 329.381 529.879 335.601 529.879 335.601C529.879 335.601 532.842 330.954 533.305 331.302C534.359 332.1 532.672 335.019 531.016 337.257C531.016 337.257 533.998 334.528 534.093 335.019C534.435 336.741 530.823 340.914 530.823 340.914L528.803 336.301V333.62Z" fill="#FFB27D"/>
<path d="M526.413 338.175C526.568 337.574 527.363 325.87 527.679 326.981C527.996 328.092 528.803 334.227 528.803 334.227L526.413 338.175Z" fill="#FFB27D"/>
<path d="M577.245 334.952C577.245 334.952 576.929 347.676 573.244 357.946C570.345 366.057 565.365 372.635 556.821 370.207C555.948 369.957 555.102 369.691 554.289 369.403C536.932 363.356 531.316 349.515 531.316 349.515C532.611 347.385 536.353 346.6 536.353 346.6C539.851 346.786 555.21 353.311 556.188 353.511C559.743 354.223 562.611 334.699 564.922 327.934C567.233 321.168 576.679 318.145 576.679 318.145L577.245 334.952Z" fill="#739AF0"/>
<path d="M573.577 348.778L573.26 357.959C570.36 366.07 565.381 372.648 556.837 370.22C555.963 369.97 555.118 369.704 554.305 369.416C554.577 369.451 559.806 370.16 561.994 367.969C564.241 365.718 564.007 358.259 568.151 353.286C572.295 348.312 573.577 348.778 573.577 348.778Z" fill="#5283DB"/>
<path d="M574.055 516.472C574.055 516.472 578.329 520.369 577.493 523.14C576.657 525.91 572.805 527.759 572.285 531.143C571.766 534.527 569.68 536.376 567.803 536.376H558.86C558.86 536.376 557.48 533.992 560.814 533.277C564.147 532.561 565.407 528.578 565.198 524.884C564.989 521.189 565.514 516.266 565.514 516.266L572.599 514.627L574.055 516.472Z" fill="#133054"/>
<path d="M526.993 535.667H553.317C553.813 535.667 554.289 535.473 554.644 535.127C554.999 534.781 555.204 534.31 555.217 533.815C555.258 532.273 555.131 530.032 554.267 528.138C552.862 525.02 551.975 524.476 557.911 515.412C556.125 517.248 551.314 516.406 547.252 515.861C546.755 516.669 539.224 528.306 537.562 529.5C535.752 530.82 527.556 530.351 526.993 535.667Z" fill="#163560"/>
<path d="M568.012 389.655C568.012 389.655 548.924 425.676 543.738 445.507C539.712 460.902 564.28 520.468 564.28 520.468C564.28 520.468 566.29 520.335 569.566 519.046C572.782 517.78 573.998 514.389 573.998 514.389C573.998 514.389 572.539 471.802 567.566 451.196C566.451 446.57 572.975 431.653 583.985 423.482C594.995 415.311 599.592 389.022 593.048 387.258C586.505 385.495 568.012 389.655 568.012 389.655Z" fill="#163560"/>
<path d="M584.352 379.442C584.352 379.442 564.286 453.003 558.199 469.523C552.111 486.042 542.459 521.101 542.459 521.101C546.869 522.898 551.695 523.422 556.388 522.611C556.388 522.611 585.726 479.625 587.005 460.624C587.594 451.845 617.106 417.03 613.817 394.328L584.352 379.442Z" fill="#1C468A"/>
<path d="M613.76 402.397C613.76 402.397 609.49 404.55 601.94 405.18C593.298 405.905 580.354 404.636 564.587 395.857C564.587 395.857 560.19 392.232 565.59 376.821C569.68 365.155 571.671 340.556 576.67 318.142C576.67 318.142 592.861 313.076 605.853 317.452C615.777 320.807 614.789 336.041 616.616 351.902C616.787 353.384 616.98 354.869 617.211 356.334C619.921 373.718 613.76 402.397 613.76 402.397Z" fill="#739AF0"/>
<path d="M570.953 284.954C570.953 284.954 582.004 266.963 590.56 276.223C590.56 276.223 596.157 277.651 599.36 286.354C602.63 295.243 597.537 303.091 594.137 301.822C591.956 301.008 590.937 304.769 590.937 304.769L570.953 284.954Z" fill="#233862"/>
<path d="M588.867 274.805C588.867 274.805 589.626 267.355 600.51 268.08C600.51 268.08 595.362 268.172 594.258 270.319C594.258 270.319 597.999 267.906 600.731 269.081C603.463 270.255 604.615 275.362 604.47 276.995C604.324 278.629 602.225 283.701 600.389 283.96C598.553 284.22 596.151 282.928 596.151 282.928L588.867 274.805Z" fill="#233862"/>
<path d="M594.349 316.996C593.327 314.273 591.817 311.411 590.582 302.711L589.93 302.939L578.946 306.808C578.946 306.808 579.715 310.332 580.212 313.681C580.411 315.052 580.557 317.499 580.649 319.636C580.741 321.773 582.893 322.023 585.081 321.922C590.877 321.653 594.077 319.487 594.349 316.996Z" fill="#FFB27D"/>
<path d="M578.946 306.808C578.946 306.808 579.715 310.332 580.212 313.681C586.515 312.592 589.025 306.336 589.937 302.939L578.946 306.808Z" fill="#E8945B"/>
<path d="M590.918 301.54C590.918 301.54 593.479 295.823 593.631 291.226C593.738 287.946 590.399 276.324 578.731 279.75C576.385 280.43 574.222 281.628 572.399 283.254C570.066 285.375 566.875 289.684 572.542 299.432L574.125 302.768L590.918 301.54Z" fill="#233862"/>
<path d="M577.29 310.287C577.29 310.287 592.295 308.388 590.962 299.049C589.629 289.709 590.664 283.191 581.029 284.017C571.393 284.843 570.041 288.668 569.731 291.891C569.42 295.113 573.352 310.544 577.29 310.287Z" fill="#FFB27D"/>
<path d="M574.175 284.774C574.175 284.774 579.854 295.123 586.375 295.835C592.896 296.548 595.388 294.468 595.388 294.468C591.891 292.187 589.295 288.763 588.044 284.78C588.044 284.78 576.518 279.12 574.175 284.774Z" fill="#233862"/>
<path d="M575.321 285.515C575.321 285.515 572.611 288.399 572.206 290.897C571.801 293.394 572.171 298.317 570.725 298.355C570.725 298.355 566.562 291.365 569.427 286.642C572.472 281.649 575.321 285.515 575.321 285.515Z" fill="#233862"/>
<path d="M574.805 285.967C574.805 285.967 579.376 297.003 587.844 299.53C587.844 299.53 578.892 293.632 577.129 286.167C575.365 278.702 574.805 285.967 574.805 285.967Z" fill="#233862"/>
<path d="M613.76 402.397C613.76 402.397 609.49 404.55 601.94 405.18C601.94 405.18 595.739 397.405 602.659 388.689C609.579 379.974 602.117 363.898 607.445 355.15C611.155 349.066 614.764 350.484 616.625 351.902C616.796 353.384 616.989 354.869 617.22 356.334C619.921 373.718 613.76 402.397 613.76 402.397Z" fill="#5283DB"/>
<path d="M640.984 389.471C640.984 389.471 641.905 391.615 643.2 391.757C645.296 391.991 649.294 393.748 649.921 394.122C651.62 395.132 651.503 399.65 649.807 400.074C648.11 400.498 647.255 396.708 641.94 395.692C640.139 395.347 637.508 396.595 636.451 392.276L640.984 389.471Z" fill="#FFB27D"/>
<path d="M605.844 317.452C621.295 323.15 621.864 350.512 628.753 362.568C635.859 375.003 642.776 391.377 642.776 391.377C642.776 391.377 642.653 391.868 640.003 392.644C638.764 392.966 637.479 393.074 636.204 392.96C636.204 392.96 621.608 379.752 617.642 374.541C613.675 369.33 604.321 345.159 604.321 345.159C604.321 345.159 599.696 315.194 605.844 317.452Z" fill="#739AF0"/>
<path d="M636.821 393.346C636.821 393.346 637.198 395.186 639.474 396.674C641.75 398.162 643.589 399.65 643.801 398.728C644.013 397.807 642.535 396.829 642.181 395.113C641.826 393.397 636.821 393.346 636.821 393.346Z" fill="#FFB27D"/>
<path d="M504.4 302.18H280.158V464.524H504.4V302.18Z" fill="#0D9276"/>
<path d="M447.942 508.583V530.484C447.942 530.75 447.942 531.019 447.942 531.285H335.793C335.793 531.019 335.793 530.75 335.793 530.484V508.583C335.793 498.592 342.241 490.417 350.12 490.417H433.631C441.497 490.417 447.942 498.592 447.942 508.583Z" fill="#40A2E3"/>
<path d="M391.747 518.286L384.53 511.825L386.556 509.558L391.219 513.734L397.67 504.502L400.164 506.243L391.747 518.286Z" fill="#FFE3CA"/>
<path d="M392.352 525.21C388.689 525.206 385.177 523.749 382.587 521.159C379.997 518.569 378.539 515.057 378.534 511.394C378.538 507.731 379.996 504.218 382.586 501.627C385.176 499.037 388.688 497.58 392.352 497.575C396.015 497.58 399.526 499.038 402.116 501.629C404.705 504.219 406.162 507.731 406.166 511.394C406.162 515.057 404.705 518.569 402.116 521.159C399.526 523.749 396.014 525.206 392.352 525.21ZM392.352 498.3C388.877 498.304 385.546 499.686 383.089 502.143C380.632 504.6 379.25 507.932 379.246 511.407C379.251 514.882 380.633 518.213 383.09 520.67C385.546 523.127 388.877 524.509 392.352 524.514C395.826 524.509 399.156 523.126 401.612 520.669C404.068 518.212 405.45 514.881 405.454 511.407C405.454 507.93 404.074 504.596 401.617 502.136C399.161 499.676 395.828 498.292 392.352 498.288V498.3Z" fill="#FFE3CA"/>
<path d="M300.234 196.561C300.234 196.561 305.426 184.996 317.844 186.281C317.844 186.281 335.869 167.011 355.094 183.711C355.094 183.711 375.527 179.573 390.659 187.294C400.747 192.445 404.081 197.843 404.081 197.843L300.234 196.561Z" fill="#EBF3FA"/>
<path d="M373.374 169.227H373.571C374.356 169.221 375.112 168.927 375.695 168.401C378.306 166.014 386.261 160.074 394.827 166.897C395.16 167.16 395.543 167.353 395.953 167.462C396.363 167.571 396.792 167.594 397.211 167.53C400.519 167.049 409.164 166.264 415.932 169.889L416.473 170.186C419.291 171.769 418.11 176.075 414.891 176.033L373.482 175.495C369.408 175.435 369.319 169.379 373.374 169.227Z" fill="#EBF3FA"/>
<path d="M476.815 440.704H432.301C428.607 440.704 425.064 439.237 422.452 436.624C419.84 434.012 418.373 430.469 418.373 426.774V332.749C418.373 329.055 419.84 325.512 422.452 322.899C425.064 320.287 428.607 318.819 432.301 318.819H476.815C480.509 318.819 484.052 320.287 486.664 322.899C489.276 325.512 490.744 329.055 490.744 332.749V426.774C490.744 430.469 489.276 434.012 486.664 436.624C484.052 439.237 480.509 440.704 476.815 440.704ZM432.301 320.26C428.986 320.264 425.808 321.583 423.464 323.927C421.12 326.271 419.801 329.45 419.797 332.765V426.79C419.801 430.106 421.12 433.284 423.464 435.628C425.808 437.972 428.986 439.291 432.301 439.295H476.815C480.13 439.291 483.308 437.972 485.652 435.628C487.996 433.284 489.315 430.106 489.319 426.79V332.765C489.315 329.45 487.996 326.271 485.652 323.927C483.308 321.583 480.13 320.264 476.815 320.26H432.301Z" fill="#FFE3CA"/>
<path d="M398.189 319.551H333.884C328.225 319.551 323.637 324.139 323.637 329.798V369.872C323.637 375.531 328.225 380.119 333.884 380.119H398.189C403.848 380.119 408.436 375.531 408.436 369.872V329.798C408.436 324.139 403.848 319.551 398.189 319.551Z" fill="#FFE3CA"/>
<path d="M399.139 440.704H332.935C330.281 440.701 327.738 439.645 325.862 437.768C323.986 435.892 322.931 433.347 322.928 430.694V399.409C322.931 396.755 323.986 394.211 325.862 392.334C327.738 390.458 330.281 389.402 332.935 389.399H399.139C401.793 389.402 404.337 390.458 406.213 392.334C408.09 394.211 409.145 396.755 409.149 399.409V430.694C409.145 433.348 408.09 435.892 406.213 437.769C404.337 439.645 401.793 440.701 399.139 440.704ZM332.935 390.82C330.658 390.823 328.476 391.729 326.867 393.34C325.257 394.95 324.352 397.132 324.35 399.409V430.694C324.352 432.97 325.257 435.153 326.867 436.763C328.476 438.373 330.658 439.279 332.935 439.283H399.139C401.416 439.28 403.599 438.375 405.209 436.764C406.819 435.154 407.725 432.971 407.727 430.694V399.409C407.725 397.132 406.819 394.949 405.209 393.338C403.599 391.728 401.416 390.823 399.139 390.82H332.935Z" fill="#FFE3CA"/>
<path d="M436.052 353.248C436.052 364.236 454.558 381.804 454.558 381.804C454.558 381.804 473.073 364.249 473.073 353.248C473.073 342.247 464.789 333.344 454.568 333.344C444.346 333.344 436.052 342.269 436.052 353.248ZM443.65 352.08C443.655 349.189 444.805 346.418 446.848 344.374C448.891 342.33 451.662 341.179 454.552 341.173C457.444 341.173 460.218 342.322 462.263 344.368C464.308 346.413 465.457 349.187 465.457 352.08C465.459 353.512 465.178 354.931 464.631 356.255C464.084 357.579 463.281 358.782 462.267 359.795C461.254 360.808 460.051 361.611 458.727 362.158C457.403 362.705 455.984 362.985 454.552 362.983C451.664 362.98 448.895 361.832 446.852 359.791C444.81 357.749 443.66 354.98 443.656 352.092L443.65 352.08Z" fill="#FFE3CA"/>
<path d="M386.315 428.892C382.646 428.888 379.128 427.429 376.533 424.834C373.939 422.239 372.479 418.721 372.475 415.051C372.478 411.381 373.938 407.862 376.532 405.267C379.127 402.671 382.645 401.211 386.315 401.207C389.985 401.211 393.504 402.671 396.099 405.267C398.694 407.862 400.154 411.381 400.158 415.051C400.154 418.722 398.694 422.24 396.099 424.835C393.503 427.43 389.985 428.889 386.315 428.892ZM386.315 402.724C383.048 402.729 379.916 404.03 377.606 406.341C375.296 408.652 373.996 411.784 373.991 415.051C373.997 418.318 375.298 421.45 377.607 423.76C379.917 426.07 383.048 427.37 386.315 427.376C389.582 427.371 392.714 426.071 395.025 423.761C397.335 421.451 398.636 418.319 398.642 415.051C398.637 411.783 397.336 408.651 395.026 406.34C392.715 404.029 389.583 402.729 386.315 402.724Z" fill="#FFE3CA"/>
<path d="M386.321 408.235H386.132C385.866 408.235 385.65 408.451 385.65 408.717V416.428C385.65 416.694 385.866 416.91 386.132 416.91H386.321C386.587 416.91 386.803 416.694 386.803 416.428V408.717C386.803 408.451 386.587 408.235 386.321 408.235Z" fill="#FFE3CA"/>
<path d="M386.062 416.656H386.046C385.994 416.605 385.965 416.535 385.965 416.462C385.965 416.389 385.994 416.319 386.046 416.267L393.741 408.571C393.793 408.519 393.863 408.49 393.936 408.49C394.009 408.49 394.079 408.519 394.131 408.571H394.147C394.198 408.623 394.227 408.693 394.227 408.766C394.227 408.839 394.198 408.909 394.147 408.96L386.454 416.656C386.402 416.708 386.332 416.737 386.258 416.737C386.185 416.737 386.114 416.708 386.062 416.656Z" fill="#FFE3CA"/>
<path d="M385.47 416.378C385.47 416.177 385.549 415.985 385.691 415.843C385.833 415.701 386.026 415.621 386.226 415.621C386.427 415.621 386.619 415.701 386.761 415.843C386.903 415.985 386.983 416.177 386.983 416.378C386.983 416.579 386.903 416.771 386.761 416.913C386.619 417.055 386.427 417.135 386.226 417.135C386.026 417.135 385.833 417.055 385.691 416.913C385.549 416.771 385.47 416.579 385.47 416.378Z" fill="#FFE3CA"/>
<path d="M363.194 398.472H332.763V401.628H363.194V398.472Z" fill="#FFE3CA"/>
<path d="M363.194 405.677H332.763V408.856H363.194V405.677Z" fill="#FFE3CA"/>
<path d="M351.009 412.905H332.763V416.083H351.009V412.905Z" fill="#FFE3CA"/>
<path d="M469.772 398.608H439.341V401.764H469.772V398.608Z" fill="#FFE3CA"/>
<path d="M469.772 405.81H439.341V408.989H469.772V405.81Z" fill="#FFE3CA"/>
<path d="M457.588 413.038H439.341V416.216H457.588V413.038Z" fill="#FFE3CA"/>
<path d="M365.08 333.48H334.65V336.637H365.08V333.48Z" fill="#0D9276"/>
<path d="M365.08 340.686H334.65V343.864H365.08V340.686Z" fill="#0D9276"/>
<path d="M352.896 347.913H334.65V351.092H352.896V347.913Z" fill="#0D9276"/>
<path d="M620.129 159.549C619.954 159.549 619.785 159.484 619.654 159.367C619.524 159.25 619.44 159.09 619.42 158.916C619.42 158.916 619.306 157.649 619.072 155.465C619.052 155.277 619.108 155.09 619.227 154.943C619.346 154.796 619.518 154.703 619.705 154.683C619.893 154.664 620.08 154.719 620.227 154.838C620.374 154.957 620.467 155.129 620.487 155.316C620.724 157.532 620.838 158.773 620.838 158.799C620.856 158.985 620.799 159.171 620.681 159.315C620.562 159.46 620.391 159.552 620.205 159.571L620.129 159.549ZM619.398 152.657C619.223 152.656 619.055 152.591 618.925 152.474C618.795 152.357 618.712 152.197 618.692 152.024C618.575 150.982 618.442 149.839 618.293 148.605C618.282 148.511 618.289 148.416 618.315 148.325C618.341 148.234 618.384 148.149 618.443 148.076C618.502 148.002 618.576 147.941 618.658 147.896C618.741 147.851 618.832 147.823 618.926 147.813C619.02 147.803 619.115 147.811 619.205 147.837C619.296 147.863 619.38 147.907 619.454 147.965C619.527 148.024 619.588 148.097 619.634 148.18C619.679 148.262 619.708 148.353 619.718 148.446C619.867 149.687 620 150.833 620.117 151.875C620.127 151.968 620.119 152.063 620.093 152.153C620.067 152.243 620.023 152.327 619.964 152.4C619.905 152.473 619.832 152.533 619.75 152.578C619.667 152.623 619.577 152.651 619.484 152.66L619.398 152.657ZM618.575 145.816C618.4 145.815 618.232 145.75 618.103 145.633C617.973 145.516 617.891 145.356 617.872 145.182C617.737 144.098 617.591 142.961 617.432 141.773C617.408 141.586 617.459 141.397 617.573 141.248C617.688 141.098 617.857 141 618.043 140.975C618.23 140.951 618.42 141.002 618.569 141.117C618.719 141.232 618.816 141.402 618.841 141.589C618.995 142.777 619.142 143.916 619.281 145.005C619.293 145.098 619.287 145.192 619.262 145.282C619.238 145.372 619.196 145.456 619.139 145.53C619.082 145.604 619.011 145.665 618.93 145.712C618.849 145.758 618.759 145.788 618.667 145.8L618.575 145.816ZM617.676 138.99C617.504 138.99 617.339 138.928 617.209 138.815C617.08 138.702 616.996 138.546 616.973 138.376C616.821 137.274 616.662 136.141 616.495 134.976C616.482 134.883 616.488 134.788 616.512 134.697C616.535 134.607 616.577 134.521 616.634 134.447C616.69 134.372 616.761 134.309 616.842 134.262C616.924 134.215 617.013 134.184 617.106 134.172C617.292 134.145 617.482 134.194 617.632 134.306C617.783 134.419 617.883 134.587 617.91 134.773C618.075 135.94 618.234 137.077 618.388 138.183C618.401 138.275 618.396 138.369 618.372 138.46C618.349 138.55 618.307 138.635 618.251 138.709C618.194 138.784 618.124 138.846 618.043 138.893C617.962 138.941 617.873 138.971 617.78 138.984C617.746 138.989 617.711 138.991 617.676 138.99ZM616.701 132.183C616.531 132.183 616.366 132.121 616.237 132.01C616.108 131.898 616.023 131.744 615.998 131.576C615.834 130.468 615.663 129.336 615.485 128.182C615.471 128.09 615.475 127.996 615.497 127.905C615.519 127.814 615.558 127.729 615.613 127.654C615.668 127.579 615.738 127.515 615.817 127.466C615.897 127.418 615.985 127.386 616.077 127.371C616.263 127.343 616.453 127.389 616.605 127.5C616.756 127.611 616.858 127.778 616.888 127.963C617.069 129.118 617.241 130.252 617.404 131.367C617.418 131.459 617.414 131.553 617.392 131.644C617.369 131.735 617.329 131.82 617.273 131.895C617.218 131.97 617.148 132.034 617.067 132.082C616.987 132.129 616.898 132.161 616.805 132.174L616.701 132.183ZM615.65 125.386C615.481 125.386 615.318 125.326 615.19 125.216C615.062 125.106 614.977 124.955 614.95 124.788C614.773 123.674 614.589 122.544 614.396 121.401C614.366 121.215 614.411 121.024 614.521 120.871C614.63 120.718 614.796 120.615 614.982 120.584C615.168 120.553 615.357 120.598 615.51 120.707C615.663 120.816 615.767 120.981 615.799 121.166C615.989 122.314 616.173 123.447 616.353 124.563C616.368 124.655 616.365 124.75 616.344 124.841C616.322 124.932 616.283 125.017 616.228 125.093C616.174 125.169 616.104 125.233 616.025 125.281C615.945 125.33 615.856 125.363 615.764 125.377L615.65 125.386ZM614.523 118.605C614.356 118.605 614.194 118.545 614.066 118.438C613.938 118.33 613.852 118.181 613.824 118.016C613.634 116.9 613.436 115.773 613.232 114.635C613.215 114.543 613.217 114.449 613.237 114.358C613.257 114.268 613.294 114.181 613.348 114.105C613.401 114.028 613.469 113.963 613.547 113.913C613.625 113.863 613.713 113.828 613.805 113.812C613.99 113.779 614.181 113.82 614.336 113.928C614.491 114.035 614.597 114.2 614.631 114.385C614.842 115.525 615.04 116.655 615.226 117.776C615.242 117.868 615.239 117.962 615.219 118.053C615.198 118.144 615.16 118.23 615.106 118.306C615.052 118.382 614.984 118.447 614.905 118.496C614.826 118.546 614.738 118.58 614.647 118.596L614.523 118.605ZM613.314 111.84C613.148 111.84 612.987 111.782 612.86 111.676C612.732 111.57 612.645 111.423 612.614 111.26C612.403 110.142 612.192 109.018 611.981 107.889C611.963 107.797 611.964 107.703 611.982 107.611C612.001 107.52 612.038 107.433 612.09 107.355C612.142 107.278 612.209 107.212 612.287 107.16C612.365 107.109 612.453 107.074 612.545 107.056C612.636 107.038 612.731 107.039 612.822 107.057C612.914 107.076 613.001 107.112 613.078 107.165C613.155 107.217 613.222 107.284 613.273 107.362C613.324 107.44 613.36 107.528 613.377 107.62C613.588 108.753 613.799 109.88 614.01 111.001C614.027 111.092 614.026 111.187 614.006 111.278C613.987 111.369 613.95 111.455 613.897 111.532C613.844 111.609 613.776 111.674 613.698 111.725C613.62 111.776 613.532 111.81 613.44 111.827C613.397 111.836 613.352 111.84 613.308 111.84H613.314ZM612.013 105.09C611.849 105.09 611.69 105.034 611.563 104.93C611.436 104.826 611.349 104.681 611.316 104.52C611.095 103.404 610.867 102.283 610.633 101.158C610.614 101.067 610.613 100.973 610.63 100.881C610.648 100.79 610.683 100.702 610.734 100.624C610.785 100.547 610.851 100.479 610.928 100.427C611.005 100.375 611.092 100.338 611.183 100.319C611.275 100.3 611.369 100.299 611.461 100.316C611.552 100.333 611.64 100.368 611.718 100.42C611.796 100.471 611.863 100.537 611.915 100.614C611.967 100.692 612.004 100.779 612.022 100.87C612.257 101.997 612.486 103.121 612.709 104.242C612.728 104.333 612.729 104.428 612.711 104.519C612.693 104.611 612.657 104.698 612.605 104.776C612.553 104.854 612.487 104.92 612.409 104.972C612.331 105.024 612.244 105.06 612.152 105.077C612.106 105.087 612.06 105.091 612.013 105.09ZM610.617 98.3627C610.455 98.3627 610.297 98.3071 610.171 98.2051C610.045 98.1031 609.958 97.961 609.924 97.8024C609.683 96.6922 609.438 95.5789 609.189 94.4624C609.148 94.2781 609.182 94.0853 609.283 93.9258C609.384 93.7663 609.543 93.6531 609.727 93.6108C609.818 93.5902 609.913 93.5878 610.005 93.6038C610.096 93.6197 610.184 93.6537 610.263 93.7037C610.342 93.7537 610.41 93.8188 610.464 93.8952C610.517 93.9716 610.555 94.0578 610.576 94.149C610.827 95.2697 611.073 96.3872 611.313 97.5016C611.333 97.5931 611.335 97.6876 611.318 97.7797C611.301 97.8719 611.266 97.9598 611.216 98.0384C611.165 98.117 611.099 98.1847 611.021 98.2376C610.944 98.2906 610.857 98.3277 610.766 98.3469C610.717 98.357 610.667 98.3623 610.617 98.3627ZM609.116 91.6669C608.956 91.6668 608.8 91.6124 608.674 91.5124C608.548 91.4124 608.459 91.2727 608.423 91.1161C608.163 90.0017 607.899 88.8873 607.629 87.7729C607.606 87.6823 607.601 87.5881 607.616 87.4957C607.63 87.4033 607.662 87.3147 607.71 87.2349C607.759 87.1551 607.823 87.0857 607.899 87.0308C607.974 86.9759 608.06 86.9365 608.151 86.915C608.241 86.8924 608.336 86.888 608.428 86.9021C608.52 86.9161 608.609 86.9484 608.689 86.997C608.769 87.0456 608.838 87.1095 608.893 87.1851C608.948 87.2607 608.987 87.3465 609.009 87.4374C609.281 88.556 609.547 89.6746 609.806 90.7932C609.849 90.9766 609.818 91.1695 609.719 91.3297C609.619 91.4899 609.461 91.6043 609.278 91.648C609.225 91.6603 609.171 91.6667 609.116 91.6669ZM607.489 84.9807C607.332 84.98 607.179 84.9272 607.055 84.8304C606.93 84.7336 606.841 84.5983 606.802 84.4457C606.52 83.3334 606.232 82.2264 605.941 81.1247C605.894 80.9425 605.921 80.749 606.016 80.5865C606.111 80.424 606.266 80.3056 606.448 80.2572C606.538 80.2334 606.632 80.2276 606.724 80.2402C606.817 80.2527 606.906 80.2834 606.987 80.3305C607.067 80.3775 607.138 80.44 607.194 80.5144C607.25 80.5888 607.292 80.6735 607.315 80.7638C607.611 81.8676 607.899 82.9778 608.179 84.0942C608.203 84.1847 608.208 84.2788 608.195 84.3713C608.181 84.4637 608.15 84.5526 608.102 84.6329C608.055 84.7132 607.992 84.7833 607.917 84.8392C607.842 84.8951 607.757 84.9357 607.667 84.9585C607.609 84.9735 607.549 84.9809 607.489 84.9807ZM605.732 78.3324C605.576 78.3325 605.425 78.2815 605.301 78.1871C605.177 78.0928 605.087 77.9603 605.045 77.8101C604.742 76.7062 604.425 75.6077 604.096 74.5144C604.044 74.3335 604.066 74.1394 604.156 73.9744C604.247 73.8095 604.399 73.6873 604.58 73.6343C604.67 73.6082 604.764 73.6 604.856 73.6102C604.949 73.6204 605.039 73.6488 605.121 73.6938C605.202 73.7388 605.274 73.7995 605.333 73.8724C605.391 73.9453 605.434 74.029 605.46 74.1187C605.781 75.2162 606.097 76.3211 606.41 77.4333C606.459 77.6147 606.435 77.8083 606.343 77.972C606.25 78.1357 606.097 78.2561 605.916 78.3071C605.856 78.3246 605.795 78.3352 605.732 78.3388V78.3324ZM603.811 71.7412C603.659 71.7409 603.511 71.6918 603.389 71.6012C603.267 71.5106 603.178 71.3832 603.133 71.2378C602.798 70.1392 602.456 69.0407 602.111 67.9675C602.082 67.8787 602.072 67.7852 602.079 67.6923C602.087 67.5993 602.113 67.5088 602.155 67.4259C602.198 67.343 602.257 67.2693 602.328 67.209C602.399 67.1487 602.481 67.1031 602.57 67.0747C602.75 67.0169 602.945 67.0328 603.113 67.1188C603.281 67.2049 603.408 67.3541 603.466 67.5337C603.811 68.6133 604.156 69.7182 604.491 70.8231C604.519 70.9122 604.528 71.0059 604.519 71.0988C604.51 71.1916 604.483 71.2818 604.44 71.3641C604.396 71.4465 604.336 71.5194 604.264 71.5786C604.192 71.6379 604.109 71.6823 604.02 71.7095C603.952 71.7308 603.882 71.7415 603.811 71.7412ZM601.712 65.1974C601.564 65.1973 601.42 65.1508 601.299 65.0645C601.179 64.9782 601.089 64.8564 601.041 64.7161C600.674 63.6271 600.294 62.5381 599.914 61.4807C599.851 61.3035 599.861 61.1086 599.942 60.9388C600.023 60.769 600.167 60.6383 600.345 60.5752C600.432 60.5435 600.525 60.5294 600.619 60.5337C600.712 60.5381 600.803 60.5607 600.887 60.6004C600.972 60.6401 601.048 60.6961 601.11 60.7651C601.173 60.8341 601.222 60.9148 601.253 61.0026C601.633 62.0695 602.016 63.1649 602.386 64.2603C602.416 64.3486 602.428 64.4419 602.422 64.535C602.416 64.628 602.391 64.7189 602.35 64.8024C602.308 64.8859 602.251 64.9604 602.18 65.0217C602.11 65.0829 602.028 65.1297 601.94 65.1594C601.868 65.1839 601.792 65.1967 601.715 65.1974H601.712ZM531.981 62.9116C531.893 62.912 531.806 62.8947 531.725 62.861C531.638 62.8273 531.558 62.7769 531.491 62.7126C531.424 62.6482 531.37 62.5712 531.332 62.4859C531.294 62.4006 531.274 62.3088 531.272 62.2156C531.27 62.1224 531.286 62.0297 531.32 61.9429C531.566 61.3097 531.81 60.6987 532.057 60.0909C532.128 59.9166 532.265 59.7775 532.438 59.7039C532.612 59.6304 532.807 59.6283 532.981 59.6983C533.068 59.7331 533.147 59.7846 533.213 59.85C533.28 59.9153 533.333 59.9931 533.37 60.079C533.406 60.1649 533.425 60.2571 533.426 60.3504C533.427 60.4437 533.409 60.5363 533.374 60.6227C533.131 61.2263 532.888 61.8384 532.643 62.4589C532.592 62.592 532.501 62.7066 532.384 62.7874C532.266 62.8682 532.127 62.9115 531.984 62.9116H531.981ZM599.408 58.7295C599.264 58.73 599.123 58.6867 599.004 58.6052C598.885 58.5238 598.794 58.4082 598.743 58.2737C598.331 57.1909 597.91 56.1209 597.477 55.0888C597.406 54.9145 597.408 54.7196 597.481 54.5465C597.554 54.3733 597.692 54.236 597.866 54.1644C598.041 54.0933 598.236 54.0943 598.41 54.1673C598.584 54.2403 598.722 54.3793 598.793 54.5538C599.214 55.5954 599.639 56.6749 600.06 57.7671C600.127 57.9435 600.121 58.1392 600.044 58.3113C599.967 58.4834 599.824 58.6179 599.648 58.6852C599.568 58.7146 599.483 58.7296 599.398 58.7295H599.408ZM534.048 57.9032C533.951 57.9034 533.855 57.8829 533.767 57.8431C533.681 57.8066 533.603 57.7534 533.538 57.6868C533.473 57.6201 533.422 57.5413 533.388 57.4548C533.353 57.3683 533.336 57.2758 533.338 57.1827C533.339 57.0896 533.359 56.9977 533.396 56.9123C533.855 55.8391 534.327 54.7786 534.792 53.7465C534.831 53.6607 534.887 53.5835 534.956 53.5193C535.024 53.4552 535.105 53.4053 535.194 53.3726C535.282 53.34 535.376 53.3251 535.47 53.329C535.564 53.3328 535.657 53.3553 535.742 53.3951C535.827 53.4343 535.904 53.49 535.968 53.5591C536.032 53.6281 536.081 53.7091 536.114 53.7974C536.146 53.8857 536.161 53.9796 536.157 54.0735C536.153 54.1675 536.13 54.2597 536.09 54.3448C535.628 55.3516 535.163 56.3995 534.707 57.4632C534.653 57.5952 534.56 57.7079 534.441 57.7864C534.322 57.8649 534.181 57.9056 534.039 57.9032H534.048ZM596.818 52.3662C596.68 52.3661 596.544 52.3256 596.428 52.2497C596.313 52.1738 596.221 52.0657 596.166 51.9388C595.701 50.8719 595.216 49.8272 594.761 48.83C594.72 48.7454 594.697 48.6537 594.692 48.5601C594.688 48.4666 594.701 48.3731 594.733 48.2848C594.764 48.1966 594.813 48.1155 594.876 48.046C594.939 47.9766 595.015 47.9203 595.099 47.8802C595.184 47.8401 595.276 47.8171 595.37 47.8126C595.463 47.8081 595.557 47.8221 595.645 47.8539C595.733 47.8857 595.814 47.9345 595.884 47.9977C595.953 48.0609 596.009 48.1372 596.049 48.2221C596.524 49.2289 596.999 50.2894 597.473 51.3689C597.513 51.4553 597.534 51.5486 597.537 51.6434C597.54 51.7382 597.524 51.8326 597.49 51.9211C597.455 52.0095 597.404 52.0903 597.338 52.1585C597.272 52.2268 597.193 52.2813 597.106 52.3187C597.012 52.356 596.91 52.3722 596.809 52.3662H596.818ZM536.907 51.6697C536.797 51.6691 536.689 51.6442 536.59 51.5969C536.423 51.5121 536.296 51.3648 536.237 51.187C536.178 51.0092 536.191 50.8153 536.274 50.6472C536.79 49.5961 537.318 48.5608 537.856 47.5763C537.945 47.4125 538.093 47.2897 538.271 47.2341C538.448 47.1785 538.64 47.1945 538.806 47.2787C538.969 47.3674 539.091 47.5163 539.146 47.6937C539.201 47.8711 539.185 48.063 539.101 48.2285C538.581 49.2035 538.062 50.2229 537.553 51.2613C537.494 51.3854 537.402 51.49 537.285 51.5625C537.169 51.635 537.034 51.6722 536.897 51.6697H536.907ZM593.887 46.1548C593.756 46.1551 593.628 46.1193 593.516 46.0511C593.404 45.9829 593.313 45.8851 593.254 45.7686C592.725 44.7365 592.184 43.7266 591.642 42.7674C591.55 42.6028 591.527 42.4083 591.578 42.2267C591.629 42.0451 591.75 41.8911 591.915 41.7986C592.077 41.7116 592.267 41.6913 592.445 41.7421C592.622 41.793 592.773 41.9109 592.864 42.0709C593.415 43.0459 593.966 44.0717 594.501 45.1196C594.585 45.2876 594.598 45.4819 594.539 45.6599C594.48 45.8379 594.352 45.9851 594.184 46.0693C594.091 46.1226 593.987 46.154 593.881 46.1611L593.887 46.1548ZM540.12 45.6135C539.995 45.6142 539.873 45.5814 539.765 45.5185C539.685 45.4719 539.614 45.4099 539.557 45.336C539.501 45.2621 539.459 45.1778 539.435 45.0879C539.411 44.9979 539.405 44.9041 539.417 44.8118C539.429 44.7194 539.459 44.6304 539.506 44.5497C540.095 43.5303 540.696 42.5331 541.294 41.5897C541.344 41.5109 541.409 41.4426 541.485 41.3888C541.561 41.3351 541.647 41.2968 541.737 41.2762C541.828 41.2557 541.922 41.2532 542.014 41.2689C542.106 41.2847 542.194 41.3184 542.272 41.3681C542.432 41.469 542.545 41.629 542.586 41.8129C542.628 41.9969 542.595 42.1899 542.494 42.3495C541.905 43.2771 541.313 44.249 540.737 45.2589C540.674 45.3679 540.583 45.4581 540.473 45.5204C540.364 45.5827 540.24 45.6148 540.114 45.6135H540.12ZM590.516 40.1777C590.397 40.1792 590.28 40.1511 590.175 40.0958C590.07 40.0405 589.98 39.9598 589.914 39.8611C589.281 38.8765 588.648 37.9268 588.034 37.0372C587.925 36.8834 587.882 36.6928 587.913 36.5071C587.945 36.3214 588.048 36.1557 588.201 36.0463C588.356 35.9379 588.547 35.895 588.732 35.927C588.918 35.9591 589.083 36.0635 589.192 36.2173C589.825 37.1259 590.487 38.0977 591.117 39.1045C591.217 39.2645 591.25 39.4577 591.208 39.6417C591.166 39.8257 591.052 39.9855 590.892 40.0859C590.778 40.1509 590.647 40.1827 590.516 40.1777ZM543.801 39.8295C543.655 39.8287 543.513 39.7834 543.393 39.6997C543.239 39.5912 543.134 39.426 543.101 39.2402C543.068 39.0544 543.111 38.8633 543.219 38.7087C543.906 37.7368 544.602 36.8092 545.296 35.9291C545.413 35.7814 545.585 35.6865 545.772 35.6651C545.96 35.6437 546.148 35.6977 546.296 35.8152C546.444 35.9328 546.538 36.1042 546.56 36.2918C546.581 36.4794 546.527 36.6678 546.41 36.8156C545.732 37.664 545.052 38.579 544.381 39.5287C544.314 39.6236 544.225 39.7006 544.122 39.753C544.019 39.8055 543.904 39.8317 543.789 39.8295H543.801ZM586.536 34.5963C586.432 34.5967 586.328 34.5735 586.233 34.5286C586.138 34.4837 586.055 34.4181 585.989 34.3367C585.248 33.4376 584.495 32.5987 583.744 31.8357C583.678 31.7698 583.626 31.6916 583.59 31.6055C583.555 31.5194 583.536 31.4271 583.536 31.3339C583.536 31.2407 583.555 31.1484 583.59 31.0623C583.626 30.9762 583.678 30.898 583.744 30.8322C583.878 30.6988 584.059 30.6238 584.248 30.6238C584.436 30.6238 584.617 30.6988 584.751 30.8322C585.53 31.6236 586.315 32.4974 587.078 33.4281C587.137 33.5002 587.182 33.5833 587.209 33.6726C587.236 33.762 587.246 33.8557 587.237 33.9487C587.227 34.0417 587.2 34.1319 587.156 34.2143C587.112 34.2966 587.052 34.3694 586.98 34.4285C586.852 34.5366 586.691 34.5961 586.524 34.5963H586.536ZM548.075 34.4729C547.898 34.4737 547.727 34.4069 547.597 34.2861C547.528 34.2234 547.471 34.1476 547.432 34.0631C547.392 33.9785 547.369 33.8869 547.365 33.7936C547.361 33.7002 547.375 33.6069 547.408 33.5192C547.44 33.4315 547.489 33.3511 547.553 33.2825C548.357 32.4024 549.183 31.5698 550.009 30.81C550.078 30.7467 550.158 30.6975 550.245 30.6653C550.333 30.6331 550.426 30.6184 550.519 30.6222C550.613 30.6261 550.704 30.6483 550.789 30.6876C550.873 30.7268 550.949 30.7824 551.013 30.8511C551.076 30.9196 551.125 31 551.157 31.0876C551.189 31.1752 551.204 31.2682 551.2 31.3615C551.196 31.4547 551.174 31.5463 551.135 31.6309C551.096 31.7155 551.04 31.7916 550.971 31.8547C550.177 32.5892 549.389 33.3933 548.6 34.2418C548.532 34.3166 548.449 34.3759 548.356 34.4158C548.264 34.4556 548.163 34.4751 548.062 34.4729H548.075ZM553.124 29.8507C553.013 29.8512 552.904 29.8257 552.805 29.7762C552.706 29.7267 552.62 29.6547 552.554 29.5658C552.442 29.4144 552.393 29.2246 552.42 29.0379C552.447 28.8511 552.546 28.6824 552.697 28.5685C553.635 27.8666 554.615 27.2217 555.631 26.6374C555.795 26.5448 555.989 26.5207 556.17 26.5705C556.352 26.6203 556.506 26.74 556.6 26.9033C556.693 27.0668 556.717 27.2604 556.668 27.4419C556.619 27.6233 556.5 27.778 556.337 27.8721C555.371 28.4266 554.439 29.0398 553.548 29.7083C553.422 29.8027 553.269 29.8528 553.111 29.8507H553.124ZM581.725 29.7494C581.562 29.7481 581.405 29.6924 581.278 29.5911C580.423 28.8931 579.519 28.2583 578.572 27.6916C578.492 27.6442 578.421 27.5816 578.365 27.5071C578.309 27.4326 578.269 27.3478 578.245 27.2575C578.222 27.1673 578.217 27.0733 578.23 26.981C578.243 26.8887 578.274 26.8 578.322 26.7197C578.369 26.6392 578.431 26.5687 578.506 26.5124C578.58 26.456 578.665 26.4149 578.755 26.3913C578.845 26.3678 578.939 26.3624 579.032 26.3753C579.124 26.3881 579.213 26.4191 579.294 26.4665C580.3 27.0644 581.262 27.7352 582.171 28.4736C582.244 28.5317 582.305 28.6038 582.35 28.6855C582.395 28.7672 582.423 28.857 582.433 28.9497C582.443 29.0425 582.434 29.1363 582.408 29.2257C582.381 29.3152 582.338 29.3985 582.279 29.4708C582.212 29.5577 582.126 29.628 582.028 29.6764C581.93 29.7247 581.822 29.7496 581.712 29.7494H581.725ZM559.066 26.4791C558.923 26.4786 558.784 26.4356 558.666 26.3555C558.548 26.2754 558.457 26.1618 558.404 26.0295C558.335 25.854 558.339 25.6584 558.413 25.4853C558.488 25.3122 558.628 25.1756 558.803 25.1051C559.9 24.6701 561.029 24.3208 562.181 24.0604C562.364 24.0198 562.557 24.0536 562.716 24.1544C562.875 24.2553 562.987 24.4149 563.029 24.5986C563.05 24.6894 563.052 24.7835 563.036 24.8753C563.021 24.9671 562.987 25.0549 562.937 25.1336C562.888 25.2124 562.823 25.2807 562.747 25.3345C562.671 25.3882 562.585 25.4265 562.494 25.4471C561.415 25.6908 560.356 26.0189 559.328 26.4284C559.241 26.4622 559.147 26.4795 559.053 26.4791H559.066ZM575.859 26.3429C575.776 26.3418 575.693 26.3268 575.615 26.2987C575.097 26.1069 574.569 25.9441 574.032 25.8111C573.488 25.675 572.947 25.5547 572.424 25.4534C572.332 25.4384 572.243 25.4053 572.164 25.3559C572.084 25.3065 572.015 25.2417 571.961 25.1655C571.906 25.0893 571.867 25.003 571.846 24.9117C571.825 24.8203 571.823 24.7258 571.839 24.6334C571.857 24.5419 571.892 24.4548 571.944 24.3771C571.995 24.2994 572.061 24.2327 572.139 24.1807C572.216 24.1286 572.303 24.0923 572.394 24.0738C572.486 24.0554 572.58 24.0551 572.671 24.0731C573.219 24.1807 573.782 24.3073 574.346 24.4466C574.936 24.5939 575.518 24.7715 576.09 24.9785C576.267 25.0435 576.411 25.1758 576.491 25.3467C576.57 25.5176 576.579 25.7131 576.514 25.8903C576.462 26.0244 576.37 26.1395 576.251 26.2204C576.131 26.3012 575.99 26.3439 575.846 26.3429H575.859ZM569.151 24.9943H569.097C567.991 24.9079 566.881 24.9006 565.774 24.9722C565.68 24.9786 565.587 24.9666 565.498 24.9368C565.41 24.907 565.328 24.86 565.258 24.7985C565.187 24.737 565.13 24.6623 565.089 24.5785C565.047 24.4948 565.023 24.4037 565.017 24.3105C565.01 24.2173 565.023 24.1238 565.052 24.0353C565.082 23.9468 565.129 23.865 565.191 23.7947C565.252 23.7244 565.327 23.667 565.411 23.6256C565.494 23.5843 565.585 23.5599 565.679 23.5539C566.853 23.4775 568.032 23.4849 569.205 23.576C569.393 23.5906 569.567 23.6791 569.69 23.8221C569.813 23.9651 569.874 24.151 569.86 24.339C569.847 24.5198 569.764 24.6885 569.63 24.8103C569.496 24.9322 569.32 24.9981 569.138 24.9943H569.151Z" fill="#FFF6E9"/>
<path d="M810.016 538L0.987655 537.721C0.725713 537.721 0.474498 537.617 0.289277 537.432C0.104056 537.247 0 536.996 0 536.734V536.233C0.00165992 535.972 0.10625 535.722 0.291112 535.537C0.475975 535.352 0.726225 535.247 0.987655 535.246L810.016 535.527C810.276 535.528 810.526 535.632 810.711 535.817C810.895 536.001 810.999 536.251 811 536.512V537.019C810.998 537.279 810.894 537.528 810.71 537.712C810.525 537.896 810.276 537.999 810.016 538Z" fill="#2E3552"/>
<path d="M280.256 237.891C280.256 237.891 289.936 237.223 292.045 244.818C292.045 244.818 299.5 229.622 315.248 230.888C330.997 232.154 333.903 241.402 333.903 241.402C333.903 241.402 342.925 238.302 350.418 242.434C352.546 243.558 354.325 245.244 355.561 247.31C356.797 249.375 357.442 251.74 357.426 254.147C357.426 254.147 364.295 244.504 378.103 247.949C378.103 247.949 375.349 234.019 391.953 230.818C408.556 227.618 415.609 233.139 415.609 233.139C415.609 233.139 434.412 221.03 451.063 236.21C451.063 236.21 463.26 233.842 469.224 241.354C469.224 241.354 481.443 226.589 504.431 229.182V302.189H280.161L280.256 237.891Z" fill="#AADFEC"/>
<path d="M280.253 274.327C280.253 274.327 296.533 270.211 311.066 279.8C311.066 279.8 314.609 275.577 323.836 276.634C333.064 277.692 335.6 286.205 335.6 286.205C335.6 286.205 367.888 275.542 383.862 302.189H280.161L280.253 274.327Z" fill="#EBF3FA"/>
<path d="M403.726 302.176C403.726 302.176 404.549 285.838 421.608 281.915C421.608 281.915 412.776 278.008 417.227 268.302C421.677 258.595 432.497 257.883 432.497 257.883C432.497 257.883 433.627 240.316 464.299 243.349C472.909 244.2 482.026 249.364 483.45 258.355C483.45 258.355 486.774 252.884 493.665 253.252C493.665 253.252 494.517 243.263 504.428 243.349V302.167L403.726 302.176Z" fill="#EBF3FA"/>
<path d="M490.028 161.68L477.157 206.283L476.749 206.232L432.767 200.888C432.767 200.888 453.137 196.653 455.242 194.205C457.236 191.904 478.389 164.57 484.577 161.651C484.869 161.492 485.195 161.407 485.527 161.401L490.028 161.68Z" fill="#739AF0"/>
<path d="M476.749 206.232L432.767 200.888C432.767 200.888 453.137 196.653 455.242 194.205C457.236 191.904 478.389 164.57 484.577 161.651C479.098 169.604 466.401 188.725 466.942 194.281C467.467 199.578 473.659 204.225 476.749 206.232Z" fill="#2B478B"/>
<path d="M481.5 219.649C480 220.162 475.514 221.577 469.357 223.369C451.655 228.517 420.171 236.783 406.277 235.763C393.811 234.848 327.895 229.815 282.301 225.816C293.333 206.438 307.088 195.741 319.677 189.865C372.801 194.218 442.273 200.1 451.111 201.807C465.654 204.618 484.941 206.904 484.941 206.904C484.941 206.904 485.071 207.496 485.198 208.43C485.606 211.481 485.951 218.133 481.5 219.649Z" fill="#E58638"/>
<path d="M485.419 211.668C485.419 211.779 485.419 211.893 485.419 212.004C485.381 214.426 484.891 217.123 483.181 218.674L483.001 218.833C482.881 218.931 482.751 219.026 482.621 219.114L482.415 219.241L482.206 219.358L481.985 219.469C481.909 219.504 481.833 219.538 481.751 219.57C481.668 219.602 481.592 219.63 481.513 219.659L481.437 219.681L481.361 219.706L481.282 219.732L481.197 219.757C481.165 219.764 481.134 219.773 481.105 219.785L481.013 219.814L480.918 219.846L480.817 219.877L480.709 219.912L480.601 219.947L480.367 220.023L480.25 220.061L480.127 220.102L480.032 220.131L478.924 220.485L478.693 220.555C477.629 220.89 476.337 221.289 474.853 221.736L474.387 221.878L473.59 222.119L473.416 222.169L473.166 222.245L472.912 222.318L472.656 222.394L472.4 222.473L472.14 222.549L471.874 222.628L471.608 222.704L471.339 222.783L471.146 222.844C471.12 222.848 471.094 222.856 471.07 222.866L470.795 222.942C470.332 223.078 469.864 223.217 469.383 223.353L468.541 223.6L467.806 223.812L467.246 223.974L464.998 224.607L464.533 224.737L463.726 224.965L462.988 225.174L462.159 225.402C452.96 227.956 441.808 230.818 431.453 232.901L430.367 233.117L429.829 233.224L428.753 233.427C427.683 233.633 426.622 233.826 425.587 234.01L424.549 234.187L424.033 234.275L423.01 234.443L421.997 234.602L421 234.75L420.016 234.893L419.044 235.029L418.094 235.152L417.62 235.209C416.986 235.289 416.372 235.358 415.771 235.421L415.315 235.466L414.425 235.551C413.837 235.605 413.261 235.653 412.7 235.687C412.276 235.719 411.861 235.741 411.456 235.76C411.184 235.76 410.915 235.786 410.649 235.795C410.253 235.811 409.864 235.82 409.487 235.824C408.981 235.824 408.487 235.824 408.015 235.824C407.775 235.824 407.54 235.824 407.312 235.801C407.195 235.801 407.085 235.801 406.971 235.801C406.743 235.801 406.521 235.789 406.306 235.763L406.062 235.744H405.964H405.803L405.169 235.697H404.986L404.752 235.678L404.384 235.653L404.182 235.634H403.979L403.555 235.602L403.112 235.57H402.884L402.305 235.526L402.026 235.504L401.425 235.459L401.162 235.441L400.389 235.384L398.05 235.162L397.733 235.137L397.1 235.092L396.151 235.019L395.749 234.988L394.799 234.915L394.451 234.89L393.789 234.839L393.058 234.782L392.669 234.754L392.305 234.725L391.719 234.681L388.177 234.412L387.639 234.37L386.815 234.307C386.182 234.253 385.521 234.206 384.859 234.155H384.707L382.963 234.022H382.878L371.586 233.145L370.978 233.098L368.528 232.908L366.967 232.784H366.882L365.084 232.645H364.859C363.804 232.561 362.732 232.476 361.643 232.392L360.81 232.325L360.554 232.306L357.705 232.078L356.439 231.98C356.157 231.958 355.878 231.933 355.597 231.914L353.887 231.778C353.033 231.711 352.172 231.645 351.311 231.572H351.08L350.013 231.486H349.937L346.736 231.233H346.648L346.331 231.208L344.432 231.059C343.957 231.021 343.482 230.986 342.998 230.942L342.105 230.872C340.864 230.777 339.617 230.678 338.363 230.575H338.332L332.077 230.071L331.216 230.002H331.156L328.395 229.777L327.544 229.707L325.166 229.514L320.332 229.118L317.278 228.868L315.378 228.71L310.823 228.336L310.605 228.317L307.756 228.08L303.72 227.741L302.115 227.605L301.624 227.564L298.398 227.295L297.923 227.254L295.73 227.067L286.638 226.288C286.281 226.26 285.926 226.225 285.568 226.193L284.919 226.139L284.049 226.063C283.473 226.013 282.9 225.965 282.33 225.911C271.276 224.962 261.415 224.034 253.805 223.262L251.548 223.03C249.741 222.84 248.085 222.663 246.594 222.489C242.377 222.014 239.503 221.615 238.364 221.327C232.203 219.773 221.934 215.689 215.635 211.447C211.836 208.885 209.49 206.267 210.364 204.111C211.472 201.367 213.881 199.708 216.353 198.489C218.5 197.428 220.69 196.7 222.127 195.867L222.368 195.725C222.615 195.573 222.848 195.399 223.064 195.206C223.099 195.174 223.131 195.149 223.169 195.111C224.064 194.278 225.001 193.492 225.977 192.755C227.007 191.984 228.079 191.272 229.19 190.622H229.209C234.717 187.396 243.929 183.973 257.965 184.996C257.965 184.996 285.432 187.168 319.693 189.976L330.12 190.831L333.663 191.122L339.044 191.568L348.079 192.319L349.896 192.467L353.53 192.784L360.81 193.398L364.432 193.715C368.747 194.079 373.036 194.443 377.268 194.807H377.287C389.503 195.855 401.222 196.877 411.611 197.821L413.248 197.97C419.348 198.524 424.96 199.049 429.915 199.527L436.543 200.189C443.951 200.942 449.12 201.55 451.136 201.94C456.372 202.953 462.216 203.899 467.569 204.691C468.012 204.76 468.449 204.824 468.879 204.884H468.946L470.902 205.169H470.959L473.134 205.485L476.094 205.891L477.278 206.052C481.893 206.663 484.964 207.027 484.964 207.027C484.964 207.027 484.983 207.113 485.011 207.265V207.303C485.011 207.344 485.011 207.388 485.036 207.442C485.062 207.496 485.074 207.654 485.093 207.787C485.112 207.92 485.154 208.157 485.182 208.379C485.182 208.436 485.182 208.493 485.204 208.55C485.229 208.733 485.255 208.933 485.277 209.148C485.277 209.294 485.309 209.465 485.324 209.607C485.324 209.693 485.324 209.785 485.347 209.873C485.369 209.962 485.347 210.069 485.369 210.171C485.391 210.272 485.388 210.462 485.397 210.611C485.397 210.671 485.397 210.731 485.397 210.794C485.397 210.858 485.397 211.007 485.397 211.111C485.397 211.168 485.397 211.222 485.397 211.276C485.397 211.383 485.397 211.497 485.397 211.592C485.419 211.554 485.419 211.611 485.419 211.668Z" fill="#D7E2FF"/>
<path d="M485.088 211.906C485.088 212.016 485.088 212.13 485.088 212.241C485.05 214.663 484.56 217.36 482.85 218.912L482.67 219.07C482.549 219.168 482.42 219.263 482.29 219.352L482.084 219.478L481.875 219.595L481.654 219.706C481.578 219.741 481.502 219.776 481.419 219.808C481.337 219.839 481.261 219.868 481.182 219.896L481.106 219.918L481.03 219.944L480.951 219.969L480.865 219.994C480.834 220.001 480.803 220.01 480.774 220.023L480.682 220.051L480.587 220.083L480.486 220.115L480.378 220.149L480.27 220.184L480.036 220.26L479.919 220.298L479.795 220.339L479.7 220.368L478.593 220.722L478.361 220.792C477.298 221.128 476.006 221.527 474.522 221.973L474.056 222.115L473.259 222.356L473.084 222.407L472.834 222.483L472.581 222.555L472.325 222.631L472.068 222.711L471.809 222.787L471.543 222.866L471.277 222.942L471.008 223.021L470.815 223.081C470.789 223.085 470.763 223.093 470.739 223.103L470.463 223.179C470.001 223.315 469.533 223.455 469.052 223.591L468.21 223.838L467.475 224.05L466.915 224.211L464.667 224.844L464.202 224.974L463.395 225.202L462.657 225.411L461.828 225.639C452.629 228.194 441.476 231.056 431.122 233.139L430.036 233.354L429.498 233.462L428.422 233.664C427.352 233.87 426.291 234.063 425.256 234.247L424.218 234.424L423.702 234.513L422.679 234.681L421.666 234.839L420.669 234.988L419.685 235.13L418.713 235.266L417.763 235.39L417.288 235.447C416.655 235.526 416.041 235.596 415.44 235.659L414.984 235.703L414.094 235.789C413.506 235.843 412.929 235.89 412.369 235.925C411.945 235.957 411.53 235.979 411.125 235.998C410.853 235.998 410.584 236.023 410.318 236.032C409.922 236.048 409.533 236.058 409.156 236.061C408.65 236.061 408.156 236.061 407.684 236.061C407.443 236.061 407.209 236.061 406.981 236.039C406.864 236.039 406.753 236.039 406.639 236.039C406.412 236.039 406.19 236.026 405.975 236.001L405.731 235.982H405.633H405.471L404.838 235.934H404.655L404.42 235.915L404.053 235.89L403.851 235.871H403.648L403.224 235.839L402.781 235.808H402.553L401.973 235.763L401.695 235.741L401.093 235.697L400.831 235.678L400.058 235.621L397.719 235.399L397.402 235.374L396.769 235.33L395.82 235.257L395.418 235.225L394.468 235.152L394.12 235.127L393.458 235.076L392.727 235.019L392.337 234.991L391.973 234.962L391.388 234.918L387.846 234.649L387.307 234.608L386.484 234.545C385.851 234.491 385.19 234.443 384.528 234.393H384.376L382.632 234.26H382.546L371.255 233.383L370.647 233.335L368.197 233.145L366.636 233.022H366.551L364.753 232.882H364.528C363.473 232.798 362.401 232.714 361.312 232.629L360.479 232.563L360.223 232.544L357.374 232.316L356.108 232.218C355.826 232.195 355.547 232.17 355.266 232.151L353.556 232.015C352.701 231.949 351.84 231.882 350.979 231.809H350.748L349.682 231.724H349.606L346.405 231.47H346.317L346 231.445C370.058 218.031 376.927 195 376.927 195H376.946C389.162 196.048 400.881 197.07 411.271 198.014L412.907 198.163C419.007 198.717 424.62 199.242 429.574 199.72L436.203 200.382C443.61 201.135 448.779 201.743 450.796 202.133C456.032 203.146 461.875 204.092 467.228 204.884C467.671 204.953 468.108 205.017 468.539 205.077H468.605L470.562 205.362H470.619L472.793 205.678L475.753 206.084L476.937 206.245C481.552 206.856 484.623 207.22 484.623 207.22C484.623 207.22 484.642 207.306 484.67 207.458V207.496C484.67 207.537 484.67 207.581 484.696 207.635C484.721 207.689 484.734 207.847 484.753 207.98C484.772 208.113 484.813 208.35 484.841 208.572C484.841 208.629 484.841 208.686 484.864 208.743C484.889 208.927 484.914 209.126 484.936 209.341C484.936 209.487 484.968 209.658 484.984 209.8C484.984 209.886 484.984 209.978 485.006 210.066C485.028 210.155 485.006 210.263 485.028 210.364C485.05 210.465 485.047 210.655 485.057 210.804C485.057 210.864 485.057 210.924 485.057 210.988C485.057 211.051 485.057 211.2 485.057 211.304C485.057 211.361 485.057 211.415 485.057 211.469C485.057 211.576 485.057 211.69 485.057 211.785C485.088 211.792 485.088 211.849 485.088 211.906Z" fill="#0D9276"/>
<path opacity="0.5" d="M481.5 219.649C480 220.165 475.514 221.577 469.357 223.369C467.303 214.761 460.677 211.171 460.677 211.171L485.198 208.43C485.606 211.481 485.951 218.133 481.5 219.649Z" fill="#0D9276"/>
<path d="M350.395 208.306C349.99 208.245 349.625 208.026 349.38 207.697C349.135 207.368 349.03 206.955 349.088 206.549L349.243 204.82C349.263 204.41 349.441 204.023 349.741 203.742C350.04 203.461 350.437 203.307 350.848 203.314C351.05 203.344 351.244 203.415 351.418 203.521C351.593 203.626 351.745 203.766 351.866 203.93C351.987 204.095 352.074 204.282 352.122 204.48C352.171 204.679 352.18 204.885 352.149 205.086L351.994 206.812C351.971 207.219 351.792 207.601 351.494 207.88C351.197 208.158 350.803 208.311 350.395 208.306Z" fill="#2B478B"/>
<path d="M342.887 207.657C342.481 207.596 342.116 207.377 341.87 207.048C341.625 206.719 341.519 206.306 341.576 205.9L341.734 204.171C341.755 203.762 341.933 203.377 342.232 203.096C342.531 202.816 342.927 202.662 343.336 202.668C344.137 202.734 344.726 203.526 344.647 204.425L344.489 206.15C344.469 206.56 344.291 206.946 343.992 207.227C343.693 207.508 343.297 207.662 342.887 207.657Z" fill="#2B478B"/>
<path d="M335.372 207.008C334.966 206.948 334.6 206.729 334.355 206.4C334.11 206.07 334.005 205.657 334.064 205.251L334.22 203.522C334.24 203.113 334.419 202.727 334.718 202.446C335.018 202.166 335.414 202.012 335.824 202.019C336.231 202.079 336.596 202.298 336.841 202.627C337.086 202.956 337.191 203.369 337.132 203.776L336.977 205.504C336.956 205.914 336.777 206.3 336.478 206.58C336.179 206.861 335.782 207.014 335.372 207.008Z" fill="#2B478B"/>
<path d="M327.867 206.353C327.066 206.286 326.477 205.495 326.556 204.596L326.714 202.87C326.734 202.46 326.912 202.074 327.211 201.793C327.51 201.512 327.906 201.358 328.316 201.363C328.722 201.424 329.087 201.643 329.333 201.972C329.578 202.301 329.684 202.714 329.627 203.12L329.468 204.849C329.448 205.258 329.269 205.644 328.971 205.924C328.672 206.204 328.276 206.358 327.867 206.353Z" fill="#2B478B"/>
<path d="M320.354 205.72C319.948 205.659 319.582 205.439 319.337 205.109C319.092 204.779 318.988 204.366 319.047 203.959L319.202 202.234C319.222 201.824 319.4 201.437 319.7 201.156C319.999 200.875 320.396 200.721 320.807 200.727C321.213 200.788 321.578 201.007 321.823 201.336C322.067 201.665 322.172 202.078 322.114 202.484L321.959 204.213C321.939 204.623 321.761 205.01 321.462 205.291C321.162 205.572 320.765 205.726 320.354 205.72Z" fill="#2B478B"/>
<path d="M312.842 205.064C312.045 204.995 311.456 204.203 311.535 203.304L311.693 201.579C311.713 201.169 311.891 200.783 312.19 200.502C312.489 200.22 312.885 200.066 313.295 200.072C313.701 200.133 314.066 200.352 314.312 200.681C314.557 201.01 314.663 201.422 314.606 201.829L314.447 203.557C314.428 203.968 314.249 204.354 313.95 204.636C313.65 204.917 313.253 205.07 312.842 205.064Z" fill="#2B478B"/>
<path d="M305.334 204.415C304.928 204.354 304.563 204.135 304.318 203.806C304.073 203.477 303.968 203.064 304.026 202.658L304.181 200.93C304.201 200.519 304.38 200.133 304.679 199.851C304.979 199.57 305.376 199.416 305.786 199.423C306.192 199.484 306.557 199.703 306.802 200.032C307.047 200.361 307.152 200.774 307.094 201.18L306.939 202.908C306.919 203.319 306.741 203.705 306.441 203.987C306.142 204.268 305.745 204.421 305.334 204.415Z" fill="#2B478B"/>
<path d="M297.822 203.766C297.416 203.705 297.051 203.486 296.806 203.157C296.561 202.828 296.457 202.415 296.515 202.009L296.673 200.281C296.693 199.871 296.871 199.485 297.169 199.204C297.468 198.922 297.865 198.768 298.275 198.774C298.68 198.835 299.045 199.054 299.29 199.383C299.535 199.712 299.64 200.125 299.582 200.531L299.427 202.259C299.407 202.67 299.229 203.056 298.929 203.338C298.63 203.619 298.233 203.772 297.822 203.766Z" fill="#2B478B"/>
<path d="M290.313 203.117C289.908 203.056 289.542 202.837 289.298 202.508C289.053 202.179 288.948 201.766 289.006 201.36L289.161 199.632C289.181 199.221 289.359 198.835 289.659 198.553C289.958 198.272 290.355 198.118 290.766 198.125C291.172 198.186 291.538 198.405 291.783 198.735C292.028 199.065 292.132 199.478 292.073 199.885L291.915 201.61C291.895 202.02 291.717 202.406 291.419 202.687C291.12 202.968 290.723 203.123 290.313 203.117Z" fill="#2B478B"/>
<path d="M282.953 202.481C282.547 202.42 282.182 202.201 281.936 201.872C281.691 201.543 281.585 201.13 281.643 200.724L281.801 198.995C281.883 198.099 282.605 197.412 283.403 197.492C283.809 197.553 284.174 197.771 284.419 198.101C284.665 198.43 284.77 198.842 284.713 199.249L284.555 200.977C284.534 201.386 284.356 201.772 284.057 202.052C283.759 202.333 283.363 202.486 282.953 202.481Z" fill="#2B478B"/>
<path d="M275.442 201.832C275.036 201.772 274.67 201.553 274.425 201.224C274.18 200.894 274.075 200.481 274.134 200.075L274.289 198.346C274.31 197.936 274.489 197.551 274.788 197.27C275.087 196.99 275.484 196.836 275.894 196.843C276.3 196.903 276.666 197.122 276.911 197.451C277.156 197.78 277.261 198.193 277.202 198.6L277.047 200.328C277.026 200.738 276.847 201.124 276.548 201.404C276.248 201.685 275.852 201.838 275.442 201.832Z" fill="#2B478B"/>
<path d="M267.946 201.183C267.145 201.116 266.556 200.325 266.635 199.426L266.793 197.701C266.813 197.291 266.991 196.904 267.29 196.623C267.589 196.342 267.985 196.188 268.395 196.194C268.801 196.255 269.166 196.473 269.412 196.802C269.657 197.132 269.763 197.544 269.706 197.951L269.547 199.679C269.527 200.088 269.349 200.474 269.05 200.754C268.751 201.035 268.355 201.188 267.946 201.183Z" fill="#2B478B"/>
<path d="M258.626 200.293C258.221 200.231 257.856 200.012 257.611 199.683C257.366 199.354 257.261 198.942 257.318 198.536L257.477 196.808C257.496 196.398 257.674 196.012 257.973 195.731C258.272 195.449 258.668 195.295 259.079 195.301C259.485 195.363 259.85 195.582 260.095 195.912C260.341 196.241 260.446 196.654 260.389 197.061L260.231 198.786C260.211 199.197 260.033 199.583 259.733 199.865C259.434 200.146 259.037 200.299 258.626 200.293Z" fill="#2B478B"/>
<path d="M432.342 216.259C431.936 216.198 431.571 215.979 431.326 215.65C431.08 215.321 430.975 214.908 431.032 214.502L431.19 212.773C431.21 212.363 431.388 211.977 431.687 211.696C431.985 211.415 432.382 211.261 432.792 211.266C433.198 211.328 433.563 211.547 433.809 211.877C434.054 212.206 434.16 212.619 434.102 213.026L433.944 214.752C433.862 215.651 433.14 216.328 432.342 216.259Z" fill="#2B478B"/>
<path d="M424.83 215.61C424.425 215.549 424.06 215.33 423.815 215.001C423.57 214.671 423.465 214.259 423.523 213.853L423.678 212.124C423.699 211.714 423.877 211.328 424.177 211.048C424.476 210.767 424.873 210.614 425.283 210.62C425.689 210.681 426.055 210.899 426.3 211.229C426.545 211.558 426.649 211.971 426.59 212.377L426.435 214.103C426.416 214.513 426.237 214.9 425.938 215.181C425.638 215.462 425.241 215.616 424.83 215.61Z" fill="#2B478B"/>
<path d="M417.322 214.961C416.915 214.9 416.55 214.682 416.304 214.352C416.058 214.023 415.953 213.61 416.011 213.204L416.169 211.475C416.19 211.066 416.368 210.68 416.667 210.4C416.966 210.12 417.362 209.966 417.771 209.971C418.177 210.032 418.543 210.25 418.788 210.58C419.033 210.909 419.138 211.322 419.079 211.728L418.923 213.457C418.841 214.353 418.119 215.03 417.322 214.961Z" fill="#2B478B"/>
<path d="M230.516 190.612L225.394 195.443L222.339 195.643C222.587 195.491 222.82 195.317 223.036 195.124C223.072 195.094 223.107 195.062 223.14 195.029C224.035 194.195 224.972 193.409 225.948 192.673C226.978 191.902 228.051 191.189 229.161 190.539H229.18L230.516 190.612Z" fill="#2B478B"/>
<path d="M231.63 190.789L226.632 195.668L232.308 196.871L234.099 191.306L231.63 190.789Z" fill="#2B478B"/>
<path d="M234.635 191.476L233.314 196.706L237.521 195.51L237.791 191.866L234.635 191.476Z" fill="#2B478B"/>
<path d="M337.059 231.559C339.275 230.698 339.845 226.858 338.009 225.208C336.173 223.559 333.688 221.91 330.877 221.707C325.103 221.286 327.448 233.047 329.364 233.288C330.5 233.433 334.125 232.708 337.059 231.559Z" fill="#2B478B"/>
<path d="M460.184 208.847C460.415 208.531 481.912 201.449 495.954 204.532L482.425 213.052L460.671 211.181C460.671 211.181 459.025 210.415 460.184 208.847Z" fill="#355DAF"/>
<path d="M449.807 159.242C449.807 159.242 435.419 191.043 432.678 195.867C429.936 200.692 423.953 203.782 423.953 203.782H423.919L385.796 219.273C385.796 219.273 338.246 215.521 327.898 214.381C326.948 214.277 326.315 214.195 326.065 214.141C322.922 213.47 321.45 212.01 322.054 210.864C322.659 209.718 395.764 200.949 403.859 200.046L404.09 200.021C411.969 199.093 412.7 196.412 412.7 196.412L442.865 161.838C443.296 161.189 443.902 160.676 444.612 160.356C446.777 159.28 449.807 159.242 449.807 159.242Z" fill="#D7E2FF"/>
<path d="M444.609 160.359C436.492 170.211 414.039 197.4 411.909 199.233C409.617 201.224 344.014 211.766 327.898 214.388C326.948 214.283 326.315 214.201 326.065 214.147C322.922 213.476 321.45 212.016 322.054 210.87C322.659 209.724 395.764 200.955 403.859 200.053C411.953 199.15 412.7 196.418 412.7 196.418L442.865 161.844C443.295 161.195 443.899 160.68 444.609 160.359Z" fill="#739AF0"/>
<path d="M449.807 159.242C449.807 159.242 435.419 191.043 432.678 195.867C429.936 200.692 423.953 203.782 423.953 203.782H423.919C417.149 203.595 410.454 202.324 404.086 200.018C411.965 199.09 412.697 196.409 412.697 196.409L442.861 161.835C443.293 161.186 443.898 160.673 444.609 160.353C446.777 159.28 449.807 159.242 449.807 159.242Z" fill="#D7E2FF"/>
<path d="M332.206 218.927L330.76 234.969C330.76 234.969 324.631 237.185 315.049 236.662C309.18 236.346 305.274 235.08 303.124 234.13C302.421 233.836 301.746 233.478 301.108 233.06L302.624 216.246C303.276 215.741 304.034 215.39 304.84 215.217C312.415 213.276 331.041 218.297 331.041 218.297L332.206 218.927Z" fill="#E9F0FF"/>
<path d="M304.818 215.217L303.112 234.13C302.408 233.836 301.733 233.478 301.095 233.06L302.612 216.246C303.261 215.743 304.015 215.391 304.818 215.217Z" fill="#0D9276"/>
<path d="M210.677 507.545L323.314 477.469C325.698 476.836 327.284 474.936 326.834 473.24L263.678 235.795C263.229 234.105 260.911 233.243 258.525 233.896L145.891 263.971C143.504 264.604 141.921 266.504 142.371 268.204L205.527 505.642C205.976 507.32 208.294 508.181 210.677 507.545Z" fill="#FFE3CA"/>
<path d="M210.677 507.545L219.94 505.072L155.15 261.476L145.891 263.949C143.504 264.582 141.921 266.482 142.371 268.182L205.527 505.62C205.976 507.32 208.294 508.181 210.677 507.545Z" fill="#F2BE8F"/>
<path opacity="0.5" d="M243.667 341.244L224.704 269.966L210.246 273.813L229.21 345.091L243.667 341.244Z" fill="#EABC92"/>
<path opacity="0.5" d="M283.755 362.862L256.762 261.406L242.304 265.253L269.297 366.709L283.755 362.862Z" fill="#EABC92"/>
<path d="M252.129 316.965L238.633 266.237L235.412 267.095L248.908 317.822L252.129 316.965Z" fill="#F2BE8F"/>
<path d="M220.279 325.468L206.782 274.741L203.561 275.598L217.057 326.326L220.279 325.468Z" fill="#F2BE8F"/>
<path d="M143.529 330.419H291.899C294.592 330.419 297.175 331.489 299.08 333.394C300.984 335.298 302.054 337.881 302.054 340.575V524.96C302.054 527.725 300.956 530.376 299.001 532.332C297.046 534.287 294.395 535.385 291.63 535.385H143.529V330.419Z" fill="#40A2E3"/>
<path d="M166.755 356.347V362.767H163.754V345.488H170.364C171.273 345.473 172.177 345.612 173.039 345.9C173.768 346.144 174.44 346.532 175.014 347.043C175.547 347.527 175.966 348.122 176.243 348.787C176.528 349.484 176.671 350.231 176.664 350.984C176.677 351.756 176.533 352.523 176.243 353.238C175.972 353.89 175.551 354.468 175.014 354.926C174.434 355.407 173.762 355.766 173.039 355.98C172.171 356.238 171.269 356.362 170.364 356.347H166.755ZM166.755 353.938H170.364C170.868 353.949 171.371 353.878 171.852 353.726C172.234 353.602 172.584 353.396 172.878 353.121C173.144 352.862 173.346 352.543 173.466 352.19C173.592 351.809 173.655 351.408 173.65 351.006C173.652 350.612 173.59 350.219 173.466 349.845C173.344 349.475 173.143 349.137 172.878 348.854C172.59 348.552 172.24 348.318 171.852 348.167C171.377 347.985 170.872 347.898 170.364 347.91H166.755V353.938Z" fill="white"/>
<path d="M186.847 358.747H180.152L178.753 362.767H175.631L182.159 345.488H184.853L191.389 362.767H188.259L186.847 358.747ZM180.997 356.325H186.002L183.501 349.158L180.997 356.325Z" fill="white"/>
<path d="M202.38 358.313C202.386 357.99 202.334 357.668 202.225 357.363C202.104 357.069 201.911 356.809 201.662 356.61C201.318 356.34 200.939 356.119 200.535 355.951C199.932 355.699 199.316 355.479 198.689 355.293C197.911 355.065 197.15 354.784 196.41 354.451C195.764 354.165 195.159 353.794 194.612 353.346C194.125 352.948 193.724 352.456 193.431 351.899C193.138 351.319 192.992 350.675 193.004 350.025C192.997 349.358 193.15 348.699 193.45 348.103C193.756 347.51 194.189 346.992 194.717 346.584C195.295 346.136 195.951 345.798 196.651 345.586C197.459 345.34 198.3 345.22 199.145 345.229C200.037 345.216 200.924 345.36 201.766 345.653C202.489 345.901 203.156 346.29 203.729 346.796C204.252 347.271 204.668 347.851 204.951 348.499C205.237 349.139 205.383 349.833 205.378 350.535H202.39C202.394 350.14 202.327 349.747 202.194 349.376C202.066 349.03 201.861 348.717 201.595 348.461C201.302 348.19 200.953 347.986 200.573 347.863C200.102 347.712 199.608 347.64 199.114 347.651C198.648 347.641 198.184 347.701 197.737 347.828C197.391 347.93 197.068 348.099 196.787 348.325C196.537 348.527 196.341 348.788 196.217 349.085C196.093 349.386 196.031 349.709 196.034 350.034C196.036 350.356 196.121 350.672 196.279 350.952C196.438 351.233 196.665 351.468 196.939 351.636C197.796 352.174 198.731 352.575 199.712 352.824C200.581 353.069 201.428 353.386 202.244 353.773C202.891 354.077 203.49 354.475 204.02 354.954C204.472 355.368 204.829 355.875 205.068 356.439C205.306 357.028 205.423 357.659 205.413 358.294C205.423 358.974 205.275 359.647 204.979 360.26C204.688 360.843 204.266 361.35 203.745 361.742C203.165 362.179 202.506 362.502 201.804 362.691C200.979 362.915 200.127 363.021 199.272 363.008C198.442 363.009 197.615 362.896 196.815 362.673C196.038 362.459 195.303 362.113 194.644 361.65C194.01 361.201 193.482 360.62 193.096 359.947C192.691 359.214 192.489 358.387 192.51 357.55H195.511C195.49 358.029 195.579 358.507 195.771 358.946C195.956 359.322 196.229 359.647 196.565 359.896C196.923 360.156 197.329 360.341 197.759 360.441C198.243 360.56 198.741 360.619 199.24 360.615C200.285 360.615 201.07 360.404 201.595 359.982C201.848 359.785 202.051 359.531 202.187 359.241C202.323 358.951 202.39 358.633 202.38 358.313Z" fill="white"/>
<path d="M217.046 358.313C217.054 357.99 217.001 357.668 216.891 357.363C216.771 357.068 216.577 356.808 216.328 356.61C215.984 356.34 215.605 356.119 215.201 355.951C214.598 355.698 213.982 355.478 213.355 355.293C212.577 355.065 211.815 354.784 211.076 354.451C210.43 354.166 209.826 353.794 209.281 353.346C208.793 352.949 208.392 352.457 208.1 351.899C207.807 351.319 207.661 350.675 207.673 350.025C207.665 349.358 207.817 348.699 208.116 348.103C208.422 347.51 208.855 346.992 209.382 346.584C209.96 346.135 210.616 345.797 211.317 345.586C212.124 345.34 212.964 345.22 213.808 345.229C214.7 345.216 215.587 345.36 216.429 345.653C217.152 345.902 217.82 346.29 218.395 346.796C218.916 347.265 219.334 347.838 219.623 348.477C219.909 349.117 220.055 349.811 220.05 350.513H217.059C217.063 350.118 216.996 349.725 216.863 349.354C216.736 349.007 216.531 348.694 216.264 348.439C215.971 348.169 215.624 347.965 215.245 347.841C214.773 347.69 214.278 347.618 213.783 347.628C213.318 347.619 212.855 347.678 212.409 347.806C212.056 347.905 211.726 348.074 211.44 348.303C211.192 348.507 210.997 348.767 210.87 349.063C210.746 349.364 210.684 349.687 210.687 350.012C210.69 350.334 210.775 350.651 210.934 350.931C211.093 351.211 211.32 351.446 211.595 351.614C212.451 352.152 213.385 352.553 214.365 352.801C215.235 353.046 216.082 353.364 216.897 353.751C217.544 354.055 218.143 354.453 218.673 354.932C219.126 355.346 219.484 355.852 219.724 356.417C219.96 357.006 220.076 357.637 220.066 358.272C220.077 358.952 219.93 359.625 219.636 360.238C219.343 360.82 218.92 361.326 218.401 361.72C217.82 362.156 217.162 362.478 216.461 362.669C215.635 362.892 214.783 362.999 213.928 362.986C213.098 362.987 212.271 362.874 211.472 362.65C210.694 362.438 209.959 362.092 209.3 361.628C208.665 361.18 208.136 360.599 207.749 359.925C207.346 359.191 207.144 358.365 207.163 357.528H210.164C210.152 358.013 210.251 358.494 210.456 358.934C210.641 359.309 210.913 359.635 211.25 359.883C211.608 360.143 212.013 360.328 212.444 360.428C212.929 360.548 213.428 360.606 213.928 360.602C214.97 360.602 215.758 360.39 216.283 359.969C216.53 359.771 216.727 359.518 216.859 359.231C216.992 358.943 217.056 358.629 217.046 358.313Z" fill="white"/>
<path d="M225.685 356.347V362.767H222.678V345.488H229.294C230.202 345.473 231.107 345.612 231.969 345.9C232.697 346.144 233.369 346.532 233.944 347.043C234.477 347.527 234.896 348.122 235.172 348.787C235.458 349.484 235.601 350.231 235.593 350.984C235.606 351.756 235.463 352.523 235.172 353.238C234.901 353.89 234.48 354.468 233.944 354.926C233.364 355.407 232.692 355.766 231.969 355.98C231.101 356.238 230.199 356.362 229.294 356.347H225.685ZM225.685 353.938H229.294C229.798 353.949 230.301 353.878 230.782 353.726C231.164 353.602 231.514 353.396 231.807 353.121C232.074 352.862 232.276 352.543 232.396 352.19C232.522 351.809 232.584 351.408 232.58 351.006C232.581 350.612 232.519 350.219 232.396 349.845C232.274 349.475 232.073 349.137 231.807 348.854C231.52 348.552 231.17 348.318 230.782 348.167C230.307 347.985 229.802 347.898 229.294 347.91H225.685V353.938Z" fill="white"/>
<path d="M252.007 354.581C252.024 355.777 251.849 356.969 251.491 358.111C251.186 359.08 250.691 359.98 250.035 360.757C249.418 361.475 248.647 362.045 247.781 362.426C246.859 362.821 245.865 363.018 244.862 363.005C243.863 363.017 242.872 362.82 241.953 362.426C241.083 362.043 240.309 361.473 239.683 360.757C239.016 359.983 238.511 359.083 238.199 358.111C237.831 356.971 237.653 355.778 237.67 354.581V353.701C237.654 352.501 237.832 351.307 238.199 350.164C238.511 349.191 239.011 348.289 239.671 347.508C240.289 346.787 241.062 346.215 241.931 345.833C242.848 345.438 243.838 345.239 244.837 345.251C245.842 345.239 246.838 345.437 247.762 345.833C248.634 346.214 249.409 346.786 250.028 347.508C250.688 348.288 251.185 349.191 251.491 350.164C251.849 351.308 252.023 352.502 252.007 353.701V354.581ZM249.003 353.678C249.015 352.818 248.922 351.958 248.724 351.12C248.572 350.455 248.296 349.825 247.911 349.262C247.575 348.781 247.124 348.392 246.6 348.129C246.05 347.866 245.446 347.735 244.837 347.746C244.238 347.736 243.645 347.867 243.105 348.129C242.584 348.395 242.134 348.784 241.795 349.262C241.406 349.825 241.124 350.455 240.962 351.12C240.758 351.957 240.662 352.817 240.674 353.678V354.581C240.662 355.444 240.759 356.306 240.962 357.145C241.124 357.814 241.409 358.447 241.801 359.013C242.141 359.496 242.596 359.888 243.124 360.153C243.666 360.415 244.261 360.547 244.862 360.539C245.46 360.567 246.056 360.442 246.592 360.176C247.129 359.91 247.589 359.512 247.93 359.019C248.645 358.006 249.003 356.529 249.003 354.587V353.678Z" fill="white"/>
<path d="M261.345 356.097H257.999V362.745H254.995V345.466H261.073C261.967 345.454 262.858 345.568 263.719 345.805C264.435 346 265.103 346.339 265.682 346.802C266.215 347.239 266.632 347.8 266.898 348.436C267.191 349.159 267.333 349.935 267.312 350.715C267.349 351.746 267.056 352.762 266.477 353.615C265.885 354.423 265.076 355.047 264.144 355.413L268.025 362.619V362.771H264.808L261.345 356.097ZM257.999 353.688H261.082C261.562 353.698 262.039 353.626 262.494 353.476C262.869 353.352 263.213 353.15 263.504 352.884C263.772 352.633 263.979 352.324 264.109 351.981C264.248 351.613 264.317 351.223 264.311 350.829C264.317 350.42 264.253 350.013 264.121 349.626C264.002 349.276 263.803 348.958 263.539 348.698C263.255 348.427 262.913 348.225 262.539 348.106C262.065 347.958 261.57 347.887 261.073 347.898H257.999V353.688Z" fill="white"/>
<path d="M282.051 347.91H276.67V362.767H273.691V347.91H268.348V345.488H282.051V347.91Z" fill="white"/>
<path d="M234.815 513.389H210.991C210.622 513.389 210.269 513.242 210.008 512.982C209.747 512.721 209.601 512.368 209.601 511.999C209.602 511.631 209.749 511.278 210.009 511.017C210.269 510.757 210.622 510.61 210.991 510.609H234.815C235.183 510.61 235.536 510.757 235.796 511.017C236.057 511.278 236.204 511.631 236.204 511.999C236.204 512.368 236.058 512.721 235.797 512.982C235.537 513.242 235.183 513.389 234.815 513.389Z" fill="white"/>
<path d="M251.801 520.012H194.017C193.835 520.012 193.654 519.976 193.485 519.907C193.316 519.837 193.163 519.735 193.034 519.606C192.904 519.476 192.802 519.323 192.732 519.154C192.663 518.985 192.627 518.805 192.627 518.622C192.627 518.44 192.663 518.259 192.733 518.09C192.803 517.922 192.906 517.769 193.035 517.64C193.164 517.511 193.317 517.409 193.486 517.34C193.654 517.27 193.835 517.235 194.017 517.235H251.801C251.984 517.235 252.164 517.27 252.333 517.34C252.501 517.409 252.655 517.511 252.784 517.64C252.913 517.769 253.015 517.922 253.085 518.09C253.155 518.259 253.191 518.44 253.191 518.622C253.191 518.805 253.156 518.985 253.086 519.154C253.016 519.323 252.914 519.476 252.785 519.606C252.656 519.735 252.502 519.837 252.334 519.907C252.165 519.976 251.984 520.012 251.801 520.012Z" fill="white"/>
<path d="M222.903 493.143C215.479 493.163 208.124 491.71 201.265 488.869C194.406 486.027 188.179 481.854 182.944 476.589C177.68 471.353 173.507 465.125 170.667 458.266C167.826 451.406 166.374 444.051 166.394 436.627C166.374 429.203 167.827 421.848 170.667 414.989C173.508 408.13 177.681 401.903 182.944 396.667C188.179 391.403 194.406 387.229 201.265 384.387C208.124 381.546 215.479 380.093 222.903 380.113C230.327 380.093 237.681 381.546 244.54 384.387C251.399 387.229 257.626 391.403 262.861 396.667C268.124 401.903 272.297 408.13 275.138 414.989C277.978 421.848 279.431 429.203 279.411 436.627C279.431 444.051 277.979 451.406 275.139 458.266C272.298 465.125 268.125 471.353 262.861 476.589C257.626 481.854 251.399 486.027 244.54 488.869C237.681 491.71 230.327 493.163 222.903 493.143ZM222.903 380.737C215.56 380.716 208.287 382.153 201.503 384.963C194.72 387.773 188.561 391.901 183.384 397.107C178.178 402.285 174.051 408.444 171.242 415.227C168.432 422.011 166.995 429.284 167.015 436.627C166.995 443.969 168.431 451.243 171.241 458.027C174.051 464.811 178.178 470.971 183.384 476.149C188.561 481.356 194.72 485.483 201.503 488.293C208.287 491.103 215.56 492.54 222.903 492.519C230.245 492.54 237.518 491.103 244.302 488.293C251.085 485.483 257.244 481.356 262.421 476.149C267.627 470.971 271.754 464.811 274.564 458.027C277.374 451.243 278.81 443.969 278.791 436.627C278.81 429.284 277.373 422.011 274.564 415.227C271.754 408.444 267.627 402.285 262.421 397.107C257.244 391.901 251.085 387.773 244.302 384.963C237.518 382.153 230.245 380.716 222.903 380.737Z" fill="white"/>
<path d="M268.211 436.63C268.213 439.367 267.968 442.098 267.48 444.791C266.344 451.024 263.907 456.947 260.329 462.175C256.173 468.27 250.591 473.257 244.068 476.703C237.545 480.148 230.279 481.947 222.903 481.942C214.126 481.944 205.538 479.396 198.181 474.609C190.825 469.822 185.017 463.001 181.462 454.976C180.524 452.867 179.752 450.687 179.155 448.457C178.114 444.601 177.588 440.624 177.591 436.63C177.589 433.388 177.934 430.155 178.62 426.987C178.62 426.952 178.62 426.917 178.642 426.879C180.498 418.444 184.73 410.718 190.839 404.614C192.541 402.907 194.376 401.34 196.328 399.925C197.258 399.247 198.227 398.605 199.202 398.003C206.328 393.617 214.535 391.301 222.903 391.314C224.055 391.314 225.197 391.357 226.328 391.444C227.907 391.559 229.48 391.759 231.038 392.042C237.409 393.198 243.455 395.714 248.765 399.418C252.01 401.683 254.946 404.361 257.499 407.384C258.842 408.971 260.074 410.648 261.187 412.405C261.879 413.5 262.527 414.626 263.131 415.783C264.588 418.591 265.745 421.545 266.584 424.596C267.662 428.517 268.209 432.564 268.211 436.63Z" fill="#0D9276"/>
<path d="M207.509 416.346C205.701 419.195 208.265 424.182 202.84 422.827C197.414 421.472 194.099 420.867 193.799 423.878C193.498 426.888 197.866 426.895 197.866 430.057C197.866 433.22 195.907 434.268 192.897 432.767C189.886 431.267 189.016 429.079 185.511 430.434C182.007 431.789 179.975 430.887 179.18 428.174C179.06 427.749 178.87 427.348 178.617 426.987C178.617 426.952 178.617 426.917 178.639 426.879C180.495 418.444 184.727 410.718 190.836 404.614C192.538 402.907 194.374 401.34 196.325 399.925C197.256 399.248 198.224 398.605 199.199 398.003C200.085 398.035 200.952 398.264 201.738 398.674C202.524 399.083 203.209 399.663 203.742 400.371C206.907 404.291 209.012 402.331 208.262 406.852C207.512 411.373 208.715 411.977 211.282 411.816C213.849 411.654 216.86 411.664 217.161 413.624C217.461 415.583 209.316 413.481 207.509 416.346Z" fill="white"/>
<path d="M226.268 443.474C226.268 443.474 222.276 444.741 221.222 441.967C220.168 439.194 221.371 438.577 217.832 437.75C214.293 436.924 213.989 434.509 211.729 434.809C209.468 435.11 210.598 436.016 207.962 437.975C205.325 439.935 202.916 439.029 202.988 442.648C203.061 446.267 206.983 446.827 207.775 449.201C208.566 451.576 207.208 452.592 208.905 454.4C210.602 456.207 213.764 455.419 212.295 457.904C210.826 460.389 208.563 462.311 209.693 466.154C210.823 469.998 210.035 470.222 211.953 472.936C213.872 475.649 217.604 476.551 218.17 474.743C218.737 472.936 215.572 470.561 216.588 468.754C217.604 466.946 219.301 468.187 219.978 465.477C220.655 462.767 223.406 462.757 223.628 460.886C223.849 459.015 220.314 456.138 221.672 454.935C223.03 453.732 225.739 457.119 227.848 454.105C229.956 451.091 228.525 448.682 230.697 445.817C232.868 442.952 227.775 441.812 226.268 443.474Z" fill="white"/>
<path d="M268.212 436.63C268.213 439.367 267.968 442.098 267.48 444.791C266.344 451.024 263.907 456.947 260.329 462.175C259.149 462.583 257.862 462.549 256.705 462.08C251.054 459.82 255.236 453.716 257.496 450.664C259.756 447.612 253.995 448.97 249.813 446.143C245.632 443.316 250.266 435.746 245.97 436.987C241.675 438.228 236.474 439.815 233.992 435.632C231.51 431.45 236.252 430.773 234.106 427.268C231.96 423.764 235.347 421.731 239.642 421.393C243.938 421.054 243.371 418.002 248.683 417.549C253.995 417.096 253.881 423.881 259.763 423.428C265.644 422.975 265.375 424.33 265.375 424.33C265.799 424.32 266.22 424.409 266.603 424.59C267.676 428.513 268.216 432.563 268.212 436.63Z" fill="white"/>
<path d="M263.143 415.776C258.256 418.148 256.293 411.689 252.118 413.633C247.942 415.577 248.635 411.825 245.331 409.413C242.026 407.001 235.384 411.373 235.685 407.605C235.986 403.838 240.959 404.892 242.016 401.878C243.074 398.864 247.895 399.618 247.895 399.618C248.176 399.511 248.472 399.444 248.772 399.418C252.014 401.684 254.948 404.361 257.499 407.384C258.842 408.971 260.074 410.648 261.187 412.405C261.894 413.49 262.546 414.613 263.143 415.776Z" fill="white"/>
<path d="M221.975 402.784C221.975 402.784 224.536 399.086 220.468 397.997C216.401 396.908 216.473 398.333 213.311 397.997C210.149 397.661 208.905 400.102 211.282 402.784C213.659 405.465 215.578 410.591 217.724 407.849C219.87 405.107 219.449 403.047 221.975 402.784Z" fill="white"/>
</g>
<path d="M273.506 140.21C279.714 142.963 286.978 140.214 289.698 134.081C292.418 127.949 289.58 120.72 283.372 117.967C277.164 115.214 269.9 117.963 267.181 124.094C264.46 130.228 267.297 137.456 273.506 140.21ZM280.778 123.815C283.722 125.12 285.068 128.549 283.779 131.456C282.489 134.364 279.044 135.668 276.1 134.362C273.156 133.057 271.81 129.628 273.1 126.719C274.389 123.813 277.832 122.508 280.778 123.815Z" fill="#40A2E3"/>
<path d="M378.801 186.912C385.008 189.665 392.273 186.915 394.993 180.783C397.713 174.65 394.874 167.422 388.666 164.668C382.459 161.915 375.194 164.665 372.475 170.795C369.754 176.93 372.591 184.158 378.801 186.912ZM386.073 170.516C389.017 171.822 390.362 175.251 389.073 178.157C387.783 181.066 384.338 182.37 381.394 181.064C378.45 179.758 377.105 176.329 378.395 173.421C379.684 170.515 383.129 169.211 386.073 170.516Z" fill="#40A2E3"/>
<path d="M277.573 131.029C277.835 131.145 278.121 131.209 278.396 131.223C278.678 131.225 278.951 131.176 279.215 131.076C279.756 130.882 280.184 130.482 280.413 129.965C280.471 129.835 280.501 129.694 280.527 129.565C280.573 129.429 280.583 129.294 280.583 129.156C280.582 129.016 280.567 128.872 280.549 128.738C280.53 128.606 280.485 128.462 280.433 128.329C280.187 127.679 279.597 127.168 278.898 127.014C278.767 126.989 278.619 126.967 278.485 126.955C278.343 126.955 278.196 126.966 278.063 126.984C277.924 127.016 277.786 127.046 277.653 127.096C277.519 127.147 277.396 127.216 277.285 127.29C277.161 127.358 277.056 127.452 276.952 127.546C276.847 127.639 276.759 127.738 276.673 127.856C276.596 127.962 276.525 128.084 276.467 128.215C276.238 128.731 276.228 129.317 276.436 129.843C276.655 130.372 277.048 130.796 277.573 131.029Z" fill="#40A2E3"/>
<path d="M382.871 177.749C383.398 177.982 383.976 177.989 384.52 177.794C384.784 177.694 385.028 177.539 385.223 177.343C385.432 177.156 385.595 176.932 385.71 176.672C385.941 176.152 385.948 175.565 385.743 175.038C385.329 173.984 384.013 173.401 382.955 173.801C382.424 174.002 381.996 174.403 381.765 174.923C381.65 175.182 381.594 175.453 381.581 175.728C381.582 176.008 381.629 176.295 381.732 176.558C381.938 177.085 382.344 177.515 382.871 177.749Z" fill="#40A2E3"/>
<path d="M286.044 73.0192L437.303 140.108C441.85 142.125 443.929 147.419 441.936 151.912L425.822 188.242C424.857 190.42 423.09 192.086 420.847 192.932C418.607 193.778 416.163 193.707 413.959 192.729C413.957 192.728 413.955 192.728 413.953 192.727L397.342 185.336C397.954 184.471 398.493 183.539 398.938 182.535C402.612 174.253 398.779 164.491 390.395 160.772C382.011 157.053 372.201 160.765 368.528 169.047C368.084 170.047 367.756 171.07 367.525 172.101L292.053 138.627C292.662 137.764 293.2 136.833 293.644 135.833C297.317 127.551 293.484 117.789 285.1 114.07C276.716 110.351 266.907 114.063 263.233 122.345C262.787 123.351 262.457 124.378 262.226 125.414L252.062 120.929C247.959 119.109 246.083 114.332 247.881 110.278L254.459 95.4478C259.887 83.2083 272.778 67.1354 286.044 73.0192ZM390.275 149.675L416.7 161.396C417.664 161.824 418.791 161.397 419.214 160.444L427.131 142.595L398.958 130.099L390.275 149.675ZM356.182 134.554L384.355 147.05L393.038 127.473L364.865 114.978L356.182 134.554ZM322.09 119.433L350.263 131.929L358.946 112.352L330.773 99.8564L322.09 119.433ZM287.995 104.311L316.17 116.807L324.853 97.2308L296.68 84.7351L287.995 104.311ZM258.212 102.956L264.1 105.563C266.583 102.638 270.343 101.161 274.203 101.604L281.729 102.467L290.759 82.1087L283.45 78.8671C275.155 75.1878 264.779 88.1515 260.379 98.0714L258.212 102.956Z" fill="#0D9276"/>
<defs>
<clipPath id="clip0_0_1">
<rect width="811" height="538" fill="white"/>
</clipPath>
</defs>
</svg>
