<svg width="196" height="60" viewBox="0 0 196 60" fill="none" xmlns="http://www.w3.org/2000/svg">
<path d="M62.1022 11.1036H53.7703V5.76143C53.7703 3.06584 51.5648 0.860352 48.8693 0.860352H42.0077C39.3122 0.860352 37.1067 3.06584 37.1067 5.76143V11.1036H28.1377C24.3639 11.1036 21.3252 14.1423 21.3252 17.9161V44.2349C21.3252 45.3621 22.3544 45.9503 23.4817 45.9503C28.9219 45.8032 35.1462 42.1764 37.4497 40.6571L37.5968 40.4611L27.4515 39.4318C26.9124 39.3828 26.7654 38.6477 27.2555 38.4026C30.8823 36.5402 37.5478 35.56 40.3414 35.2659C41.1746 35.1679 41.9587 34.7758 42.5469 34.1877L49.1633 27.3752C49.5554 26.9831 49.2613 26.2479 48.6732 26.2969L42.3018 26.444C41.7627 26.444 41.5666 25.7578 42.0077 25.4638C45.4875 23.4053 55.3877 21.7389 55.3877 21.7389C61.563 14.4363 64.3567 14.0933 65.2389 13.9952C65.6309 13.9462 66.3171 13.9462 67.0032 13.9462C67.3463 13.9462 67.6404 14.0933 67.8854 14.2893C66.6602 12.3779 64.5527 11.1036 62.1022 11.1036ZM39.8023 11.1036V6.10451C39.8023 4.87924 40.7825 3.94803 41.9587 3.94803H48.8202C50.0455 3.94803 50.9767 4.92825 50.9767 6.10451V11.1526H39.8023V11.1036Z" fill="white"/>
<path d="M68.2779 14.9756C68.3269 15.2697 68.2779 15.5637 68.1309 15.8578C66.1704 18.9945 60.9263 22.7193 60.6322 26.2481C60.4362 28.4536 59.603 30.512 58.8188 31.9333C58.4757 32.5705 57.4955 32.3254 57.4955 31.5902L57.6425 27.7184C53.3786 33.2076 46.5171 37.8146 41.42 40.7062C33.7743 56.4877 10.5432 57.3209 0.593993 56.9288C-0.0921584 56.8798 -0.239191 57.86 0.44696 58.0561C6.03419 59.4284 17.2577 60.9967 36.5189 59.1343C66.4645 56.1937 68.964 22.8173 68.964 22.8173V17.9652C68.915 16.887 68.67 15.8578 68.2779 14.9756Z" fill="#40A2E3"/>
<path d="M68.2778 14.9755C68.2288 14.7304 68.0818 14.4853 67.8857 14.2893C68.0328 14.4853 68.1308 14.7304 68.2778 14.9755Z" fill="#40A2E3"/>
<path d="M80.0404 39.1867H72.3457C72.6398 39.1867 72.8848 38.9416 73.0319 38.5005C73.3259 37.7654 73.4729 36.7852 73.522 35.6089C73.522 35.1678 73.522 28.4533 73.522 15.4655C73.522 14.1912 73.3749 13.064 73.0319 12.1818C72.8358 11.7407 72.6398 11.4956 72.3457 11.4956H94.9887V14.0442C94.9887 13.7501 94.7926 13.5541 94.4006 13.407C93.6654 13.113 92.5872 12.9169 91.1168 12.8679H79.2072C79.0112 13.7991 78.9131 14.7303 78.9131 15.6615V24.3854H87.294C87.5881 24.3854 87.9311 24.3364 88.3722 24.2874C89.2054 24.1894 89.8426 24.0424 90.3327 23.8463C90.6757 23.6993 90.8718 23.4542 90.9208 23.2092V26.934C90.9208 26.6399 90.7247 26.4439 90.3327 26.2969C90.1366 26.1988 89.8425 26.1008 89.5485 26.0518C88.8133 25.9048 87.9311 25.8068 86.9019 25.7577H78.9131V35.1678C78.9622 36.9322 79.1582 38.1575 79.5503 38.7946C79.6483 39.0397 79.8444 39.1867 80.0404 39.1867Z" fill="white"/>
<path d="M103.712 39.1867H96.0176C96.3116 39.1867 96.5077 38.9416 96.7527 38.5005C96.9978 37.9124 97.1448 37.0302 97.1938 35.854C97.1938 35.4619 97.2428 29.5806 97.2428 18.2591C97.2428 16.4947 97.0958 15.2694 96.7527 14.5833C96.5567 14.2402 96.3606 14.0442 96.1646 14.0442H96.0666L102.536 11.4956V35.0698C102.536 35.3639 102.536 35.7559 102.585 36.246C102.683 37.4223 102.879 38.2555 103.173 38.7456C103.271 39.0397 103.467 39.1867 103.712 39.1867Z" fill="white"/>
<path d="M128.61 19.1414C128.217 19.1414 127.825 19.2884 127.482 19.5334C127.09 19.7785 126.747 20.1216 126.453 20.4646C126.11 20.8567 125.816 21.2488 125.571 21.6409C125.326 22.033 125.081 22.3761 124.934 22.7191C124.787 23.0132 124.64 23.2583 124.591 23.3563C123.218 26.1989 122.042 28.6495 121.062 30.7079C120.082 32.7664 119.052 34.8248 118.072 36.8833C117.043 38.9417 116.21 40.6571 115.475 42.0294C113.857 45.1171 112.436 47.5676 111.211 49.381C110.476 50.4102 109.887 51.1944 109.397 51.7335C108.907 52.2726 108.466 52.5667 108.172 52.7628C107.829 52.9098 107.584 53.0078 107.339 53.0078V47.1755C107.976 47.2735 108.564 47.2735 109.054 47.2245C109.544 47.1755 110.034 47.0285 110.574 46.7834C111.113 46.5384 111.554 46.1463 111.995 45.6072C112.24 45.1661 112.632 44.4799 113.122 43.5487C113.612 42.6665 114.102 41.7843 114.543 40.9021C114.985 40.069 115.279 39.4808 115.426 39.1868L107.535 23.0132C107.388 22.7191 107.192 22.3761 106.947 21.984C106.702 21.5429 106.408 21.1508 106.065 20.7097C105.722 20.2686 105.329 19.9255 104.937 19.6315C104.545 19.3374 104.104 19.1904 103.663 19.1904H113.612C113.22 19.1904 112.975 19.2884 112.828 19.5334C112.681 19.7785 112.632 20.0726 112.681 20.4156C112.73 20.7587 112.779 21.1508 112.877 21.5429C112.975 21.935 113.122 22.278 113.269 22.5721C113.416 22.8662 113.514 23.1112 113.563 23.2583L118.366 33.1584L123.316 22.9642C123.414 22.7682 123.512 22.4741 123.61 22.18C123.708 21.886 123.807 21.5429 123.905 21.1998C124.003 20.8567 124.052 20.5137 124.052 20.2196C124.052 19.9255 124.003 19.6805 123.856 19.4844C123.708 19.2884 123.512 19.1904 123.169 19.1904H128.61V19.1414Z" fill="white"/>
<path d="M151.106 39.1867H128.463C128.61 39.1867 128.757 39.1377 128.904 38.9907C129.051 38.8436 129.149 38.6966 129.198 38.5005C129.492 37.7654 129.639 36.8342 129.639 35.6089V34.9718V15.5635C129.639 15.2694 129.59 14.7303 129.541 14.0442C129.443 13.26 129.345 12.6229 129.149 12.1818C128.953 11.7407 128.708 11.4956 128.414 11.4956H136.158C135.864 11.4956 135.668 11.6916 135.521 12.0837C135.276 12.6719 135.08 13.456 135.031 14.5343C134.982 15.0734 134.982 15.4655 134.982 15.6615V35.1188C134.982 36.2461 135.08 37.1282 135.276 37.8144H146.94C147.136 37.8144 147.528 37.8144 148.067 37.7654C149.146 37.7164 149.979 37.5203 150.518 37.2753C150.91 37.1282 151.106 36.8832 151.106 36.6381V39.1867Z" fill="#40A2E3"/>
<path d="M159.879 39.1866H152.185C152.479 39.1866 152.724 38.9416 152.92 38.4515C153.263 37.5203 153.41 36.393 153.41 35.0207V25.8067C153.41 24.8265 153.361 24.0423 153.263 23.4542C153.116 22.523 152.871 21.9348 152.528 21.7388C152.43 21.6898 152.381 21.6898 152.332 21.6898H152.234L158.703 19.1412V35.1678C158.703 35.4128 158.703 35.8049 158.752 36.295C158.85 37.4713 159.046 38.3045 159.34 38.7946C159.438 39.0396 159.634 39.1866 159.879 39.1866ZM156.007 17.2788C155.321 17.2788 154.782 17.0338 154.292 16.5927C153.802 16.1026 153.557 15.5634 153.557 14.8773C153.557 14.1911 153.802 13.652 154.292 13.1619C154.782 12.6718 155.321 12.4268 156.007 12.4268C156.694 12.4268 157.233 12.6718 157.723 13.1619C158.213 13.652 158.458 14.1911 158.458 14.8773C158.458 15.5634 158.213 16.1026 157.723 16.5927C157.233 17.0338 156.694 17.2788 156.007 17.2788Z" fill="#40A2E3"/>
<path d="M176.444 20.5137H169.828V34.0896C169.828 35.0208 169.877 35.756 170.024 36.2951C170.171 36.8342 170.367 37.1773 170.563 37.4224C170.808 37.6184 171.053 37.7654 171.347 37.8145C171.641 37.8635 171.936 37.8635 172.23 37.8635C172.279 37.8635 172.328 37.8635 172.377 37.8635C172.622 37.8145 172.867 37.6184 173.063 37.3734C173.259 37.1283 173.406 36.7852 173.553 36.4912C173.7 36.1481 173.798 35.756 173.945 35.2659L176.199 37.6184C175.562 38.1575 174.876 38.5496 174.043 38.8437C173.259 39.1377 172.377 39.2848 171.494 39.2848C171.249 39.2848 171.004 39.2848 170.759 39.2358C170.416 39.1868 170.122 39.1377 169.779 39.0887C169.485 39.0397 169.191 38.9417 168.897 38.8437C167.574 38.3536 166.544 37.6184 165.711 36.5402C164.927 35.511 164.486 34.2857 164.437 32.9624V20.5137H160.418V19.1413C161.153 19.1413 161.839 18.9943 162.525 18.7493C163.212 18.5042 163.849 18.1611 164.437 17.72C164.535 17.671 164.584 17.622 164.682 17.524C165.711 16.7398 166.593 15.9066 167.328 14.9754C168.064 14.0442 168.897 12.917 169.73 11.5447V19.1413H176.346V20.5137H176.444Z" fill="#40A2E3"/>
<path d="M185.953 39.1866C184.238 39.1866 182.62 38.7455 181.052 37.8634C178.65 36.4911 177.082 34.4326 176.347 31.786C176.102 30.8548 176.004 29.9726 176.004 29.0414C176.004 27.326 176.445 25.7087 177.327 24.1403C178.749 21.6898 180.905 20.0724 183.699 19.3373L184.091 19.2393C184.777 19.0922 185.463 19.0432 186.149 19.0432C187.865 19.0432 189.482 19.4843 191.099 20.3665C193.256 21.6408 194.726 23.4052 195.608 25.7087C195.657 25.8067 195.657 25.9537 195.755 26.1498C195.804 26.3458 195.853 26.5419 195.902 26.6889C195.951 26.8849 196 26.983 196 27.081H181.003C181.052 28.1592 181.248 29.2375 181.542 30.3647C181.983 31.884 182.522 33.2073 183.258 34.3346C183.993 35.4618 184.777 36.344 185.659 36.8831C186.345 37.3732 187.031 37.5693 187.717 37.5693C187.963 37.5693 188.208 37.5203 188.355 37.4713L188.649 37.3732C189.384 37.0792 189.972 36.5401 190.413 35.6579C190.854 34.8247 191.099 33.7955 191.197 32.5702H195.51C195.314 33.0603 195.118 33.5504 194.824 34.0405C193.452 36.442 191.393 38.0104 188.747 38.7456C187.766 39.0396 186.835 39.1866 185.953 39.1866ZM189.825 25.7087C189.139 24.1403 188.306 22.9151 187.325 21.9839C186.345 21.0527 185.365 20.6116 184.336 20.6116C184.189 20.6606 183.895 20.7096 183.454 20.8566C182.669 21.1017 182.032 21.7388 181.542 22.768C181.15 23.6012 180.954 24.5814 180.905 25.7087H189.825Z" fill="#40A2E3"/>
</svg>
