<svg width="33" height="33" viewBox="0 0 33 33" fill="none" xmlns="http://www.w3.org/2000/svg">
<rect x="0.6" y="0.6" width="31.8" height="31.8" rx="15.9" fill="#ECEDF3" stroke="#ECEDF3" stroke-width="1.2"/>
<path d="M20.8999 15.4C20.8999 17.8299 16.4999 22 16.4999 22C16.4999 22 12.0999 17.8299 12.0999 15.4C12.0999 14.233 12.5634 13.1139 13.3886 12.2887C14.2137 11.4636 15.3329 11 16.4999 11C17.6668 11 18.786 11.4636 19.6111 12.2887C20.4363 13.1139 20.8999 14.233 20.8999 15.4V15.4Z" stroke="#40A2E3" stroke-width="1.25"/>
<path d="M16.4998 15.84C16.6749 15.84 16.8428 15.7704 16.9665 15.6466C17.0903 15.5229 17.1598 15.355 17.1598 15.18C17.1598 15.0049 17.0903 14.837 16.9665 14.7133C16.8428 14.5895 16.6749 14.52 16.4998 14.52C16.3248 14.52 16.1569 14.5895 16.0332 14.7133C15.9094 14.837 15.8398 15.0049 15.8398 15.18C15.8398 15.355 15.9094 15.5229 16.0332 15.6466C16.1569 15.7704 16.3248 15.84 16.4998 15.84V15.84Z" fill="#40A2E3" stroke="#40A2E3" stroke-width="1.25" stroke-linecap="round" stroke-linejoin="round"/>
</svg>
