<svg width="349" height="376" viewBox="0 0 349 376" fill="none" xmlns="http://www.w3.org/2000/svg">
<rect opacity="0.2" y="9" width="349" height="367" rx="32" fill="#BBE2EC"/>
<path d="M26.6371 297V282.8H28.8771V295.02H36.4971V297H26.6371ZM37.9368 292.94V286.54H40.1368V292.5C40.1368 293.433 40.3035 294.14 40.6368 294.62C40.9835 295.087 41.4835 295.32 42.1368 295.32C42.5501 295.32 42.9501 295.233 43.3368 295.06C43.7368 294.887 44.0968 294.633 44.4168 294.3C44.7501 293.953 45.0168 293.54 45.2168 293.06V286.54H47.4168V294.52C47.4168 294.773 47.4635 294.953 47.5568 295.06C47.6501 295.167 47.8035 295.227 48.0168 295.24V297C47.7901 297.04 47.6035 297.067 47.4568 297.08C47.3101 297.093 47.1701 297.1 47.0368 297.1C46.6368 297.1 46.3035 296.993 46.0368 296.78C45.7701 296.553 45.6168 296.267 45.5768 295.92L45.5368 294.88C45.0701 295.64 44.4635 296.22 43.7168 296.62C42.9701 297.007 42.1501 297.2 41.2568 297.2C40.1635 297.2 39.3368 296.84 38.7768 296.12C38.2168 295.4 37.9368 294.34 37.9368 292.94ZM54.3643 297.1C53.6576 297.1 53.011 296.96 52.4243 296.68C51.8376 296.387 51.331 295.993 50.9043 295.5C50.491 295.007 50.1643 294.44 49.9243 293.8C49.6976 293.16 49.5843 292.487 49.5843 291.78C49.5843 291.033 49.7043 290.333 49.9443 289.68C50.1843 289.027 50.5176 288.453 50.9443 287.96C51.3843 287.453 51.8976 287.06 52.4843 286.78C53.071 286.5 53.7243 286.36 54.4443 286.36C55.2843 286.36 56.0176 286.56 56.6443 286.96C57.2843 287.36 57.811 287.88 58.2243 288.52V286.54H60.1643V296.7C60.1643 297.713 59.9176 298.573 59.4243 299.28C58.9443 299.987 58.2843 300.527 57.4443 300.9C56.6043 301.273 55.6576 301.46 54.6043 301.46C53.4443 301.46 52.4843 301.26 51.7243 300.86C50.9643 300.46 50.3176 299.913 49.7843 299.22L51.0243 298.06C51.4243 298.62 51.9376 299.047 52.5643 299.34C53.2043 299.633 53.8843 299.78 54.6043 299.78C55.2043 299.78 55.7576 299.667 56.2643 299.44C56.7843 299.227 57.1976 298.887 57.5043 298.42C57.811 297.967 57.9643 297.393 57.9643 296.7V295.1C57.591 295.727 57.0776 296.22 56.4243 296.58C55.771 296.927 55.0843 297.1 54.3643 297.1ZM55.0843 295.32C55.4176 295.32 55.7376 295.267 56.0443 295.16C56.351 295.04 56.631 294.887 56.8843 294.7C57.151 294.5 57.3776 294.28 57.5643 294.04C57.751 293.787 57.8843 293.52 57.9643 293.24V290.5C57.791 290.047 57.5443 289.653 57.2243 289.32C56.9043 288.973 56.5443 288.707 56.1443 288.52C55.7443 288.333 55.3376 288.24 54.9243 288.24C54.4443 288.24 54.011 288.347 53.6243 288.56C53.251 288.76 52.931 289.033 52.6643 289.38C52.3976 289.713 52.191 290.093 52.0443 290.52C51.8976 290.947 51.8243 291.387 51.8243 291.84C51.8243 292.32 51.9043 292.767 52.0643 293.18C52.2376 293.593 52.471 293.967 52.7643 294.3C53.0576 294.62 53.4043 294.873 53.8043 295.06C54.2043 295.233 54.631 295.32 55.0843 295.32ZM66.9424 297.1C66.2358 297.1 65.5891 296.96 65.0024 296.68C64.4158 296.387 63.9091 295.993 63.4824 295.5C63.0691 295.007 62.7424 294.44 62.5024 293.8C62.2758 293.16 62.1624 292.487 62.1624 291.78C62.1624 291.033 62.2824 290.333 62.5224 289.68C62.7624 289.027 63.0958 288.453 63.5224 287.96C63.9624 287.453 64.4758 287.06 65.0624 286.78C65.6491 286.5 66.3024 286.36 67.0224 286.36C67.8624 286.36 68.5958 286.56 69.2224 286.96C69.8624 287.36 70.3891 287.88 70.8024 288.52V286.54H72.7424V296.7C72.7424 297.713 72.4958 298.573 72.0024 299.28C71.5224 299.987 70.8624 300.527 70.0224 300.9C69.1824 301.273 68.2358 301.46 67.1824 301.46C66.0224 301.46 65.0624 301.26 64.3024 300.86C63.5424 300.46 62.8958 299.913 62.3624 299.22L63.6024 298.06C64.0024 298.62 64.5158 299.047 65.1424 299.34C65.7824 299.633 66.4624 299.78 67.1824 299.78C67.7824 299.78 68.3358 299.667 68.8424 299.44C69.3624 299.227 69.7758 298.887 70.0824 298.42C70.3891 297.967 70.5424 297.393 70.5424 296.7V295.1C70.1691 295.727 69.6558 296.22 69.0024 296.58C68.3491 296.927 67.6624 297.1 66.9424 297.1ZM67.6624 295.32C67.9958 295.32 68.3158 295.267 68.6224 295.16C68.9291 295.04 69.2091 294.887 69.4624 294.7C69.7291 294.5 69.9558 294.28 70.1424 294.04C70.3291 293.787 70.4624 293.52 70.5424 293.24V290.5C70.3691 290.047 70.1224 289.653 69.8024 289.32C69.4824 288.973 69.1224 288.707 68.7224 288.52C68.3224 288.333 67.9158 288.24 67.5024 288.24C67.0224 288.24 66.5891 288.347 66.2024 288.56C65.8291 288.76 65.5091 289.033 65.2424 289.38C64.9758 289.713 64.7691 290.093 64.6224 290.52C64.4758 290.947 64.4024 291.387 64.4024 291.84C64.4024 292.32 64.4824 292.767 64.6424 293.18C64.8158 293.593 65.0491 293.967 65.3424 294.3C65.6358 294.62 65.9824 294.873 66.3824 295.06C66.7824 295.233 67.2091 295.32 67.6624 295.32ZM74.6205 293.94C74.6205 293.273 74.8072 292.693 75.1805 292.2C75.5672 291.693 76.0939 291.307 76.7605 291.04C77.4272 290.76 78.2005 290.62 79.0805 290.62C79.5472 290.62 80.0205 290.653 80.5005 290.72C80.9939 290.787 81.4272 290.893 81.8005 291.04V290.38C81.8005 289.647 81.5805 289.073 81.1405 288.66C80.7005 288.247 80.0672 288.04 79.2405 288.04C78.6539 288.04 78.1005 288.147 77.5805 288.36C77.0605 288.56 76.5072 288.847 75.9205 289.22L75.1805 287.74C75.8739 287.273 76.5672 286.927 77.2605 286.7C77.9672 286.473 78.7072 286.36 79.4805 286.36C80.8805 286.36 81.9805 286.733 82.7805 287.48C83.5939 288.213 84.0005 289.26 84.0005 290.62V294.52C84.0005 294.773 84.0405 294.953 84.1205 295.06C84.2139 295.167 84.3672 295.227 84.5805 295.24V297C84.3805 297.04 84.2005 297.067 84.0405 297.08C83.8805 297.093 83.7472 297.1 83.6405 297.1C83.1739 297.1 82.8205 296.987 82.5805 296.76C82.3405 296.533 82.2005 296.267 82.1605 295.96L82.1005 295.36C81.6472 295.947 81.0672 296.4 80.3605 296.72C79.6539 297.04 78.9405 297.2 78.2205 297.2C77.5272 297.2 76.9072 297.06 76.3605 296.78C75.8139 296.487 75.3872 296.093 75.0805 295.6C74.7739 295.107 74.6205 294.553 74.6205 293.94ZM81.2805 294.58C81.4405 294.407 81.5672 294.233 81.6605 294.06C81.7539 293.887 81.8005 293.733 81.8005 293.6V292.4C81.4272 292.253 81.0339 292.147 80.6205 292.08C80.2072 292 79.8005 291.96 79.4005 291.96C78.6005 291.96 77.9472 292.12 77.4405 292.44C76.9472 292.76 76.7005 293.2 76.7005 293.76C76.7005 294.067 76.7805 294.36 76.9405 294.64C77.1139 294.92 77.3539 295.147 77.6605 295.32C77.9805 295.493 78.3739 295.58 78.8405 295.58C79.3205 295.58 79.7805 295.487 80.2205 295.3C80.6605 295.113 81.0139 294.873 81.2805 294.58ZM90.8096 297.1C90.1029 297.1 89.4563 296.96 88.8696 296.68C88.2829 296.387 87.7763 295.993 87.3496 295.5C86.9363 295.007 86.6096 294.44 86.3696 293.8C86.1429 293.16 86.0296 292.487 86.0296 291.78C86.0296 291.033 86.1496 290.333 86.3896 289.68C86.6296 289.027 86.9629 288.453 87.3896 287.96C87.8296 287.453 88.3429 287.06 88.9296 286.78C89.5163 286.5 90.1696 286.36 90.8896 286.36C91.7296 286.36 92.4629 286.56 93.0896 286.96C93.7296 287.36 94.2563 287.88 94.6696 288.52V286.54H96.6096V296.7C96.6096 297.713 96.3629 298.573 95.8696 299.28C95.3896 299.987 94.7296 300.527 93.8896 300.9C93.0496 301.273 92.1029 301.46 91.0496 301.46C89.8896 301.46 88.9296 301.26 88.1696 300.86C87.4096 300.46 86.7629 299.913 86.2296 299.22L87.4696 298.06C87.8696 298.62 88.3829 299.047 89.0096 299.34C89.6496 299.633 90.3296 299.78 91.0496 299.78C91.6496 299.78 92.2029 299.667 92.7096 299.44C93.2296 299.227 93.6429 298.887 93.9496 298.42C94.2563 297.967 94.4096 297.393 94.4096 296.7V295.1C94.0363 295.727 93.5229 296.22 92.8696 296.58C92.2163 296.927 91.5296 297.1 90.8096 297.1ZM91.5296 295.32C91.8629 295.32 92.1829 295.267 92.4896 295.16C92.7963 295.04 93.0763 294.887 93.3296 294.7C93.5963 294.5 93.8229 294.28 94.0096 294.04C94.1963 293.787 94.3296 293.52 94.4096 293.24V290.5C94.2363 290.047 93.9896 289.653 93.6696 289.32C93.3496 288.973 92.9896 288.707 92.5896 288.52C92.1896 288.333 91.7829 288.24 91.3696 288.24C90.8896 288.24 90.4563 288.347 90.0696 288.56C89.6963 288.76 89.3763 289.033 89.1096 289.38C88.8429 289.713 88.6363 290.093 88.4896 290.52C88.3429 290.947 88.2696 291.387 88.2696 291.84C88.2696 292.32 88.3496 292.767 88.5096 293.18C88.6829 293.593 88.9163 293.967 89.2096 294.3C89.5029 294.62 89.8496 294.873 90.2496 295.06C90.6496 295.233 91.0763 295.32 91.5296 295.32ZM103.988 297.2C103.174 297.2 102.434 297.06 101.768 296.78C101.114 296.487 100.548 296.093 100.068 295.6C99.5877 295.093 99.2144 294.52 98.9477 293.88C98.6944 293.227 98.5677 292.533 98.5677 291.8C98.5677 290.813 98.7944 289.913 99.2477 289.1C99.7011 288.273 100.334 287.613 101.148 287.12C101.961 286.613 102.914 286.36 104.008 286.36C105.101 286.36 106.041 286.613 106.828 287.12C107.628 287.613 108.248 288.267 108.688 289.08C109.128 289.893 109.348 290.767 109.348 291.7C109.348 291.86 109.341 292.013 109.328 292.16C109.314 292.293 109.301 292.407 109.288 292.5H100.908C100.948 293.113 101.114 293.653 101.408 294.12C101.714 294.573 102.101 294.933 102.568 295.2C103.034 295.453 103.534 295.58 104.068 295.58C104.654 295.58 105.208 295.433 105.728 295.14C106.261 294.847 106.621 294.46 106.808 293.98L108.688 294.52C108.461 295.027 108.114 295.487 107.648 295.9C107.194 296.3 106.654 296.62 106.028 296.86C105.401 297.087 104.721 297.2 103.988 297.2ZM100.848 291.04H107.168C107.128 290.44 106.954 289.913 106.648 289.46C106.354 288.993 105.974 288.633 105.508 288.38C105.054 288.113 104.548 287.98 103.988 287.98C103.441 287.98 102.934 288.113 102.468 288.38C102.014 288.633 101.641 288.993 101.348 289.46C101.054 289.913 100.888 290.44 100.848 291.04ZM125.464 297H123.264V291.14C123.264 290.193 123.09 289.487 122.744 289.02C122.397 288.553 121.91 288.32 121.284 288.32C120.897 288.32 120.497 288.427 120.084 288.64C119.67 288.853 119.304 289.147 118.984 289.52C118.664 289.88 118.43 290.3 118.284 290.78V297H116.084V282.4H118.284V288.64C118.684 287.933 119.23 287.38 119.924 286.98C120.617 286.567 121.364 286.36 122.164 286.36C122.817 286.36 123.357 286.473 123.784 286.7C124.21 286.927 124.544 287.24 124.784 287.64C125.037 288.027 125.21 288.48 125.304 289C125.41 289.507 125.464 290.047 125.464 290.62V297ZM127.257 293.94C127.257 293.273 127.444 292.693 127.817 292.2C128.204 291.693 128.731 291.307 129.397 291.04C130.064 290.76 130.837 290.62 131.717 290.62C132.184 290.62 132.657 290.653 133.137 290.72C133.631 290.787 134.064 290.893 134.437 291.04V290.38C134.437 289.647 134.217 289.073 133.777 288.66C133.337 288.247 132.704 288.04 131.877 288.04C131.291 288.04 130.737 288.147 130.217 288.36C129.697 288.56 129.144 288.847 128.557 289.22L127.817 287.74C128.511 287.273 129.204 286.927 129.897 286.7C130.604 286.473 131.344 286.36 132.117 286.36C133.517 286.36 134.617 286.733 135.417 287.48C136.231 288.213 136.637 289.26 136.637 290.62V294.52C136.637 294.773 136.677 294.953 136.757 295.06C136.851 295.167 137.004 295.227 137.217 295.24V297C137.017 297.04 136.837 297.067 136.677 297.08C136.517 297.093 136.384 297.1 136.277 297.1C135.811 297.1 135.457 296.987 135.217 296.76C134.977 296.533 134.837 296.267 134.797 295.96L134.737 295.36C134.284 295.947 133.704 296.4 132.997 296.72C132.291 297.04 131.577 297.2 130.857 297.2C130.164 297.2 129.544 297.06 128.997 296.78C128.451 296.487 128.024 296.093 127.717 295.6C127.411 295.107 127.257 294.553 127.257 293.94ZM133.917 294.58C134.077 294.407 134.204 294.233 134.297 294.06C134.391 293.887 134.437 293.733 134.437 293.6V292.4C134.064 292.253 133.671 292.147 133.257 292.08C132.844 292 132.437 291.96 132.037 291.96C131.237 291.96 130.584 292.12 130.077 292.44C129.584 292.76 129.337 293.2 129.337 293.76C129.337 294.067 129.417 294.36 129.577 294.64C129.751 294.92 129.991 295.147 130.297 295.32C130.617 295.493 131.011 295.58 131.477 295.58C131.957 295.58 132.417 295.487 132.857 295.3C133.297 295.113 133.651 294.873 133.917 294.58ZM148.686 297H146.486V291.14C146.486 290.167 146.326 289.453 146.006 289C145.7 288.547 145.24 288.32 144.626 288.32C144.2 288.32 143.773 288.427 143.346 288.64C142.933 288.853 142.56 289.147 142.226 289.52C141.893 289.88 141.653 290.3 141.506 290.78V297H139.306V286.54H141.306V288.64C141.573 288.173 141.92 287.773 142.346 287.44C142.786 287.093 143.28 286.827 143.826 286.64C144.373 286.453 144.953 286.36 145.566 286.36C146.193 286.36 146.706 286.473 147.106 286.7C147.52 286.927 147.84 287.24 148.066 287.64C148.306 288.027 148.466 288.48 148.546 289C148.64 289.507 148.686 290.047 148.686 290.62V297ZM150.58 291.78C150.58 290.78 150.78 289.873 151.18 289.06C151.593 288.233 152.153 287.58 152.86 287.1C153.567 286.607 154.38 286.36 155.3 286.36C156.1 286.36 156.82 286.567 157.46 286.98C158.113 287.393 158.62 287.907 158.98 288.52V282.4H161.18V294.52C161.18 294.773 161.227 294.953 161.32 295.06C161.413 295.167 161.567 295.227 161.78 295.24V297C161.367 297.067 161.047 297.1 160.82 297.1C160.407 297.1 160.053 296.98 159.76 296.74C159.48 296.5 159.333 296.213 159.32 295.88L159.3 295.1C158.9 295.767 158.36 296.287 157.68 296.66C157 297.02 156.293 297.2 155.56 297.2C154.84 297.2 154.173 297.06 153.56 296.78C152.96 296.5 152.433 296.107 151.98 295.6C151.54 295.093 151.193 294.513 150.94 293.86C150.7 293.207 150.58 292.513 150.58 291.78ZM158.98 293.24V290.5C158.833 290.073 158.593 289.693 158.26 289.36C157.94 289.013 157.573 288.74 157.16 288.54C156.76 288.34 156.36 288.24 155.96 288.24C155.493 288.24 155.067 288.34 154.68 288.54C154.307 288.74 153.98 289.007 153.7 289.34C153.433 289.673 153.227 290.053 153.08 290.48C152.933 290.907 152.86 291.353 152.86 291.82C152.86 292.3 152.94 292.753 153.1 293.18C153.26 293.593 153.487 293.967 153.78 294.3C154.087 294.62 154.433 294.873 154.82 295.06C155.22 295.233 155.653 295.32 156.12 295.32C156.413 295.32 156.707 295.267 157 295.16C157.307 295.053 157.593 294.907 157.86 294.72C158.14 294.533 158.373 294.313 158.56 294.06C158.76 293.807 158.9 293.533 158.98 293.24ZM168.674 297.2C167.848 297.2 167.108 297.06 166.454 296.78C165.801 296.487 165.234 296.087 164.754 295.58C164.288 295.073 163.928 294.5 163.674 293.86C163.421 293.207 163.294 292.513 163.294 291.78C163.294 291.047 163.421 290.353 163.674 289.7C163.928 289.047 164.288 288.473 164.754 287.98C165.234 287.473 165.801 287.08 166.454 286.8C167.121 286.507 167.861 286.36 168.674 286.36C169.488 286.36 170.221 286.507 170.874 286.8C171.541 287.08 172.108 287.473 172.574 287.98C173.054 288.473 173.421 289.047 173.674 289.7C173.928 290.353 174.054 291.047 174.054 291.78C174.054 292.513 173.928 293.207 173.674 293.86C173.421 294.5 173.054 295.073 172.574 295.58C172.108 296.087 171.541 296.487 170.874 296.78C170.221 297.06 169.488 297.2 168.674 297.2ZM165.554 291.8C165.554 292.467 165.694 293.067 165.974 293.6C166.254 294.133 166.628 294.553 167.094 294.86C167.561 295.167 168.088 295.32 168.674 295.32C169.248 295.32 169.768 295.167 170.234 294.86C170.714 294.54 171.094 294.113 171.374 293.58C171.654 293.033 171.794 292.433 171.794 291.78C171.794 291.113 171.654 290.513 171.374 289.98C171.094 289.447 170.714 289.027 170.234 288.72C169.768 288.4 169.248 288.24 168.674 288.24C168.088 288.24 167.561 288.4 167.094 288.72C166.628 289.04 166.254 289.467 165.974 290C165.694 290.52 165.554 291.12 165.554 291.8ZM178.574 297L174.594 286.54H176.874L179.854 294.96L182.834 286.54H184.954L180.974 297H178.574ZM190.921 297.2C190.108 297.2 189.368 297.06 188.701 296.78C188.048 296.487 187.481 296.093 187.001 295.6C186.521 295.093 186.148 294.52 185.881 293.88C185.628 293.227 185.501 292.533 185.501 291.8C185.501 290.813 185.728 289.913 186.181 289.1C186.635 288.273 187.268 287.613 188.081 287.12C188.895 286.613 189.848 286.36 190.941 286.36C192.035 286.36 192.975 286.613 193.761 287.12C194.561 287.613 195.181 288.267 195.621 289.08C196.061 289.893 196.281 290.767 196.281 291.7C196.281 291.86 196.275 292.013 196.261 292.16C196.248 292.293 196.235 292.407 196.221 292.5H187.841C187.881 293.113 188.048 293.653 188.341 294.12C188.648 294.573 189.035 294.933 189.501 295.2C189.968 295.453 190.468 295.58 191.001 295.58C191.588 295.58 192.141 295.433 192.661 295.14C193.195 294.847 193.555 294.46 193.741 293.98L195.621 294.52C195.395 295.027 195.048 295.487 194.581 295.9C194.128 296.3 193.588 296.62 192.961 296.86C192.335 297.087 191.655 297.2 190.921 297.2ZM187.781 291.04H194.101C194.061 290.44 193.888 289.913 193.581 289.46C193.288 288.993 192.908 288.633 192.441 288.38C191.988 288.113 191.481 287.98 190.921 287.98C190.375 287.98 189.868 288.113 189.401 288.38C188.948 288.633 188.575 288.993 188.281 289.46C187.988 289.913 187.821 290.44 187.781 291.04ZM203.956 288.44C203.103 288.453 202.343 288.647 201.676 289.02C201.023 289.393 200.556 289.92 200.276 290.6V297H198.076V286.54H200.116V288.88C200.476 288.16 200.949 287.587 201.536 287.16C202.123 286.72 202.743 286.48 203.396 286.44C203.529 286.44 203.636 286.44 203.716 286.44C203.809 286.44 203.889 286.447 203.956 286.46V288.44ZM210.649 297V288.5H209.249V286.8H210.649V286.38C210.649 285.527 210.782 284.787 211.049 284.16C211.329 283.533 211.715 283.053 212.209 282.72C212.715 282.373 213.309 282.2 213.989 282.2C214.415 282.2 214.835 282.26 215.249 282.38C215.662 282.487 216.055 282.64 216.429 282.84L215.949 284.48C215.749 284.347 215.509 284.247 215.229 284.18C214.962 284.1 214.702 284.06 214.449 284.06C213.942 284.06 213.549 284.253 213.269 284.64C212.989 285.027 212.849 285.587 212.849 286.32V286.8H215.529V288.5H212.849V297H210.649ZM223.057 288.44C222.204 288.453 221.444 288.647 220.777 289.02C220.124 289.393 219.657 289.92 219.377 290.6V297H217.177V286.54H219.217V288.88C219.577 288.16 220.051 287.587 220.637 287.16C221.224 286.72 221.844 286.48 222.497 286.44C222.631 286.44 222.737 286.44 222.817 286.44C222.911 286.44 222.991 286.447 223.057 286.46V288.44ZM229.163 297.2C228.336 297.2 227.596 297.06 226.943 296.78C226.289 296.487 225.723 296.087 225.243 295.58C224.776 295.073 224.416 294.5 224.163 293.86C223.909 293.207 223.783 292.513 223.783 291.78C223.783 291.047 223.909 290.353 224.163 289.7C224.416 289.047 224.776 288.473 225.243 287.98C225.723 287.473 226.289 287.08 226.943 286.8C227.609 286.507 228.349 286.36 229.163 286.36C229.976 286.36 230.709 286.507 231.363 286.8C232.029 287.08 232.596 287.473 233.063 287.98C233.543 288.473 233.909 289.047 234.163 289.7C234.416 290.353 234.543 291.047 234.543 291.78C234.543 292.513 234.416 293.207 234.163 293.86C233.909 294.5 233.543 295.073 233.063 295.58C232.596 296.087 232.029 296.487 231.363 296.78C230.709 297.06 229.976 297.2 229.163 297.2ZM226.043 291.8C226.043 292.467 226.183 293.067 226.463 293.6C226.743 294.133 227.116 294.553 227.583 294.86C228.049 295.167 228.576 295.32 229.163 295.32C229.736 295.32 230.256 295.167 230.723 294.86C231.203 294.54 231.583 294.113 231.863 293.58C232.143 293.033 232.283 292.433 232.283 291.78C232.283 291.113 232.143 290.513 231.863 289.98C231.583 289.447 231.203 289.027 230.723 288.72C230.256 288.4 229.736 288.24 229.163 288.24C228.576 288.24 228.049 288.4 227.583 288.72C227.116 289.04 226.743 289.467 226.463 290C226.183 290.52 226.043 291.12 226.043 291.8ZM252.494 297H250.294V291.14C250.294 290.167 250.134 289.453 249.814 289C249.494 288.547 249.027 288.32 248.414 288.32C247.8 288.32 247.227 288.553 246.694 289.02C246.174 289.473 245.807 290.067 245.594 290.8V297H243.394V291.14C243.394 290.167 243.234 289.453 242.914 289C242.594 288.547 242.134 288.32 241.534 288.32C240.92 288.32 240.347 288.547 239.814 289C239.294 289.453 238.92 290.047 238.694 290.78V297H236.494V286.54H238.494V288.64C238.907 287.907 239.447 287.347 240.114 286.96C240.794 286.56 241.567 286.36 242.434 286.36C243.3 286.36 243.98 286.587 244.474 287.04C244.98 287.493 245.294 288.06 245.414 288.74C245.867 287.967 246.42 287.38 247.074 286.98C247.74 286.567 248.5 286.36 249.354 286.36C249.967 286.36 250.48 286.473 250.894 286.7C251.307 286.927 251.627 287.24 251.854 287.64C252.08 288.027 252.24 288.48 252.334 289C252.44 289.507 252.494 290.047 252.494 290.62V297ZM263.69 297.2C262.81 297.2 261.977 297.06 261.19 296.78C260.404 296.487 259.73 296.053 259.17 295.48L259.99 294C260.59 294.533 261.19 294.92 261.79 295.16C262.404 295.4 263.01 295.52 263.61 295.52C264.224 295.52 264.724 295.407 265.11 295.18C265.497 294.94 265.69 294.593 265.69 294.14C265.69 293.807 265.59 293.56 265.39 293.4C265.19 293.24 264.897 293.1 264.51 292.98C264.137 292.86 263.684 292.727 263.15 292.58C262.404 292.353 261.777 292.12 261.27 291.88C260.764 291.627 260.384 291.32 260.13 290.96C259.877 290.6 259.75 290.14 259.75 289.58C259.75 288.9 259.924 288.32 260.27 287.84C260.617 287.36 261.097 286.993 261.71 286.74C262.337 286.487 263.057 286.36 263.87 286.36C264.63 286.36 265.33 286.48 265.97 286.72C266.624 286.947 267.197 287.307 267.69 287.8L266.75 289.26C266.284 288.833 265.804 288.52 265.31 288.32C264.83 288.12 264.31 288.02 263.75 288.02C263.43 288.02 263.124 288.06 262.83 288.14C262.537 288.207 262.29 288.34 262.09 288.54C261.904 288.727 261.81 288.993 261.81 289.34C261.81 289.62 261.89 289.847 262.05 290.02C262.21 290.193 262.45 290.34 262.77 290.46C263.09 290.58 263.484 290.713 263.95 290.86C264.764 291.1 265.457 291.34 266.03 291.58C266.604 291.807 267.044 292.107 267.35 292.48C267.67 292.84 267.83 293.34 267.83 293.98C267.83 294.993 267.45 295.787 266.69 296.36C265.944 296.92 264.944 297.2 263.69 297.2ZM274.535 297.2C273.721 297.2 272.981 297.06 272.315 296.78C271.661 296.487 271.095 296.093 270.615 295.6C270.135 295.093 269.761 294.52 269.495 293.88C269.241 293.227 269.115 292.533 269.115 291.8C269.115 290.813 269.341 289.913 269.795 289.1C270.248 288.273 270.881 287.613 271.695 287.12C272.508 286.613 273.461 286.36 274.555 286.36C275.648 286.36 276.588 286.613 277.375 287.12C278.175 287.613 278.795 288.267 279.235 289.08C279.675 289.893 279.895 290.767 279.895 291.7C279.895 291.86 279.888 292.013 279.875 292.16C279.861 292.293 279.848 292.407 279.835 292.5H271.455C271.495 293.113 271.661 293.653 271.955 294.12C272.261 294.573 272.648 294.933 273.115 295.2C273.581 295.453 274.081 295.58 274.615 295.58C275.201 295.58 275.755 295.433 276.275 295.14C276.808 294.847 277.168 294.46 277.355 293.98L279.235 294.52C279.008 295.027 278.661 295.487 278.195 295.9C277.741 296.3 277.201 296.62 276.575 296.86C275.948 297.087 275.268 297.2 274.535 297.2ZM271.395 291.04H277.715C277.675 290.44 277.501 289.913 277.195 289.46C276.901 288.993 276.521 288.633 276.055 288.38C275.601 288.113 275.095 287.98 274.535 287.98C273.988 287.98 273.481 288.113 273.015 288.38C272.561 288.633 272.188 288.993 271.895 289.46C271.601 289.913 271.435 290.44 271.395 291.04ZM291.069 297H288.869V291.14C288.869 290.167 288.709 289.453 288.389 289C288.082 288.547 287.622 288.32 287.009 288.32C286.582 288.32 286.156 288.427 285.729 288.64C285.316 288.853 284.942 289.147 284.609 289.52C284.276 289.88 284.036 290.3 283.889 290.78V297H281.689V286.54H283.689V288.64C283.956 288.173 284.302 287.773 284.729 287.44C285.169 287.093 285.662 286.827 286.209 286.64C286.756 286.453 287.336 286.36 287.949 286.36C288.576 286.36 289.089 286.473 289.489 286.7C289.902 286.927 290.222 287.24 290.449 287.64C290.689 288.027 290.849 288.48 290.929 289C291.022 289.507 291.069 290.047 291.069 290.62V297ZM292.963 291.78C292.963 290.78 293.163 289.873 293.563 289.06C293.976 288.233 294.536 287.58 295.243 287.1C295.949 286.607 296.763 286.36 297.683 286.36C298.483 286.36 299.203 286.567 299.843 286.98C300.496 287.393 301.003 287.907 301.363 288.52V282.4H303.563V294.52C303.563 294.773 303.609 294.953 303.703 295.06C303.796 295.167 303.949 295.227 304.163 295.24V297C303.749 297.067 303.429 297.1 303.203 297.1C302.789 297.1 302.436 296.98 302.143 296.74C301.863 296.5 301.716 296.213 301.703 295.88L301.683 295.1C301.283 295.767 300.743 296.287 300.063 296.66C299.383 297.02 298.676 297.2 297.943 297.2C297.223 297.2 296.556 297.06 295.943 296.78C295.343 296.5 294.816 296.107 294.363 295.6C293.923 295.093 293.576 294.513 293.323 293.86C293.083 293.207 292.963 292.513 292.963 291.78ZM301.363 293.24V290.5C301.216 290.073 300.976 289.693 300.643 289.36C300.323 289.013 299.956 288.74 299.543 288.54C299.143 288.34 298.743 288.24 298.343 288.24C297.876 288.24 297.449 288.34 297.063 288.54C296.689 288.74 296.363 289.007 296.083 289.34C295.816 289.673 295.609 290.053 295.463 290.48C295.316 290.907 295.243 291.353 295.243 291.82C295.243 292.3 295.323 292.753 295.483 293.18C295.643 293.593 295.869 293.967 296.163 294.3C296.469 294.62 296.816 294.873 297.203 295.06C297.603 295.233 298.036 295.32 298.503 295.32C298.796 295.32 299.089 295.267 299.383 295.16C299.689 295.053 299.976 294.907 300.243 294.72C300.523 294.533 300.756 294.313 300.943 294.06C301.143 293.807 301.283 293.533 301.363 293.24ZM311.097 297.2C310.284 297.2 309.544 297.06 308.877 296.78C308.224 296.487 307.657 296.093 307.177 295.6C306.697 295.093 306.324 294.52 306.057 293.88C305.804 293.227 305.677 292.533 305.677 291.8C305.677 290.813 305.904 289.913 306.357 289.1C306.81 288.273 307.444 287.613 308.257 287.12C309.07 286.613 310.024 286.36 311.117 286.36C312.21 286.36 313.15 286.613 313.937 287.12C314.737 287.613 315.357 288.267 315.797 289.08C316.237 289.893 316.457 290.767 316.457 291.7C316.457 291.86 316.45 292.013 316.437 292.16C316.424 292.293 316.41 292.407 316.397 292.5H308.017C308.057 293.113 308.224 293.653 308.517 294.12C308.824 294.573 309.21 294.933 309.677 295.2C310.144 295.453 310.644 295.58 311.177 295.58C311.764 295.58 312.317 295.433 312.837 295.14C313.37 294.847 313.73 294.46 313.917 293.98L315.797 294.52C315.57 295.027 315.224 295.487 314.757 295.9C314.304 296.3 313.764 296.62 313.137 296.86C312.51 297.087 311.83 297.2 311.097 297.2ZM307.957 291.04H314.277C314.237 290.44 314.064 289.913 313.757 289.46C313.464 288.993 313.084 288.633 312.617 288.38C312.164 288.113 311.657 287.98 311.097 287.98C310.55 287.98 310.044 288.113 309.577 288.38C309.124 288.633 308.75 288.993 308.457 289.46C308.164 289.913 307.997 290.44 307.957 291.04ZM324.132 288.44C323.278 288.453 322.518 288.647 321.852 289.02C321.198 289.393 320.732 289.92 320.452 290.6V297H318.252V286.54H320.292V288.88C320.652 288.16 321.125 287.587 321.712 287.16C322.298 286.72 322.918 286.48 323.572 286.44C323.705 286.44 323.812 286.44 323.892 286.44C323.985 286.44 324.065 286.447 324.132 286.46V288.44ZM135.165 319.46C134.979 319.553 134.745 319.653 134.465 319.76C134.185 319.867 133.865 319.96 133.505 320.04C133.159 320.12 132.799 320.16 132.425 320.16C131.972 320.16 131.552 320.08 131.165 319.92C130.779 319.76 130.465 319.507 130.225 319.16C129.999 318.8 129.885 318.34 129.885 317.78V311.24H128.505V309.54H129.885V306.1H132.085V309.54H134.365V311.24H132.085V317.08C132.112 317.44 132.225 317.707 132.425 317.88C132.639 318.053 132.899 318.14 133.205 318.14C133.512 318.14 133.805 318.087 134.085 317.98C134.365 317.873 134.572 317.787 134.705 317.72L135.165 319.46ZM141.252 320.2C140.426 320.2 139.686 320.06 139.032 319.78C138.379 319.487 137.812 319.087 137.332 318.58C136.866 318.073 136.506 317.5 136.252 316.86C135.999 316.207 135.872 315.513 135.872 314.78C135.872 314.047 135.999 313.353 136.252 312.7C136.506 312.047 136.866 311.473 137.332 310.98C137.812 310.473 138.379 310.08 139.032 309.8C139.699 309.507 140.439 309.36 141.252 309.36C142.066 309.36 142.799 309.507 143.452 309.8C144.119 310.08 144.686 310.473 145.152 310.98C145.632 311.473 145.999 312.047 146.252 312.7C146.506 313.353 146.632 314.047 146.632 314.78C146.632 315.513 146.506 316.207 146.252 316.86C145.999 317.5 145.632 318.073 145.152 318.58C144.686 319.087 144.119 319.487 143.452 319.78C142.799 320.06 142.066 320.2 141.252 320.2ZM138.132 314.8C138.132 315.467 138.272 316.067 138.552 316.6C138.832 317.133 139.206 317.553 139.672 317.86C140.139 318.167 140.666 318.32 141.252 318.32C141.826 318.32 142.346 318.167 142.812 317.86C143.292 317.54 143.672 317.113 143.952 316.58C144.232 316.033 144.372 315.433 144.372 314.78C144.372 314.113 144.232 313.513 143.952 312.98C143.672 312.447 143.292 312.027 142.812 311.72C142.346 311.4 141.826 311.24 141.252 311.24C140.666 311.24 140.139 311.4 139.672 311.72C139.206 312.04 138.832 312.467 138.552 313C138.272 313.52 138.132 314.12 138.132 314.8ZM158.265 320.2C157.452 320.2 156.712 320.06 156.045 319.78C155.392 319.487 154.825 319.087 154.345 318.58C153.865 318.073 153.492 317.493 153.225 316.84C152.972 316.187 152.845 315.493 152.845 314.76C152.845 313.773 153.065 312.873 153.505 312.06C153.958 311.247 154.585 310.593 155.385 310.1C156.198 309.607 157.158 309.36 158.265 309.36C159.332 309.36 160.258 309.6 161.045 310.08C161.845 310.547 162.432 311.173 162.805 311.96L160.665 312.64C160.425 312.2 160.085 311.86 159.645 311.62C159.218 311.367 158.745 311.24 158.225 311.24C157.638 311.24 157.105 311.393 156.625 311.7C156.158 311.993 155.785 312.407 155.505 312.94C155.238 313.46 155.105 314.067 155.105 314.76C155.105 315.427 155.245 316.033 155.525 316.58C155.805 317.113 156.178 317.54 156.645 317.86C157.125 318.167 157.658 318.32 158.245 318.32C158.605 318.32 158.952 318.26 159.285 318.14C159.632 318.007 159.932 317.833 160.185 317.62C160.438 317.393 160.618 317.147 160.725 316.88L162.885 317.52C162.658 318.04 162.318 318.5 161.865 318.9C161.425 319.3 160.898 319.62 160.285 319.86C159.685 320.087 159.012 320.2 158.265 320.2ZM163.937 316.94C163.937 316.273 164.124 315.693 164.497 315.2C164.884 314.693 165.41 314.307 166.077 314.04C166.744 313.76 167.517 313.62 168.397 313.62C168.864 313.62 169.337 313.653 169.817 313.72C170.31 313.787 170.744 313.893 171.117 314.04V313.38C171.117 312.647 170.897 312.073 170.457 311.66C170.017 311.247 169.384 311.04 168.557 311.04C167.97 311.04 167.417 311.147 166.897 311.36C166.377 311.56 165.824 311.847 165.237 312.22L164.497 310.74C165.19 310.273 165.884 309.927 166.577 309.7C167.284 309.473 168.024 309.36 168.797 309.36C170.197 309.36 171.297 309.733 172.097 310.48C172.91 311.213 173.317 312.26 173.317 313.62V317.52C173.317 317.773 173.357 317.953 173.437 318.06C173.53 318.167 173.684 318.227 173.897 318.24V320C173.697 320.04 173.517 320.067 173.357 320.08C173.197 320.093 173.064 320.1 172.957 320.1C172.49 320.1 172.137 319.987 171.897 319.76C171.657 319.533 171.517 319.267 171.477 318.96L171.417 318.36C170.964 318.947 170.384 319.4 169.677 319.72C168.97 320.04 168.257 320.2 167.537 320.2C166.844 320.2 166.224 320.06 165.677 319.78C165.13 319.487 164.704 319.093 164.397 318.6C164.09 318.107 163.937 317.553 163.937 316.94ZM170.597 317.58C170.757 317.407 170.884 317.233 170.977 317.06C171.07 316.887 171.117 316.733 171.117 316.6V315.4C170.744 315.253 170.35 315.147 169.937 315.08C169.524 315 169.117 314.96 168.717 314.96C167.917 314.96 167.264 315.12 166.757 315.44C166.264 315.76 166.017 316.2 166.017 316.76C166.017 317.067 166.097 317.36 166.257 317.64C166.43 317.92 166.67 318.147 166.977 318.32C167.297 318.493 167.69 318.58 168.157 318.58C168.637 318.58 169.097 318.487 169.537 318.3C169.977 318.113 170.33 317.873 170.597 317.58ZM181.866 311.44C181.013 311.453 180.253 311.647 179.586 312.02C178.933 312.393 178.466 312.92 178.186 313.6V320H175.986V309.54H178.026V311.88C178.386 311.16 178.859 310.587 179.446 310.16C180.033 309.72 180.653 309.48 181.306 309.44C181.439 309.44 181.546 309.44 181.626 309.44C181.719 309.44 181.799 309.447 181.866 309.46V311.44ZM189.346 311.44C188.493 311.453 187.733 311.647 187.066 312.02C186.413 312.393 185.946 312.92 185.666 313.6V320H183.466V309.54H185.506V311.88C185.866 311.16 186.34 310.587 186.926 310.16C187.513 309.72 188.133 309.48 188.786 309.44C188.92 309.44 189.026 309.44 189.106 309.44C189.2 309.44 189.28 309.447 189.346 309.46V311.44ZM190.947 320V309.54H193.147V320H190.947ZM190.947 307.82V305.4H193.147V307.82H190.947ZM200.531 320.2C199.717 320.2 198.977 320.06 198.311 319.78C197.657 319.487 197.091 319.093 196.611 318.6C196.131 318.093 195.757 317.52 195.491 316.88C195.237 316.227 195.111 315.533 195.111 314.8C195.111 313.813 195.337 312.913 195.791 312.1C196.244 311.273 196.877 310.613 197.691 310.12C198.504 309.613 199.457 309.36 200.551 309.36C201.644 309.36 202.584 309.613 203.371 310.12C204.171 310.613 204.791 311.267 205.231 312.08C205.671 312.893 205.891 313.767 205.891 314.7C205.891 314.86 205.884 315.013 205.871 315.16C205.857 315.293 205.844 315.407 205.831 315.5H197.451C197.491 316.113 197.657 316.653 197.951 317.12C198.257 317.573 198.644 317.933 199.111 318.2C199.577 318.453 200.077 318.58 200.611 318.58C201.197 318.58 201.751 318.433 202.271 318.14C202.804 317.847 203.164 317.46 203.351 316.98L205.231 317.52C205.004 318.027 204.657 318.487 204.191 318.9C203.737 319.3 203.197 319.62 202.571 319.86C201.944 320.087 201.264 320.2 200.531 320.2ZM197.391 314.04H203.711C203.671 313.44 203.497 312.913 203.191 312.46C202.897 311.993 202.517 311.633 202.051 311.38C201.597 311.113 201.091 310.98 200.531 310.98C199.984 310.98 199.477 311.113 199.011 311.38C198.557 311.633 198.184 311.993 197.891 312.46C197.597 312.913 197.431 313.44 197.391 314.04ZM213.565 311.44C212.712 311.453 211.952 311.647 211.285 312.02C210.632 312.393 210.165 312.92 209.885 313.6V320H207.685V309.54H209.725V311.88C210.085 311.16 210.559 310.587 211.145 310.16C211.732 309.72 212.352 309.48 213.005 309.44C213.139 309.44 213.245 309.44 213.325 309.44C213.419 309.44 213.499 309.447 213.565 309.46V311.44ZM212.995 320V317.44H214.815V320H212.995ZM66.6777 332.14C66.5444 331.993 66.3511 331.84 66.0977 331.68C65.8444 331.507 65.5444 331.347 65.1977 331.2C64.8511 331.053 64.4777 330.933 64.0777 330.84C63.6777 330.747 63.2644 330.7 62.8377 330.7C61.9044 330.7 61.2111 330.873 60.7577 331.22C60.3044 331.567 60.0777 332.047 60.0777 332.66C60.0777 333.113 60.2044 333.473 60.4577 333.74C60.7111 333.993 61.0977 334.207 61.6177 334.38C62.1377 334.553 62.7911 334.74 63.5777 334.94C64.5377 335.167 65.3711 335.44 66.0777 335.76C66.7844 336.067 67.3244 336.48 67.6977 337C68.0711 337.52 68.2577 338.207 68.2577 339.06C68.2577 339.78 68.1244 340.4 67.8577 340.92C67.5911 341.44 67.2177 341.867 66.7377 342.2C66.2577 342.52 65.7044 342.76 65.0777 342.92C64.4511 343.067 63.7777 343.14 63.0577 343.14C62.3511 343.14 61.6444 343.067 60.9377 342.92C60.2444 342.773 59.5777 342.56 58.9377 342.28C58.3111 341.987 57.7311 341.633 57.1977 341.22L58.2177 339.3C58.3911 339.473 58.6377 339.667 58.9577 339.88C59.2911 340.08 59.6711 340.273 60.0977 340.46C60.5377 340.647 61.0111 340.807 61.5177 340.94C62.0377 341.06 62.5644 341.12 63.0977 341.12C63.9911 341.12 64.6711 340.967 65.1377 340.66C65.6177 340.34 65.8577 339.887 65.8577 339.3C65.8577 338.82 65.7044 338.44 65.3977 338.16C65.0911 337.867 64.6444 337.62 64.0577 337.42C63.4711 337.22 62.7711 337.02 61.9577 336.82C61.0244 336.567 60.2444 336.293 59.6177 336C58.9911 335.693 58.5177 335.307 58.1977 334.84C57.8911 334.36 57.7377 333.753 57.7377 333.02C57.7377 332.087 57.9644 331.3 58.4177 330.66C58.8711 330.007 59.4844 329.52 60.2577 329.2C61.0444 328.867 61.9244 328.7 62.8977 328.7C63.5377 328.7 64.1444 328.773 64.7177 328.92C65.2911 329.053 65.8244 329.24 66.3177 329.48C66.8244 329.72 67.2844 329.993 67.6977 330.3L66.6777 332.14ZM74.9643 343.2C74.151 343.2 73.411 343.06 72.7443 342.78C72.091 342.487 71.5243 342.093 71.0443 341.6C70.5643 341.093 70.191 340.52 69.9243 339.88C69.671 339.227 69.5443 338.533 69.5443 337.8C69.5443 336.813 69.771 335.913 70.2243 335.1C70.6776 334.273 71.311 333.613 72.1243 333.12C72.9376 332.613 73.891 332.36 74.9843 332.36C76.0776 332.36 77.0176 332.613 77.8043 333.12C78.6043 333.613 79.2243 334.267 79.6643 335.08C80.1043 335.893 80.3243 336.767 80.3243 337.7C80.3243 337.86 80.3176 338.013 80.3043 338.16C80.291 338.293 80.2776 338.407 80.2643 338.5H71.8843C71.9243 339.113 72.091 339.653 72.3843 340.12C72.691 340.573 73.0776 340.933 73.5443 341.2C74.011 341.453 74.511 341.58 75.0443 341.58C75.631 341.58 76.1843 341.433 76.7043 341.14C77.2376 340.847 77.5976 340.46 77.7843 339.98L79.6643 340.52C79.4376 341.027 79.091 341.487 78.6243 341.9C78.171 342.3 77.631 342.62 77.0043 342.86C76.3776 343.087 75.6976 343.2 74.9643 343.2ZM71.8243 337.04H78.1443C78.1043 336.44 77.931 335.913 77.6243 335.46C77.331 334.993 76.951 334.633 76.4843 334.38C76.031 334.113 75.5243 333.98 74.9643 333.98C74.4176 333.98 73.911 334.113 73.4443 334.38C72.991 334.633 72.6176 334.993 72.3243 335.46C72.031 335.913 71.8643 336.44 71.8243 337.04ZM91.4988 343H89.2988V337.14C89.2988 336.167 89.1388 335.453 88.8188 335C88.5122 334.547 88.0522 334.32 87.4388 334.32C87.0122 334.32 86.5855 334.427 86.1588 334.64C85.7455 334.853 85.3722 335.147 85.0388 335.52C84.7055 335.88 84.4655 336.3 84.3188 336.78V343H82.1188V332.54H84.1188V334.64C84.3855 334.173 84.7322 333.773 85.1588 333.44C85.5988 333.093 86.0922 332.827 86.6388 332.64C87.1855 332.453 87.7655 332.36 88.3788 332.36C89.0055 332.36 89.5188 332.473 89.9188 332.7C90.3322 332.927 90.6522 333.24 90.8788 333.64C91.1188 334.027 91.2788 334.48 91.3588 335C91.4522 335.507 91.4988 336.047 91.4988 336.62V343ZM93.3924 337.78C93.3924 336.78 93.5924 335.873 93.9924 335.06C94.4058 334.233 94.9658 333.58 95.6724 333.1C96.3791 332.607 97.1924 332.36 98.1124 332.36C98.9124 332.36 99.6324 332.567 100.272 332.98C100.926 333.393 101.432 333.907 101.792 334.52V328.4H103.992V340.52C103.992 340.773 104.039 340.953 104.132 341.06C104.226 341.167 104.379 341.227 104.592 341.24V343C104.179 343.067 103.859 343.1 103.632 343.1C103.219 343.1 102.866 342.98 102.572 342.74C102.292 342.5 102.146 342.213 102.132 341.88L102.112 341.1C101.712 341.767 101.172 342.287 100.492 342.66C99.8124 343.02 99.1058 343.2 98.3724 343.2C97.6524 343.2 96.9858 343.06 96.3724 342.78C95.7724 342.5 95.2458 342.107 94.7924 341.6C94.3524 341.093 94.0058 340.513 93.7524 339.86C93.5124 339.207 93.3924 338.513 93.3924 337.78ZM101.792 339.24V336.5C101.646 336.073 101.406 335.693 101.072 335.36C100.752 335.013 100.386 334.74 99.9724 334.54C99.5724 334.34 99.1724 334.24 98.7724 334.24C98.3058 334.24 97.8791 334.34 97.4924 334.54C97.1191 334.74 96.7924 335.007 96.5124 335.34C96.2458 335.673 96.0391 336.053 95.8924 336.48C95.7458 336.907 95.6724 337.353 95.6724 337.82C95.6724 338.3 95.7524 338.753 95.9124 339.18C96.0724 339.593 96.2991 339.967 96.5924 340.3C96.8991 340.62 97.2458 340.873 97.6324 341.06C98.0324 341.233 98.4658 341.32 98.9324 341.32C99.2258 341.32 99.5191 341.267 99.8124 341.16C100.119 341.053 100.406 340.907 100.672 340.72C100.952 340.533 101.186 340.313 101.372 340.06C101.572 339.807 101.712 339.533 101.792 339.24ZM111.527 343.2C110.713 343.2 109.973 343.06 109.307 342.78C108.653 342.487 108.087 342.093 107.607 341.6C107.127 341.093 106.753 340.52 106.487 339.88C106.233 339.227 106.107 338.533 106.107 337.8C106.107 336.813 106.333 335.913 106.787 335.1C107.24 334.273 107.873 333.613 108.687 333.12C109.5 332.613 110.453 332.36 111.547 332.36C112.64 332.36 113.58 332.613 114.367 333.12C115.167 333.613 115.787 334.267 116.227 335.08C116.667 335.893 116.887 336.767 116.887 337.7C116.887 337.86 116.88 338.013 116.867 338.16C116.853 338.293 116.84 338.407 116.827 338.5H108.447C108.487 339.113 108.653 339.653 108.947 340.12C109.253 340.573 109.64 340.933 110.107 341.2C110.573 341.453 111.073 341.58 111.607 341.58C112.193 341.58 112.747 341.433 113.267 341.14C113.8 340.847 114.16 340.46 114.347 339.98L116.227 340.52C116 341.027 115.653 341.487 115.187 341.9C114.733 342.3 114.193 342.62 113.567 342.86C112.94 343.087 112.26 343.2 111.527 343.2ZM108.387 337.04H114.707C114.667 336.44 114.493 335.913 114.187 335.46C113.893 334.993 113.513 334.633 113.047 334.38C112.593 334.113 112.087 333.98 111.527 333.98C110.98 333.98 110.473 334.113 110.007 334.38C109.553 334.633 109.18 334.993 108.887 335.46C108.593 335.913 108.427 336.44 108.387 337.04ZM124.561 334.44C123.708 334.453 122.948 334.647 122.281 335.02C121.628 335.393 121.161 335.92 120.881 336.6V343H118.681V332.54H120.721V334.88C121.081 334.16 121.555 333.587 122.141 333.16C122.728 332.72 123.348 332.48 124.001 332.44C124.135 332.44 124.241 332.44 124.321 332.44C124.415 332.44 124.495 332.447 124.561 332.46V334.44ZM135.394 343.2C134.581 343.2 133.841 343.06 133.174 342.78C132.521 342.487 131.954 342.087 131.474 341.58C130.994 341.073 130.621 340.493 130.354 339.84C130.101 339.187 129.974 338.493 129.974 337.76C129.974 336.773 130.194 335.873 130.634 335.06C131.087 334.247 131.714 333.593 132.514 333.1C133.327 332.607 134.287 332.36 135.394 332.36C136.461 332.36 137.387 332.6 138.174 333.08C138.974 333.547 139.561 334.173 139.934 334.96L137.794 335.64C137.554 335.2 137.214 334.86 136.774 334.62C136.347 334.367 135.874 334.24 135.354 334.24C134.767 334.24 134.234 334.393 133.754 334.7C133.287 334.993 132.914 335.407 132.634 335.94C132.367 336.46 132.234 337.067 132.234 337.76C132.234 338.427 132.374 339.033 132.654 339.58C132.934 340.113 133.307 340.54 133.774 340.86C134.254 341.167 134.787 341.32 135.374 341.32C135.734 341.32 136.081 341.26 136.414 341.14C136.761 341.007 137.061 340.833 137.314 340.62C137.567 340.393 137.747 340.147 137.854 339.88L140.014 340.52C139.787 341.04 139.447 341.5 138.994 341.9C138.554 342.3 138.027 342.62 137.414 342.86C136.814 343.087 136.141 343.2 135.394 343.2ZM146.428 343.2C145.602 343.2 144.862 343.06 144.208 342.78C143.555 342.487 142.988 342.087 142.508 341.58C142.042 341.073 141.682 340.5 141.428 339.86C141.175 339.207 141.048 338.513 141.048 337.78C141.048 337.047 141.175 336.353 141.428 335.7C141.682 335.047 142.042 334.473 142.508 333.98C142.988 333.473 143.555 333.08 144.208 332.8C144.875 332.507 145.615 332.36 146.428 332.36C147.242 332.36 147.975 332.507 148.628 332.8C149.295 333.08 149.862 333.473 150.328 333.98C150.808 334.473 151.175 335.047 151.428 335.7C151.682 336.353 151.808 337.047 151.808 337.78C151.808 338.513 151.682 339.207 151.428 339.86C151.175 340.5 150.808 341.073 150.328 341.58C149.862 342.087 149.295 342.487 148.628 342.78C147.975 343.06 147.242 343.2 146.428 343.2ZM143.308 337.8C143.308 338.467 143.448 339.067 143.728 339.6C144.008 340.133 144.382 340.553 144.848 340.86C145.315 341.167 145.842 341.32 146.428 341.32C147.002 341.32 147.522 341.167 147.988 340.86C148.468 340.54 148.848 340.113 149.128 339.58C149.408 339.033 149.548 338.433 149.548 337.78C149.548 337.113 149.408 336.513 149.128 335.98C148.848 335.447 148.468 335.027 147.988 334.72C147.522 334.4 147.002 334.24 146.428 334.24C145.842 334.24 145.315 334.4 144.848 334.72C144.382 335.04 144.008 335.467 143.728 336C143.448 336.52 143.308 337.12 143.308 337.8ZM163.139 343H160.939V337.14C160.939 336.167 160.779 335.453 160.459 335C160.153 334.547 159.693 334.32 159.079 334.32C158.653 334.32 158.226 334.427 157.799 334.64C157.386 334.853 157.013 335.147 156.679 335.52C156.346 335.88 156.106 336.3 155.959 336.78V343H153.759V332.54H155.759V334.64C156.026 334.173 156.373 333.773 156.799 333.44C157.239 333.093 157.733 332.827 158.279 332.64C158.826 332.453 159.406 332.36 160.019 332.36C160.646 332.36 161.159 332.473 161.559 332.7C161.973 332.927 162.293 333.24 162.519 333.64C162.759 334.027 162.919 334.48 162.999 335C163.093 335.507 163.139 336.047 163.139 336.62V343ZM166.215 334.5H164.815V332.8H166.215V332.38C166.215 331.833 166.302 331.313 166.475 330.82C166.648 330.313 166.908 329.867 167.255 329.48C167.602 329.08 168.022 328.767 168.515 328.54C169.022 328.313 169.608 328.2 170.275 328.2C170.768 328.2 171.228 328.253 171.655 328.36C172.095 328.467 172.495 328.613 172.855 328.8C173.228 328.973 173.555 329.16 173.835 329.36L172.935 331C172.642 330.733 172.268 330.513 171.815 330.34C171.362 330.167 170.895 330.08 170.415 330.08C169.962 330.08 169.582 330.187 169.275 330.4C168.982 330.613 168.762 330.893 168.615 331.24C168.482 331.587 168.415 331.947 168.415 332.32V332.8H173.895V343H171.695V334.5H168.415V343H166.215V334.5ZM182.413 334.44C181.56 334.453 180.8 334.647 180.133 335.02C179.48 335.393 179.013 335.92 178.733 336.6V343H176.533V332.54H178.573V334.88C178.933 334.16 179.406 333.587 179.993 333.16C180.58 332.72 181.2 332.48 181.853 332.44C181.986 332.44 182.093 332.44 182.173 332.44C182.266 332.44 182.346 332.447 182.413 332.46V334.44ZM200.013 343H197.813V337.14C197.813 336.167 197.653 335.453 197.333 335C197.013 334.547 196.547 334.32 195.933 334.32C195.32 334.32 194.747 334.553 194.213 335.02C193.693 335.473 193.327 336.067 193.113 336.8V343H190.913V337.14C190.913 336.167 190.753 335.453 190.433 335C190.113 334.547 189.653 334.32 189.053 334.32C188.44 334.32 187.867 334.547 187.333 335C186.813 335.453 186.44 336.047 186.213 336.78V343H184.013V332.54H186.013V334.64C186.427 333.907 186.967 333.347 187.633 332.96C188.313 332.56 189.087 332.36 189.953 332.36C190.82 332.36 191.5 332.587 191.993 333.04C192.5 333.493 192.813 334.06 192.933 334.74C193.387 333.967 193.94 333.38 194.593 332.98C195.26 332.567 196.02 332.36 196.873 332.36C197.487 332.36 198 332.473 198.413 332.7C198.827 332.927 199.147 333.24 199.373 333.64C199.6 334.027 199.76 334.48 199.853 335C199.96 335.507 200.013 336.047 200.013 336.62V343ZM206.269 343.2C205.389 343.2 204.555 343.06 203.769 342.78C202.982 342.487 202.309 342.053 201.749 341.48L202.569 340C203.169 340.533 203.769 340.92 204.369 341.16C204.982 341.4 205.589 341.52 206.189 341.52C206.802 341.52 207.302 341.407 207.689 341.18C208.075 340.94 208.269 340.593 208.269 340.14C208.269 339.807 208.169 339.56 207.969 339.4C207.769 339.24 207.475 339.1 207.089 338.98C206.715 338.86 206.262 338.727 205.729 338.58C204.982 338.353 204.355 338.12 203.849 337.88C203.342 337.627 202.962 337.32 202.709 336.96C202.455 336.6 202.329 336.14 202.329 335.58C202.329 334.9 202.502 334.32 202.849 333.84C203.195 333.36 203.675 332.993 204.289 332.74C204.915 332.487 205.635 332.36 206.449 332.36C207.209 332.36 207.909 332.48 208.549 332.72C209.202 332.947 209.775 333.307 210.269 333.8L209.329 335.26C208.862 334.833 208.382 334.52 207.889 334.32C207.409 334.12 206.889 334.02 206.329 334.02C206.009 334.02 205.702 334.06 205.409 334.14C205.115 334.207 204.869 334.34 204.669 334.54C204.482 334.727 204.389 334.993 204.389 335.34C204.389 335.62 204.469 335.847 204.629 336.02C204.789 336.193 205.029 336.34 205.349 336.46C205.669 336.58 206.062 336.713 206.529 336.86C207.342 337.1 208.035 337.34 208.609 337.58C209.182 337.807 209.622 338.107 209.929 338.48C210.249 338.84 210.409 339.34 210.409 339.98C210.409 340.993 210.029 341.787 209.269 342.36C208.522 342.92 207.522 343.2 206.269 343.2ZM216.654 337.78C216.654 336.78 216.854 335.873 217.254 335.06C217.667 334.233 218.227 333.58 218.934 333.1C219.641 332.607 220.454 332.36 221.374 332.36C222.174 332.36 222.894 332.567 223.534 332.98C224.187 333.393 224.694 333.907 225.054 334.52V328.4H227.254V340.52C227.254 340.773 227.301 340.953 227.394 341.06C227.487 341.167 227.641 341.227 227.854 341.24V343C227.441 343.067 227.121 343.1 226.894 343.1C226.481 343.1 226.127 342.98 225.834 342.74C225.554 342.5 225.407 342.213 225.394 341.88L225.374 341.1C224.974 341.767 224.434 342.287 223.754 342.66C223.074 343.02 222.367 343.2 221.634 343.2C220.914 343.2 220.247 343.06 219.634 342.78C219.034 342.5 218.507 342.107 218.054 341.6C217.614 341.093 217.267 340.513 217.014 339.86C216.774 339.207 216.654 338.513 216.654 337.78ZM225.054 339.24V336.5C224.907 336.073 224.667 335.693 224.334 335.36C224.014 335.013 223.647 334.74 223.234 334.54C222.834 334.34 222.434 334.24 222.034 334.24C221.567 334.24 221.141 334.34 220.754 334.54C220.381 334.74 220.054 335.007 219.774 335.34C219.507 335.673 219.301 336.053 219.154 336.48C219.007 336.907 218.934 337.353 218.934 337.82C218.934 338.3 219.014 338.753 219.174 339.18C219.334 339.593 219.561 339.967 219.854 340.3C220.161 340.62 220.507 340.873 220.894 341.06C221.294 341.233 221.727 341.32 222.194 341.32C222.487 341.32 222.781 341.267 223.074 341.16C223.381 341.053 223.667 340.907 223.934 340.72C224.214 340.533 224.447 340.313 224.634 340.06C224.834 339.807 224.974 339.533 225.054 339.24ZM234.789 343.2C233.975 343.2 233.235 343.06 232.569 342.78C231.915 342.487 231.349 342.093 230.869 341.6C230.389 341.093 230.015 340.52 229.749 339.88C229.495 339.227 229.369 338.533 229.369 337.8C229.369 336.813 229.595 335.913 230.049 335.1C230.502 334.273 231.135 333.613 231.949 333.12C232.762 332.613 233.715 332.36 234.809 332.36C235.902 332.36 236.842 332.613 237.629 333.12C238.429 333.613 239.049 334.267 239.489 335.08C239.929 335.893 240.149 336.767 240.149 337.7C240.149 337.86 240.142 338.013 240.129 338.16C240.115 338.293 240.102 338.407 240.089 338.5H231.709C231.749 339.113 231.915 339.653 232.209 340.12C232.515 340.573 232.902 340.933 233.369 341.2C233.835 341.453 234.335 341.58 234.869 341.58C235.455 341.58 236.009 341.433 236.529 341.14C237.062 340.847 237.422 340.46 237.609 339.98L239.489 340.52C239.262 341.027 238.915 341.487 238.449 341.9C237.995 342.3 237.455 342.62 236.829 342.86C236.202 343.087 235.522 343.2 234.789 343.2ZM231.649 337.04H237.969C237.929 336.44 237.755 335.913 237.449 335.46C237.155 334.993 236.775 334.633 236.309 334.38C235.855 334.113 235.349 333.98 234.789 333.98C234.242 333.98 233.735 334.113 233.269 334.38C232.815 334.633 232.442 334.993 232.149 335.46C231.855 335.913 231.689 336.44 231.649 337.04ZM241.963 328.4H244.163V339.98C244.163 340.513 244.243 340.853 244.403 341C244.563 341.147 244.763 341.22 245.003 341.22C245.27 341.22 245.516 341.193 245.743 341.14C245.983 341.087 246.19 341.02 246.363 340.94L246.683 342.68C246.363 342.813 245.983 342.927 245.543 343.02C245.103 343.113 244.71 343.16 244.363 343.16C243.616 343.16 243.03 342.953 242.603 342.54C242.176 342.113 241.963 341.527 241.963 340.78V328.4ZM247.959 343V332.54H250.159V343H247.959ZM247.959 330.82V328.4H250.159V330.82H247.959ZM255.722 343L251.742 332.54H254.022L257.002 340.96L259.982 332.54H262.102L258.122 343H255.722ZM268.07 343.2C267.256 343.2 266.516 343.06 265.85 342.78C265.196 342.487 264.63 342.093 264.15 341.6C263.67 341.093 263.296 340.52 263.03 339.88C262.776 339.227 262.65 338.533 262.65 337.8C262.65 336.813 262.876 335.913 263.33 335.1C263.783 334.273 264.416 333.613 265.23 333.12C266.043 332.613 266.996 332.36 268.09 332.36C269.183 332.36 270.123 332.613 270.91 333.12C271.71 333.613 272.33 334.267 272.77 335.08C273.21 335.893 273.43 336.767 273.43 337.7C273.43 337.86 273.423 338.013 273.41 338.16C273.396 338.293 273.383 338.407 273.37 338.5H264.99C265.03 339.113 265.196 339.653 265.49 340.12C265.796 340.573 266.183 340.933 266.65 341.2C267.116 341.453 267.616 341.58 268.15 341.58C268.736 341.58 269.29 341.433 269.81 341.14C270.343 340.847 270.703 340.46 270.89 339.98L272.77 340.52C272.543 341.027 272.196 341.487 271.73 341.9C271.276 342.3 270.736 342.62 270.11 342.86C269.483 343.087 268.803 343.2 268.07 343.2ZM264.93 337.04H271.25C271.21 336.44 271.036 335.913 270.73 335.46C270.436 334.993 270.056 334.633 269.59 334.38C269.136 334.113 268.63 333.98 268.07 333.98C267.523 333.98 267.016 334.113 266.55 334.38C266.096 334.633 265.723 334.993 265.43 335.46C265.136 335.913 264.97 336.44 264.93 337.04ZM281.104 334.44C280.251 334.453 279.491 334.647 278.824 335.02C278.171 335.393 277.704 335.92 277.424 336.6V343H275.224V332.54H277.264V334.88C277.624 334.16 278.098 333.587 278.684 333.16C279.271 332.72 279.891 332.48 280.544 332.44C280.678 332.44 280.784 332.44 280.864 332.44C280.958 332.44 281.038 332.447 281.104 332.46V334.44ZM283.065 345.46C283.265 345.487 283.458 345.513 283.645 345.54C283.845 345.58 284.005 345.6 284.125 345.6C284.351 345.6 284.545 345.527 284.705 345.38C284.878 345.247 285.051 344.993 285.225 344.62C285.398 344.247 285.611 343.707 285.865 343L281.565 332.54H283.865L287.065 340.76L289.905 332.54H292.025L287.285 345.42C287.138 345.807 286.925 346.16 286.645 346.48C286.365 346.813 286.018 347.073 285.605 347.26C285.191 347.447 284.705 347.54 284.145 347.54C283.985 347.54 283.818 347.527 283.645 347.5C283.471 347.473 283.278 347.433 283.065 347.38V345.46Z" fill="#001835"/>
<rect x="29" width="82" height="35" rx="8" fill="#BBE2EC"/>
<path d="M46.072 13.614C45.892 13.41 45.682 13.23 45.442 13.074C45.202 12.906 44.932 12.762 44.632 12.642C44.332 12.522 44.008 12.426 43.66 12.354C43.324 12.282 42.964 12.246 42.58 12.246C41.464 12.246 40.642 12.462 40.114 12.894C39.598 13.314 39.34 13.89 39.34 14.622C39.34 15.126 39.46 15.522 39.7 15.81C39.952 16.098 40.342 16.332 40.87 16.512C41.398 16.692 42.07 16.878 42.886 17.07C43.798 17.262 44.584 17.49 45.244 17.754C45.904 18.018 46.414 18.378 46.774 18.834C47.134 19.278 47.314 19.884 47.314 20.652C47.314 21.24 47.2 21.75 46.972 22.182C46.744 22.614 46.426 22.974 46.018 23.262C45.61 23.55 45.124 23.766 44.56 23.91C43.996 24.042 43.378 24.108 42.706 24.108C42.046 24.108 41.41 24.042 40.798 23.91C40.198 23.766 39.628 23.562 39.088 23.298C38.548 23.022 38.044 22.674 37.576 22.254L38.206 21.228C38.434 21.468 38.704 21.696 39.016 21.912C39.34 22.116 39.694 22.302 40.078 22.47C40.474 22.638 40.894 22.77 41.338 22.866C41.794 22.95 42.262 22.992 42.742 22.992C43.762 22.992 44.554 22.806 45.118 22.434C45.694 22.062 45.982 21.51 45.982 20.778C45.982 20.25 45.838 19.83 45.55 19.518C45.262 19.194 44.83 18.93 44.254 18.726C43.678 18.522 42.97 18.324 42.13 18.132C41.242 17.928 40.492 17.7 39.88 17.448C39.268 17.196 38.806 16.866 38.494 16.458C38.194 16.038 38.044 15.486 38.044 14.802C38.044 14.01 38.236 13.344 38.62 12.804C39.016 12.252 39.556 11.838 40.24 11.562C40.924 11.274 41.71 11.13 42.598 11.13C43.162 11.13 43.684 11.19 44.164 11.31C44.656 11.418 45.106 11.58 45.514 11.796C45.934 12.012 46.324 12.282 46.684 12.606L46.072 13.614ZM53.6254 23.55C53.5294 23.586 53.3794 23.652 53.1754 23.748C52.9714 23.844 52.7254 23.928 52.4374 24C52.1494 24.072 51.8374 24.108 51.5014 24.108C51.1534 24.108 50.8234 24.042 50.5114 23.91C50.2114 23.778 49.9714 23.58 49.7914 23.316C49.6114 23.04 49.5214 22.704 49.5214 22.308V15.594H48.2254V14.622H49.5214V11.454H50.7454V14.622H52.9054V15.594H50.7454V21.966C50.7694 22.302 50.8894 22.554 51.1054 22.722C51.3334 22.89 51.5914 22.974 51.8794 22.974C52.2154 22.974 52.5214 22.92 52.7974 22.812C53.0734 22.692 53.2414 22.608 53.3014 22.56L53.6254 23.55ZM59.0465 24.18C58.3745 24.18 57.7505 24.054 57.1745 23.802C56.5985 23.538 56.1005 23.184 55.6805 22.74C55.2605 22.284 54.9305 21.762 54.6905 21.174C54.4625 20.586 54.3485 19.956 54.3485 19.284C54.3485 18.408 54.5465 17.604 54.9425 16.872C55.3505 16.14 55.9085 15.558 56.6165 15.126C57.3245 14.682 58.1285 14.46 59.0285 14.46C59.9525 14.46 60.7565 14.682 61.4405 15.126C62.1365 15.57 62.6825 16.158 63.0785 16.89C63.4745 17.61 63.6725 18.402 63.6725 19.266C63.6725 19.362 63.6725 19.458 63.6725 19.554C63.6725 19.638 63.6665 19.704 63.6545 19.752H55.6265C55.6865 20.424 55.8725 21.024 56.1845 21.552C56.5085 22.068 56.9225 22.482 57.4265 22.794C57.9425 23.094 58.5005 23.244 59.1005 23.244C59.7125 23.244 60.2885 23.088 60.8285 22.776C61.3805 22.464 61.7645 22.056 61.9805 21.552L63.0425 21.84C62.8505 22.284 62.5565 22.686 62.1605 23.046C61.7645 23.406 61.2965 23.688 60.7565 23.892C60.2285 24.084 59.6585 24.18 59.0465 24.18ZM55.5905 18.87H62.5205C62.4725 18.186 62.2865 17.586 61.9625 17.07C61.6505 16.554 61.2365 16.152 60.7205 15.864C60.2165 15.564 59.6585 15.414 59.0465 15.414C58.4345 15.414 57.8765 15.564 57.3725 15.864C56.8685 16.152 56.4545 16.56 56.1305 17.088C55.8185 17.604 55.6385 18.198 55.5905 18.87ZM70.3489 24.18C69.5689 24.18 68.8669 23.976 68.2429 23.568C67.6309 23.16 67.1449 22.656 66.7849 22.056V27.834H65.5609V14.622H66.6589V16.44C67.0309 15.852 67.5289 15.378 68.1529 15.018C68.7769 14.646 69.4429 14.46 70.1509 14.46C70.7989 14.46 71.3929 14.598 71.9329 14.874C72.4729 15.138 72.9409 15.498 73.3369 15.954C73.7329 16.41 74.0389 16.932 74.2549 17.52C74.4829 18.096 74.5969 18.696 74.5969 19.32C74.5969 20.196 74.4169 21.006 74.0569 21.75C73.7089 22.482 73.2169 23.07 72.5809 23.514C71.9449 23.958 71.2009 24.18 70.3489 24.18ZM70.0069 23.1C70.5229 23.1 70.9849 22.998 71.3929 22.794C71.8009 22.578 72.1489 22.29 72.4369 21.93C72.7369 21.57 72.9649 21.168 73.1209 20.724C73.2769 20.268 73.3549 19.8 73.3549 19.32C73.3549 18.816 73.2649 18.336 73.0849 17.88C72.9169 17.424 72.6709 17.022 72.3469 16.674C72.0229 16.326 71.6509 16.05 71.2309 15.846C70.8109 15.642 70.3549 15.54 69.8629 15.54C69.5509 15.54 69.2269 15.6 68.8909 15.72C68.5549 15.84 68.2309 16.014 67.9189 16.242C67.6189 16.458 67.3669 16.704 67.1629 16.98C66.9589 17.256 66.8329 17.55 66.7849 17.862V20.742C66.9769 21.186 67.2349 21.588 67.5589 21.948C67.8829 22.296 68.2549 22.578 68.6749 22.794C69.1069 22.998 69.5509 23.1 70.0069 23.1Z" fill="#001835"/>
<path d="M87.922 26.286V23.424H82.396V21.66L88.552 13.722H89.902V21.624H91.486V23.424H89.902V26.286H87.922ZM84.412 21.624H88.138V16.746L84.412 21.624Z" fill="#001835"/>
<g clip-path="url(#clip0_491_9085)">
<path d="M246.691 90.924L246.964 90.1413C246.055 89.8369 244.464 89.0715 244.327 88.3149C244.164 87.3496 245.091 84.8362 245.464 83.9665L244.654 83.6534C244.509 84.0013 243.236 87.0887 243.473 88.4541C243.727 89.9412 246.382 90.8718 246.691 90.924Z" fill="#333333"/>
<path d="M250.873 80.4356C248.809 83.9285 246.931 87.5191 245.246 91.1935C243.673 95.0723 243.427 97.2204 245.927 98.7337C248.427 100.247 252.9 100.473 252.9 100.473L252.446 107.361L259.2 108.004L261.927 101.978C261.927 101.978 257.655 98.0988 257.382 96.1681C257.109 94.2374 264.127 90.5674 261.927 87.1235C259.727 83.6795 250.873 80.4356 250.873 80.4356Z" fill="#FE9572"/>
<path d="M244.765 83.7515L255.341 88.6992L254.958 89.4492L244.382 84.5016L244.765 83.7515Z" fill="#333333"/>
<path d="M253.527 90.75C253.527 90.75 256.682 86.6625 257.582 88.8106C258.482 90.9588 256.673 94.194 256 94.6201C255.327 95.0463 252.855 94.6201 252.855 94.6201C252.855 94.6201 256 99.5773 257.4 100.647C258.8 101.717 260.773 103.256 261.945 101.943C263.118 100.63 272.973 90.75 273.873 87.0887C274.773 83.4273 264.191 80.2008 263.973 78.6963C263.856 77.4976 263.29 76.3799 262.379 75.5488C261.469 74.7178 260.275 74.2295 259.018 74.1739C255.191 73.7478 246.645 73.7478 248.218 78.2614C248.683 79.5855 249.449 80.7944 250.461 81.8006C251.474 82.8068 252.707 83.5852 254.073 84.0796C254.073 84.0796 252.491 85.8189 252.491 86.6886C252.724 88.0664 253.071 89.4244 253.527 90.75Z" fill="#333333"/>
<path d="M274.5 147.366L279.9 145.427L276.973 141.122L274.5 147.366Z" fill="#00518B"/>
<path d="M278.773 117.658C278.773 117.658 288 144.557 288 147.575C288 150.593 278.773 163.281 278.773 163.281L274.5 161.542C274.5 161.542 278.327 149.923 277.873 147.123C277.418 144.322 269.327 134.643 269.327 134.643C269.327 134.643 274.045 117.006 278.773 117.658Z" fill="#FE9572"/>
<path d="M278.773 117.658C280.231 119.086 281.245 120.875 281.7 122.824C282.609 126.303 286.245 138.965 286.245 138.965C286.245 138.965 281.7 140.47 279.273 142.618C277.598 144.105 276.02 145.688 274.545 147.358L269.373 134.66C269.373 134.66 272.473 120.884 278.773 117.658Z" fill="#40A2E3"/>
<path d="M265.045 107.535L265.955 111.631C265.955 111.631 259.882 109.022 255.155 109.022C250.427 109.022 245.709 108.805 245.709 108.805C245.709 108.805 247.055 105.143 249.536 104.717C252.018 104.291 261.227 104.526 265.045 107.535Z" fill="#4681B5"/>
<path d="M221.336 140.913C220.341 143.871 219.126 146.757 217.7 149.549C215.782 153.028 212.327 184.336 212.327 184.336C211.238 185.054 210.207 185.851 209.245 186.719C208.864 187.276 206.945 192.424 207.136 193.155C207.327 193.885 207.9 194.259 209.055 194.442C210.209 194.625 210.018 193.711 210.982 193.711C211.946 193.711 214.055 195.181 215.591 193.338C217.127 191.494 216.918 183.058 216.918 183.058C216.918 183.058 224.991 157.689 226.918 152.906C228.845 148.123 230.382 143.34 230.382 143.34L221.336 140.913Z" fill="#FE9572"/>
<path d="M230.4 111.84C230.4 111.84 227.927 115.075 225.227 123.25C223.204 129.057 220.799 134.736 218.027 140.252C218.027 140.252 223.2 143.731 227.255 144.34C229.037 144.675 230.841 144.893 232.655 144.992L230.4 111.84Z" fill="#40A2E3"/>
<path d="M266.6 171.978C266.6 171.978 264.427 202.417 263.118 213.619C261.809 224.82 255.282 254.641 255.282 254.641C255.282 254.641 261.809 252.554 261.809 254.433C261.673 255.952 261.196 257.426 260.412 258.754C259.628 260.082 258.554 261.233 257.264 262.129C254.209 264.008 250.9 266.921 250.509 264.843C250.118 262.764 251.164 221.359 250.727 217.784C250.291 214.21 249.209 191.555 249.209 191.555C249.209 191.555 247.246 219.663 245.727 224.655C244.209 229.647 236.364 258.572 236.364 258.572C237.115 260.135 237.428 261.859 237.273 263.573C236.836 265.86 233.136 267.321 232.918 268.365C232.7 269.408 227.7 271.487 226.609 270.861C225.518 270.235 231.4 261.077 231.618 259.198C231.836 257.32 233.527 229.029 233.527 223.62C233.527 218.21 234.618 209.253 234.618 209.253L232.618 175.518L266.6 171.978Z" fill="#333333"/>
<path d="M263.7 109.692L278.773 117.658C278.773 117.658 270.445 140.47 269.545 146.923C268.645 153.376 267.973 175.335 267.973 175.335C263.052 178.464 257.233 180.045 251.327 179.858C244.664 179.585 238.075 178.414 231.754 176.379C231.754 176.379 229.273 129.025 229.5 120.85C229.709 113.266 228.591 112.022 232.427 111.379C236.264 110.735 238.054 108.152 248.4 108.152C258.745 108.152 263.7 109.692 263.7 109.692Z" fill="#40A2E3"/>
<path d="M267.073 153.602C267.073 153.602 246.091 121.693 243.845 108.135L238.973 109.005C238.973 109.005 251.1 143.47 265.045 158.576L267.073 153.602Z" fill="#DE9323"/>
<path d="M283.045 173.831C283.045 173.831 282.6 191.911 281.027 192.555C279.455 193.198 258.745 184.38 257.391 182.014C256.036 179.649 263.236 157.046 264.364 155.533C265.491 154.019 265.936 153.602 267.091 153.602C268.245 153.602 283.045 173.831 283.045 173.831Z" fill="#DE9323"/>
<path d="M281.309 192.233C281.258 192.369 281.158 192.483 281.027 192.555C279.445 193.207 258.745 184.38 257.391 182.014C257.205 181.47 257.159 180.892 257.255 180.327L263.691 180.936L281.309 192.233Z" fill="#B37F00"/>
<path d="M267.073 153.602C267.2 153.602 267.518 153.88 267.982 154.35C267.982 159.82 267.818 182.493 266.636 182.875C265.591 183.206 260.627 182.501 257.391 182.006C256.127 179.475 263.264 157.072 264.382 155.567C265.5 154.063 265.946 153.602 267.073 153.602Z" fill="#B37F00"/>
<path d="M267.073 153.602C267.073 153.602 284.4 160.055 284.846 162.42C285.291 164.786 285.073 175.335 283.5 175.335C281.927 175.335 267.073 170.387 265.727 168.021C264.382 165.656 267.073 153.602 267.073 153.602Z" fill="#DE9323"/>
<path d="M261.809 254.433C261.673 255.952 261.196 257.426 260.412 258.754C259.628 260.082 258.554 261.233 257.264 262.129C254.209 264.008 250.9 266.921 250.509 264.843C250.445 264.495 250.409 263.103 250.409 260.964C256.627 259.181 255.3 254.641 255.3 254.641C255.3 254.641 261.809 252.554 261.809 254.433Z" fill="#E4A548"/>
<path d="M226.555 270.896C225.5 270.287 231 261.634 231.527 259.416C234.827 256.285 236.345 258.607 236.345 258.607C237.097 260.17 237.41 261.894 237.255 263.608C236.818 265.895 233.118 267.356 232.9 268.4C232.682 269.443 227.646 271.504 226.555 270.896Z" fill="#E4A548"/>
<path d="M233.954 262.338C235.682 261.373 236.682 262.077 237.282 263.112C237.269 263.272 237.248 263.432 237.218 263.59C236.782 265.878 233.082 267.339 232.864 268.382C232.645 269.426 227.736 271.461 226.591 270.887C228.291 268.017 231.5 263.721 233.954 262.338Z" fill="#CE8648"/>
</g>
<path d="M178.102 193.326L176.306 170.252C176.265 169.663 176.1 169.089 175.821 168.566C175.543 168.043 175.156 167.58 174.685 167.205C174.218 166.826 173.677 166.541 173.092 166.366C172.506 166.19 171.889 166.129 171.275 166.185L157.117 167.447C155.894 167.564 154.759 168.134 153.956 169.035C153.153 169.936 152.744 171.098 152.816 172.272L154.509 196.912L156.246 196.779L154.517 172.145C154.461 171.401 154.713 170.663 155.219 170.089C155.724 169.515 156.442 169.152 157.218 169.078L171.407 167.837C172.184 167.775 172.952 168.008 173.544 168.487C174.135 168.965 174.504 169.65 174.571 170.393L176.367 193.467L178.102 193.326Z" fill="#333333"/>
<path d="M155.433 193.491L178.838 191.106C179.441 191.041 180.049 191.092 180.628 191.256C181.206 191.42 181.743 191.694 182.207 192.061C182.67 192.429 183.051 192.883 183.327 193.396C183.603 193.909 183.768 194.471 183.813 195.049L187.539 239.363C187.592 239.935 187.526 240.513 187.345 241.063C187.164 241.613 186.871 242.125 186.484 242.569C186.097 243.013 185.624 243.381 185.09 243.65C184.557 243.92 183.975 244.086 183.377 244.14L159.444 246.441C158.838 246.504 158.227 246.449 157.647 246.28C157.067 246.111 156.53 245.832 156.068 245.459C155.606 245.086 155.228 244.627 154.956 244.108C154.685 243.59 154.526 243.023 154.488 242.442L151.264 198.216C151.172 197.068 151.56 195.926 152.342 195.041C153.123 194.155 154.235 193.598 155.433 193.491Z" fill="#0D9276"/>
<path d="M152.927 199.101L181.526 196.456L182.412 206.691L153.812 209.336L152.927 199.101Z" fill="#0C7A63"/>
<path d="M156.618 238.496L185.218 235.847L183.145 210.139L154.545 212.789L156.618 238.496Z" fill="#0C7A63"/>
<path d="M182.487 242.918L184.226 242.774L184.507 246.469L182.768 246.613L182.487 242.918Z" fill="#333333"/>
<path d="M158.792 245.777L160.531 245.633L160.812 249.328L159.073 249.472L158.792 245.777Z" fill="#333333"/>
<path d="M181.951 237.709L183.69 237.565L183.971 241.26L182.232 241.404L181.951 237.709Z" fill="#333333"/>
<path d="M158.379 240.162L160.118 240.017L160.4 243.713L158.66 243.857L158.379 240.162Z" fill="#333333"/>
<path d="M157.084 171.047C157.084 171.047 156.437 170.443 156.283 170.041C156.283 170.041 156.056 169.284 155.863 168.76C155.817 168.623 155.762 168.489 155.699 168.359C155.503 167.986 154.964 167.228 154.746 166.199C154.528 165.171 153.824 160.559 153.824 160.559L156.595 159.698L158.829 159.095C158.829 159.095 163.979 163.693 164.294 164.62C164.324 164.708 164.349 164.798 164.368 164.89C164.559 165.697 164.356 166.391 164.407 166.828C164.425 166.991 164.49 168.606 164.131 168.925C163.943 169.117 163.71 169.258 163.453 169.335C163.195 169.412 162.923 169.422 162.66 169.365C162.66 169.365 161.645 170.202 160.748 170.202C160.748 170.202 159.837 171.005 158.734 170.694C158.739 170.697 157.726 171.407 157.084 171.047Z" fill="#EEA886"/>
<path d="M125.17 119.83C125.772 120.931 126.591 122.351 128.614 127.216C132.372 136.277 139.544 147.647 140.543 149.783C142.082 153.067 153.562 163.909 153.562 163.909C155.442 163.514 159.464 159.058 159.464 159.058C159.464 159.058 146.204 142.913 144.675 139.493C143.361 136.54 142.827 122.393 142.705 118.496L142.675 117.499C137.461 113.061 123.89 117.472 125.17 119.83Z" fill="#0D9276"/>
<path d="M112.907 75.5513C112.907 75.5513 120.739 72.6242 124.351 78.5892C127.962 84.5542 127.617 96.4999 123.667 97.9674C119.718 99.4349 113.788 98.6695 111.764 94.9348C109.741 91.2001 107.918 85.8052 108.005 82.1999C108.092 78.5945 110.844 76.5912 112.907 75.5513Z" fill="#EEA886"/>
<path d="M122.346 97.6005C122.346 97.6005 122.029 99.6566 122.554 100.667C123.079 101.678 112.701 101.707 112.701 101.707C112.701 101.707 111.856 96.2017 110.26 91.5511C108.664 86.9005 122.346 97.6005 122.346 97.6005Z" fill="#EEA886"/>
<path d="M110.268 91.551C110.268 91.551 110.983 92.7334 113.909 92.2742C116.834 91.8149 120.398 87.9245 121.617 87.497C122.836 87.0694 122.849 86.3541 122.849 86.3541L123.614 87.4706L124.91 87.5524C124.91 87.5524 123.728 84.0711 125.511 82.6511C127.294 81.2311 123.664 71.3863 114.286 74.6643C114.286 74.6643 107.084 76.6492 107.348 80.7349C107.612 84.8206 108.648 89.5108 110.268 91.551Z" fill="#323657"/>
<path d="M122.649 84.8628C122.486 84.1766 120.739 82.2234 120.069 84.3138C119.399 86.4042 121.08 89.2442 122.016 89.004C122.953 88.7638 123.063 86.6048 122.649 84.8628Z" fill="#EEA886"/>
<path d="M92.7699 127.568C92.8569 128.594 94.0309 129.708 94.8302 130.257C95.3577 130.619 95.9771 130.823 96.6162 130.846L97.0805 130.862L105.222 131.126C105.222 131.126 111.274 111.557 99.9218 104.096C99.5709 104.141 91.9837 118.135 92.7699 127.568Z" fill="#0D9276"/>
<path d="M122.354 100.071C122.354 100.071 115.964 98.5849 112.366 99.8069L111.822 100.308C111.822 100.308 110.728 102.42 114.846 102.589C118.964 102.758 125.44 103.064 122.354 100.071Z" fill="#0D9276"/>
<path d="M97.3892 249.829C97.3892 249.829 96.4315 253.592 96.3023 254.157C96.173 254.722 90.2742 253.165 90.2742 253.165V248.564C90.2742 248.564 96.698 249.208 97.3892 249.829Z" fill="#666FB3"/>
<path d="M141.923 243.571C141.923 243.571 142.422 247.422 142.51 247.995C142.599 248.568 136.542 249.297 136.542 249.297L134.844 245.022C134.844 245.022 141.052 243.249 141.923 243.571Z" fill="#666FB3"/>
<path d="M101.827 150.844C101.827 150.844 99.6765 159.718 99.0407 168.602C98.4524 176.813 97.3814 185.816 96.5292 194.402C95.5795 203.975 92.8728 219.45 92.733 224.57C92.5932 229.69 88.2825 252.077 88.2825 252.077L99.3019 253.344C99.3019 253.344 106.462 213.801 108.153 209.758C109.844 205.714 118.228 176.898 118.51 173.662C118.792 170.426 101.827 150.844 101.827 150.844Z" fill="#2D314F"/>
<path d="M109.511 149.938C109.511 149.938 110.788 158.979 113.476 167.47C115.96 175.319 118.288 184.081 120.665 192.375C123.316 201.623 126.512 217.004 128.272 221.814C130.032 226.625 134.289 249.022 134.289 249.022L144.998 246.132C144.998 246.132 137.056 206.739 137.136 202.357C137.215 197.974 134.37 168.098 133.438 164.986C132.506 161.875 109.511 149.938 109.511 149.938Z" fill="#2D314F"/>
<path d="M96.4185 253.679C96.4185 253.679 98.0699 256.187 99.7979 257.39C101.526 258.594 108.2 260.146 109.174 261.305C109.875 262.139 110.854 265.298 100.149 263.854C92.5431 262.83 88.7891 263.089 88.1058 261.764C87.4225 260.439 90.2743 252.753 90.2743 252.753C90.2743 252.753 91.902 253.64 96.4185 253.679Z" fill="#2D314F"/>
<path d="M142.442 247.508C142.442 247.508 144.902 249.229 146.953 249.71C149.003 250.19 155.779 249.169 157.111 249.887C158.071 250.403 160.147 252.978 149.664 255.588C142.218 257.443 138.824 259.069 137.7 258.09C136.576 257.111 136.39 248.915 136.39 248.915C136.39 248.915 138.23 249.138 142.442 247.508Z" fill="#2D314F"/>
<path d="M136.109 172.92C137.048 172.786 133.779 144.798 134.027 143.043C134.196 141.871 134.17 132.775 134.101 127.103L135.122 121.365C135.846 120.854 136.597 120.38 137.37 119.945C138.789 119.125 140.572 118.188 142.551 117.198C142.321 115.841 142.16 114.775 142.1 114.152C141.606 109.111 138.222 106.44 136.296 105.315C135.874 105.061 135.433 104.841 134.977 104.656C134.249 104.344 133.531 104.046 132.837 103.758C128.215 101.858 122.348 100.063 122.348 100.063H112.92C112.92 100.063 105.741 101.499 101.462 103.249C100.917 103.475 100.399 103.76 99.9163 104.099L101.198 130.994C101.197 130.999 101.197 131.004 101.198 131.01C101.198 131.021 101.198 131.033 101.198 131.044C101.774 134.829 102.383 139.292 102.583 142.422C102.668 143.7 101.206 150.559 100.444 156.86L97.7795 171.928C97.7795 171.928 99.3333 178.175 136.109 172.92Z" fill="#0D9276"/>
<defs>
<clipPath id="clip0_491_9085">
<rect width="100" height="197" fill="white" transform="matrix(-1 0 0 1 288 74)"/>
</clipPath>
</defs>
</svg>
