<svg width="349" height="376" viewBox="0 0 349 376" fill="none" xmlns="http://www.w3.org/2000/svg">
<rect opacity="0.2" y="9" width="349" height="367" rx="32" fill="#BBE2EC"/>
<path d="M26.6371 297V282.8H28.8771V295.02H36.4971V297H26.6371ZM37.9368 292.94V286.54H40.1368V292.5C40.1368 293.433 40.3035 294.14 40.6368 294.62C40.9835 295.087 41.4835 295.32 42.1368 295.32C42.5501 295.32 42.9501 295.233 43.3368 295.06C43.7368 294.887 44.0968 294.633 44.4168 294.3C44.7501 293.953 45.0168 293.54 45.2168 293.06V286.54H47.4168V294.52C47.4168 294.773 47.4635 294.953 47.5568 295.06C47.6501 295.167 47.8035 295.227 48.0168 295.24V297C47.7901 297.04 47.6035 297.067 47.4568 297.08C47.3101 297.093 47.1701 297.1 47.0368 297.1C46.6368 297.1 46.3035 296.993 46.0368 296.78C45.7701 296.553 45.6168 296.267 45.5768 295.92L45.5368 294.88C45.0701 295.64 44.4635 296.22 43.7168 296.62C42.9701 297.007 42.1501 297.2 41.2568 297.2C40.1635 297.2 39.3368 296.84 38.7768 296.12C38.2168 295.4 37.9368 294.34 37.9368 292.94ZM54.3643 297.1C53.6576 297.1 53.011 296.96 52.4243 296.68C51.8376 296.387 51.331 295.993 50.9043 295.5C50.491 295.007 50.1643 294.44 49.9243 293.8C49.6976 293.16 49.5843 292.487 49.5843 291.78C49.5843 291.033 49.7043 290.333 49.9443 289.68C50.1843 289.027 50.5176 288.453 50.9443 287.96C51.3843 287.453 51.8976 287.06 52.4843 286.78C53.071 286.5 53.7243 286.36 54.4443 286.36C55.2843 286.36 56.0176 286.56 56.6443 286.96C57.2843 287.36 57.811 287.88 58.2243 288.52V286.54H60.1643V296.7C60.1643 297.713 59.9176 298.573 59.4243 299.28C58.9443 299.987 58.2843 300.527 57.4443 300.9C56.6043 301.273 55.6576 301.46 54.6043 301.46C53.4443 301.46 52.4843 301.26 51.7243 300.86C50.9643 300.46 50.3176 299.913 49.7843 299.22L51.0243 298.06C51.4243 298.62 51.9376 299.047 52.5643 299.34C53.2043 299.633 53.8843 299.78 54.6043 299.78C55.2043 299.78 55.7576 299.667 56.2643 299.44C56.7843 299.227 57.1976 298.887 57.5043 298.42C57.811 297.967 57.9643 297.393 57.9643 296.7V295.1C57.591 295.727 57.0776 296.22 56.4243 296.58C55.771 296.927 55.0843 297.1 54.3643 297.1ZM55.0843 295.32C55.4176 295.32 55.7376 295.267 56.0443 295.16C56.351 295.04 56.631 294.887 56.8843 294.7C57.151 294.5 57.3776 294.28 57.5643 294.04C57.751 293.787 57.8843 293.52 57.9643 293.24V290.5C57.791 290.047 57.5443 289.653 57.2243 289.32C56.9043 288.973 56.5443 288.707 56.1443 288.52C55.7443 288.333 55.3376 288.24 54.9243 288.24C54.4443 288.24 54.011 288.347 53.6243 288.56C53.251 288.76 52.931 289.033 52.6643 289.38C52.3976 289.713 52.191 290.093 52.0443 290.52C51.8976 290.947 51.8243 291.387 51.8243 291.84C51.8243 292.32 51.9043 292.767 52.0643 293.18C52.2376 293.593 52.471 293.967 52.7643 294.3C53.0576 294.62 53.4043 294.873 53.8043 295.06C54.2043 295.233 54.631 295.32 55.0843 295.32ZM66.9424 297.1C66.2358 297.1 65.5891 296.96 65.0024 296.68C64.4158 296.387 63.9091 295.993 63.4824 295.5C63.0691 295.007 62.7424 294.44 62.5024 293.8C62.2758 293.16 62.1624 292.487 62.1624 291.78C62.1624 291.033 62.2824 290.333 62.5224 289.68C62.7624 289.027 63.0958 288.453 63.5224 287.96C63.9624 287.453 64.4758 287.06 65.0624 286.78C65.6491 286.5 66.3024 286.36 67.0224 286.36C67.8624 286.36 68.5958 286.56 69.2224 286.96C69.8624 287.36 70.3891 287.88 70.8024 288.52V286.54H72.7424V296.7C72.7424 297.713 72.4958 298.573 72.0024 299.28C71.5224 299.987 70.8624 300.527 70.0224 300.9C69.1824 301.273 68.2358 301.46 67.1824 301.46C66.0224 301.46 65.0624 301.26 64.3024 300.86C63.5424 300.46 62.8958 299.913 62.3624 299.22L63.6024 298.06C64.0024 298.62 64.5158 299.047 65.1424 299.34C65.7824 299.633 66.4624 299.78 67.1824 299.78C67.7824 299.78 68.3358 299.667 68.8424 299.44C69.3624 299.227 69.7758 298.887 70.0824 298.42C70.3891 297.967 70.5424 297.393 70.5424 296.7V295.1C70.1691 295.727 69.6558 296.22 69.0024 296.58C68.3491 296.927 67.6624 297.1 66.9424 297.1ZM67.6624 295.32C67.9958 295.32 68.3158 295.267 68.6224 295.16C68.9291 295.04 69.2091 294.887 69.4624 294.7C69.7291 294.5 69.9558 294.28 70.1424 294.04C70.3291 293.787 70.4624 293.52 70.5424 293.24V290.5C70.3691 290.047 70.1224 289.653 69.8024 289.32C69.4824 288.973 69.1224 288.707 68.7224 288.52C68.3224 288.333 67.9158 288.24 67.5024 288.24C67.0224 288.24 66.5891 288.347 66.2024 288.56C65.8291 288.76 65.5091 289.033 65.2424 289.38C64.9758 289.713 64.7691 290.093 64.6224 290.52C64.4758 290.947 64.4024 291.387 64.4024 291.84C64.4024 292.32 64.4824 292.767 64.6424 293.18C64.8158 293.593 65.0491 293.967 65.3424 294.3C65.6358 294.62 65.9824 294.873 66.3824 295.06C66.7824 295.233 67.2091 295.32 67.6624 295.32ZM74.6205 293.94C74.6205 293.273 74.8072 292.693 75.1805 292.2C75.5672 291.693 76.0939 291.307 76.7605 291.04C77.4272 290.76 78.2005 290.62 79.0805 290.62C79.5472 290.62 80.0205 290.653 80.5005 290.72C80.9939 290.787 81.4272 290.893 81.8005 291.04V290.38C81.8005 289.647 81.5805 289.073 81.1405 288.66C80.7005 288.247 80.0672 288.04 79.2405 288.04C78.6539 288.04 78.1005 288.147 77.5805 288.36C77.0605 288.56 76.5072 288.847 75.9205 289.22L75.1805 287.74C75.8739 287.273 76.5672 286.927 77.2605 286.7C77.9672 286.473 78.7072 286.36 79.4805 286.36C80.8805 286.36 81.9805 286.733 82.7805 287.48C83.5939 288.213 84.0005 289.26 84.0005 290.62V294.52C84.0005 294.773 84.0405 294.953 84.1205 295.06C84.2139 295.167 84.3672 295.227 84.5805 295.24V297C84.3805 297.04 84.2005 297.067 84.0405 297.08C83.8805 297.093 83.7472 297.1 83.6405 297.1C83.1739 297.1 82.8205 296.987 82.5805 296.76C82.3405 296.533 82.2005 296.267 82.1605 295.96L82.1005 295.36C81.6472 295.947 81.0672 296.4 80.3605 296.72C79.6539 297.04 78.9405 297.2 78.2205 297.2C77.5272 297.2 76.9072 297.06 76.3605 296.78C75.8139 296.487 75.3872 296.093 75.0805 295.6C74.7739 295.107 74.6205 294.553 74.6205 293.94ZM81.2805 294.58C81.4405 294.407 81.5672 294.233 81.6605 294.06C81.7539 293.887 81.8005 293.733 81.8005 293.6V292.4C81.4272 292.253 81.0339 292.147 80.6205 292.08C80.2072 292 79.8005 291.96 79.4005 291.96C78.6005 291.96 77.9472 292.12 77.4405 292.44C76.9472 292.76 76.7005 293.2 76.7005 293.76C76.7005 294.067 76.7805 294.36 76.9405 294.64C77.1139 294.92 77.3539 295.147 77.6605 295.32C77.9805 295.493 78.3739 295.58 78.8405 295.58C79.3205 295.58 79.7805 295.487 80.2205 295.3C80.6605 295.113 81.0139 294.873 81.2805 294.58ZM90.8096 297.1C90.1029 297.1 89.4563 296.96 88.8696 296.68C88.2829 296.387 87.7763 295.993 87.3496 295.5C86.9363 295.007 86.6096 294.44 86.3696 293.8C86.1429 293.16 86.0296 292.487 86.0296 291.78C86.0296 291.033 86.1496 290.333 86.3896 289.68C86.6296 289.027 86.9629 288.453 87.3896 287.96C87.8296 287.453 88.3429 287.06 88.9296 286.78C89.5163 286.5 90.1696 286.36 90.8896 286.36C91.7296 286.36 92.4629 286.56 93.0896 286.96C93.7296 287.36 94.2563 287.88 94.6696 288.52V286.54H96.6096V296.7C96.6096 297.713 96.3629 298.573 95.8696 299.28C95.3896 299.987 94.7296 300.527 93.8896 300.9C93.0496 301.273 92.1029 301.46 91.0496 301.46C89.8896 301.46 88.9296 301.26 88.1696 300.86C87.4096 300.46 86.7629 299.913 86.2296 299.22L87.4696 298.06C87.8696 298.62 88.3829 299.047 89.0096 299.34C89.6496 299.633 90.3296 299.78 91.0496 299.78C91.6496 299.78 92.2029 299.667 92.7096 299.44C93.2296 299.227 93.6429 298.887 93.9496 298.42C94.2563 297.967 94.4096 297.393 94.4096 296.7V295.1C94.0363 295.727 93.5229 296.22 92.8696 296.58C92.2163 296.927 91.5296 297.1 90.8096 297.1ZM91.5296 295.32C91.8629 295.32 92.1829 295.267 92.4896 295.16C92.7963 295.04 93.0763 294.887 93.3296 294.7C93.5963 294.5 93.8229 294.28 94.0096 294.04C94.1963 293.787 94.3296 293.52 94.4096 293.24V290.5C94.2363 290.047 93.9896 289.653 93.6696 289.32C93.3496 288.973 92.9896 288.707 92.5896 288.52C92.1896 288.333 91.7829 288.24 91.3696 288.24C90.8896 288.24 90.4563 288.347 90.0696 288.56C89.6963 288.76 89.3763 289.033 89.1096 289.38C88.8429 289.713 88.6363 290.093 88.4896 290.52C88.3429 290.947 88.2696 291.387 88.2696 291.84C88.2696 292.32 88.3496 292.767 88.5096 293.18C88.6829 293.593 88.9163 293.967 89.2096 294.3C89.5029 294.62 89.8496 294.873 90.2496 295.06C90.6496 295.233 91.0763 295.32 91.5296 295.32ZM103.988 297.2C103.174 297.2 102.434 297.06 101.768 296.78C101.114 296.487 100.548 296.093 100.068 295.6C99.5877 295.093 99.2144 294.52 98.9477 293.88C98.6944 293.227 98.5677 292.533 98.5677 291.8C98.5677 290.813 98.7944 289.913 99.2477 289.1C99.7011 288.273 100.334 287.613 101.148 287.12C101.961 286.613 102.914 286.36 104.008 286.36C105.101 286.36 106.041 286.613 106.828 287.12C107.628 287.613 108.248 288.267 108.688 289.08C109.128 289.893 109.348 290.767 109.348 291.7C109.348 291.86 109.341 292.013 109.328 292.16C109.314 292.293 109.301 292.407 109.288 292.5H100.908C100.948 293.113 101.114 293.653 101.408 294.12C101.714 294.573 102.101 294.933 102.568 295.2C103.034 295.453 103.534 295.58 104.068 295.58C104.654 295.58 105.208 295.433 105.728 295.14C106.261 294.847 106.621 294.46 106.808 293.98L108.688 294.52C108.461 295.027 108.114 295.487 107.648 295.9C107.194 296.3 106.654 296.62 106.028 296.86C105.401 297.087 104.721 297.2 103.988 297.2ZM100.848 291.04H107.168C107.128 290.44 106.954 289.913 106.648 289.46C106.354 288.993 105.974 288.633 105.508 288.38C105.054 288.113 104.548 287.98 103.988 287.98C103.441 287.98 102.934 288.113 102.468 288.38C102.014 288.633 101.641 288.993 101.348 289.46C101.054 289.913 100.888 290.44 100.848 291.04ZM125.464 297H123.264V291.14C123.264 290.193 123.09 289.487 122.744 289.02C122.397 288.553 121.91 288.32 121.284 288.32C120.897 288.32 120.497 288.427 120.084 288.64C119.67 288.853 119.304 289.147 118.984 289.52C118.664 289.88 118.43 290.3 118.284 290.78V297H116.084V282.4H118.284V288.64C118.684 287.933 119.23 287.38 119.924 286.98C120.617 286.567 121.364 286.36 122.164 286.36C122.817 286.36 123.357 286.473 123.784 286.7C124.21 286.927 124.544 287.24 124.784 287.64C125.037 288.027 125.21 288.48 125.304 289C125.41 289.507 125.464 290.047 125.464 290.62V297ZM127.257 293.94C127.257 293.273 127.444 292.693 127.817 292.2C128.204 291.693 128.731 291.307 129.397 291.04C130.064 290.76 130.837 290.62 131.717 290.62C132.184 290.62 132.657 290.653 133.137 290.72C133.631 290.787 134.064 290.893 134.437 291.04V290.38C134.437 289.647 134.217 289.073 133.777 288.66C133.337 288.247 132.704 288.04 131.877 288.04C131.291 288.04 130.737 288.147 130.217 288.36C129.697 288.56 129.144 288.847 128.557 289.22L127.817 287.74C128.511 287.273 129.204 286.927 129.897 286.7C130.604 286.473 131.344 286.36 132.117 286.36C133.517 286.36 134.617 286.733 135.417 287.48C136.231 288.213 136.637 289.26 136.637 290.62V294.52C136.637 294.773 136.677 294.953 136.757 295.06C136.851 295.167 137.004 295.227 137.217 295.24V297C137.017 297.04 136.837 297.067 136.677 297.08C136.517 297.093 136.384 297.1 136.277 297.1C135.811 297.1 135.457 296.987 135.217 296.76C134.977 296.533 134.837 296.267 134.797 295.96L134.737 295.36C134.284 295.947 133.704 296.4 132.997 296.72C132.291 297.04 131.577 297.2 130.857 297.2C130.164 297.2 129.544 297.06 128.997 296.78C128.451 296.487 128.024 296.093 127.717 295.6C127.411 295.107 127.257 294.553 127.257 293.94ZM133.917 294.58C134.077 294.407 134.204 294.233 134.297 294.06C134.391 293.887 134.437 293.733 134.437 293.6V292.4C134.064 292.253 133.671 292.147 133.257 292.08C132.844 292 132.437 291.96 132.037 291.96C131.237 291.96 130.584 292.12 130.077 292.44C129.584 292.76 129.337 293.2 129.337 293.76C129.337 294.067 129.417 294.36 129.577 294.64C129.751 294.92 129.991 295.147 130.297 295.32C130.617 295.493 131.011 295.58 131.477 295.58C131.957 295.58 132.417 295.487 132.857 295.3C133.297 295.113 133.651 294.873 133.917 294.58ZM148.686 297H146.486V291.14C146.486 290.167 146.326 289.453 146.006 289C145.7 288.547 145.24 288.32 144.626 288.32C144.2 288.32 143.773 288.427 143.346 288.64C142.933 288.853 142.56 289.147 142.226 289.52C141.893 289.88 141.653 290.3 141.506 290.78V297H139.306V286.54H141.306V288.64C141.573 288.173 141.92 287.773 142.346 287.44C142.786 287.093 143.28 286.827 143.826 286.64C144.373 286.453 144.953 286.36 145.566 286.36C146.193 286.36 146.706 286.473 147.106 286.7C147.52 286.927 147.84 287.24 148.066 287.64C148.306 288.027 148.466 288.48 148.546 289C148.64 289.507 148.686 290.047 148.686 290.62V297ZM150.58 291.78C150.58 290.78 150.78 289.873 151.18 289.06C151.593 288.233 152.153 287.58 152.86 287.1C153.567 286.607 154.38 286.36 155.3 286.36C156.1 286.36 156.82 286.567 157.46 286.98C158.113 287.393 158.62 287.907 158.98 288.52V282.4H161.18V294.52C161.18 294.773 161.227 294.953 161.32 295.06C161.413 295.167 161.567 295.227 161.78 295.24V297C161.367 297.067 161.047 297.1 160.82 297.1C160.407 297.1 160.053 296.98 159.76 296.74C159.48 296.5 159.333 296.213 159.32 295.88L159.3 295.1C158.9 295.767 158.36 296.287 157.68 296.66C157 297.02 156.293 297.2 155.56 297.2C154.84 297.2 154.173 297.06 153.56 296.78C152.96 296.5 152.433 296.107 151.98 295.6C151.54 295.093 151.193 294.513 150.94 293.86C150.7 293.207 150.58 292.513 150.58 291.78ZM158.98 293.24V290.5C158.833 290.073 158.593 289.693 158.26 289.36C157.94 289.013 157.573 288.74 157.16 288.54C156.76 288.34 156.36 288.24 155.96 288.24C155.493 288.24 155.067 288.34 154.68 288.54C154.307 288.74 153.98 289.007 153.7 289.34C153.433 289.673 153.227 290.053 153.08 290.48C152.933 290.907 152.86 291.353 152.86 291.82C152.86 292.3 152.94 292.753 153.1 293.18C153.26 293.593 153.487 293.967 153.78 294.3C154.087 294.62 154.433 294.873 154.82 295.06C155.22 295.233 155.653 295.32 156.12 295.32C156.413 295.32 156.707 295.267 157 295.16C157.307 295.053 157.593 294.907 157.86 294.72C158.14 294.533 158.373 294.313 158.56 294.06C158.76 293.807 158.9 293.533 158.98 293.24ZM168.674 297.2C167.848 297.2 167.108 297.06 166.454 296.78C165.801 296.487 165.234 296.087 164.754 295.58C164.288 295.073 163.928 294.5 163.674 293.86C163.421 293.207 163.294 292.513 163.294 291.78C163.294 291.047 163.421 290.353 163.674 289.7C163.928 289.047 164.288 288.473 164.754 287.98C165.234 287.473 165.801 287.08 166.454 286.8C167.121 286.507 167.861 286.36 168.674 286.36C169.488 286.36 170.221 286.507 170.874 286.8C171.541 287.08 172.108 287.473 172.574 287.98C173.054 288.473 173.421 289.047 173.674 289.7C173.928 290.353 174.054 291.047 174.054 291.78C174.054 292.513 173.928 293.207 173.674 293.86C173.421 294.5 173.054 295.073 172.574 295.58C172.108 296.087 171.541 296.487 170.874 296.78C170.221 297.06 169.488 297.2 168.674 297.2ZM165.554 291.8C165.554 292.467 165.694 293.067 165.974 293.6C166.254 294.133 166.628 294.553 167.094 294.86C167.561 295.167 168.088 295.32 168.674 295.32C169.248 295.32 169.768 295.167 170.234 294.86C170.714 294.54 171.094 294.113 171.374 293.58C171.654 293.033 171.794 292.433 171.794 291.78C171.794 291.113 171.654 290.513 171.374 289.98C171.094 289.447 170.714 289.027 170.234 288.72C169.768 288.4 169.248 288.24 168.674 288.24C168.088 288.24 167.561 288.4 167.094 288.72C166.628 289.04 166.254 289.467 165.974 290C165.694 290.52 165.554 291.12 165.554 291.8ZM178.574 297L174.594 286.54H176.874L179.854 294.96L182.834 286.54H184.954L180.974 297H178.574ZM190.921 297.2C190.108 297.2 189.368 297.06 188.701 296.78C188.048 296.487 187.481 296.093 187.001 295.6C186.521 295.093 186.148 294.52 185.881 293.88C185.628 293.227 185.501 292.533 185.501 291.8C185.501 290.813 185.728 289.913 186.181 289.1C186.635 288.273 187.268 287.613 188.081 287.12C188.895 286.613 189.848 286.36 190.941 286.36C192.035 286.36 192.975 286.613 193.761 287.12C194.561 287.613 195.181 288.267 195.621 289.08C196.061 289.893 196.281 290.767 196.281 291.7C196.281 291.86 196.275 292.013 196.261 292.16C196.248 292.293 196.235 292.407 196.221 292.5H187.841C187.881 293.113 188.048 293.653 188.341 294.12C188.648 294.573 189.035 294.933 189.501 295.2C189.968 295.453 190.468 295.58 191.001 295.58C191.588 295.58 192.141 295.433 192.661 295.14C193.195 294.847 193.555 294.46 193.741 293.98L195.621 294.52C195.395 295.027 195.048 295.487 194.581 295.9C194.128 296.3 193.588 296.62 192.961 296.86C192.335 297.087 191.655 297.2 190.921 297.2ZM187.781 291.04H194.101C194.061 290.44 193.888 289.913 193.581 289.46C193.288 288.993 192.908 288.633 192.441 288.38C191.988 288.113 191.481 287.98 190.921 287.98C190.375 287.98 189.868 288.113 189.401 288.38C188.948 288.633 188.575 288.993 188.281 289.46C187.988 289.913 187.821 290.44 187.781 291.04ZM203.956 288.44C203.103 288.453 202.343 288.647 201.676 289.02C201.023 289.393 200.556 289.92 200.276 290.6V297H198.076V286.54H200.116V288.88C200.476 288.16 200.949 287.587 201.536 287.16C202.123 286.72 202.743 286.48 203.396 286.44C203.529 286.44 203.636 286.44 203.716 286.44C203.809 286.44 203.889 286.447 203.956 286.46V288.44ZM210.649 297V288.5H209.249V286.8H210.649V286.38C210.649 285.527 210.782 284.787 211.049 284.16C211.329 283.533 211.715 283.053 212.209 282.72C212.715 282.373 213.309 282.2 213.989 282.2C214.415 282.2 214.835 282.26 215.249 282.38C215.662 282.487 216.055 282.64 216.429 282.84L215.949 284.48C215.749 284.347 215.509 284.247 215.229 284.18C214.962 284.1 214.702 284.06 214.449 284.06C213.942 284.06 213.549 284.253 213.269 284.64C212.989 285.027 212.849 285.587 212.849 286.32V286.8H215.529V288.5H212.849V297H210.649ZM223.057 288.44C222.204 288.453 221.444 288.647 220.777 289.02C220.124 289.393 219.657 289.92 219.377 290.6V297H217.177V286.54H219.217V288.88C219.577 288.16 220.051 287.587 220.637 287.16C221.224 286.72 221.844 286.48 222.497 286.44C222.631 286.44 222.737 286.44 222.817 286.44C222.911 286.44 222.991 286.447 223.057 286.46V288.44ZM229.163 297.2C228.336 297.2 227.596 297.06 226.943 296.78C226.289 296.487 225.723 296.087 225.243 295.58C224.776 295.073 224.416 294.5 224.163 293.86C223.909 293.207 223.783 292.513 223.783 291.78C223.783 291.047 223.909 290.353 224.163 289.7C224.416 289.047 224.776 288.473 225.243 287.98C225.723 287.473 226.289 287.08 226.943 286.8C227.609 286.507 228.349 286.36 229.163 286.36C229.976 286.36 230.709 286.507 231.363 286.8C232.029 287.08 232.596 287.473 233.063 287.98C233.543 288.473 233.909 289.047 234.163 289.7C234.416 290.353 234.543 291.047 234.543 291.78C234.543 292.513 234.416 293.207 234.163 293.86C233.909 294.5 233.543 295.073 233.063 295.58C232.596 296.087 232.029 296.487 231.363 296.78C230.709 297.06 229.976 297.2 229.163 297.2ZM226.043 291.8C226.043 292.467 226.183 293.067 226.463 293.6C226.743 294.133 227.116 294.553 227.583 294.86C228.049 295.167 228.576 295.32 229.163 295.32C229.736 295.32 230.256 295.167 230.723 294.86C231.203 294.54 231.583 294.113 231.863 293.58C232.143 293.033 232.283 292.433 232.283 291.78C232.283 291.113 232.143 290.513 231.863 289.98C231.583 289.447 231.203 289.027 230.723 288.72C230.256 288.4 229.736 288.24 229.163 288.24C228.576 288.24 228.049 288.4 227.583 288.72C227.116 289.04 226.743 289.467 226.463 290C226.183 290.52 226.043 291.12 226.043 291.8ZM252.494 297H250.294V291.14C250.294 290.167 250.134 289.453 249.814 289C249.494 288.547 249.027 288.32 248.414 288.32C247.8 288.32 247.227 288.553 246.694 289.02C246.174 289.473 245.807 290.067 245.594 290.8V297H243.394V291.14C243.394 290.167 243.234 289.453 242.914 289C242.594 288.547 242.134 288.32 241.534 288.32C240.92 288.32 240.347 288.547 239.814 289C239.294 289.453 238.92 290.047 238.694 290.78V297H236.494V286.54H238.494V288.64C238.907 287.907 239.447 287.347 240.114 286.96C240.794 286.56 241.567 286.36 242.434 286.36C243.3 286.36 243.98 286.587 244.474 287.04C244.98 287.493 245.294 288.06 245.414 288.74C245.867 287.967 246.42 287.38 247.074 286.98C247.74 286.567 248.5 286.36 249.354 286.36C249.967 286.36 250.48 286.473 250.894 286.7C251.307 286.927 251.627 287.24 251.854 287.64C252.08 288.027 252.24 288.48 252.334 289C252.44 289.507 252.494 290.047 252.494 290.62V297ZM263.69 297.2C262.81 297.2 261.977 297.06 261.19 296.78C260.404 296.487 259.73 296.053 259.17 295.48L259.99 294C260.59 294.533 261.19 294.92 261.79 295.16C262.404 295.4 263.01 295.52 263.61 295.52C264.224 295.52 264.724 295.407 265.11 295.18C265.497 294.94 265.69 294.593 265.69 294.14C265.69 293.807 265.59 293.56 265.39 293.4C265.19 293.24 264.897 293.1 264.51 292.98C264.137 292.86 263.684 292.727 263.15 292.58C262.404 292.353 261.777 292.12 261.27 291.88C260.764 291.627 260.384 291.32 260.13 290.96C259.877 290.6 259.75 290.14 259.75 289.58C259.75 288.9 259.924 288.32 260.27 287.84C260.617 287.36 261.097 286.993 261.71 286.74C262.337 286.487 263.057 286.36 263.87 286.36C264.63 286.36 265.33 286.48 265.97 286.72C266.624 286.947 267.197 287.307 267.69 287.8L266.75 289.26C266.284 288.833 265.804 288.52 265.31 288.32C264.83 288.12 264.31 288.02 263.75 288.02C263.43 288.02 263.124 288.06 262.83 288.14C262.537 288.207 262.29 288.34 262.09 288.54C261.904 288.727 261.81 288.993 261.81 289.34C261.81 289.62 261.89 289.847 262.05 290.02C262.21 290.193 262.45 290.34 262.77 290.46C263.09 290.58 263.484 290.713 263.95 290.86C264.764 291.1 265.457 291.34 266.03 291.58C266.604 291.807 267.044 292.107 267.35 292.48C267.67 292.84 267.83 293.34 267.83 293.98C267.83 294.993 267.45 295.787 266.69 296.36C265.944 296.92 264.944 297.2 263.69 297.2ZM274.535 297.2C273.721 297.2 272.981 297.06 272.315 296.78C271.661 296.487 271.095 296.093 270.615 295.6C270.135 295.093 269.761 294.52 269.495 293.88C269.241 293.227 269.115 292.533 269.115 291.8C269.115 290.813 269.341 289.913 269.795 289.1C270.248 288.273 270.881 287.613 271.695 287.12C272.508 286.613 273.461 286.36 274.555 286.36C275.648 286.36 276.588 286.613 277.375 287.12C278.175 287.613 278.795 288.267 279.235 289.08C279.675 289.893 279.895 290.767 279.895 291.7C279.895 291.86 279.888 292.013 279.875 292.16C279.861 292.293 279.848 292.407 279.835 292.5H271.455C271.495 293.113 271.661 293.653 271.955 294.12C272.261 294.573 272.648 294.933 273.115 295.2C273.581 295.453 274.081 295.58 274.615 295.58C275.201 295.58 275.755 295.433 276.275 295.14C276.808 294.847 277.168 294.46 277.355 293.98L279.235 294.52C279.008 295.027 278.661 295.487 278.195 295.9C277.741 296.3 277.201 296.62 276.575 296.86C275.948 297.087 275.268 297.2 274.535 297.2ZM271.395 291.04H277.715C277.675 290.44 277.501 289.913 277.195 289.46C276.901 288.993 276.521 288.633 276.055 288.38C275.601 288.113 275.095 287.98 274.535 287.98C273.988 287.98 273.481 288.113 273.015 288.38C272.561 288.633 272.188 288.993 271.895 289.46C271.601 289.913 271.435 290.44 271.395 291.04ZM291.069 297H288.869V291.14C288.869 290.167 288.709 289.453 288.389 289C288.082 288.547 287.622 288.32 287.009 288.32C286.582 288.32 286.156 288.427 285.729 288.64C285.316 288.853 284.942 289.147 284.609 289.52C284.276 289.88 284.036 290.3 283.889 290.78V297H281.689V286.54H283.689V288.64C283.956 288.173 284.302 287.773 284.729 287.44C285.169 287.093 285.662 286.827 286.209 286.64C286.756 286.453 287.336 286.36 287.949 286.36C288.576 286.36 289.089 286.473 289.489 286.7C289.902 286.927 290.222 287.24 290.449 287.64C290.689 288.027 290.849 288.48 290.929 289C291.022 289.507 291.069 290.047 291.069 290.62V297ZM292.963 291.78C292.963 290.78 293.163 289.873 293.563 289.06C293.976 288.233 294.536 287.58 295.243 287.1C295.949 286.607 296.763 286.36 297.683 286.36C298.483 286.36 299.203 286.567 299.843 286.98C300.496 287.393 301.003 287.907 301.363 288.52V282.4H303.563V294.52C303.563 294.773 303.609 294.953 303.703 295.06C303.796 295.167 303.949 295.227 304.163 295.24V297C303.749 297.067 303.429 297.1 303.203 297.1C302.789 297.1 302.436 296.98 302.143 296.74C301.863 296.5 301.716 296.213 301.703 295.88L301.683 295.1C301.283 295.767 300.743 296.287 300.063 296.66C299.383 297.02 298.676 297.2 297.943 297.2C297.223 297.2 296.556 297.06 295.943 296.78C295.343 296.5 294.816 296.107 294.363 295.6C293.923 295.093 293.576 294.513 293.323 293.86C293.083 293.207 292.963 292.513 292.963 291.78ZM301.363 293.24V290.5C301.216 290.073 300.976 289.693 300.643 289.36C300.323 289.013 299.956 288.74 299.543 288.54C299.143 288.34 298.743 288.24 298.343 288.24C297.876 288.24 297.449 288.34 297.063 288.54C296.689 288.74 296.363 289.007 296.083 289.34C295.816 289.673 295.609 290.053 295.463 290.48C295.316 290.907 295.243 291.353 295.243 291.82C295.243 292.3 295.323 292.753 295.483 293.18C295.643 293.593 295.869 293.967 296.163 294.3C296.469 294.62 296.816 294.873 297.203 295.06C297.603 295.233 298.036 295.32 298.503 295.32C298.796 295.32 299.089 295.267 299.383 295.16C299.689 295.053 299.976 294.907 300.243 294.72C300.523 294.533 300.756 294.313 300.943 294.06C301.143 293.807 301.283 293.533 301.363 293.24ZM311.097 297.2C310.284 297.2 309.544 297.06 308.877 296.78C308.224 296.487 307.657 296.093 307.177 295.6C306.697 295.093 306.324 294.52 306.057 293.88C305.804 293.227 305.677 292.533 305.677 291.8C305.677 290.813 305.904 289.913 306.357 289.1C306.81 288.273 307.444 287.613 308.257 287.12C309.07 286.613 310.024 286.36 311.117 286.36C312.21 286.36 313.15 286.613 313.937 287.12C314.737 287.613 315.357 288.267 315.797 289.08C316.237 289.893 316.457 290.767 316.457 291.7C316.457 291.86 316.45 292.013 316.437 292.16C316.424 292.293 316.41 292.407 316.397 292.5H308.017C308.057 293.113 308.224 293.653 308.517 294.12C308.824 294.573 309.21 294.933 309.677 295.2C310.144 295.453 310.644 295.58 311.177 295.58C311.764 295.58 312.317 295.433 312.837 295.14C313.37 294.847 313.73 294.46 313.917 293.98L315.797 294.52C315.57 295.027 315.224 295.487 314.757 295.9C314.304 296.3 313.764 296.62 313.137 296.86C312.51 297.087 311.83 297.2 311.097 297.2ZM307.957 291.04H314.277C314.237 290.44 314.064 289.913 313.757 289.46C313.464 288.993 313.084 288.633 312.617 288.38C312.164 288.113 311.657 287.98 311.097 287.98C310.55 287.98 310.044 288.113 309.577 288.38C309.124 288.633 308.75 288.993 308.457 289.46C308.164 289.913 307.997 290.44 307.957 291.04ZM324.132 288.44C323.278 288.453 322.518 288.647 321.852 289.02C321.198 289.393 320.732 289.92 320.452 290.6V297H318.252V286.54H320.292V288.88C320.652 288.16 321.125 287.587 321.712 287.16C322.298 286.72 322.918 286.48 323.572 286.44C323.705 286.44 323.812 286.44 323.892 286.44C323.985 286.44 324.065 286.447 324.132 286.46V288.44ZM135.165 319.46C134.979 319.553 134.745 319.653 134.465 319.76C134.185 319.867 133.865 319.96 133.505 320.04C133.159 320.12 132.799 320.16 132.425 320.16C131.972 320.16 131.552 320.08 131.165 319.92C130.779 319.76 130.465 319.507 130.225 319.16C129.999 318.8 129.885 318.34 129.885 317.78V311.24H128.505V309.54H129.885V306.1H132.085V309.54H134.365V311.24H132.085V317.08C132.112 317.44 132.225 317.707 132.425 317.88C132.639 318.053 132.899 318.14 133.205 318.14C133.512 318.14 133.805 318.087 134.085 317.98C134.365 317.873 134.572 317.787 134.705 317.72L135.165 319.46ZM141.252 320.2C140.426 320.2 139.686 320.06 139.032 319.78C138.379 319.487 137.812 319.087 137.332 318.58C136.866 318.073 136.506 317.5 136.252 316.86C135.999 316.207 135.872 315.513 135.872 314.78C135.872 314.047 135.999 313.353 136.252 312.7C136.506 312.047 136.866 311.473 137.332 310.98C137.812 310.473 138.379 310.08 139.032 309.8C139.699 309.507 140.439 309.36 141.252 309.36C142.066 309.36 142.799 309.507 143.452 309.8C144.119 310.08 144.686 310.473 145.152 310.98C145.632 311.473 145.999 312.047 146.252 312.7C146.506 313.353 146.632 314.047 146.632 314.78C146.632 315.513 146.506 316.207 146.252 316.86C145.999 317.5 145.632 318.073 145.152 318.58C144.686 319.087 144.119 319.487 143.452 319.78C142.799 320.06 142.066 320.2 141.252 320.2ZM138.132 314.8C138.132 315.467 138.272 316.067 138.552 316.6C138.832 317.133 139.206 317.553 139.672 317.86C140.139 318.167 140.666 318.32 141.252 318.32C141.826 318.32 142.346 318.167 142.812 317.86C143.292 317.54 143.672 317.113 143.952 316.58C144.232 316.033 144.372 315.433 144.372 314.78C144.372 314.113 144.232 313.513 143.952 312.98C143.672 312.447 143.292 312.027 142.812 311.72C142.346 311.4 141.826 311.24 141.252 311.24C140.666 311.24 140.139 311.4 139.672 311.72C139.206 312.04 138.832 312.467 138.552 313C138.272 313.52 138.132 314.12 138.132 314.8ZM158.265 320.2C157.452 320.2 156.712 320.06 156.045 319.78C155.392 319.487 154.825 319.087 154.345 318.58C153.865 318.073 153.492 317.493 153.225 316.84C152.972 316.187 152.845 315.493 152.845 314.76C152.845 313.773 153.065 312.873 153.505 312.06C153.958 311.247 154.585 310.593 155.385 310.1C156.198 309.607 157.158 309.36 158.265 309.36C159.332 309.36 160.258 309.6 161.045 310.08C161.845 310.547 162.432 311.173 162.805 311.96L160.665 312.64C160.425 312.2 160.085 311.86 159.645 311.62C159.218 311.367 158.745 311.24 158.225 311.24C157.638 311.24 157.105 311.393 156.625 311.7C156.158 311.993 155.785 312.407 155.505 312.94C155.238 313.46 155.105 314.067 155.105 314.76C155.105 315.427 155.245 316.033 155.525 316.58C155.805 317.113 156.178 317.54 156.645 317.86C157.125 318.167 157.658 318.32 158.245 318.32C158.605 318.32 158.952 318.26 159.285 318.14C159.632 318.007 159.932 317.833 160.185 317.62C160.438 317.393 160.618 317.147 160.725 316.88L162.885 317.52C162.658 318.04 162.318 318.5 161.865 318.9C161.425 319.3 160.898 319.62 160.285 319.86C159.685 320.087 159.012 320.2 158.265 320.2ZM163.937 316.94C163.937 316.273 164.124 315.693 164.497 315.2C164.884 314.693 165.41 314.307 166.077 314.04C166.744 313.76 167.517 313.62 168.397 313.62C168.864 313.62 169.337 313.653 169.817 313.72C170.31 313.787 170.744 313.893 171.117 314.04V313.38C171.117 312.647 170.897 312.073 170.457 311.66C170.017 311.247 169.384 311.04 168.557 311.04C167.97 311.04 167.417 311.147 166.897 311.36C166.377 311.56 165.824 311.847 165.237 312.22L164.497 310.74C165.19 310.273 165.884 309.927 166.577 309.7C167.284 309.473 168.024 309.36 168.797 309.36C170.197 309.36 171.297 309.733 172.097 310.48C172.91 311.213 173.317 312.26 173.317 313.62V317.52C173.317 317.773 173.357 317.953 173.437 318.06C173.53 318.167 173.684 318.227 173.897 318.24V320C173.697 320.04 173.517 320.067 173.357 320.08C173.197 320.093 173.064 320.1 172.957 320.1C172.49 320.1 172.137 319.987 171.897 319.76C171.657 319.533 171.517 319.267 171.477 318.96L171.417 318.36C170.964 318.947 170.384 319.4 169.677 319.72C168.97 320.04 168.257 320.2 167.537 320.2C166.844 320.2 166.224 320.06 165.677 319.78C165.13 319.487 164.704 319.093 164.397 318.6C164.09 318.107 163.937 317.553 163.937 316.94ZM170.597 317.58C170.757 317.407 170.884 317.233 170.977 317.06C171.07 316.887 171.117 316.733 171.117 316.6V315.4C170.744 315.253 170.35 315.147 169.937 315.08C169.524 315 169.117 314.96 168.717 314.96C167.917 314.96 167.264 315.12 166.757 315.44C166.264 315.76 166.017 316.2 166.017 316.76C166.017 317.067 166.097 317.36 166.257 317.64C166.43 317.92 166.67 318.147 166.977 318.32C167.297 318.493 167.69 318.58 168.157 318.58C168.637 318.58 169.097 318.487 169.537 318.3C169.977 318.113 170.33 317.873 170.597 317.58ZM181.866 311.44C181.013 311.453 180.253 311.647 179.586 312.02C178.933 312.393 178.466 312.92 178.186 313.6V320H175.986V309.54H178.026V311.88C178.386 311.16 178.859 310.587 179.446 310.16C180.033 309.72 180.653 309.48 181.306 309.44C181.439 309.44 181.546 309.44 181.626 309.44C181.719 309.44 181.799 309.447 181.866 309.46V311.44ZM189.346 311.44C188.493 311.453 187.733 311.647 187.066 312.02C186.413 312.393 185.946 312.92 185.666 313.6V320H183.466V309.54H185.506V311.88C185.866 311.16 186.34 310.587 186.926 310.16C187.513 309.72 188.133 309.48 188.786 309.44C188.92 309.44 189.026 309.44 189.106 309.44C189.2 309.44 189.28 309.447 189.346 309.46V311.44ZM190.947 320V309.54H193.147V320H190.947ZM190.947 307.82V305.4H193.147V307.82H190.947ZM200.531 320.2C199.717 320.2 198.977 320.06 198.311 319.78C197.657 319.487 197.091 319.093 196.611 318.6C196.131 318.093 195.757 317.52 195.491 316.88C195.237 316.227 195.111 315.533 195.111 314.8C195.111 313.813 195.337 312.913 195.791 312.1C196.244 311.273 196.877 310.613 197.691 310.12C198.504 309.613 199.457 309.36 200.551 309.36C201.644 309.36 202.584 309.613 203.371 310.12C204.171 310.613 204.791 311.267 205.231 312.08C205.671 312.893 205.891 313.767 205.891 314.7C205.891 314.86 205.884 315.013 205.871 315.16C205.857 315.293 205.844 315.407 205.831 315.5H197.451C197.491 316.113 197.657 316.653 197.951 317.12C198.257 317.573 198.644 317.933 199.111 318.2C199.577 318.453 200.077 318.58 200.611 318.58C201.197 318.58 201.751 318.433 202.271 318.14C202.804 317.847 203.164 317.46 203.351 316.98L205.231 317.52C205.004 318.027 204.657 318.487 204.191 318.9C203.737 319.3 203.197 319.62 202.571 319.86C201.944 320.087 201.264 320.2 200.531 320.2ZM197.391 314.04H203.711C203.671 313.44 203.497 312.913 203.191 312.46C202.897 311.993 202.517 311.633 202.051 311.38C201.597 311.113 201.091 310.98 200.531 310.98C199.984 310.98 199.477 311.113 199.011 311.38C198.557 311.633 198.184 311.993 197.891 312.46C197.597 312.913 197.431 313.44 197.391 314.04ZM213.565 311.44C212.712 311.453 211.952 311.647 211.285 312.02C210.632 312.393 210.165 312.92 209.885 313.6V320H207.685V309.54H209.725V311.88C210.085 311.16 210.559 310.587 211.145 310.16C211.732 309.72 212.352 309.48 213.005 309.44C213.139 309.44 213.245 309.44 213.325 309.44C213.419 309.44 213.499 309.447 213.565 309.46V311.44ZM212.995 320V317.44H214.815V320H212.995ZM95.7566 335.8C95.7566 334.933 95.91 334.087 96.2166 333.26C96.5233 332.42 96.97 331.66 97.5566 330.98C98.1566 330.287 98.8833 329.74 99.7366 329.34C100.59 328.927 101.557 328.72 102.637 328.72C103.917 328.72 105.023 329.013 105.957 329.6C106.89 330.173 107.583 330.913 108.037 331.82L106.277 333C106.01 332.427 105.67 331.973 105.257 331.64C104.857 331.307 104.417 331.073 103.937 330.94C103.47 330.807 103.01 330.74 102.557 330.74C101.81 330.74 101.157 330.893 100.597 331.2C100.037 331.493 99.5633 331.887 99.1766 332.38C98.8033 332.873 98.5166 333.427 98.3166 334.04C98.13 334.653 98.0366 335.267 98.0366 335.88C98.0366 336.56 98.15 337.22 98.3766 337.86C98.6033 338.487 98.9166 339.047 99.3166 339.54C99.73 340.02 100.217 340.4 100.777 340.68C101.337 340.96 101.95 341.1 102.617 341.1C103.07 341.1 103.543 341.02 104.037 340.86C104.53 340.7 104.983 340.453 105.397 340.12C105.823 339.773 106.157 339.32 106.397 338.76L108.257 339.82C107.963 340.527 107.503 341.127 106.877 341.62C106.263 342.113 105.57 342.487 104.797 342.74C104.037 342.993 103.283 343.12 102.537 343.12C101.537 343.12 100.623 342.913 99.7966 342.5C98.97 342.073 98.2566 341.513 97.6566 340.82C97.0566 340.113 96.59 339.327 96.2566 338.46C95.9233 337.58 95.7566 336.693 95.7566 335.8ZM109.289 339.94C109.289 339.273 109.475 338.693 109.849 338.2C110.235 337.693 110.762 337.307 111.429 337.04C112.095 336.76 112.869 336.62 113.749 336.62C114.215 336.62 114.689 336.653 115.169 336.72C115.662 336.787 116.095 336.893 116.469 337.04V336.38C116.469 335.647 116.249 335.073 115.809 334.66C115.369 334.247 114.735 334.04 113.909 334.04C113.322 334.04 112.769 334.147 112.249 334.36C111.729 334.56 111.175 334.847 110.589 335.22L109.849 333.74C110.542 333.273 111.235 332.927 111.929 332.7C112.635 332.473 113.375 332.36 114.149 332.36C115.549 332.36 116.649 332.733 117.449 333.48C118.262 334.213 118.669 335.26 118.669 336.62V340.52C118.669 340.773 118.709 340.953 118.789 341.06C118.882 341.167 119.035 341.227 119.249 341.24V343C119.049 343.04 118.869 343.067 118.709 343.08C118.549 343.093 118.415 343.1 118.309 343.1C117.842 343.1 117.489 342.987 117.249 342.76C117.009 342.533 116.869 342.267 116.829 341.96L116.769 341.36C116.315 341.947 115.735 342.4 115.029 342.72C114.322 343.04 113.609 343.2 112.889 343.2C112.195 343.2 111.575 343.06 111.029 342.78C110.482 342.487 110.055 342.093 109.749 341.6C109.442 341.107 109.289 340.553 109.289 339.94ZM115.949 340.58C116.109 340.407 116.235 340.233 116.329 340.06C116.422 339.887 116.469 339.733 116.469 339.6V338.4C116.095 338.253 115.702 338.147 115.289 338.08C114.875 338 114.469 337.96 114.069 337.96C113.269 337.96 112.615 338.12 112.109 338.44C111.615 338.76 111.369 339.2 111.369 339.76C111.369 340.067 111.449 340.36 111.609 340.64C111.782 340.92 112.022 341.147 112.329 341.32C112.649 341.493 113.042 341.58 113.509 341.58C113.989 341.58 114.449 341.487 114.889 341.3C115.329 341.113 115.682 340.873 115.949 340.58ZM127.218 334.44C126.364 334.453 125.604 334.647 124.938 335.02C124.284 335.393 123.818 335.92 123.538 336.6V343H121.338V332.54H123.378V334.88C123.738 334.16 124.211 333.587 124.798 333.16C125.384 332.72 126.004 332.48 126.658 332.44C126.791 332.44 126.898 332.44 126.978 332.44C127.071 332.44 127.151 332.447 127.218 332.46V334.44ZM134.698 334.44C133.845 334.453 133.085 334.647 132.418 335.02C131.765 335.393 131.298 335.92 131.018 336.6V343H128.818V332.54H130.858V334.88C131.218 334.16 131.691 333.587 132.278 333.16C132.865 332.72 133.485 332.48 134.138 332.44C134.271 332.44 134.378 332.44 134.458 332.44C134.551 332.44 134.631 332.447 134.698 332.46V334.44ZM136.299 343V332.54H138.499V343H136.299ZM136.299 330.82V328.4H138.499V330.82H136.299ZM145.882 343.2C145.069 343.2 144.329 343.06 143.662 342.78C143.009 342.487 142.442 342.093 141.962 341.6C141.482 341.093 141.109 340.52 140.842 339.88C140.589 339.227 140.462 338.533 140.462 337.8C140.462 336.813 140.689 335.913 141.142 335.1C141.596 334.273 142.229 333.613 143.042 333.12C143.856 332.613 144.809 332.36 145.902 332.36C146.996 332.36 147.936 332.613 148.722 333.12C149.522 333.613 150.142 334.267 150.582 335.08C151.022 335.893 151.242 336.767 151.242 337.7C151.242 337.86 151.236 338.013 151.222 338.16C151.209 338.293 151.196 338.407 151.182 338.5H142.802C142.842 339.113 143.009 339.653 143.302 340.12C143.609 340.573 143.996 340.933 144.462 341.2C144.929 341.453 145.429 341.58 145.962 341.58C146.549 341.58 147.102 341.433 147.622 341.14C148.156 340.847 148.516 340.46 148.702 339.98L150.582 340.52C150.356 341.027 150.009 341.487 149.542 341.9C149.089 342.3 148.549 342.62 147.922 342.86C147.296 343.087 146.616 343.2 145.882 343.2ZM142.742 337.04H149.062C149.022 336.44 148.849 335.913 148.542 335.46C148.249 334.993 147.869 334.633 147.402 334.38C146.949 334.113 146.442 333.98 145.882 333.98C145.336 333.98 144.829 334.113 144.362 334.38C143.909 334.633 143.536 334.993 143.242 335.46C142.949 335.913 142.782 336.44 142.742 337.04ZM158.917 334.44C158.063 334.453 157.303 334.647 156.637 335.02C155.983 335.393 155.517 335.92 155.237 336.6V343H153.037V332.54H155.077V334.88C155.437 334.16 155.91 333.587 156.497 333.16C157.083 332.72 157.703 332.48 158.357 332.44C158.49 332.44 158.597 332.44 158.677 332.44C158.77 332.44 158.85 332.447 158.917 332.46V334.44ZM168.729 343.2C167.849 343.2 167.016 343.06 166.229 342.78C165.443 342.487 164.769 342.053 164.209 341.48L165.029 340C165.629 340.533 166.229 340.92 166.829 341.16C167.443 341.4 168.049 341.52 168.649 341.52C169.263 341.52 169.763 341.407 170.149 341.18C170.536 340.94 170.729 340.593 170.729 340.14C170.729 339.807 170.629 339.56 170.429 339.4C170.229 339.24 169.936 339.1 169.549 338.98C169.176 338.86 168.723 338.727 168.189 338.58C167.443 338.353 166.816 338.12 166.309 337.88C165.803 337.627 165.423 337.32 165.169 336.96C164.916 336.6 164.789 336.14 164.789 335.58C164.789 334.9 164.963 334.32 165.309 333.84C165.656 333.36 166.136 332.993 166.749 332.74C167.376 332.487 168.096 332.36 168.909 332.36C169.669 332.36 170.369 332.48 171.009 332.72C171.663 332.947 172.236 333.307 172.729 333.8L171.789 335.26C171.323 334.833 170.843 334.52 170.349 334.32C169.869 334.12 169.349 334.02 168.789 334.02C168.469 334.02 168.163 334.06 167.869 334.14C167.576 334.207 167.329 334.34 167.129 334.54C166.943 334.727 166.849 334.993 166.849 335.34C166.849 335.62 166.929 335.847 167.089 336.02C167.249 336.193 167.489 336.34 167.809 336.46C168.129 336.58 168.523 336.713 168.989 336.86C169.803 337.1 170.496 337.34 171.069 337.58C171.643 337.807 172.083 338.107 172.389 338.48C172.709 338.84 172.869 339.34 172.869 339.98C172.869 340.993 172.489 341.787 171.729 342.36C170.983 342.92 169.983 343.2 168.729 343.2ZM180.634 342.46C180.447 342.553 180.214 342.653 179.934 342.76C179.654 342.867 179.334 342.96 178.974 343.04C178.627 343.12 178.267 343.16 177.894 343.16C177.441 343.16 177.021 343.08 176.634 342.92C176.247 342.76 175.934 342.507 175.694 342.16C175.467 341.8 175.354 341.34 175.354 340.78V334.24H173.974V332.54H175.354V329.1H177.554V332.54H179.834V334.24H177.554V340.08C177.581 340.44 177.694 340.707 177.894 340.88C178.107 341.053 178.367 341.14 178.674 341.14C178.981 341.14 179.274 341.087 179.554 340.98C179.834 340.873 180.041 340.787 180.174 340.72L180.634 342.46ZM181.398 339.94C181.398 339.273 181.585 338.693 181.958 338.2C182.345 337.693 182.871 337.307 183.538 337.04C184.205 336.76 184.978 336.62 185.858 336.62C186.325 336.62 186.798 336.653 187.278 336.72C187.771 336.787 188.205 336.893 188.578 337.04V336.38C188.578 335.647 188.358 335.073 187.918 334.66C187.478 334.247 186.845 334.04 186.018 334.04C185.431 334.04 184.878 334.147 184.358 334.36C183.838 334.56 183.285 334.847 182.698 335.22L181.958 333.74C182.651 333.273 183.345 332.927 184.038 332.7C184.745 332.473 185.485 332.36 186.258 332.36C187.658 332.36 188.758 332.733 189.558 333.48C190.371 334.213 190.778 335.26 190.778 336.62V340.52C190.778 340.773 190.818 340.953 190.898 341.06C190.991 341.167 191.145 341.227 191.358 341.24V343C191.158 343.04 190.978 343.067 190.818 343.08C190.658 343.093 190.525 343.1 190.418 343.1C189.951 343.1 189.598 342.987 189.358 342.76C189.118 342.533 188.978 342.267 188.938 341.96L188.878 341.36C188.425 341.947 187.845 342.4 187.138 342.72C186.431 343.04 185.718 343.2 184.998 343.2C184.305 343.2 183.685 343.06 183.138 342.78C182.591 342.487 182.165 342.093 181.858 341.6C181.551 341.107 181.398 340.553 181.398 339.94ZM188.058 340.58C188.218 340.407 188.345 340.233 188.438 340.06C188.531 339.887 188.578 339.733 188.578 339.6V338.4C188.205 338.253 187.811 338.147 187.398 338.08C186.985 338 186.578 337.96 186.178 337.96C185.378 337.96 184.725 338.12 184.218 338.44C183.725 338.76 183.478 339.2 183.478 339.76C183.478 340.067 183.558 340.36 183.718 340.64C183.891 340.92 184.131 341.147 184.438 341.32C184.758 341.493 185.151 341.58 185.618 341.58C186.098 341.58 186.558 341.487 186.998 341.3C187.438 341.113 187.791 340.873 188.058 340.58ZM199.327 334.44C198.474 334.453 197.714 334.647 197.047 335.02C196.394 335.393 195.927 335.92 195.647 336.6V343H193.447V332.54H195.487V334.88C195.847 334.16 196.32 333.587 196.907 333.16C197.494 332.72 198.114 332.48 198.767 332.44C198.9 332.44 199.007 332.44 199.087 332.44C199.18 332.44 199.26 332.447 199.327 332.46V334.44ZM206.747 342.46C206.561 342.553 206.327 342.653 206.047 342.76C205.767 342.867 205.447 342.96 205.087 343.04C204.741 343.12 204.381 343.16 204.007 343.16C203.554 343.16 203.134 343.08 202.747 342.92C202.361 342.76 202.047 342.507 201.807 342.16C201.581 341.8 201.467 341.34 201.467 340.78V334.24H200.087V332.54H201.467V329.1H203.667V332.54H205.947V334.24H203.667V340.08C203.694 340.44 203.807 340.707 204.007 340.88C204.221 341.053 204.481 341.14 204.787 341.14C205.094 341.14 205.387 341.087 205.667 340.98C205.947 340.873 206.154 340.787 206.287 340.72L206.747 342.46ZM211.991 343.2C211.111 343.2 210.278 343.06 209.491 342.78C208.705 342.487 208.031 342.053 207.471 341.48L208.291 340C208.891 340.533 209.491 340.92 210.091 341.16C210.705 341.4 211.311 341.52 211.911 341.52C212.525 341.52 213.025 341.407 213.411 341.18C213.798 340.94 213.991 340.593 213.991 340.14C213.991 339.807 213.891 339.56 213.691 339.4C213.491 339.24 213.198 339.1 212.811 338.98C212.438 338.86 211.985 338.727 211.451 338.58C210.705 338.353 210.078 338.12 209.571 337.88C209.065 337.627 208.685 337.32 208.431 336.96C208.178 336.6 208.051 336.14 208.051 335.58C208.051 334.9 208.225 334.32 208.571 333.84C208.918 333.36 209.398 332.993 210.011 332.74C210.638 332.487 211.358 332.36 212.171 332.36C212.931 332.36 213.631 332.48 214.271 332.72C214.925 332.947 215.498 333.307 215.991 333.8L215.051 335.26C214.585 334.833 214.105 334.52 213.611 334.32C213.131 334.12 212.611 334.02 212.051 334.02C211.731 334.02 211.425 334.06 211.131 334.14C210.838 334.207 210.591 334.34 210.391 334.54C210.205 334.727 210.111 334.993 210.111 335.34C210.111 335.62 210.191 335.847 210.351 336.02C210.511 336.193 210.751 336.34 211.071 336.46C211.391 336.58 211.785 336.713 212.251 336.86C213.065 337.1 213.758 337.34 214.331 337.58C214.905 337.807 215.345 338.107 215.651 338.48C215.971 338.84 216.131 339.34 216.131 339.98C216.131 340.993 215.751 341.787 214.991 342.36C214.245 342.92 213.245 343.2 211.991 343.2ZM228.857 342.46C228.67 342.553 228.437 342.653 228.157 342.76C227.877 342.867 227.557 342.96 227.197 343.04C226.85 343.12 226.49 343.16 226.117 343.16C225.663 343.16 225.243 343.08 224.857 342.92C224.47 342.76 224.157 342.507 223.917 342.16C223.69 341.8 223.577 341.34 223.577 340.78V334.24H222.197V332.54H223.577V329.1H225.777V332.54H228.057V334.24H225.777V340.08C225.803 340.44 225.917 340.707 226.117 340.88C226.33 341.053 226.59 341.14 226.897 341.14C227.203 341.14 227.497 341.087 227.777 340.98C228.057 340.873 228.263 340.787 228.397 340.72L228.857 342.46ZM236.261 334.44C235.407 334.453 234.647 334.647 233.981 335.02C233.327 335.393 232.861 335.92 232.581 336.6V343H230.381V332.54H232.421V334.88C232.781 334.16 233.254 333.587 233.841 333.16C234.427 332.72 235.047 332.48 235.701 332.44C235.834 332.44 235.941 332.44 236.021 332.44C236.114 332.44 236.194 332.447 236.261 332.46V334.44ZM237.861 343V332.54H240.061V343H237.861ZM237.861 330.82V328.4H240.061V330.82H237.861ZM248.645 343.2C247.805 343.2 247.065 343 246.425 342.6C245.785 342.2 245.278 341.68 244.905 341.04V347.26H242.705V332.54H244.645V334.42C245.045 333.793 245.565 333.293 246.205 332.92C246.845 332.547 247.558 332.36 248.345 332.36C249.065 332.36 249.725 332.507 250.325 332.8C250.925 333.08 251.445 333.473 251.885 333.98C252.325 334.487 252.665 335.067 252.905 335.72C253.158 336.36 253.285 337.04 253.285 337.76C253.285 338.76 253.085 339.673 252.685 340.5C252.298 341.327 251.751 341.987 251.045 342.48C250.351 342.96 249.551 343.2 248.645 343.2ZM247.925 341.32C248.391 341.32 248.811 341.22 249.185 341.02C249.571 340.82 249.898 340.553 250.165 340.22C250.445 339.887 250.658 339.507 250.805 339.08C250.951 338.653 251.025 338.213 251.025 337.76C251.025 337.28 250.945 336.827 250.785 336.4C250.625 335.973 250.391 335.6 250.085 335.28C249.791 334.96 249.445 334.707 249.045 334.52C248.658 334.333 248.231 334.24 247.765 334.24C247.485 334.24 247.191 334.293 246.885 334.4C246.578 334.507 246.291 334.653 246.025 334.84C245.758 335.027 245.525 335.247 245.325 335.5C245.125 335.753 244.985 336.02 244.905 336.3V339.04C245.091 339.467 245.338 339.853 245.645 340.2C245.951 340.533 246.305 340.807 246.705 341.02C247.105 341.22 247.511 341.32 247.925 341.32Z" fill="#001835"/>
<g clip-path="url(#clip0_491_9019)">
<path d="M123.244 71.924L122.985 71.1413C123.848 70.8369 125.36 70.0716 125.489 69.3149C125.645 68.3496 124.764 65.8362 124.41 64.9665L125.178 64.6535C125.316 65.0013 126.526 68.0887 126.301 69.4541C126.059 70.9413 123.537 71.8718 123.244 71.924Z" fill="#333333"/>
<path d="M119.271 61.4356C121.232 64.9286 123.016 68.5191 124.617 72.1936C126.111 76.0724 126.344 78.2205 123.969 79.7337C121.594 81.247 117.345 81.4731 117.345 81.4731L117.777 88.3609L111.36 89.0045L108.769 82.9776C108.769 82.9776 112.828 79.0988 113.087 77.1682C113.346 75.2375 106.679 71.5674 108.769 68.1235C110.859 64.6795 119.271 61.4356 119.271 61.4356Z" fill="#FE9572"/>
<path d="M125.073 64.7515L115.026 69.6992L115.39 70.4492L125.437 65.5015L125.073 64.7515Z" fill="#333333"/>
<path d="M116.749 71.75C116.749 71.75 113.752 67.6626 112.897 69.8107C112.042 71.9588 113.761 75.194 114.4 75.6201C115.039 76.0463 117.388 75.6201 117.388 75.6201C117.388 75.6201 114.4 80.5773 113.07 81.647C111.74 82.7167 109.866 84.2561 108.752 82.9429C107.638 81.6296 98.276 71.7501 97.421 68.0887C96.566 64.4273 106.619 61.2008 106.826 59.6963C106.937 58.4977 107.475 57.3799 108.34 56.5489C109.205 55.7178 110.339 55.2295 111.533 55.1739C115.169 54.7478 123.287 54.7478 121.793 59.2615C121.352 60.5856 120.624 61.7944 119.662 62.8006C118.7 63.8068 117.528 64.5853 116.231 65.0796C116.231 65.0796 117.734 66.819 117.734 67.6887C117.512 69.0664 117.183 70.4244 116.749 71.75Z" fill="#333333"/>
<path d="M96.8251 128.366L91.6951 126.427L94.476 122.122L96.8251 128.366Z" fill="#00518B"/>
<path d="M92.7659 98.6579C92.7659 98.6579 84 125.557 84 128.575C84 131.593 92.7659 144.281 92.7659 144.281L96.825 142.542C96.825 142.542 93.1891 130.923 93.6209 128.123C94.0527 125.322 101.739 115.643 101.739 115.643C101.739 115.643 97.2568 98.0057 92.7659 98.6579Z" fill="#FE9572"/>
<path d="M92.7658 98.658C91.3804 100.086 90.4174 101.875 89.9849 103.824C89.1213 107.303 85.6667 119.965 85.6667 119.965C85.6667 119.965 89.9849 121.47 92.2908 123.618C93.8814 125.105 95.3811 126.688 96.7817 128.358L101.696 115.66C101.696 115.66 98.7508 101.884 92.7658 98.658Z" fill="#40A2E3"/>
<path d="M105.807 88.5349L104.943 92.6311C104.943 92.6311 110.712 90.0221 115.203 90.0221C119.694 90.0221 124.176 89.8046 124.176 89.8046C124.176 89.8046 122.898 86.1433 120.54 85.7172C118.183 85.291 109.434 85.5258 105.807 88.5349Z" fill="#4681B5"/>
<path d="M149.567 198.106L147.84 175.033C147.792 174.445 147.862 173.853 148.046 173.293C148.23 172.732 148.524 172.215 148.911 171.772C149.293 171.325 149.759 170.959 150.282 170.694C150.805 170.43 151.376 170.273 151.96 170.233L165.432 169.276C166.598 169.201 167.747 169.587 168.634 170.352C169.521 171.117 170.077 172.201 170.182 173.372L172.238 197.975L170.588 198.115L168.567 173.511C168.51 172.768 168.164 172.078 167.605 171.589C167.045 171.101 166.318 170.854 165.579 170.902L152.08 171.885C151.342 171.945 150.656 172.295 150.171 172.86C149.687 173.424 149.442 174.158 149.49 174.903L151.217 197.975L149.567 198.106Z" fill="#333333"/>
<path d="M147.33 121.913C148.276 124.871 149.43 127.757 150.785 130.549C152.607 134.028 155.889 165.336 155.889 165.336C156.924 166.054 157.903 166.851 158.817 167.719C159.18 168.276 161.002 173.424 160.82 174.155C160.639 174.885 160.095 175.259 158.998 175.442C157.901 175.625 158.083 174.711 157.167 174.711C156.252 174.711 154.248 176.181 152.789 174.338C151.329 172.494 151.528 164.058 151.528 164.058C151.528 164.058 143.859 138.689 142.028 133.906C140.197 129.123 138.737 124.34 138.737 124.34L147.33 121.913Z" fill="#FE9572"/>
<path d="M138.72 92.8398C138.72 92.8398 141.069 96.075 143.634 104.25C145.556 110.057 147.84 115.736 150.474 121.252C150.474 121.252 145.56 124.731 141.708 125.34C140.015 125.675 138.301 125.893 136.578 125.992L138.72 92.8398Z" fill="#40A2E3"/>
<path d="M104.33 152.978C104.33 152.978 106.394 183.417 107.638 194.619C108.881 205.82 115.082 235.641 115.082 235.641C115.082 235.641 108.881 233.554 108.881 235.433C109.011 236.952 109.464 238.426 110.209 239.754C110.954 241.082 111.974 242.233 113.2 243.129C116.101 245.008 119.245 247.921 119.616 245.843C119.988 243.764 118.995 202.359 119.409 198.784C119.824 195.21 120.851 172.555 120.851 172.555C120.851 172.555 122.717 200.663 124.159 205.655C125.601 210.647 133.055 239.572 133.055 239.572C132.341 241.135 132.043 242.859 132.191 244.573C132.606 246.86 136.121 248.321 136.328 249.365C136.535 250.408 141.285 252.487 142.321 251.861C143.358 251.235 137.77 242.077 137.563 240.198C137.356 238.32 135.749 210.029 135.749 204.62C135.749 199.21 134.713 190.253 134.713 190.253L136.613 156.518L104.33 152.978Z" fill="#333333"/>
<path d="M107.085 90.6917L92.7659 98.6579C92.7659 98.6579 100.677 121.47 101.532 127.923C102.387 134.376 103.026 156.335 103.026 156.335C107.701 159.464 113.229 161.045 118.839 160.858C125.169 160.585 131.429 159.414 137.433 157.379C137.433 157.379 139.791 110.025 139.575 101.85C139.376 94.2661 140.439 93.0224 136.794 92.3789C133.15 91.7353 131.448 89.1523 121.62 89.1523C111.792 89.1523 107.085 90.6917 107.085 90.6917Z" fill="#40A2E3"/>
<path d="M103.881 134.602C103.881 134.602 123.814 102.693 125.947 89.1349L130.576 90.0046C130.576 90.0046 119.055 124.47 105.807 139.576L103.881 134.602Z" fill="#DE9323"/>
<path d="M88.7068 154.831C88.7068 154.831 89.1299 172.911 90.624 173.555C92.1181 174.198 111.792 165.38 113.079 163.014C114.365 160.649 107.525 138.046 106.455 136.533C105.384 135.019 104.96 134.602 103.864 134.602C102.767 134.602 88.7068 154.831 88.7068 154.831Z" fill="#DE9323"/>
<path d="M90.3564 173.233C90.405 173.369 90.4999 173.483 90.6242 173.555C92.1269 174.207 111.792 165.38 113.079 163.014C113.255 162.47 113.299 161.892 113.208 161.327L107.094 161.936L90.3564 173.233Z" fill="#B37F00"/>
<path d="M103.881 134.602C103.76 134.602 103.458 134.88 103.017 135.35C103.017 140.82 103.173 163.493 104.296 163.875C105.289 164.206 110.004 163.501 113.079 163.006C114.279 160.475 107.5 138.072 106.437 136.567C105.375 135.063 104.952 134.602 103.881 134.602Z" fill="#B37F00"/>
<path d="M103.881 134.602C103.881 134.602 87.42 141.055 86.9968 143.42C86.5736 145.786 86.7809 156.335 88.275 156.335C89.7691 156.335 103.881 151.387 105.159 149.021C106.437 146.656 103.881 134.602 103.881 134.602Z" fill="#DE9323"/>
<path d="M108.881 235.433C109.011 236.952 109.464 238.426 110.209 239.754C110.954 241.082 111.974 242.233 113.2 243.129C116.101 245.008 119.245 247.921 119.616 245.843C119.677 245.495 119.711 244.103 119.711 241.964C113.804 240.181 115.065 235.641 115.065 235.641C115.065 235.641 108.881 233.554 108.881 235.433Z" fill="#E4A548"/>
<path d="M142.373 251.896C143.375 251.287 138.15 242.634 137.649 240.416C134.514 237.285 133.072 239.607 133.072 239.607C132.358 241.17 132.06 242.894 132.208 244.608C132.623 246.895 136.138 248.356 136.345 249.4C136.552 250.443 141.337 252.504 142.373 251.896Z" fill="#E4A548"/>
<path d="M135.343 243.338C133.702 242.373 132.752 243.077 132.182 244.112C132.194 244.272 132.214 244.432 132.243 244.59C132.657 246.878 136.172 248.339 136.38 249.382C136.587 250.426 141.251 252.461 142.339 251.887C140.724 249.017 137.675 244.721 135.343 243.338Z" fill="#CE8648"/>
<path d="M170.865 194.74L148.548 196.027C147.973 196.057 147.41 196.202 146.891 196.454C146.373 196.707 145.909 197.061 145.529 197.496C145.148 197.931 144.858 198.438 144.675 198.988C144.492 199.538 144.42 200.119 144.463 200.698L147.52 245.051C147.556 245.624 147.703 246.185 147.954 246.7C148.205 247.215 148.556 247.675 148.984 248.054C149.413 248.432 149.912 248.721 150.452 248.905C150.993 249.088 151.564 249.161 152.132 249.121L174.932 247.669C175.51 247.636 176.075 247.487 176.594 247.23C177.113 246.973 177.576 246.614 177.955 246.173C178.333 245.733 178.62 245.22 178.798 244.666C178.976 244.112 179.042 243.527 178.991 242.947L175.476 198.758C175.392 197.61 174.86 196.542 173.995 195.789C173.131 195.036 172.005 194.659 170.865 194.74Z" fill="#0D9276"/>
<path d="M174.047 199.891L146.817 201.731L147.5 211.979L174.73 210.139L174.047 199.891Z" fill="#0C7A63"/>
<path d="M176.409 239.381L149.179 241.216L147.322 215.5L174.552 213.664L176.409 239.381Z" fill="#0C7A63"/>
<path d="M175.476 198.758C175.419 198.07 175.2 197.405 174.837 196.819L176.426 239.433C176.438 239.768 176.321 240.095 176.099 240.345C175.876 240.595 175.567 240.748 175.234 240.772L150.094 242.712C149.754 242.736 149.419 242.624 149.16 242.401C148.902 242.178 148.741 241.862 148.712 241.52L145.37 197.758C144.737 198.6 144.43 199.645 144.506 200.698L147.563 245.051C147.599 245.624 147.746 246.185 147.997 246.7C148.249 247.215 148.599 247.675 149.027 248.054C149.456 248.432 149.955 248.721 150.495 248.905C151.036 249.088 151.607 249.161 152.175 249.121L174.975 247.669C175.553 247.636 176.118 247.487 176.637 247.23C177.157 246.973 177.619 246.614 177.998 246.173C178.376 245.733 178.663 245.22 178.841 244.666C179.019 244.112 179.085 243.527 179.034 242.947L175.476 198.758Z" fill="#0D9276"/>
<path d="M152.787 247.776L151.134 247.904L151.416 251.598L153.07 251.47L152.787 247.776Z" fill="#333333"/>
<path d="M175.446 246.911L173.792 247.04L174.075 250.734L175.728 250.605L175.446 246.911Z" fill="#333333"/>
<path d="M152.52 242.547L150.867 242.675L151.149 246.369L152.802 246.241L152.52 242.547Z" fill="#333333"/>
<path d="M175.003 241.3L173.35 241.428L173.632 245.122L175.285 244.994L175.003 241.3Z" fill="#333333"/>
</g>
<path d="M210.373 165.4C210.373 165.4 210.977 164.838 211.12 164.463C211.12 164.463 211.331 163.758 211.511 163.27C211.554 163.142 211.605 163.018 211.664 162.897C211.847 162.549 212.349 161.843 212.552 160.885C212.755 159.927 213.41 155.63 213.41 155.63L210.829 154.829L208.748 154.267C208.748 154.267 203.951 158.55 203.657 159.414C203.629 159.496 203.607 159.58 203.589 159.665C203.411 160.417 203.6 161.063 203.552 161.471C203.536 161.622 203.475 163.127 203.81 163.423C203.984 163.602 204.202 163.734 204.442 163.806C204.681 163.877 204.935 163.887 205.18 163.834C205.18 163.834 206.125 164.614 206.96 164.613C206.96 164.613 207.81 165.361 208.837 165.071C208.832 165.074 209.776 165.736 210.373 165.4Z" fill="#EEA886"/>
<path d="M240.102 117.691C239.542 118.717 238.778 120.04 236.894 124.571C233.393 133.012 226.713 143.603 225.782 145.593C224.348 148.651 213.655 158.752 213.655 158.752C211.903 158.384 208.157 154.233 208.157 154.233C208.157 154.233 220.508 139.193 221.933 136.007C223.157 133.257 223.654 120.078 223.768 116.449L223.796 115.52C228.653 111.386 241.294 115.495 240.102 117.691Z" fill="#0D9276"/>
<path d="M251.526 76.445C251.526 76.445 244.23 73.7185 240.865 79.2749C237.501 84.8313 237.823 95.959 241.502 97.326C245.181 98.6929 250.705 97.9799 252.59 94.501C254.475 91.0221 256.173 85.9967 256.092 82.6383C256.011 79.2798 253.447 77.4137 251.526 76.445Z" fill="#EEA886"/>
<path d="M242.733 96.9842C242.733 96.9842 243.028 98.8995 242.539 99.8411C242.05 100.783 251.717 100.81 251.717 100.81C251.717 100.81 252.504 95.6811 253.991 91.3491C255.477 87.017 242.733 96.9842 242.733 96.9842Z" fill="#EEA886"/>
<path d="M253.983 91.349C253.983 91.349 253.317 92.4504 250.592 92.0226C247.867 91.5948 244.547 87.9709 243.411 87.5726C242.276 87.1743 242.264 86.508 242.264 86.508L241.551 87.548L240.344 87.6242C240.344 87.6242 241.445 84.3813 239.784 83.0586C238.123 81.7359 241.504 72.5653 250.24 75.6188C250.24 75.6188 256.949 77.4677 256.703 81.2736C256.458 85.0796 255.492 89.4485 253.983 91.349Z" fill="#323657"/>
<path d="M242.45 85.1188C242.603 84.4795 244.229 82.6602 244.854 84.6074C245.478 86.5546 243.912 89.2001 243.04 88.9763C242.168 88.7526 242.064 86.7415 242.45 85.1188Z" fill="#EEA886"/>
<path d="M270.283 124.899C270.202 125.855 269.109 126.893 268.364 127.404C267.873 127.741 267.296 127.932 266.7 127.953L266.268 127.967L258.684 128.213C258.684 128.213 253.047 109.985 263.621 103.035C263.948 103.076 271.016 116.112 270.283 124.899Z" fill="#0D9276"/>
<path d="M242.725 99.2854C242.725 99.2854 248.677 97.9012 252.029 99.0395L252.536 99.5067C252.536 99.5067 253.555 101.474 249.719 101.631C245.883 101.788 239.85 102.073 242.725 99.2854Z" fill="#0D9276"/>
<path d="M265.98 238.787C265.98 238.787 266.872 242.293 266.993 242.819C267.113 243.345 272.608 241.894 272.608 241.894V237.609C272.608 237.609 266.624 238.209 265.98 238.787Z" fill="#666FB3"/>
<path d="M224.496 232.957C224.496 232.957 224.031 236.545 223.949 237.078C223.867 237.612 229.509 238.292 229.509 238.292L231.091 234.309C231.091 234.309 225.308 232.658 224.496 232.957Z" fill="#666FB3"/>
<path d="M261.847 146.582C261.847 146.582 263.85 154.847 264.442 163.123C264.99 170.772 265.988 179.158 266.781 187.156C267.666 196.073 270.187 210.488 270.318 215.258C270.448 220.027 274.463 240.881 274.463 240.881L264.199 242.061C264.199 242.061 257.529 205.227 255.954 201.46C254.379 197.693 246.569 170.85 246.306 167.836C246.043 164.822 261.847 146.582 261.847 146.582Z" fill="#2D314F"/>
<path d="M254.688 145.737C254.688 145.737 253.499 154.159 250.994 162.069C248.681 169.38 246.513 177.542 244.298 185.268C241.829 193.882 238.852 208.21 237.212 212.691C235.573 217.172 231.608 238.035 231.608 238.035L221.632 235.343C221.632 235.343 229.029 198.648 228.956 194.566C228.882 190.484 231.531 162.654 232.4 159.755C233.268 156.857 254.688 145.737 254.688 145.737Z" fill="#2D314F"/>
<path d="M266.885 242.374C266.885 242.374 265.346 244.709 263.737 245.83C262.127 246.952 255.91 248.397 255.003 249.477C254.349 250.254 253.438 253.196 263.41 251.852C270.495 250.898 273.991 251.139 274.628 249.904C275.264 248.67 272.608 241.511 272.608 241.511C272.608 241.511 271.092 242.337 266.885 242.374Z" fill="#2D314F"/>
<path d="M224.013 236.625C224.013 236.625 221.721 238.228 219.811 238.676C217.902 239.124 211.59 238.172 210.349 238.841C209.454 239.322 207.521 241.72 217.285 244.151C224.222 245.879 227.383 247.394 228.43 246.482C229.477 245.57 229.651 237.935 229.651 237.935C229.651 237.935 227.937 238.143 224.013 236.625Z" fill="#2D314F"/>
<path d="M229.912 167.145C229.038 167.02 232.082 140.949 231.851 139.314C231.694 138.222 231.719 129.75 231.783 124.466L230.832 119.121C230.157 118.645 229.458 118.204 228.738 117.799C227.416 117.034 225.754 116.161 223.911 115.239C224.125 113.976 224.275 112.982 224.332 112.402C224.791 107.706 227.944 105.218 229.738 104.171C230.131 103.934 230.542 103.729 230.967 103.556C231.645 103.266 232.313 102.988 232.96 102.72C237.265 100.95 242.73 99.2781 242.73 99.2781H251.513C251.513 99.2781 258.2 100.616 262.186 102.246C262.693 102.456 263.176 102.722 263.626 103.037L262.432 128.09C262.433 128.095 262.433 128.1 262.432 128.105C262.432 128.116 262.432 128.127 262.432 128.137C261.896 131.663 261.328 135.82 261.141 138.736C261.063 139.926 262.424 146.316 263.134 152.185L265.616 166.221C265.616 166.221 264.169 172.04 229.912 167.145Z" fill="#0D9276"/>
<rect x="26" width="82" height="35" rx="8" fill="#BBE2EC"/>
<path d="M43.072 13.614C42.892 13.41 42.682 13.23 42.442 13.074C42.202 12.906 41.932 12.762 41.632 12.642C41.332 12.522 41.008 12.426 40.66 12.354C40.324 12.282 39.964 12.246 39.58 12.246C38.464 12.246 37.642 12.462 37.114 12.894C36.598 13.314 36.34 13.89 36.34 14.622C36.34 15.126 36.46 15.522 36.7 15.81C36.952 16.098 37.342 16.332 37.87 16.512C38.398 16.692 39.07 16.878 39.886 17.07C40.798 17.262 41.584 17.49 42.244 17.754C42.904 18.018 43.414 18.378 43.774 18.834C44.134 19.278 44.314 19.884 44.314 20.652C44.314 21.24 44.2 21.75 43.972 22.182C43.744 22.614 43.426 22.974 43.018 23.262C42.61 23.55 42.124 23.766 41.56 23.91C40.996 24.042 40.378 24.108 39.706 24.108C39.046 24.108 38.41 24.042 37.798 23.91C37.198 23.766 36.628 23.562 36.088 23.298C35.548 23.022 35.044 22.674 34.576 22.254L35.206 21.228C35.434 21.468 35.704 21.696 36.016 21.912C36.34 22.116 36.694 22.302 37.078 22.47C37.474 22.638 37.894 22.77 38.338 22.866C38.794 22.95 39.262 22.992 39.742 22.992C40.762 22.992 41.554 22.806 42.118 22.434C42.694 22.062 42.982 21.51 42.982 20.778C42.982 20.25 42.838 19.83 42.55 19.518C42.262 19.194 41.83 18.93 41.254 18.726C40.678 18.522 39.97 18.324 39.13 18.132C38.242 17.928 37.492 17.7 36.88 17.448C36.268 17.196 35.806 16.866 35.494 16.458C35.194 16.038 35.044 15.486 35.044 14.802C35.044 14.01 35.236 13.344 35.62 12.804C36.016 12.252 36.556 11.838 37.24 11.562C37.924 11.274 38.71 11.13 39.598 11.13C40.162 11.13 40.684 11.19 41.164 11.31C41.656 11.418 42.106 11.58 42.514 11.796C42.934 12.012 43.324 12.282 43.684 12.606L43.072 13.614ZM50.6254 23.55C50.5294 23.586 50.3794 23.652 50.1754 23.748C49.9714 23.844 49.7254 23.928 49.4374 24C49.1494 24.072 48.8374 24.108 48.5014 24.108C48.1534 24.108 47.8234 24.042 47.5114 23.91C47.2114 23.778 46.9714 23.58 46.7914 23.316C46.6114 23.04 46.5214 22.704 46.5214 22.308V15.594H45.2254V14.622H46.5214V11.454H47.7454V14.622H49.9054V15.594H47.7454V21.966C47.7694 22.302 47.8894 22.554 48.1054 22.722C48.3334 22.89 48.5914 22.974 48.8794 22.974C49.2154 22.974 49.5214 22.92 49.7974 22.812C50.0734 22.692 50.2414 22.608 50.3014 22.56L50.6254 23.55ZM56.0465 24.18C55.3745 24.18 54.7505 24.054 54.1745 23.802C53.5985 23.538 53.1005 23.184 52.6805 22.74C52.2605 22.284 51.9305 21.762 51.6905 21.174C51.4625 20.586 51.3485 19.956 51.3485 19.284C51.3485 18.408 51.5465 17.604 51.9425 16.872C52.3505 16.14 52.9085 15.558 53.6165 15.126C54.3245 14.682 55.1285 14.46 56.0285 14.46C56.9525 14.46 57.7565 14.682 58.4405 15.126C59.1365 15.57 59.6825 16.158 60.0785 16.89C60.4745 17.61 60.6725 18.402 60.6725 19.266C60.6725 19.362 60.6725 19.458 60.6725 19.554C60.6725 19.638 60.6665 19.704 60.6545 19.752H52.6265C52.6865 20.424 52.8725 21.024 53.1845 21.552C53.5085 22.068 53.9225 22.482 54.4265 22.794C54.9425 23.094 55.5005 23.244 56.1005 23.244C56.7125 23.244 57.2885 23.088 57.8285 22.776C58.3805 22.464 58.7645 22.056 58.9805 21.552L60.0425 21.84C59.8505 22.284 59.5565 22.686 59.1605 23.046C58.7645 23.406 58.2965 23.688 57.7565 23.892C57.2285 24.084 56.6585 24.18 56.0465 24.18ZM52.5905 18.87H59.5205C59.4725 18.186 59.2865 17.586 58.9625 17.07C58.6505 16.554 58.2365 16.152 57.7205 15.864C57.2165 15.564 56.6585 15.414 56.0465 15.414C55.4345 15.414 54.8765 15.564 54.3725 15.864C53.8685 16.152 53.4545 16.56 53.1305 17.088C52.8185 17.604 52.6385 18.198 52.5905 18.87ZM67.3489 24.18C66.5689 24.18 65.8669 23.976 65.2429 23.568C64.6309 23.16 64.1449 22.656 63.7849 22.056V27.834H62.5609V14.622H63.6589V16.44C64.0309 15.852 64.5289 15.378 65.1529 15.018C65.7769 14.646 66.4429 14.46 67.1509 14.46C67.7989 14.46 68.3929 14.598 68.9329 14.874C69.4729 15.138 69.9409 15.498 70.3369 15.954C70.7329 16.41 71.0389 16.932 71.2549 17.52C71.4829 18.096 71.5969 18.696 71.5969 19.32C71.5969 20.196 71.4169 21.006 71.0569 21.75C70.7089 22.482 70.2169 23.07 69.5809 23.514C68.9449 23.958 68.2009 24.18 67.3489 24.18ZM67.0069 23.1C67.5229 23.1 67.9849 22.998 68.3929 22.794C68.8009 22.578 69.1489 22.29 69.4369 21.93C69.7369 21.57 69.9649 21.168 70.1209 20.724C70.2769 20.268 70.3549 19.8 70.3549 19.32C70.3549 18.816 70.2649 18.336 70.0849 17.88C69.9169 17.424 69.6709 17.022 69.3469 16.674C69.0229 16.326 68.6509 16.05 68.2309 15.846C67.8109 15.642 67.3549 15.54 66.8629 15.54C66.5509 15.54 66.2269 15.6 65.8909 15.72C65.5549 15.84 65.2309 16.014 64.9189 16.242C64.6189 16.458 64.3669 16.704 64.1629 16.98C63.9589 17.256 63.8329 17.55 63.7849 17.862V20.742C63.9769 21.186 64.2349 21.588 64.5589 21.948C64.8829 22.296 65.2549 22.578 65.6749 22.794C66.1069 22.998 66.5509 23.1 67.0069 23.1Z" fill="#001835"/>
<path d="M85.642 19.752C86.146 19.836 86.584 20.028 86.956 20.328C87.34 20.616 87.634 20.988 87.838 21.444C88.042 21.888 88.144 22.392 88.144 22.956C88.144 23.7 87.958 24.348 87.586 24.9C87.226 25.452 86.71 25.878 86.038 26.178C85.366 26.49 84.574 26.646 83.662 26.646C82.75 26.646 81.946 26.484 81.25 26.16C80.554 25.848 79.996 25.392 79.576 24.792L80.782 23.424C81.07 23.856 81.442 24.198 81.898 24.45C82.354 24.714 82.93 24.846 83.626 24.846C84.406 24.846 85.012 24.678 85.444 24.342C85.876 24.006 86.092 23.502 86.092 22.83C86.092 22.134 85.852 21.588 85.372 21.192C84.904 20.796 84.196 20.598 83.248 20.598H82.762V19.05H83.302C84.106 19.05 84.724 18.864 85.156 18.492C85.588 18.108 85.804 17.628 85.804 17.052C85.804 16.668 85.714 16.356 85.534 16.116C85.366 15.864 85.126 15.678 84.814 15.558C84.502 15.438 84.142 15.378 83.734 15.378C83.122 15.378 82.582 15.51 82.114 15.774C81.646 16.038 81.274 16.416 80.998 16.908L79.756 15.558C79.996 15.174 80.326 14.838 80.746 14.55C81.166 14.262 81.646 14.04 82.186 13.884C82.738 13.716 83.32 13.632 83.932 13.632C84.724 13.632 85.42 13.764 86.02 14.028C86.62 14.292 87.082 14.664 87.406 15.144C87.742 15.624 87.91 16.188 87.91 16.836C87.91 17.304 87.82 17.748 87.64 18.168C87.46 18.576 87.196 18.924 86.848 19.212C86.5 19.488 86.098 19.668 85.642 19.752Z" fill="#001835"/>
<defs>
<clipPath id="clip0_491_9019">
<rect width="95" height="197" fill="white" transform="translate(84 55)"/>
</clipPath>
</defs>
</svg>
