<svg width="349" height="385" viewBox="0 0 349 385" fill="none" xmlns="http://www.w3.org/2000/svg">
<rect opacity="0.2" y="18" width="349" height="367" rx="32" fill="#BBE2EC"/>
<path d="M58.4633 306V291.8H60.7033V304.02H68.3233V306H58.4633ZM69.863 306V295.54H72.063V306H69.863ZM69.863 293.82V291.4H72.063V293.82H69.863ZM78.4267 306.2C77.5467 306.2 76.7134 306.06 75.9267 305.78C75.1401 305.487 74.4667 305.053 73.9067 304.48L74.7267 303C75.3267 303.533 75.9267 303.92 76.5267 304.16C77.1401 304.4 77.7467 304.52 78.3467 304.52C78.9601 304.52 79.4601 304.407 79.8467 304.18C80.2334 303.94 80.4267 303.593 80.4267 303.14C80.4267 302.807 80.3267 302.56 80.1267 302.4C79.9267 302.24 79.6334 302.1 79.2467 301.98C78.8734 301.86 78.4201 301.727 77.8867 301.58C77.1401 301.353 76.5134 301.12 76.0067 300.88C75.5001 300.627 75.1201 300.32 74.8667 299.96C74.6134 299.6 74.4867 299.14 74.4867 298.58C74.4867 297.9 74.6601 297.32 75.0067 296.84C75.3534 296.36 75.8334 295.993 76.4467 295.74C77.0734 295.487 77.7934 295.36 78.6067 295.36C79.3667 295.36 80.0667 295.48 80.7067 295.72C81.3601 295.947 81.9334 296.307 82.4267 296.8L81.4867 298.26C81.0201 297.833 80.5401 297.52 80.0467 297.32C79.5667 297.12 79.0467 297.02 78.4867 297.02C78.1667 297.02 77.8601 297.06 77.5667 297.14C77.2734 297.207 77.0267 297.34 76.8267 297.54C76.6401 297.727 76.5467 297.993 76.5467 298.34C76.5467 298.62 76.6267 298.847 76.7867 299.02C76.9467 299.193 77.1867 299.34 77.5067 299.46C77.8267 299.58 78.2201 299.713 78.6867 299.86C79.5001 300.1 80.1934 300.34 80.7667 300.58C81.3401 300.807 81.7801 301.107 82.0867 301.48C82.4067 301.84 82.5667 302.34 82.5667 302.98C82.5667 303.993 82.1867 304.787 81.4267 305.36C80.6801 305.92 79.6801 306.2 78.4267 306.2ZM90.3314 305.46C90.1447 305.553 89.9114 305.653 89.6314 305.76C89.3514 305.867 89.0314 305.96 88.6714 306.04C88.3247 306.12 87.9647 306.16 87.5914 306.16C87.1381 306.16 86.7181 306.08 86.3314 305.92C85.9447 305.76 85.6314 305.507 85.3914 305.16C85.1647 304.8 85.0514 304.34 85.0514 303.78V297.24H83.6714V295.54H85.0514V292.1H87.2514V295.54H89.5314V297.24H87.2514V303.08C87.2781 303.44 87.3914 303.707 87.5914 303.88C87.8047 304.053 88.0647 304.14 88.3714 304.14C88.6781 304.14 88.9714 304.087 89.2514 303.98C89.5314 303.873 89.7381 303.787 89.8714 303.72L90.3314 305.46ZM97.3966 306V297.5H95.9966V295.8H97.3966V295.38C97.3966 294.527 97.5299 293.787 97.7966 293.16C98.0766 292.533 98.4632 292.053 98.9566 291.72C99.4632 291.373 100.057 291.2 100.737 291.2C101.163 291.2 101.583 291.26 101.997 291.38C102.41 291.487 102.803 291.64 103.177 291.84L102.697 293.48C102.497 293.347 102.257 293.247 101.977 293.18C101.71 293.1 101.45 293.06 101.197 293.06C100.69 293.06 100.297 293.253 100.017 293.64C99.7366 294.027 99.5966 294.587 99.5966 295.32V295.8H102.277V297.5H99.5966V306H97.3966ZM108.43 306.2C107.603 306.2 106.863 306.06 106.21 305.78C105.557 305.487 104.99 305.087 104.51 304.58C104.043 304.073 103.683 303.5 103.43 302.86C103.177 302.207 103.05 301.513 103.05 300.78C103.05 300.047 103.177 299.353 103.43 298.7C103.683 298.047 104.043 297.473 104.51 296.98C104.99 296.473 105.557 296.08 106.21 295.8C106.877 295.507 107.617 295.36 108.43 295.36C109.243 295.36 109.977 295.507 110.63 295.8C111.297 296.08 111.863 296.473 112.33 296.98C112.81 297.473 113.177 298.047 113.43 298.7C113.683 299.353 113.81 300.047 113.81 300.78C113.81 301.513 113.683 302.207 113.43 302.86C113.177 303.5 112.81 304.073 112.33 304.58C111.863 305.087 111.297 305.487 110.63 305.78C109.977 306.06 109.243 306.2 108.43 306.2ZM105.31 300.8C105.31 301.467 105.45 302.067 105.73 302.6C106.01 303.133 106.383 303.553 106.85 303.86C107.317 304.167 107.843 304.32 108.43 304.32C109.003 304.32 109.523 304.167 109.99 303.86C110.47 303.54 110.85 303.113 111.13 302.58C111.41 302.033 111.55 301.433 111.55 300.78C111.55 300.113 111.41 299.513 111.13 298.98C110.85 298.447 110.47 298.027 109.99 297.72C109.523 297.4 109.003 297.24 108.43 297.24C107.843 297.24 107.317 297.4 106.85 297.72C106.383 298.04 106.01 298.467 105.73 299C105.45 299.52 105.31 300.12 105.31 300.8ZM121.641 297.44C120.788 297.453 120.028 297.647 119.361 298.02C118.708 298.393 118.241 298.92 117.961 299.6V306H115.761V295.54H117.801V297.88C118.161 297.16 118.635 296.587 119.221 296.16C119.808 295.72 120.428 295.48 121.081 295.44C121.215 295.44 121.321 295.44 121.401 295.44C121.495 295.44 121.575 295.447 121.641 295.46V297.44ZM131.454 306.2C130.574 306.2 129.741 306.06 128.954 305.78C128.167 305.487 127.494 305.053 126.934 304.48L127.754 303C128.354 303.533 128.954 303.92 129.554 304.16C130.167 304.4 130.774 304.52 131.374 304.52C131.987 304.52 132.487 304.407 132.874 304.18C133.261 303.94 133.454 303.593 133.454 303.14C133.454 302.807 133.354 302.56 133.154 302.4C132.954 302.24 132.661 302.1 132.274 301.98C131.901 301.86 131.447 301.727 130.914 301.58C130.167 301.353 129.541 301.12 129.034 300.88C128.527 300.627 128.147 300.32 127.894 299.96C127.641 299.6 127.514 299.14 127.514 298.58C127.514 297.9 127.687 297.32 128.034 296.84C128.381 296.36 128.861 295.993 129.474 295.74C130.101 295.487 130.821 295.36 131.634 295.36C132.394 295.36 133.094 295.48 133.734 295.72C134.387 295.947 134.961 296.307 135.454 296.8L134.514 298.26C134.047 297.833 133.567 297.52 133.074 297.32C132.594 297.12 132.074 297.02 131.514 297.02C131.194 297.02 130.887 297.06 130.594 297.14C130.301 297.207 130.054 297.34 129.854 297.54C129.667 297.727 129.574 297.993 129.574 298.34C129.574 298.62 129.654 298.847 129.814 299.02C129.974 299.193 130.214 299.34 130.534 299.46C130.854 299.58 131.247 299.713 131.714 299.86C132.527 300.1 133.221 300.34 133.794 300.58C134.367 300.807 134.807 301.107 135.114 301.48C135.434 301.84 135.594 302.34 135.594 302.98C135.594 303.993 135.214 304.787 134.454 305.36C133.707 305.92 132.707 306.2 131.454 306.2ZM142.298 306.2C141.485 306.2 140.745 306.06 140.078 305.78C139.425 305.487 138.858 305.093 138.378 304.6C137.898 304.093 137.525 303.52 137.258 302.88C137.005 302.227 136.878 301.533 136.878 300.8C136.878 299.813 137.105 298.913 137.558 298.1C138.012 297.273 138.645 296.613 139.458 296.12C140.272 295.613 141.225 295.36 142.318 295.36C143.412 295.36 144.352 295.613 145.138 296.12C145.938 296.613 146.558 297.267 146.998 298.08C147.438 298.893 147.658 299.767 147.658 300.7C147.658 300.86 147.652 301.013 147.638 301.16C147.625 301.293 147.612 301.407 147.598 301.5H139.218C139.258 302.113 139.425 302.653 139.718 303.12C140.025 303.573 140.412 303.933 140.878 304.2C141.345 304.453 141.845 304.58 142.378 304.58C142.965 304.58 143.518 304.433 144.038 304.14C144.572 303.847 144.932 303.46 145.118 302.98L146.998 303.52C146.772 304.027 146.425 304.487 145.958 304.9C145.505 305.3 144.965 305.62 144.338 305.86C143.712 306.087 143.032 306.2 142.298 306.2ZM139.158 300.04H145.478C145.438 299.44 145.265 298.913 144.958 298.46C144.665 297.993 144.285 297.633 143.818 297.38C143.365 297.113 142.858 296.98 142.298 296.98C141.752 296.98 141.245 297.113 140.778 297.38C140.325 297.633 139.952 297.993 139.658 298.46C139.365 298.913 139.198 299.44 139.158 300.04ZM158.833 306H156.633V300.14C156.633 299.167 156.473 298.453 156.153 298C155.846 297.547 155.386 297.32 154.773 297.32C154.346 297.32 153.919 297.427 153.493 297.64C153.079 297.853 152.706 298.147 152.373 298.52C152.039 298.88 151.799 299.3 151.653 299.78V306H149.453V295.54H151.453V297.64C151.719 297.173 152.066 296.773 152.493 296.44C152.933 296.093 153.426 295.827 153.973 295.64C154.519 295.453 155.099 295.36 155.713 295.36C156.339 295.36 156.853 295.473 157.253 295.7C157.666 295.927 157.986 296.24 158.213 296.64C158.453 297.027 158.613 297.48 158.693 298C158.786 298.507 158.833 299.047 158.833 299.62V306ZM160.726 300.78C160.726 299.78 160.926 298.873 161.326 298.06C161.74 297.233 162.3 296.58 163.006 296.1C163.713 295.607 164.526 295.36 165.446 295.36C166.246 295.36 166.966 295.567 167.606 295.98C168.26 296.393 168.766 296.907 169.126 297.52V291.4H171.326V303.52C171.326 303.773 171.373 303.953 171.466 304.06C171.56 304.167 171.713 304.227 171.926 304.24V306C171.513 306.067 171.193 306.1 170.966 306.1C170.553 306.1 170.2 305.98 169.906 305.74C169.626 305.5 169.48 305.213 169.466 304.88L169.446 304.1C169.046 304.767 168.506 305.287 167.826 305.66C167.146 306.02 166.44 306.2 165.706 306.2C164.986 306.2 164.32 306.06 163.706 305.78C163.106 305.5 162.58 305.107 162.126 304.6C161.686 304.093 161.34 303.513 161.086 302.86C160.846 302.207 160.726 301.513 160.726 300.78ZM169.126 302.24V299.5C168.98 299.073 168.74 298.693 168.406 298.36C168.086 298.013 167.72 297.74 167.306 297.54C166.906 297.34 166.506 297.24 166.106 297.24C165.64 297.24 165.213 297.34 164.826 297.54C164.453 297.74 164.126 298.007 163.846 298.34C163.58 298.673 163.373 299.053 163.226 299.48C163.08 299.907 163.006 300.353 163.006 300.82C163.006 301.3 163.086 301.753 163.246 302.18C163.406 302.593 163.633 302.967 163.926 303.3C164.233 303.62 164.58 303.873 164.966 304.06C165.366 304.233 165.8 304.32 166.266 304.32C166.56 304.32 166.853 304.267 167.146 304.16C167.453 304.053 167.74 303.907 168.006 303.72C168.286 303.533 168.52 303.313 168.706 303.06C168.906 302.807 169.046 302.533 169.126 302.24ZM174.121 306V295.54H176.321V306H174.121ZM174.121 293.82V291.4H176.321V293.82H174.121ZM188.345 306H186.145V300.14C186.145 299.167 185.985 298.453 185.665 298C185.358 297.547 184.898 297.32 184.285 297.32C183.858 297.32 183.431 297.427 183.005 297.64C182.591 297.853 182.218 298.147 181.885 298.52C181.551 298.88 181.311 299.3 181.165 299.78V306H178.965V295.54H180.965V297.64C181.231 297.173 181.578 296.773 182.005 296.44C182.445 296.093 182.938 295.827 183.485 295.64C184.031 295.453 184.611 295.36 185.225 295.36C185.851 295.36 186.365 295.473 186.765 295.7C187.178 295.927 187.498 296.24 187.725 296.64C187.965 297.027 188.125 297.48 188.205 298C188.298 298.507 188.345 299.047 188.345 299.62V306ZM195.038 306.1C194.331 306.1 193.685 305.96 193.098 305.68C192.511 305.387 192.005 304.993 191.578 304.5C191.165 304.007 190.838 303.44 190.598 302.8C190.371 302.16 190.258 301.487 190.258 300.78C190.258 300.033 190.378 299.333 190.618 298.68C190.858 298.027 191.191 297.453 191.618 296.96C192.058 296.453 192.571 296.06 193.158 295.78C193.745 295.5 194.398 295.36 195.118 295.36C195.958 295.36 196.691 295.56 197.318 295.96C197.958 296.36 198.485 296.88 198.898 297.52V295.54H200.838V305.7C200.838 306.713 200.591 307.573 200.098 308.28C199.618 308.987 198.958 309.527 198.118 309.9C197.278 310.273 196.331 310.46 195.278 310.46C194.118 310.46 193.158 310.26 192.398 309.86C191.638 309.46 190.991 308.913 190.458 308.22L191.698 307.06C192.098 307.62 192.611 308.047 193.238 308.34C193.878 308.633 194.558 308.78 195.278 308.78C195.878 308.78 196.431 308.667 196.938 308.44C197.458 308.227 197.871 307.887 198.178 307.42C198.485 306.967 198.638 306.393 198.638 305.7V304.1C198.265 304.727 197.751 305.22 197.098 305.58C196.445 305.927 195.758 306.1 195.038 306.1ZM195.758 304.32C196.091 304.32 196.411 304.267 196.718 304.16C197.025 304.04 197.305 303.887 197.558 303.7C197.825 303.5 198.051 303.28 198.238 303.04C198.425 302.787 198.558 302.52 198.638 302.24V299.5C198.465 299.047 198.218 298.653 197.898 298.32C197.578 297.973 197.218 297.707 196.818 297.52C196.418 297.333 196.011 297.24 195.598 297.24C195.118 297.24 194.685 297.347 194.298 297.56C193.925 297.76 193.605 298.033 193.338 298.38C193.071 298.713 192.865 299.093 192.718 299.52C192.571 299.947 192.498 300.387 192.498 300.84C192.498 301.32 192.578 301.767 192.738 302.18C192.911 302.593 193.145 302.967 193.438 303.3C193.731 303.62 194.078 303.873 194.478 304.06C194.878 304.233 195.305 304.32 195.758 304.32ZM214.876 291.8L205.136 306H202.696L212.436 291.8H214.876ZM220.482 306.2C219.669 306.2 218.929 306.06 218.262 305.78C217.609 305.487 217.042 305.087 216.562 304.58C216.082 304.073 215.709 303.493 215.442 302.84C215.189 302.187 215.062 301.493 215.062 300.76C215.062 299.773 215.282 298.873 215.722 298.06C216.175 297.247 216.802 296.593 217.602 296.1C218.415 295.607 219.375 295.36 220.482 295.36C221.549 295.36 222.475 295.6 223.262 296.08C224.062 296.547 224.649 297.173 225.022 297.96L222.882 298.64C222.642 298.2 222.302 297.86 221.862 297.62C221.435 297.367 220.962 297.24 220.442 297.24C219.855 297.24 219.322 297.393 218.842 297.7C218.375 297.993 218.002 298.407 217.722 298.94C217.455 299.46 217.322 300.067 217.322 300.76C217.322 301.427 217.462 302.033 217.742 302.58C218.022 303.113 218.395 303.54 218.862 303.86C219.342 304.167 219.875 304.32 220.462 304.32C220.822 304.32 221.169 304.26 221.502 304.14C221.849 304.007 222.149 303.833 222.402 303.62C222.655 303.393 222.835 303.147 222.942 302.88L225.102 303.52C224.875 304.04 224.535 304.5 224.082 304.9C223.642 305.3 223.115 305.62 222.502 305.86C221.902 306.087 221.229 306.2 220.482 306.2ZM226.154 302.94C226.154 302.273 226.34 301.693 226.714 301.2C227.1 300.693 227.627 300.307 228.294 300.04C228.96 299.76 229.734 299.62 230.614 299.62C231.08 299.62 231.554 299.653 232.034 299.72C232.527 299.787 232.96 299.893 233.334 300.04V299.38C233.334 298.647 233.114 298.073 232.674 297.66C232.234 297.247 231.6 297.04 230.774 297.04C230.187 297.04 229.634 297.147 229.114 297.36C228.594 297.56 228.04 297.847 227.454 298.22L226.714 296.74C227.407 296.273 228.1 295.927 228.794 295.7C229.5 295.473 230.24 295.36 231.014 295.36C232.414 295.36 233.514 295.733 234.314 296.48C235.127 297.213 235.534 298.26 235.534 299.62V303.52C235.534 303.773 235.574 303.953 235.654 304.06C235.747 304.167 235.9 304.227 236.114 304.24V306C235.914 306.04 235.734 306.067 235.574 306.08C235.414 306.093 235.28 306.1 235.174 306.1C234.707 306.1 234.354 305.987 234.114 305.76C233.874 305.533 233.734 305.267 233.694 304.96L233.634 304.36C233.18 304.947 232.6 305.4 231.894 305.72C231.187 306.04 230.474 306.2 229.754 306.2C229.06 306.2 228.44 306.06 227.894 305.78C227.347 305.487 226.92 305.093 226.614 304.6C226.307 304.107 226.154 303.553 226.154 302.94ZM232.814 303.58C232.974 303.407 233.1 303.233 233.194 303.06C233.287 302.887 233.334 302.733 233.334 302.6V301.4C232.96 301.253 232.567 301.147 232.154 301.08C231.74 301 231.334 300.96 230.934 300.96C230.134 300.96 229.48 301.12 228.974 301.44C228.48 301.76 228.234 302.2 228.234 302.76C228.234 303.067 228.314 303.36 228.474 303.64C228.647 303.92 228.887 304.147 229.194 304.32C229.514 304.493 229.907 304.58 230.374 304.58C230.854 304.58 231.314 304.487 231.754 304.3C232.194 304.113 232.547 303.873 232.814 303.58ZM244.083 297.44C243.229 297.453 242.469 297.647 241.803 298.02C241.149 298.393 240.683 298.92 240.403 299.6V306H238.203V295.54H240.243V297.88C240.603 297.16 241.076 296.587 241.663 296.16C242.249 295.72 242.869 295.48 243.523 295.44C243.656 295.44 243.763 295.44 243.843 295.44C243.936 295.44 244.016 295.447 244.083 295.46V297.44ZM251.563 297.44C250.71 297.453 249.95 297.647 249.283 298.02C248.63 298.393 248.163 298.92 247.883 299.6V306H245.683V295.54H247.723V297.88C248.083 297.16 248.557 296.587 249.143 296.16C249.73 295.72 250.35 295.48 251.003 295.44C251.137 295.44 251.243 295.44 251.323 295.44C251.417 295.44 251.497 295.447 251.563 295.46V297.44ZM253.524 308.46C253.724 308.487 253.917 308.513 254.104 308.54C254.304 308.58 254.464 308.6 254.584 308.6C254.81 308.6 255.004 308.527 255.164 308.38C255.337 308.247 255.51 307.993 255.684 307.62C255.857 307.247 256.07 306.707 256.324 306L252.024 295.54H254.324L257.524 303.76L260.364 295.54H262.484L257.744 308.42C257.597 308.807 257.384 309.16 257.104 309.48C256.824 309.813 256.477 310.073 256.064 310.26C255.65 310.447 255.164 310.54 254.604 310.54C254.444 310.54 254.277 310.527 254.104 310.5C253.93 310.473 253.737 310.433 253.524 310.38V308.46ZM264.101 306V295.54H266.301V306H264.101ZM264.101 293.82V291.4H266.301V293.82H264.101ZM278.325 306H276.125V300.14C276.125 299.167 275.965 298.453 275.645 298C275.338 297.547 274.878 297.32 274.265 297.32C273.838 297.32 273.412 297.427 272.985 297.64C272.572 297.853 272.198 298.147 271.865 298.52C271.532 298.88 271.292 299.3 271.145 299.78V306H268.945V295.54H270.945V297.64C271.212 297.173 271.558 296.773 271.985 296.44C272.425 296.093 272.918 295.827 273.465 295.64C274.012 295.453 274.592 295.36 275.205 295.36C275.832 295.36 276.345 295.473 276.745 295.7C277.158 295.927 277.478 296.24 277.705 296.64C277.945 297.027 278.105 297.48 278.185 298C278.278 298.507 278.325 299.047 278.325 299.62V306ZM285.019 306.1C284.312 306.1 283.665 305.96 283.079 305.68C282.492 305.387 281.985 304.993 281.559 304.5C281.145 304.007 280.819 303.44 280.579 302.8C280.352 302.16 280.239 301.487 280.239 300.78C280.239 300.033 280.359 299.333 280.599 298.68C280.839 298.027 281.172 297.453 281.599 296.96C282.039 296.453 282.552 296.06 283.139 295.78C283.725 295.5 284.379 295.36 285.099 295.36C285.939 295.36 286.672 295.56 287.299 295.96C287.939 296.36 288.465 296.88 288.879 297.52V295.54H290.819V305.7C290.819 306.713 290.572 307.573 290.079 308.28C289.599 308.987 288.939 309.527 288.099 309.9C287.259 310.273 286.312 310.46 285.259 310.46C284.099 310.46 283.139 310.26 282.379 309.86C281.619 309.46 280.972 308.913 280.439 308.22L281.679 307.06C282.079 307.62 282.592 308.047 283.219 308.34C283.859 308.633 284.539 308.78 285.259 308.78C285.859 308.78 286.412 308.667 286.919 308.44C287.439 308.227 287.852 307.887 288.159 307.42C288.465 306.967 288.619 306.393 288.619 305.7V304.1C288.245 304.727 287.732 305.22 287.079 305.58C286.425 305.927 285.739 306.1 285.019 306.1ZM285.739 304.32C286.072 304.32 286.392 304.267 286.699 304.16C287.005 304.04 287.285 303.887 287.539 303.7C287.805 303.5 288.032 303.28 288.219 303.04C288.405 302.787 288.539 302.52 288.619 302.24V299.5C288.445 299.047 288.199 298.653 287.879 298.32C287.559 297.973 287.199 297.707 286.799 297.52C286.399 297.333 285.992 297.24 285.579 297.24C285.099 297.24 284.665 297.347 284.279 297.56C283.905 297.76 283.585 298.033 283.319 298.38C283.052 298.713 282.845 299.093 282.699 299.52C282.552 299.947 282.479 300.387 282.479 300.84C282.479 301.32 282.559 301.767 282.719 302.18C282.892 302.593 283.125 302.967 283.419 303.3C283.712 303.62 284.059 303.873 284.459 304.06C284.859 304.233 285.285 304.32 285.739 304.32ZM136.279 314.4H138.479V325.98C138.479 326.513 138.559 326.853 138.719 327C138.879 327.147 139.079 327.22 139.319 327.22C139.586 327.22 139.833 327.193 140.059 327.14C140.299 327.087 140.506 327.02 140.679 326.94L140.999 328.68C140.679 328.813 140.299 328.927 139.859 329.02C139.419 329.113 139.026 329.16 138.679 329.16C137.933 329.16 137.346 328.953 136.919 328.54C136.493 328.113 136.279 327.527 136.279 326.78V314.4ZM142.175 324.94V318.54H144.375V324.5C144.375 325.433 144.542 326.14 144.875 326.62C145.222 327.087 145.722 327.32 146.375 327.32C146.788 327.32 147.188 327.233 147.575 327.06C147.975 326.887 148.335 326.633 148.655 326.3C148.988 325.953 149.255 325.54 149.455 325.06V318.54H151.655V326.52C151.655 326.773 151.702 326.953 151.795 327.06C151.888 327.167 152.042 327.227 152.255 327.24V329C152.028 329.04 151.842 329.067 151.695 329.08C151.548 329.093 151.408 329.1 151.275 329.1C150.875 329.1 150.542 328.993 150.275 328.78C150.008 328.553 149.855 328.267 149.815 327.92L149.775 326.88C149.308 327.64 148.702 328.22 147.955 328.62C147.208 329.007 146.388 329.2 145.495 329.2C144.402 329.2 143.575 328.84 143.015 328.12C142.455 327.4 142.175 326.34 142.175 324.94ZM158.603 329.1C157.896 329.1 157.249 328.96 156.663 328.68C156.076 328.387 155.569 327.993 155.143 327.5C154.729 327.007 154.403 326.44 154.163 325.8C153.936 325.16 153.823 324.487 153.823 323.78C153.823 323.033 153.943 322.333 154.183 321.68C154.423 321.027 154.756 320.453 155.183 319.96C155.623 319.453 156.136 319.06 156.723 318.78C157.309 318.5 157.963 318.36 158.683 318.36C159.523 318.36 160.256 318.56 160.883 318.96C161.523 319.36 162.049 319.88 162.463 320.52V318.54H164.403V328.7C164.403 329.713 164.156 330.573 163.663 331.28C163.183 331.987 162.523 332.527 161.683 332.9C160.843 333.273 159.896 333.46 158.843 333.46C157.683 333.46 156.723 333.26 155.963 332.86C155.203 332.46 154.556 331.913 154.023 331.22L155.263 330.06C155.663 330.62 156.176 331.047 156.803 331.34C157.443 331.633 158.123 331.78 158.843 331.78C159.443 331.78 159.996 331.667 160.503 331.44C161.023 331.227 161.436 330.887 161.743 330.42C162.049 329.967 162.203 329.393 162.203 328.7V327.1C161.829 327.727 161.316 328.22 160.663 328.58C160.009 328.927 159.323 329.1 158.603 329.1ZM159.323 327.32C159.656 327.32 159.976 327.267 160.283 327.16C160.589 327.04 160.869 326.887 161.123 326.7C161.389 326.5 161.616 326.28 161.803 326.04C161.989 325.787 162.123 325.52 162.203 325.24V322.5C162.029 322.047 161.783 321.653 161.463 321.32C161.143 320.973 160.783 320.707 160.383 320.52C159.983 320.333 159.576 320.24 159.163 320.24C158.683 320.24 158.249 320.347 157.863 320.56C157.489 320.76 157.169 321.033 156.903 321.38C156.636 321.713 156.429 322.093 156.283 322.52C156.136 322.947 156.063 323.387 156.063 323.84C156.063 324.32 156.143 324.767 156.303 325.18C156.476 325.593 156.709 325.967 157.003 326.3C157.296 326.62 157.643 326.873 158.043 327.06C158.443 327.233 158.869 327.32 159.323 327.32ZM171.181 329.1C170.474 329.1 169.827 328.96 169.241 328.68C168.654 328.387 168.147 327.993 167.721 327.5C167.307 327.007 166.981 326.44 166.741 325.8C166.514 325.16 166.401 324.487 166.401 323.78C166.401 323.033 166.521 322.333 166.761 321.68C167.001 321.027 167.334 320.453 167.761 319.96C168.201 319.453 168.714 319.06 169.301 318.78C169.887 318.5 170.541 318.36 171.261 318.36C172.101 318.36 172.834 318.56 173.461 318.96C174.101 319.36 174.627 319.88 175.041 320.52V318.54H176.981V328.7C176.981 329.713 176.734 330.573 176.241 331.28C175.761 331.987 175.101 332.527 174.261 332.9C173.421 333.273 172.474 333.46 171.421 333.46C170.261 333.46 169.301 333.26 168.541 332.86C167.781 332.46 167.134 331.913 166.601 331.22L167.841 330.06C168.241 330.62 168.754 331.047 169.381 331.34C170.021 331.633 170.701 331.78 171.421 331.78C172.021 331.78 172.574 331.667 173.081 331.44C173.601 331.227 174.014 330.887 174.321 330.42C174.627 329.967 174.781 329.393 174.781 328.7V327.1C174.407 327.727 173.894 328.22 173.241 328.58C172.587 328.927 171.901 329.1 171.181 329.1ZM171.901 327.32C172.234 327.32 172.554 327.267 172.861 327.16C173.167 327.04 173.447 326.887 173.701 326.7C173.967 326.5 174.194 326.28 174.381 326.04C174.567 325.787 174.701 325.52 174.781 325.24V322.5C174.607 322.047 174.361 321.653 174.041 321.32C173.721 320.973 173.361 320.707 172.961 320.52C172.561 320.333 172.154 320.24 171.741 320.24C171.261 320.24 170.827 320.347 170.441 320.56C170.067 320.76 169.747 321.033 169.481 321.38C169.214 321.713 169.007 322.093 168.861 322.52C168.714 322.947 168.641 323.387 168.641 323.84C168.641 324.32 168.721 324.767 168.881 325.18C169.054 325.593 169.287 325.967 169.581 326.3C169.874 326.62 170.221 326.873 170.621 327.06C171.021 327.233 171.447 327.32 171.901 327.32ZM178.859 325.94C178.859 325.273 179.045 324.693 179.419 324.2C179.805 323.693 180.332 323.307 180.999 323.04C181.665 322.76 182.439 322.62 183.319 322.62C183.785 322.62 184.259 322.653 184.739 322.72C185.232 322.787 185.665 322.893 186.039 323.04V322.38C186.039 321.647 185.819 321.073 185.379 320.66C184.939 320.247 184.305 320.04 183.479 320.04C182.892 320.04 182.339 320.147 181.819 320.36C181.299 320.56 180.745 320.847 180.159 321.22L179.419 319.74C180.112 319.273 180.805 318.927 181.499 318.7C182.205 318.473 182.945 318.36 183.719 318.36C185.119 318.36 186.219 318.733 187.019 319.48C187.832 320.213 188.239 321.26 188.239 322.62V326.52C188.239 326.773 188.279 326.953 188.359 327.06C188.452 327.167 188.605 327.227 188.819 327.24V329C188.619 329.04 188.439 329.067 188.279 329.08C188.119 329.093 187.985 329.1 187.879 329.1C187.412 329.1 187.059 328.987 186.819 328.76C186.579 328.533 186.439 328.267 186.399 327.96L186.339 327.36C185.885 327.947 185.305 328.4 184.599 328.72C183.892 329.04 183.179 329.2 182.459 329.2C181.765 329.2 181.145 329.06 180.599 328.78C180.052 328.487 179.625 328.093 179.319 327.6C179.012 327.107 178.859 326.553 178.859 325.94ZM185.519 326.58C185.679 326.407 185.805 326.233 185.899 326.06C185.992 325.887 186.039 325.733 186.039 325.6V324.4C185.665 324.253 185.272 324.147 184.859 324.08C184.445 324 184.039 323.96 183.639 323.96C182.839 323.96 182.185 324.12 181.679 324.44C181.185 324.76 180.939 325.2 180.939 325.76C180.939 326.067 181.019 326.36 181.179 326.64C181.352 326.92 181.592 327.147 181.899 327.32C182.219 327.493 182.612 327.58 183.079 327.58C183.559 327.58 184.019 327.487 184.459 327.3C184.899 327.113 185.252 326.873 185.519 326.58ZM195.048 329.1C194.341 329.1 193.695 328.96 193.108 328.68C192.521 328.387 192.015 327.993 191.588 327.5C191.175 327.007 190.848 326.44 190.608 325.8C190.381 325.16 190.268 324.487 190.268 323.78C190.268 323.033 190.388 322.333 190.628 321.68C190.868 321.027 191.201 320.453 191.628 319.96C192.068 319.453 192.581 319.06 193.168 318.78C193.755 318.5 194.408 318.36 195.128 318.36C195.968 318.36 196.701 318.56 197.328 318.96C197.968 319.36 198.495 319.88 198.908 320.52V318.54H200.848V328.7C200.848 329.713 200.601 330.573 200.108 331.28C199.628 331.987 198.968 332.527 198.128 332.9C197.288 333.273 196.341 333.46 195.288 333.46C194.128 333.46 193.168 333.26 192.408 332.86C191.648 332.46 191.001 331.913 190.468 331.22L191.708 330.06C192.108 330.62 192.621 331.047 193.248 331.34C193.888 331.633 194.568 331.78 195.288 331.78C195.888 331.78 196.441 331.667 196.948 331.44C197.468 331.227 197.881 330.887 198.188 330.42C198.495 329.967 198.648 329.393 198.648 328.7V327.1C198.275 327.727 197.761 328.22 197.108 328.58C196.455 328.927 195.768 329.1 195.048 329.1ZM195.768 327.32C196.101 327.32 196.421 327.267 196.728 327.16C197.035 327.04 197.315 326.887 197.568 326.7C197.835 326.5 198.061 326.28 198.248 326.04C198.435 325.787 198.568 325.52 198.648 325.24V322.5C198.475 322.047 198.228 321.653 197.908 321.32C197.588 320.973 197.228 320.707 196.828 320.52C196.428 320.333 196.021 320.24 195.608 320.24C195.128 320.24 194.695 320.347 194.308 320.56C193.935 320.76 193.615 321.033 193.348 321.38C193.081 321.713 192.875 322.093 192.728 322.52C192.581 322.947 192.508 323.387 192.508 323.84C192.508 324.32 192.588 324.767 192.748 325.18C192.921 325.593 193.155 325.967 193.448 326.3C193.741 326.62 194.088 326.873 194.488 327.06C194.888 327.233 195.315 327.32 195.768 327.32ZM208.226 329.2C207.413 329.2 206.673 329.06 206.006 328.78C205.353 328.487 204.786 328.093 204.306 327.6C203.826 327.093 203.453 326.52 203.186 325.88C202.933 325.227 202.806 324.533 202.806 323.8C202.806 322.813 203.033 321.913 203.486 321.1C203.939 320.273 204.573 319.613 205.386 319.12C206.199 318.613 207.153 318.36 208.246 318.36C209.339 318.36 210.279 318.613 211.066 319.12C211.866 319.613 212.486 320.267 212.926 321.08C213.366 321.893 213.586 322.767 213.586 323.7C213.586 323.86 213.579 324.013 213.566 324.16C213.553 324.293 213.539 324.407 213.526 324.5H205.146C205.186 325.113 205.353 325.653 205.646 326.12C205.953 326.573 206.339 326.933 206.806 327.2C207.273 327.453 207.773 327.58 208.306 327.58C208.893 327.58 209.446 327.433 209.966 327.14C210.499 326.847 210.859 326.46 211.046 325.98L212.926 326.52C212.699 327.027 212.353 327.487 211.886 327.9C211.433 328.3 210.893 328.62 210.266 328.86C209.639 329.087 208.959 329.2 208.226 329.2ZM205.086 323.04H211.406C211.366 322.44 211.193 321.913 210.886 321.46C210.593 320.993 210.213 320.633 209.746 320.38C209.293 320.113 208.786 319.98 208.226 319.98C207.679 319.98 207.173 320.113 206.706 320.38C206.253 320.633 205.879 320.993 205.586 321.46C205.293 321.913 205.126 322.44 205.086 323.04Z" fill="#001835"/>
<g clip-path="url(#clip0_491_8914)">
<path d="M313 75.9293L188.353 200.627L182.22 206.764L169.125 219.864L138.759 250.242L45 156.444L67.8082 133.633L95.7226 161.559L122.551 188.399L138.759 204.613L154.966 188.399L253.724 89.5946L290.192 53.113L313 75.9293Z" fill="#40A2E3"/>
<path d="M188.353 178.617V200.627L182.22 206.764L169.125 219.864V178.617H188.353Z" fill="url(#paint0_linear_491_8914)"/>
<path d="M261.756 98.0319V127.199L182.22 206.768H104.168C101.928 206.767 99.78 205.877 98.1965 204.292C96.6129 202.707 95.7235 200.558 95.7239 198.317V98.0319C95.7235 96.9225 95.9417 95.8239 96.366 94.7988C96.7902 93.7738 97.4122 92.8424 98.1963 92.0579C98.9805 91.2734 99.9115 90.6512 100.936 90.2268C101.961 89.8024 103.059 89.5841 104.168 89.5844H253.311C253.451 89.5844 253.585 89.5844 253.725 89.5946C255.891 89.7004 257.933 90.6355 259.428 92.2062C260.923 93.7769 261.757 95.8629 261.756 98.0319Z" fill="url(#paint1_linear_491_8914)"/>
<path d="M255.256 77.1134V133.697L200.577 188.399H102.221V77.1134H255.256Z" fill="white"/>
<path d="M102.224 90.5531L255.255 90.5531V77.1121L102.224 77.1121V90.5531Z" fill="#40A2E3"/>
<path d="M128.616 81.2925H110.44C109.431 81.2925 108.614 82.1102 108.614 83.1189V84.545C108.614 85.5537 109.431 86.3714 110.44 86.3714H128.616C129.624 86.3714 130.441 85.5537 130.441 84.545V83.1189C130.441 82.1102 129.624 81.2925 128.616 81.2925Z" fill="#F5F7FF"/>
<path d="M261.877 196.221H261.885C261.854 196.236 261.85 196.236 261.877 196.221Z" fill="#323657"/>
<path d="M77.2535 149.295C77.2038 148.695 77.1567 148.088 77.1146 147.492L77.53 147.464C77.572 148.058 77.6179 148.663 77.6676 149.261L77.2535 149.295ZM293.551 147.392L293.313 147.048C293.916 146.61 294.491 146.134 295.033 145.622L295.318 145.928C294.762 146.454 294.171 146.943 293.551 147.392ZM76.9732 145.235C76.9312 144.481 76.8942 143.722 76.8649 142.975L77.2828 142.958C77.3121 143.703 77.3491 144.461 77.3898 145.212L76.9732 145.235ZM296.911 144.289L296.595 144.014C297.086 143.452 297.544 142.864 297.968 142.25L298.312 142.493C297.88 143.118 297.412 143.718 296.911 144.289ZM76.791 140.709C76.7732 139.956 76.7617 139.194 76.7554 138.447H77.1745C77.1745 139.191 77.1911 139.951 77.2089 140.701L76.791 140.709ZM299.475 140.514L299.101 140.327C299.435 139.664 299.715 138.976 299.938 138.268L300.337 138.396C300.107 139.126 299.819 139.836 299.475 140.519V140.514ZM77.1771 136.195H76.7592C76.7668 135.44 76.7809 134.679 76.8012 133.934L77.2204 133.945C77.1987 134.684 77.1847 135.443 77.1771 136.195ZM300.817 136.155L300.401 136.107C300.45 135.679 300.475 135.25 300.475 134.819C300.475 134.512 300.463 134.201 300.437 133.894L300.854 133.86C300.88 134.177 300.893 134.497 300.893 134.819C300.893 135.266 300.868 135.712 300.817 136.155ZM300.038 131.716C299.834 131.003 299.57 130.308 299.25 129.64L299.632 129.46C299.962 130.15 300.234 130.866 300.445 131.601L300.038 131.716ZM77.3032 131.687L76.8853 131.668C76.9197 130.913 76.9618 130.153 77.0127 129.408L77.4293 129.436C77.3796 130.178 77.3376 130.936 77.3032 131.687ZM298.149 127.709C297.736 127.09 297.288 126.494 296.809 125.925L297.13 125.657C297.62 126.239 298.076 126.848 298.498 127.481L298.149 127.709ZM77.5949 127.188L77.1783 127.152C77.2408 126.401 77.3057 125.643 77.3898 124.9L77.8064 124.944C77.7287 125.684 77.6574 126.434 77.5949 127.188ZM295.293 124.268L295.111 124.089C294.641 123.631 294.145 123.202 293.624 122.803L293.879 122.471C294.414 122.88 294.925 123.32 295.407 123.79L295.592 123.971L295.293 124.268ZM78.0625 122.705L77.6484 122.653C77.7414 121.905 77.8434 121.15 77.9516 120.411L78.3657 120.472C78.2574 121.209 78.1555 121.96 78.0625 122.705ZM291.777 121.573C291.133 121.201 290.47 120.865 289.789 120.565L289.959 120.183C290.653 120.489 291.33 120.832 291.987 121.211L291.777 121.573ZM287.7 119.757C287.025 119.527 286.323 119.315 285.553 119.108L285.661 118.704C286.44 118.913 287.151 119.128 287.835 119.361L287.7 119.757ZM283.368 118.58C282.703 118.433 281.981 118.286 281.16 118.13L281.238 117.718C282.064 117.876 282.789 118.024 283.457 118.17L283.368 118.58ZM78.7173 118.247L78.3045 118.177C78.4319 117.434 78.5593 116.684 78.7058 115.95L79.1161 116.029C78.9759 116.76 78.8422 117.513 78.7173 118.247ZM278.948 117.721L278.272 117.593C277.763 117.501 277.242 117.41 276.723 117.314L276.797 116.902C277.316 116.998 277.833 117.09 278.346 117.181L279.02 117.303L278.948 117.721ZM274.5 116.9C273.701 116.74 272.971 116.588 272.285 116.429L272.378 116.022C273.066 116.178 273.787 116.331 274.582 116.489L274.5 116.9ZM270.086 115.88C269.334 115.678 268.603 115.461 267.912 115.237L268.04 114.838C268.725 115.061 269.449 115.276 270.194 115.475L270.086 115.88ZM265.777 114.472C265.064 114.191 264.363 113.888 263.695 113.571L263.875 113.188C264.534 113.502 265.225 113.801 265.93 114.081L265.777 114.472ZM79.5683 113.817L79.1594 113.729C79.3186 112.991 79.4868 112.249 79.6613 111.523L80.0677 111.621C79.8919 112.348 79.7238 113.088 79.5683 113.817ZM261.685 112.521C261.028 112.138 260.38 111.741 259.761 111.319L259.997 110.972C260.606 111.389 261.244 111.786 261.893 112.157L261.685 112.521ZM257.939 109.972C257.357 109.503 256.783 109 256.232 108.48L256.52 108.176C257.063 108.686 257.629 109.184 258.202 109.647L257.939 109.972ZM80.6181 109.441L80.2143 109.334C80.4066 108.607 80.6117 107.872 80.8219 107.155L81.2232 107.272C81.0143 107.987 80.8105 108.719 80.6181 109.441ZM254.645 106.86C254.147 106.311 253.654 105.729 253.182 105.13L253.511 104.875C253.976 105.466 254.463 106.041 254.954 106.583L254.645 106.86ZM81.8819 105.118L81.4831 104.991C81.7125 104.273 81.9545 103.552 82.2004 102.844L82.5953 102.982C82.3495 103.686 82.1163 104.404 81.8819 105.118ZM251.84 103.305C251.42 102.695 251.008 102.054 250.613 101.4L250.971 101.184C251.362 101.831 251.77 102.458 252.184 103.067L251.84 103.305ZM83.3635 100.865L82.9724 100.717C83.2387 100.014 83.5177 99.3051 83.8005 98.6118L84.1827 98.7698C83.9063 99.4594 83.6285 100.165 83.3635 100.865ZM249.492 99.4313C249.144 98.7813 248.802 98.1007 248.472 97.4099L248.855 97.2302C249.18 97.9159 249.518 98.5901 249.864 99.235L249.492 99.4313ZM85.0681 96.6975L84.6859 96.5293C84.9892 95.8397 85.3064 95.1477 85.6274 94.4709L86.0096 94.6506C85.6835 95.3236 85.3701 96.0118 85.0681 96.6975ZM247.554 95.344C247.267 94.6646 246.984 93.9586 246.713 93.2436L247.104 93.0957C247.373 93.8056 247.655 94.5066 247.939 95.1808L247.554 95.344ZM86.9982 92.6305L86.6262 92.4406C86.9664 91.7702 87.3218 91.096 87.6811 90.4384L88.048 90.6385C87.6913 91.2936 87.3397 91.964 86.9982 92.6305ZM245.951 91.1139C245.714 90.4154 245.481 89.6915 245.258 88.9612L245.658 88.8338C245.88 89.5602 246.112 90.2803 246.347 90.9737L245.951 91.1139ZM89.1538 88.6783L88.7933 88.4667C89.1755 87.8167 89.5653 87.1654 89.9615 86.5282L90.317 86.7499C89.922 87.3821 89.5309 88.0308 89.1538 88.6783ZM244.626 86.7882C244.431 86.0757 244.244 85.339 244.054 84.5973L244.461 84.4966C244.643 85.2345 244.835 85.9687 245.03 86.676L244.626 86.7882ZM91.5336 84.856L91.1858 84.6304C91.6012 84.0046 92.0318 83.3763 92.4598 82.7633L92.8013 83.0041C92.3757 83.6108 91.9477 84.234 91.5336 84.856ZM243.509 82.414C243.31 81.7029 243.08 80.9866 242.825 80.2869L243.217 80.1429C243.472 80.854 243.71 81.5805 243.912 82.3019L243.509 82.414ZM94.1326 81.1803L93.7988 80.9254C94.2511 80.3251 94.7173 79.7223 95.1862 79.1411L95.5123 79.4024C95.046 79.9848 94.5823 80.5826 94.1326 81.1803ZM241.978 78.2133C241.673 77.5416 241.341 76.8661 240.98 76.2059L241.348 76.0071C241.71 76.6749 242.05 77.3593 242.359 78.0463L241.978 78.2133ZM96.943 77.6639L96.6245 77.3925C97.1099 76.8202 97.6118 76.2454 98.1138 75.6884L98.4234 75.9637C97.9252 76.5233 97.4271 77.0942 96.943 77.6639ZM99.9522 74.3184L99.6489 74.029C100.167 73.4861 100.701 72.9432 101.236 72.4142L101.529 72.7125C101.002 73.2376 100.471 73.778 99.9522 74.3184ZM239.836 74.2725C239.442 73.6492 239.018 73.0247 238.576 72.4168L238.915 72.1708C239.362 72.7864 239.791 73.4185 240.189 74.0482L239.836 74.2725ZM103.158 71.1525L102.872 70.8466C103.42 70.3368 103.984 69.827 104.549 69.3274L104.825 69.6409C104.263 70.1354 103.703 70.6439 103.158 71.1525ZM237.213 70.6427C236.747 70.073 236.251 69.4956 235.741 68.9463L236.05 68.6633C236.559 69.2254 237.069 69.8015 237.537 70.3776L237.213 70.6427ZM106.536 68.1765L106.269 67.8553C106.844 67.3761 107.437 66.8969 108.029 66.433L108.284 66.7618C107.698 67.2244 107.109 67.6998 106.536 68.1765ZM234.18 67.3277C233.655 66.8115 233.103 66.294 232.54 65.7919L232.819 65.4796C233.387 65.9894 233.944 66.5081 234.475 67.0294L234.18 67.3277ZM110.071 65.3993L109.817 65.0641C110.417 64.6193 111.033 64.172 111.647 63.7437L111.888 64.0866C111.28 64.5148 110.668 64.9571 110.071 65.3993ZM230.83 64.3313C230.258 63.8635 229.662 63.3983 229.058 62.9459L229.313 62.6107C229.921 63.067 230.522 63.536 231.097 64.0127L230.83 64.3313ZM113.751 62.8223L113.52 62.473C114.144 62.0601 114.784 61.6497 115.421 61.2521L115.641 61.6077C115.008 62.0028 114.371 62.4119 113.751 62.8223ZM227.231 61.6319C226.624 61.2126 225.993 60.7932 225.356 60.3879L225.581 60.0349C226.218 60.4427 226.855 60.8646 227.469 61.2878L227.231 61.6319ZM117.565 60.4415L117.354 60.0808C117.991 59.6984 118.657 59.325 119.317 58.9592L119.519 59.325C118.863 59.6882 118.206 60.0642 117.565 60.4415ZM223.433 59.2103C222.796 58.8343 222.139 58.4596 221.477 58.0964L221.678 57.7293C222.343 58.0951 223.005 58.4711 223.646 58.8496L223.433 59.2103ZM121.498 58.2582L121.304 57.8874C121.968 57.5394 122.647 57.1953 123.322 56.8678L123.506 57.2437C122.838 57.57 122.163 57.9128 121.502 58.2582H121.498ZM219.485 57.0462C218.825 56.711 218.145 56.3771 217.462 56.0546L217.641 55.6723C218.327 55.9973 219.011 56.3325 219.679 56.6689L219.485 57.0462ZM125.54 56.2713L125.364 55.8889C126.045 55.5754 126.739 55.2644 127.431 54.9649L127.596 55.3473C126.912 55.6493 126.221 55.9539 125.544 56.2713H125.54ZM215.412 55.1242C214.733 54.8273 214.035 54.5316 213.337 54.2474L213.495 53.865C214.196 54.1505 214.896 54.4475 215.581 54.747L215.412 55.1242ZM129.673 54.487L129.515 54.1046C130.209 53.8242 130.916 53.5451 131.622 53.2787L131.771 53.67C131.076 53.9224 130.37 54.2002 129.679 54.4793L129.673 54.487ZM211.238 53.4278C210.542 53.164 209.836 52.9053 209.12 52.6568L209.26 52.2578C209.974 52.5127 210.688 52.7676 211.388 53.0327L211.238 53.4278ZM133.887 52.8887L133.749 52.4949C134.456 52.24 135.175 51.9991 135.89 51.7633L136.017 52.161C135.316 52.3853 134.605 52.6326 133.894 52.8811L133.887 52.8887ZM206.985 51.9354C206.277 51.706 205.552 51.4804 204.833 51.265L204.953 50.8648C205.675 51.0815 206.402 51.3071 207.119 51.5377L206.985 51.9354ZM138.172 51.4727L138.044 51.0725C138.762 50.8533 139.492 50.6392 140.217 50.4353L140.33 50.838C139.619 51.0407 138.89 51.2548 138.172 51.4727ZM202.667 50.6354C201.949 50.4378 201.215 50.2441 200.488 50.0606L200.591 49.6553C201.321 49.8401 202.057 50.0376 202.778 50.2326L202.667 50.6354ZM142.511 50.253L142.405 49.8477C143.129 49.6604 143.868 49.4769 144.602 49.3035L144.698 49.7101C143.972 49.8796 143.236 50.0619 142.516 50.2492L142.511 50.253ZM198.304 49.5329C197.577 49.366 196.836 49.2028 196.103 49.0499L196.188 48.6408C196.924 48.7937 197.668 48.9569 198.398 49.1251L198.304 49.5329ZM146.904 49.2079L146.816 48.8001C147.548 48.6408 148.294 48.4878 149.031 48.3438L149.112 48.7555C148.374 48.8982 147.631 49.0512 146.901 49.2079H146.904ZM193.891 48.6115C193.158 48.4751 192.412 48.3425 191.672 48.2189L191.74 47.806C192.483 47.9334 193.232 48.0609 193.969 48.2011L193.891 48.6115ZM151.327 48.3464L151.256 47.9334C151.991 47.806 152.741 47.6785 153.486 47.5676L153.55 47.9806C152.806 48.0953 152.058 48.2176 151.324 48.3464H151.327ZM189.445 47.8684C188.706 47.7588 187.954 47.6556 187.211 47.5613L187.264 47.1458C188.01 47.2414 188.764 47.3446 189.506 47.4542L189.445 47.8684ZM155.778 47.6581L155.722 47.2439C156.466 47.1432 157.22 47.0489 157.964 46.9635L158.013 47.379C157.268 47.4644 156.517 47.5587 155.776 47.6581H155.778ZM184.972 47.2962C184.228 47.2159 183.474 47.1407 182.728 47.0744L182.766 46.6576C183.513 46.7239 184.271 46.7991 185.018 46.8807L184.972 47.2962ZM160.256 47.1432L160.216 46.7265C160.962 46.6551 161.719 46.5888 162.465 46.5315L162.497 46.9482C161.741 47.0056 160.991 47.0719 160.249 47.1432H160.256ZM180.486 46.8883C179.742 46.8361 178.985 46.7889 178.236 46.7507L178.258 46.3326C179.009 46.3722 179.769 46.418 180.515 46.4716L180.486 46.8883ZM164.742 46.7915L164.718 46.3734C165.464 46.3301 166.222 46.2931 166.972 46.2625L166.988 46.6806C166.234 46.715 165.478 46.7532 164.734 46.7966L164.742 46.7915ZM175.984 46.6525C175.237 46.6283 174.48 46.6092 173.733 46.5977V46.1797C174.483 46.1912 175.242 46.2103 175.991 46.2345L175.984 46.6525ZM169.232 46.6118L169.223 46.1937C169.968 46.1772 170.727 46.1682 171.476 46.1657V46.5837C170.726 46.5914 169.969 46.6003 169.227 46.6169L169.232 46.6118Z" fill="#E0E0E0"/>
<path d="M303.585 116.52H290.792V119.419H303.585V116.52Z" fill="#E0E0E0"/>
<path d="M279.483 90.8959C279.052 89.6687 278.382 88.5388 277.513 87.5712C276.644 86.6036 275.593 85.8173 274.419 85.2577C273.245 84.6981 271.972 84.3762 270.674 84.3104C269.375 84.2446 268.076 84.4362 266.852 84.8743C265.628 85.3124 264.502 85.9883 263.54 86.8631C262.577 87.7379 261.797 88.7944 261.245 89.9718C260.692 91.1492 260.377 92.4243 260.319 93.7237C260.26 95.0232 260.459 96.3215 260.904 97.5438C260.978 97.7515 261.059 97.958 261.147 98.1581C262.168 100.507 264.061 102.368 266.428 103.346C268.794 104.324 271.448 104.344 273.829 103.401C276.209 102.458 278.13 100.625 279.185 98.2915C280.24 95.9575 280.347 93.3046 279.483 90.8934V90.8959ZM272.685 101.188C270.918 101.822 268.977 101.759 267.255 101.014C265.533 100.268 264.158 98.895 263.411 97.1729C263.346 97.0225 263.284 96.8683 263.229 96.7115C262.736 95.3334 262.663 93.8402 263.019 92.4206C263.375 91.001 264.143 89.7188 265.228 88.7361C266.312 87.7534 267.663 87.1145 269.11 86.9C270.557 86.6855 272.035 86.9052 273.358 87.5311C274.68 88.1571 275.787 89.1613 276.539 90.4168C277.291 91.6723 277.654 93.1226 277.582 94.5843C277.51 96.0461 277.006 97.4537 276.134 98.629C275.263 99.8044 274.062 100.695 272.685 101.188Z" fill="#F0F0F0"/>
<path d="M263.132 92.0137L260.775 91.277C261.389 89.3172 262.598 87.5972 264.233 86.356C265.869 85.1149 267.85 84.4142 269.902 84.3513L269.976 86.8213C268.438 86.8692 266.953 87.3948 265.728 88.3253C264.502 89.2557 263.596 90.5448 263.136 92.0137H263.132Z" fill="#1A598C"/>
<path d="M263.411 97.1729L261.147 98.1581C261.06 97.958 260.978 97.7515 260.904 97.5438C260.179 95.5248 260.134 93.3238 260.777 91.277L263.134 92.0137C262.653 93.5482 262.687 95.1981 263.23 96.7115C263.285 96.8657 263.346 97.0225 263.411 97.1729Z" fill="#2273B5"/>
<path d="M262.676 100.615C262.048 99.8762 261.533 99.0481 261.147 98.1581L263.411 97.1729C263.7 97.8402 264.087 98.4608 264.558 99.0146L262.676 100.615Z" fill="#4DAFFF"/>
<path d="M207.783 108.71H130.651V111.398H207.783V108.71Z" fill="#E8E8E8"/>
<path d="M207.783 117.467H130.651V120.155H207.783V117.467Z" fill="#E8E8E8"/>
<path d="M207.783 125.916H130.651V128.604H207.783V125.916Z" fill="#E8E8E8"/>
<path d="M207.783 134.674H130.651V137.362H207.783V134.674Z" fill="#E8E8E8"/>
<path d="M207.783 144.512H130.651V147.2H207.783V144.512Z" fill="#E8E8E8"/>
<path d="M207.783 153.271H130.651V155.958H207.783V153.271Z" fill="#E8E8E8"/>
<path d="M207.783 161.719H130.651V164.407H207.783V161.719Z" fill="#E8E8E8"/>
<path d="M207.783 170.476H130.651V173.164H207.783V170.476Z" fill="#E8E8E8"/>
<path d="M121.735 106.404H115.137C113.937 106.404 112.964 107.378 112.964 108.578V115.179C112.964 116.38 113.937 117.353 115.137 117.353H121.735C122.935 117.353 123.908 116.38 123.908 115.179V108.578C123.908 107.378 122.935 106.404 121.735 106.404Z" fill="#40A2E3"/>
<path d="M121.735 140.728H115.137C113.937 140.728 112.964 141.702 112.964 142.902V149.503C112.964 150.704 113.937 151.677 115.137 151.677H121.735C122.935 151.677 123.908 150.704 123.908 149.503V142.902C123.908 141.702 122.935 140.728 121.735 140.728Z" fill="#40A2E3"/>
<path d="M118.063 148.849L115.026 146.21C114.965 146.159 114.915 146.096 114.878 146.026C114.842 145.955 114.82 145.878 114.813 145.799C114.807 145.719 114.816 145.64 114.841 145.564C114.866 145.488 114.906 145.419 114.958 145.359C115.01 145.299 115.073 145.25 115.145 145.214C115.216 145.179 115.294 145.159 115.373 145.154C115.452 145.149 115.532 145.16 115.607 145.187C115.682 145.213 115.751 145.254 115.81 145.307L117.958 147.173L121.015 143.756C121.067 143.698 121.131 143.65 121.201 143.616C121.272 143.582 121.349 143.562 121.427 143.557C121.506 143.553 121.584 143.564 121.658 143.59C121.732 143.616 121.801 143.656 121.859 143.708C121.918 143.761 121.965 143.824 121.999 143.895C122.034 143.966 122.053 144.042 122.058 144.121C122.062 144.199 122.051 144.278 122.025 144.352C121.999 144.426 121.959 144.494 121.907 144.553L118.063 148.849Z" fill="white"/>
<path d="M121.735 123.499H115.137C113.937 123.499 112.964 124.473 112.964 125.674V132.274C112.964 133.475 113.937 134.449 115.137 134.449H121.735C122.935 134.449 123.908 133.475 123.908 132.274V125.674C123.908 124.473 122.935 123.499 121.735 123.499Z" fill="#40A2E3"/>
<path d="M118.063 131.62L115.026 128.983C114.965 128.933 114.915 128.87 114.878 128.799C114.842 128.729 114.82 128.652 114.813 128.572C114.807 128.493 114.816 128.413 114.841 128.338C114.866 128.262 114.906 128.192 114.958 128.132C115.01 128.072 115.073 128.023 115.145 127.988C115.216 127.953 115.294 127.932 115.373 127.928C115.452 127.923 115.532 127.934 115.607 127.96C115.682 127.987 115.751 128.028 115.81 128.081L117.958 129.948L121.015 126.531C121.067 126.473 121.131 126.425 121.201 126.391C121.272 126.357 121.349 126.337 121.427 126.332C121.506 126.328 121.584 126.339 121.658 126.365C121.732 126.391 121.801 126.431 121.859 126.483C121.918 126.536 121.965 126.599 121.999 126.67C122.034 126.741 122.053 126.817 122.058 126.896C122.062 126.974 122.051 127.053 122.025 127.127C121.999 127.201 121.959 127.269 121.907 127.328L118.063 131.62Z" fill="white"/>
<path d="M121.735 157.957H115.137C113.937 157.957 112.964 158.93 112.964 160.131V166.732C112.964 167.933 113.937 168.906 115.137 168.906H121.735C122.935 168.906 123.908 167.933 123.908 166.732V160.131C123.908 158.93 122.935 157.957 121.735 157.957Z" fill="#40A2E3"/>
<path d="M118.063 166.078L115.026 163.439C114.965 163.388 114.915 163.325 114.878 163.254C114.842 163.184 114.82 163.107 114.813 163.027C114.807 162.948 114.816 162.868 114.841 162.793C114.866 162.717 114.906 162.648 114.958 162.588C115.01 162.527 115.073 162.478 115.145 162.443C115.216 162.408 115.294 162.388 115.373 162.383C115.452 162.378 115.532 162.389 115.607 162.416C115.682 162.442 115.751 162.483 115.81 162.536L117.958 164.403L121.015 160.985C121.067 160.927 121.131 160.879 121.201 160.845C121.272 160.811 121.349 160.791 121.427 160.786C121.506 160.782 121.584 160.793 121.658 160.819C121.732 160.845 121.801 160.885 121.859 160.937C121.918 160.99 121.965 161.053 121.999 161.124C122.034 161.194 122.053 161.271 122.058 161.35C122.062 161.428 122.051 161.507 122.025 161.581C121.999 161.655 121.959 161.723 121.907 161.782L118.063 166.078Z" fill="white"/>
<path d="M117.159 112.716C117.158 112.579 117.167 112.443 117.187 112.308C117.205 112.178 117.24 112.052 117.293 111.932C117.349 111.807 117.426 111.693 117.519 111.594C117.633 111.479 117.765 111.382 117.909 111.307L118.228 111.135C118.363 111.063 118.493 110.981 118.617 110.89C118.741 110.799 118.852 110.692 118.946 110.571C119.036 110.456 119.085 110.314 119.085 110.168C119.089 110.076 119.071 109.985 119.032 109.902C118.994 109.819 118.935 109.747 118.862 109.691C118.717 109.577 118.537 109.516 118.352 109.519C118.239 109.517 118.126 109.541 118.024 109.589C117.932 109.634 117.847 109.69 117.769 109.755C117.693 109.818 117.626 109.891 117.57 109.973L117.421 110.186L116.468 109.519C116.621 109.151 116.89 108.842 117.233 108.64C117.589 108.427 117.998 108.318 118.412 108.325C118.651 108.325 118.888 108.359 119.117 108.427C119.346 108.492 119.56 108.602 119.746 108.751C119.937 108.906 120.092 109.102 120.2 109.324C120.324 109.591 120.384 109.883 120.376 110.177C120.386 110.486 120.311 110.792 120.158 111.061C119.995 111.317 119.774 111.531 119.514 111.687C119.387 111.771 119.256 111.849 119.121 111.919C118.995 111.983 118.873 112.054 118.755 112.132C118.651 112.2 118.56 112.287 118.486 112.387C118.417 112.484 118.381 112.601 118.384 112.721L117.159 112.716ZM117.187 114.984V113.595H118.4V114.984H117.187Z" fill="white"/>
<path d="M220.361 132.539H213.206C212.965 132.539 212.769 132.735 212.769 132.976V134.522C212.769 134.764 212.965 134.96 213.206 134.96H220.361C220.602 134.96 220.798 134.764 220.798 134.522V132.976C220.798 132.735 220.602 132.539 220.361 132.539Z" fill="#E0E0E0"/>
<path d="M220.361 138.343H213.206C212.965 138.343 212.769 138.539 212.769 138.781V140.327C212.769 140.568 212.965 140.764 213.206 140.764H220.361C220.602 140.764 220.798 140.568 220.798 140.327V138.781C220.798 138.539 220.602 138.343 220.361 138.343Z" fill="#E0E0E0"/>
<path d="M220.361 144.148H213.206C212.965 144.148 212.769 144.343 212.769 144.585V146.131C212.769 146.372 212.965 146.568 213.206 146.568H220.361C220.602 146.568 220.798 146.372 220.798 146.131V144.585C220.798 144.343 220.602 144.148 220.361 144.148Z" fill="#E0E0E0"/>
<path d="M220.361 149.952H213.206C212.965 149.952 212.769 150.147 212.769 150.389V151.935C212.769 152.176 212.965 152.372 213.206 152.372H220.361C220.602 152.372 220.798 152.176 220.798 151.935V150.389C220.798 150.147 220.602 149.952 220.361 149.952Z" fill="#E0E0E0"/>
<path d="M220.361 155.755H213.206C212.965 155.755 212.769 155.95 212.769 156.192V157.738C212.769 157.979 212.965 158.175 213.206 158.175H220.361C220.602 158.175 220.798 157.979 220.798 157.738V156.192C220.798 155.95 220.602 155.755 220.361 155.755Z" fill="#E0E0E0"/>
<path d="M220.361 161.559H213.206C212.965 161.559 212.769 161.754 212.769 161.996V163.542C212.769 163.783 212.965 163.979 213.206 163.979H220.361C220.602 163.979 220.798 163.783 220.798 163.542V161.996C220.798 161.754 220.602 161.559 220.361 161.559Z" fill="#E0E0E0"/>
<path d="M225.959 132.539H224.548C224.307 132.539 224.111 132.735 224.111 132.976V134.522C224.111 134.764 224.307 134.96 224.548 134.96H225.959C226.2 134.96 226.396 134.764 226.396 134.522V132.976C226.396 132.735 226.2 132.539 225.959 132.539Z" fill="#E0E0E0"/>
<path d="M225.959 138.343H224.548C224.307 138.343 224.111 138.539 224.111 138.781V140.327C224.111 140.568 224.307 140.764 224.548 140.764H225.959C226.2 140.764 226.396 140.568 226.396 140.327V138.781C226.396 138.539 226.2 138.343 225.959 138.343Z" fill="#E0E0E0"/>
<path d="M225.959 144.148H224.548C224.307 144.148 224.111 144.343 224.111 144.585V146.131C224.111 146.372 224.307 146.568 224.548 146.568H225.959C226.2 146.568 226.396 146.372 226.396 146.131V144.585C226.396 144.343 226.2 144.148 225.959 144.148Z" fill="#E0E0E0"/>
<path d="M225.959 149.952H224.548C224.307 149.952 224.111 150.147 224.111 150.389V151.935C224.111 152.176 224.307 152.372 224.548 152.372H225.959C226.2 152.372 226.396 152.176 226.396 151.935V150.389C226.396 150.147 226.2 149.952 225.959 149.952Z" fill="#E0E0E0"/>
<path d="M225.959 155.755H224.548C224.307 155.755 224.111 155.95 224.111 156.192V157.738C224.111 157.979 224.307 158.175 224.548 158.175H225.959C226.2 158.175 226.396 157.979 226.396 157.738V156.192C226.396 155.95 226.2 155.755 225.959 155.755Z" fill="#E0E0E0"/>
<path d="M225.959 161.559H224.548C224.307 161.559 224.111 161.754 224.111 161.996V163.542C224.111 163.783 224.307 163.979 224.548 163.979H225.959C226.2 163.979 226.396 163.783 226.396 163.542V161.996C226.396 161.754 226.2 161.559 225.959 161.559Z" fill="#E0E0E0"/>
<path d="M304.922 61.1896L290.499 46.7609L283.652 53.6101L283.273 53.2303L290.499 46L305.301 60.8098L304.922 61.1896Z" fill="#40D5E6"/>
<path d="M200.607 193.704C200.607 193.704 201.07 195.522 201.132 195.795C201.195 196.067 204.042 195.315 204.042 195.315V193.093C204.042 193.093 200.941 193.405 200.607 193.704Z" fill="#40A2E3"/>
<path d="M201.076 195.564C201.076 195.564 200.279 196.775 199.444 197.356C198.61 197.937 195.387 198.686 194.917 199.245C194.576 199.649 194.105 201.174 199.275 200.477C202.948 199.983 204.759 200.108 205.091 199.468C205.422 198.828 204.042 195.117 204.042 195.117C204.042 195.117 203.257 195.545 201.076 195.564Z" fill="#2D314F"/>
<path d="M190.991 140.093L189.69 140.22L201.734 263.985L203.035 263.858L190.991 140.093Z" fill="#B3DCFF"/>
<path d="M213.412 137.93L212.105 138.061L224.535 262.411L225.842 262.28L213.412 137.93Z" fill="#B3DCFF"/>
<path d="M211.556 139.88L190.519 141.925L190.645 143.227L211.683 141.182L211.556 139.88Z" fill="#B3DCFF"/>
<path d="M212.506 149.667L191.468 151.712L191.594 153.014L212.632 150.968L212.506 149.667Z" fill="#B3DCFF"/>
<path d="M213.447 159.47L192.409 161.511L192.535 162.813L213.573 160.772L213.447 159.47Z" fill="#B3DCFF"/>
<path d="M214.394 169.261L193.356 171.302L193.483 172.604L214.521 170.563L214.394 169.261Z" fill="#B3DCFF"/>
<path d="M215.344 179.045L194.306 181.086L194.433 182.387L215.471 180.346L215.344 179.045Z" fill="#B3DCFF"/>
<path d="M216.303 188.815L195.265 190.86L195.392 192.161L216.429 190.116L216.303 188.815Z" fill="#B3DCFF"/>
<path d="M217.256 198.599L196.218 200.644L196.345 201.945L217.382 199.9L217.256 198.599Z" fill="#B3DCFF"/>
<path d="M218.191 208.406L197.153 210.448L197.279 211.749L218.317 209.708L218.191 208.406Z" fill="#B3DCFF"/>
<path d="M219.141 218.191L198.103 220.232L198.23 221.534L219.268 219.492L219.141 218.191Z" fill="#B3DCFF"/>
<path d="M220.092 227.978L199.054 230.019L199.18 231.321L220.218 229.28L220.092 227.978Z" fill="#B3DCFF"/>
<path d="M221.042 237.764L200.004 239.805L200.13 241.107L221.168 239.065L221.042 237.764Z" fill="#B3DCFF"/>
<path d="M221.988 247.552L200.95 249.594L201.076 250.895L222.114 248.854L221.988 247.552Z" fill="#B3DCFF"/>
<path d="M222.939 257.336L201.901 259.377L202.028 260.679L223.066 258.637L222.939 257.336Z" fill="#B3DCFF"/>
<path d="M172.77 122.945C172.77 122.945 173.038 123.277 173.227 123.365C173.227 123.365 173.584 123.5 173.83 123.611C173.894 123.638 173.956 123.669 174.017 123.704C174.19 123.811 174.537 124.097 175.025 124.237C175.512 124.377 177.71 124.874 177.71 124.874L178.22 123.569L178.587 122.514C178.587 122.514 176.548 119.876 176.113 119.692C176.071 119.675 176.028 119.66 175.985 119.648C175.603 119.528 175.262 119.602 175.053 119.562C174.975 119.548 174.199 119.462 174.033 119.623C173.934 119.707 173.858 119.815 173.813 119.936C173.767 120.057 173.752 120.188 173.771 120.317C173.771 120.317 173.333 120.777 173.302 121.209C173.302 121.209 172.884 121.621 172.996 122.162C172.995 122.16 172.618 122.624 172.77 122.945Z" fill="#EEA886"/>
<path d="M196.347 140.072C195.838 139.744 195.182 139.301 192.908 138.16C188.671 136.039 183.441 132.195 182.446 131.641C180.917 130.787 176.087 124.886 176.087 124.886C176.342 123.994 178.626 122.209 178.626 122.209C178.626 122.209 185.949 129.149 187.544 130.003C188.921 130.737 195.718 131.479 197.591 131.671L198.07 131.72C200.029 134.384 197.439 140.769 196.347 140.072Z" fill="#0D9276"/>
<path d="M197.094 155.449C197.094 155.449 195.022 163.147 194.476 165.9C193.999 168.297 193.041 174.684 192.906 176.202C192.771 177.719 199.021 192.416 199.674 195.064L205.371 194.149C205.371 194.149 199.36 178.855 200.927 175.456C203.26 170.401 203.563 170.553 205.4 166.389C207.237 162.225 211.443 162.126 212.573 154.4C212.573 154.404 198.623 152.998 197.094 155.449Z" fill="#2D314F"/>
<path d="M207.222 118.046C207.222 118.046 203.44 116.632 201.695 119.513C199.951 122.393 200.118 128.161 202.025 128.87C203.933 129.579 206.796 129.209 207.774 127.406C208.751 125.602 209.631 122.997 209.589 121.256C209.547 119.515 208.218 118.548 207.222 118.046Z" fill="#EEA886"/>
<path d="M202.664 128.693C202.664 128.693 202.817 129.686 202.563 130.174C202.309 130.662 207.321 130.676 207.321 130.676C207.321 130.676 207.729 128.017 208.5 125.772C209.271 123.526 202.664 128.693 202.664 128.693Z" fill="#EEA886"/>
<path d="M208.496 125.772C208.496 125.772 208.151 126.343 206.738 126.121C205.325 125.899 203.604 124.02 203.015 123.814C202.427 123.608 202.42 123.262 202.42 123.262L202.051 123.801L201.425 123.841C201.425 123.841 201.996 122.16 201.135 121.474C200.274 120.788 202.027 116.034 206.556 117.617C206.556 117.617 210.034 118.576 209.906 120.549C209.779 122.522 209.278 124.786 208.496 125.772Z" fill="#323657"/>
<path d="M202.517 122.542C202.596 122.211 203.44 121.268 203.763 122.277C204.087 123.286 203.275 124.658 202.823 124.542C202.371 124.426 202.317 123.383 202.517 122.542Z" fill="#EEA886"/>
<path d="M216.946 143.164C216.904 143.659 216.337 144.197 215.951 144.462C215.697 144.637 215.398 144.736 215.089 144.747L214.865 144.754L210.933 144.882C210.933 144.882 208.011 135.432 213.493 131.829C213.662 131.851 217.326 138.609 216.946 143.164Z" fill="#0D9276"/>
<path d="M205.091 199.464C204.759 200.101 202.948 199.974 199.275 200.473C198.473 200.591 197.664 200.651 196.854 200.652L196.648 198.444C197.722 198.071 198.972 197.68 199.451 197.355C200.285 196.773 201.083 195.563 201.083 195.563C203.264 195.543 204.049 195.115 204.049 195.115C204.049 195.115 205.421 198.827 205.091 199.464Z" fill="#2D314F"/>
<path d="M202.66 129.886C202.66 129.886 205.746 129.168 207.483 129.758L207.746 130C207.746 130 208.274 131.02 206.286 131.102C204.297 131.183 201.169 131.331 202.66 129.886Z" fill="#40A2E3"/>
<path d="M214.716 202.201C214.716 202.201 215.178 204.019 215.24 204.292C215.303 204.564 218.152 203.812 218.152 203.812V201.591C218.152 201.591 215.049 201.902 214.716 202.201Z" fill="#40A2E3"/>
<path d="M212.573 154.404C212.573 154.404 213.611 158.688 213.918 162.978C214.202 166.943 214.719 171.291 215.131 175.437C215.59 180.059 216.897 187.532 216.964 190.004C217.032 192.477 219.113 203.287 219.113 203.287L213.792 203.899C213.792 203.899 210.334 184.804 209.518 182.852C208.701 180.899 204.652 166.984 204.516 165.422C204.38 163.859 212.573 154.404 212.573 154.404Z" fill="#2D314F"/>
<path d="M215.184 204.061C215.184 204.061 214.387 205.272 213.552 205.853C212.718 206.434 209.495 207.184 209.025 207.743C208.686 208.146 208.213 209.671 213.383 208.974C217.056 208.48 218.869 208.605 219.199 207.965C219.529 207.325 218.152 203.614 218.152 203.614C218.152 203.614 217.366 204.042 215.184 204.061Z" fill="#2D314F"/>
<path d="M196.017 165.064C195.564 164.999 197.142 151.484 197.022 150.636C196.941 150.07 196.954 145.678 196.987 142.939L196.494 140.169C196.144 139.922 195.782 139.693 195.408 139.483C194.723 139.086 193.862 138.634 192.906 138.156C193.017 137.501 193.095 136.986 193.124 136.685C193.362 134.251 194.997 132.961 195.927 132.418C196.131 132.296 196.344 132.189 196.564 132.1C196.915 131.949 197.262 131.805 197.597 131.666C199.829 130.749 202.662 129.882 202.662 129.882H207.216C207.216 129.882 210.682 130.575 212.749 131.42C213.012 131.529 213.262 131.667 213.495 131.831L212.876 144.818C212.877 144.82 212.877 144.823 212.876 144.826C212.876 144.831 212.876 144.837 212.876 144.842C212.598 146.67 212.304 148.825 212.207 150.337C212.166 150.953 212.872 154.266 213.24 157.308L214.527 164.584C214.527 164.584 213.777 167.601 196.017 165.064Z" fill="#0D9276"/>
<g opacity="0.72">
<path d="M270.957 93.0537H216.865C214.374 93.0537 212.355 95.0737 212.355 97.5654V127.4C212.355 129.892 214.374 131.912 216.865 131.912H270.957C273.448 131.912 275.467 129.892 275.467 127.4V97.5654C275.467 95.0737 273.448 93.0537 270.957 93.0537Z" fill="url(#paint2_linear_491_8914)"/>
</g>
<path d="M234.11 103.603C233.3 101.338 231.625 99.4877 229.451 98.4589C227.278 97.43 224.786 97.3069 222.522 98.1167C220.258 98.9264 218.409 100.603 217.38 102.777C216.352 104.951 216.229 107.444 217.038 109.709C217.107 109.901 217.181 110.09 217.261 110.275C218.2 112.43 219.94 114.136 222.112 115.033C224.285 115.929 226.72 115.947 228.905 115.081C231.09 114.216 232.854 112.535 233.824 110.393C234.794 108.252 234.895 105.817 234.104 103.603H234.11ZM227.861 113.052C226.238 113.635 224.455 113.578 222.873 112.893C221.291 112.208 220.029 110.946 219.343 109.364C219.282 109.226 219.227 109.084 219.175 108.94C218.722 107.675 218.655 106.303 218.982 104.999C219.309 103.695 220.015 102.518 221.01 101.615C222.006 100.713 223.247 100.126 224.576 99.9286C225.906 99.7316 227.263 99.9334 228.478 100.508C229.693 101.083 230.71 102.006 231.4 103.159C232.091 104.312 232.424 105.644 232.358 106.987C232.292 108.329 231.829 109.622 231.029 110.702C230.228 111.781 229.126 112.599 227.861 113.052Z" fill="url(#paint3_linear_491_8914)"/>
<path d="M219.09 104.63L216.925 103.955C217.489 102.155 218.598 100.575 220.1 99.4352C221.602 98.2949 223.421 97.6504 225.305 97.5909L225.372 99.8596C223.96 99.9039 222.596 100.387 221.47 101.242C220.345 102.097 219.513 103.281 219.09 104.63Z" fill="#1A598C"/>
<path d="M219.347 109.369L217.266 110.275C217.186 110.09 217.112 109.901 217.043 109.709C216.377 107.855 216.335 105.834 216.925 103.955L219.091 104.63C218.648 106.04 218.679 107.555 219.178 108.946C219.231 109.09 219.285 109.228 219.347 109.369Z" fill="#2273B5"/>
<path d="M218.671 112.532C218.096 111.853 217.623 111.092 217.27 110.275L219.35 109.369C219.616 109.982 219.97 110.552 220.403 111.061L218.671 112.532Z" fill="#3788CC"/>
<path d="M259.75 139.868H247.292V139.619H259.503V134.911H259.75V139.868Z" fill="#E2F3FE"/>
<path d="M236.289 139.868H220.085V139.619H236.042V131.912H236.289V139.868Z" fill="#E2F3FE"/>
<path d="M231.234 137.041H220.085V138.527H231.234V137.041Z" fill="url(#paint4_linear_491_8914)"/>
<path d="M253.849 137.041H247.292V138.527H253.849V137.041Z" fill="url(#paint5_linear_491_8914)"/>
<path d="M258.243 103.953H242.264V105.359H258.243V103.953Z" fill="url(#paint6_linear_491_8914)"/>
<path d="M258.244 107.575H244.623V108.981H258.244V107.575Z" fill="url(#paint7_linear_491_8914)"/>
<path d="M258.244 111.196H236.34V112.602H258.244V111.196Z" fill="url(#paint8_linear_491_8914)"/>
<path d="M223.325 120.134H217.989V121.275H223.325V120.134Z" fill="url(#paint9_linear_491_8914)"/>
<path d="M248.512 124.43H240.234V125.57H248.512V124.43Z" fill="url(#paint10_linear_491_8914)"/>
<path d="M234.583 124.43H229.53V125.57H234.583V124.43Z" fill="url(#paint11_linear_491_8914)"/>
<path d="M228.002 124.43H217.989V125.57H228.002V124.43Z" fill="url(#paint12_linear_491_8914)"/>
<path d="M232.856 120.134H224.95V121.275H232.856V120.134Z" fill="url(#paint13_linear_491_8914)"/>
<path d="M238.335 124.43H236.165V125.57H238.335V124.43Z" fill="url(#paint14_linear_491_8914)"/>
<path d="M248.512 120.198H242.606V121.339H248.512V120.198Z" fill="url(#paint15_linear_491_8914)"/>
<path d="M255.655 124.43H250.619V125.57H255.655V124.43Z" fill="url(#paint16_linear_491_8914)"/>
<path d="M241.06 120.198H234.8V121.339H241.06V120.198Z" fill="url(#paint17_linear_491_8914)"/>
<path d="M225.576 106.756C226.734 106.756 227.672 105.817 227.672 104.659C227.672 103.501 226.734 102.563 225.576 102.563C224.419 102.563 223.481 103.501 223.481 104.659C223.481 105.817 224.419 106.756 225.576 106.756Z" fill="white"/>
<path d="M225.576 106.455C224.563 106.455 223.591 106.858 222.874 107.575C222.157 108.292 221.754 109.265 221.754 110.279H229.389C229.389 109.266 228.988 108.295 228.273 107.578C227.558 106.861 226.588 106.458 225.576 106.455Z" fill="white"/>
</g>
<rect x="26" width="82" height="35" rx="8" fill="#BBE2EC"/>
<path d="M43.072 13.614C42.892 13.41 42.682 13.23 42.442 13.074C42.202 12.906 41.932 12.762 41.632 12.642C41.332 12.522 41.008 12.426 40.66 12.354C40.324 12.282 39.964 12.246 39.58 12.246C38.464 12.246 37.642 12.462 37.114 12.894C36.598 13.314 36.34 13.89 36.34 14.622C36.34 15.126 36.46 15.522 36.7 15.81C36.952 16.098 37.342 16.332 37.87 16.512C38.398 16.692 39.07 16.878 39.886 17.07C40.798 17.262 41.584 17.49 42.244 17.754C42.904 18.018 43.414 18.378 43.774 18.834C44.134 19.278 44.314 19.884 44.314 20.652C44.314 21.24 44.2 21.75 43.972 22.182C43.744 22.614 43.426 22.974 43.018 23.262C42.61 23.55 42.124 23.766 41.56 23.91C40.996 24.042 40.378 24.108 39.706 24.108C39.046 24.108 38.41 24.042 37.798 23.91C37.198 23.766 36.628 23.562 36.088 23.298C35.548 23.022 35.044 22.674 34.576 22.254L35.206 21.228C35.434 21.468 35.704 21.696 36.016 21.912C36.34 22.116 36.694 22.302 37.078 22.47C37.474 22.638 37.894 22.77 38.338 22.866C38.794 22.95 39.262 22.992 39.742 22.992C40.762 22.992 41.554 22.806 42.118 22.434C42.694 22.062 42.982 21.51 42.982 20.778C42.982 20.25 42.838 19.83 42.55 19.518C42.262 19.194 41.83 18.93 41.254 18.726C40.678 18.522 39.97 18.324 39.13 18.132C38.242 17.928 37.492 17.7 36.88 17.448C36.268 17.196 35.806 16.866 35.494 16.458C35.194 16.038 35.044 15.486 35.044 14.802C35.044 14.01 35.236 13.344 35.62 12.804C36.016 12.252 36.556 11.838 37.24 11.562C37.924 11.274 38.71 11.13 39.598 11.13C40.162 11.13 40.684 11.19 41.164 11.31C41.656 11.418 42.106 11.58 42.514 11.796C42.934 12.012 43.324 12.282 43.684 12.606L43.072 13.614ZM50.6254 23.55C50.5294 23.586 50.3794 23.652 50.1754 23.748C49.9714 23.844 49.7254 23.928 49.4374 24C49.1494 24.072 48.8374 24.108 48.5014 24.108C48.1534 24.108 47.8234 24.042 47.5114 23.91C47.2114 23.778 46.9714 23.58 46.7914 23.316C46.6114 23.04 46.5214 22.704 46.5214 22.308V15.594H45.2254V14.622H46.5214V11.454H47.7454V14.622H49.9054V15.594H47.7454V21.966C47.7694 22.302 47.8894 22.554 48.1054 22.722C48.3334 22.89 48.5914 22.974 48.8794 22.974C49.2154 22.974 49.5214 22.92 49.7974 22.812C50.0734 22.692 50.2414 22.608 50.3014 22.56L50.6254 23.55ZM56.0465 24.18C55.3745 24.18 54.7505 24.054 54.1745 23.802C53.5985 23.538 53.1005 23.184 52.6805 22.74C52.2605 22.284 51.9305 21.762 51.6905 21.174C51.4625 20.586 51.3485 19.956 51.3485 19.284C51.3485 18.408 51.5465 17.604 51.9425 16.872C52.3505 16.14 52.9085 15.558 53.6165 15.126C54.3245 14.682 55.1285 14.46 56.0285 14.46C56.9525 14.46 57.7565 14.682 58.4405 15.126C59.1365 15.57 59.6825 16.158 60.0785 16.89C60.4745 17.61 60.6725 18.402 60.6725 19.266C60.6725 19.362 60.6725 19.458 60.6725 19.554C60.6725 19.638 60.6665 19.704 60.6545 19.752H52.6265C52.6865 20.424 52.8725 21.024 53.1845 21.552C53.5085 22.068 53.9225 22.482 54.4265 22.794C54.9425 23.094 55.5005 23.244 56.1005 23.244C56.7125 23.244 57.2885 23.088 57.8285 22.776C58.3805 22.464 58.7645 22.056 58.9805 21.552L60.0425 21.84C59.8505 22.284 59.5565 22.686 59.1605 23.046C58.7645 23.406 58.2965 23.688 57.7565 23.892C57.2285 24.084 56.6585 24.18 56.0465 24.18ZM52.5905 18.87H59.5205C59.4725 18.186 59.2865 17.586 58.9625 17.07C58.6505 16.554 58.2365 16.152 57.7205 15.864C57.2165 15.564 56.6585 15.414 56.0465 15.414C55.4345 15.414 54.8765 15.564 54.3725 15.864C53.8685 16.152 53.4545 16.56 53.1305 17.088C52.8185 17.604 52.6385 18.198 52.5905 18.87ZM67.3489 24.18C66.5689 24.18 65.8669 23.976 65.2429 23.568C64.6309 23.16 64.1449 22.656 63.7849 22.056V27.834H62.5609V14.622H63.6589V16.44C64.0309 15.852 64.5289 15.378 65.1529 15.018C65.7769 14.646 66.4429 14.46 67.1509 14.46C67.7989 14.46 68.3929 14.598 68.9329 14.874C69.4729 15.138 69.9409 15.498 70.3369 15.954C70.7329 16.41 71.0389 16.932 71.2549 17.52C71.4829 18.096 71.5969 18.696 71.5969 19.32C71.5969 20.196 71.4169 21.006 71.0569 21.75C70.7089 22.482 70.2169 23.07 69.5809 23.514C68.9449 23.958 68.2009 24.18 67.3489 24.18ZM67.0069 23.1C67.5229 23.1 67.9849 22.998 68.3929 22.794C68.8009 22.578 69.1489 22.29 69.4369 21.93C69.7369 21.57 69.9649 21.168 70.1209 20.724C70.2769 20.268 70.3549 19.8 70.3549 19.32C70.3549 18.816 70.2649 18.336 70.0849 17.88C69.9169 17.424 69.6709 17.022 69.3469 16.674C69.0229 16.326 68.6509 16.05 68.2309 15.846C67.8109 15.642 67.3549 15.54 66.8629 15.54C66.5509 15.54 66.2269 15.6 65.8909 15.72C65.5549 15.84 65.2309 16.014 64.9189 16.242C64.6189 16.458 64.3669 16.704 64.1629 16.98C63.9589 17.256 63.8329 17.55 63.7849 17.862V20.742C63.9769 21.186 64.2349 21.588 64.5589 21.948C64.8829 22.296 65.2549 22.578 65.6749 22.794C66.1069 22.998 66.5509 23.1 67.0069 23.1Z" fill="#001835"/>
<path d="M87.046 22.218V24H80.17V22.218H82.726V15.936C82.618 16.08 82.45 16.23 82.222 16.386C81.994 16.542 81.736 16.692 81.448 16.836C81.172 16.968 80.89 17.076 80.602 17.16C80.314 17.244 80.05 17.286 79.81 17.286V15.432C80.05 15.432 80.326 15.36 80.638 15.216C80.95 15.072 81.256 14.904 81.556 14.712C81.868 14.508 82.132 14.316 82.348 14.136C82.564 13.944 82.69 13.806 82.726 13.722H84.76V22.218H87.046Z" fill="#001835"/>
<defs>
<linearGradient id="paint0_linear_491_8914" x1="178.739" y1="219.864" x2="178.739" y2="178.617" gradientUnits="userSpaceOnUse">
<stop stop-color="#40D5E6"/>
<stop offset="1" stop-color="#5577FF"/>
</linearGradient>
<linearGradient id="paint1_linear_491_8914" x1="178.74" y1="229.308" x2="178.74" y2="94.8545" gradientUnits="userSpaceOnUse">
<stop stop-color="#40D5E6"/>
<stop offset="1" stop-color="#5577FF"/>
</linearGradient>
<linearGradient id="paint2_linear_491_8914" x1="243.912" y1="130.908" x2="243.912" y2="99.3663" gradientUnits="userSpaceOnUse">
<stop stop-color="#40CDE6"/>
<stop offset="0.2" stop-color="#40CDE6"/>
<stop offset="1" stop-color="#5577FF"/>
</linearGradient>
<linearGradient id="paint3_linear_491_8914" x1="216.511" y1="106.657" x2="234.642" y2="106.657" gradientUnits="userSpaceOnUse">
<stop stop-color="#D5E4FF"/>
<stop offset="1" stop-color="#EDFFFE"/>
</linearGradient>
<linearGradient id="paint4_linear_491_8914" x1="220.085" y1="137.784" x2="231.235" y2="137.784" gradientUnits="userSpaceOnUse">
<stop stop-color="#D5E4FF"/>
<stop offset="1" stop-color="#EDFFFE"/>
</linearGradient>
<linearGradient id="paint5_linear_491_8914" x1="247.292" y1="137.784" x2="253.85" y2="137.784" gradientUnits="userSpaceOnUse">
<stop stop-color="#D5E4FF"/>
<stop offset="1" stop-color="#EDFFFE"/>
</linearGradient>
<linearGradient id="paint6_linear_491_8914" x1="242.264" y1="104.657" x2="258.244" y2="104.657" gradientUnits="userSpaceOnUse">
<stop stop-color="#D5E4FF"/>
<stop offset="1" stop-color="#EDFFFE"/>
</linearGradient>
<linearGradient id="paint7_linear_491_8914" x1="244.623" y1="108.278" x2="258.244" y2="108.278" gradientUnits="userSpaceOnUse">
<stop stop-color="#D5E4FF"/>
<stop offset="1" stop-color="#EDFFFE"/>
</linearGradient>
<linearGradient id="paint8_linear_491_8914" x1="236.34" y1="111.899" x2="258.244" y2="111.899" gradientUnits="userSpaceOnUse">
<stop stop-color="#D5E4FF"/>
<stop offset="1" stop-color="#EDFFFE"/>
</linearGradient>
<linearGradient id="paint9_linear_491_8914" x1="217.989" y1="120.705" x2="223.325" y2="120.705" gradientUnits="userSpaceOnUse">
<stop stop-color="#D5E4FF"/>
<stop offset="1" stop-color="#EDFFFE"/>
</linearGradient>
<linearGradient id="paint10_linear_491_8914" x1="240.234" y1="125.001" x2="248.512" y2="125.001" gradientUnits="userSpaceOnUse">
<stop stop-color="#D5E4FF"/>
<stop offset="1" stop-color="#EDFFFE"/>
</linearGradient>
<linearGradient id="paint11_linear_491_8914" x1="229.53" y1="125.001" x2="234.582" y2="125.001" gradientUnits="userSpaceOnUse">
<stop stop-color="#D5E4FF"/>
<stop offset="1" stop-color="#EDFFFE"/>
</linearGradient>
<linearGradient id="paint12_linear_491_8914" x1="217.989" y1="125.001" x2="228.002" y2="125.001" gradientUnits="userSpaceOnUse">
<stop stop-color="#D5E4FF"/>
<stop offset="1" stop-color="#EDFFFE"/>
</linearGradient>
<linearGradient id="paint13_linear_491_8914" x1="224.95" y1="120.705" x2="232.856" y2="120.705" gradientUnits="userSpaceOnUse">
<stop stop-color="#D5E4FF"/>
<stop offset="1" stop-color="#EDFFFE"/>
</linearGradient>
<linearGradient id="paint14_linear_491_8914" x1="236.165" y1="125.001" x2="238.337" y2="125.001" gradientUnits="userSpaceOnUse">
<stop stop-color="#D5E4FF"/>
<stop offset="1" stop-color="#EDFFFE"/>
</linearGradient>
<linearGradient id="paint15_linear_491_8914" x1="242.606" y1="120.769" x2="248.512" y2="120.769" gradientUnits="userSpaceOnUse">
<stop stop-color="#D5E4FF"/>
<stop offset="1" stop-color="#EDFFFE"/>
</linearGradient>
<linearGradient id="paint16_linear_491_8914" x1="250.619" y1="125.001" x2="255.655" y2="125.001" gradientUnits="userSpaceOnUse">
<stop stop-color="#D5E4FF"/>
<stop offset="1" stop-color="#EDFFFE"/>
</linearGradient>
<linearGradient id="paint17_linear_491_8914" x1="234.8" y1="120.769" x2="241.06" y2="120.769" gradientUnits="userSpaceOnUse">
<stop stop-color="#D5E4FF"/>
<stop offset="1" stop-color="#EDFFFE"/>
</linearGradient>
<clipPath id="clip0_491_8914">
<rect width="268" height="218" fill="white" transform="translate(45 46)"/>
</clipPath>
</defs>
</svg>
