<svg width="764" height="396" viewBox="0 0 764 396" fill="none" xmlns="http://www.w3.org/2000/svg">
<mask id="mask0_491_9140" style="mask-type:alpha" maskUnits="userSpaceOnUse" x="0" y="0" width="764" height="396">
<rect width="764" height="396" rx="19.3495" fill="#C4C4C4"/>
</mask>
<g mask="url(#mask0_491_9140)">
<rect width="824.512" height="395.529" fill="#F5F4F8"/>
<path d="M722.402 39L738.402 23" stroke="#170F49" stroke-width="2" stroke-linecap="round" stroke-linejoin="round"/>
<path d="M738.402 39L722.402 23" stroke="#170F49" stroke-width="2" stroke-linecap="round" stroke-linejoin="round"/>
<mask id="mask1_491_9140" style="mask-type:alpha" maskUnits="userSpaceOnUse" x="0" y="-1" width="308" height="397">
<path d="M0 19.2821C0 8.38422 8.83444 -0.450195 19.7323 -0.450195H308V395.979H19.7323C8.83444 395.979 0 387.145 0 376.247V19.2821Z" fill="#B5AEFF"/>
</mask>
<g mask="url(#mask1_491_9140)">
<rect y="-0.450195" width="328.318" height="396.429" fill="#BBE2EC"/>
<g opacity="0.7">
<line x1="130.264" y1="301.599" x2="167.516" y2="301.599" stroke="white" stroke-width="4.11089" stroke-linecap="round"/>
<line x1="118.143" y1="313.824" x2="155.395" y2="313.824" stroke="white" stroke-width="4.11089" stroke-linecap="round"/>
<line x1="136.525" y1="324.934" x2="173.777" y2="324.934" stroke="white" stroke-width="4.11089" stroke-linecap="round"/>
</g>
<g opacity="0.7">
<line x1="22.7519" y1="51.7641" x2="60.0032" y2="51.7641" stroke="white" stroke-width="4.11089" stroke-linecap="round"/>
<line x1="10.6306" y1="63.9885" x2="47.882" y2="63.9885" stroke="white" stroke-width="4.11089" stroke-linecap="round"/>
<line x1="29.0127" y1="75.0989" x2="66.2641" y2="75.0989" stroke="white" stroke-width="4.11089" stroke-linecap="round"/>
</g>
<mask id="mask2_491_9140" style="mask-type:alpha" maskUnits="userSpaceOnUse" x="74" y="39" width="77" height="53">
<rect x="74.582" y="39.7939" width="75.8341" height="52.0803" rx="9.35182" fill="#C4C4C4"/>
</mask>
<g mask="url(#mask2_491_9140)">
<rect x="74.582" y="39.7939" width="75.8341" height="52.0803" rx="9.35182" fill="white"/>
<path opacity="0.53" d="M105.938 66.0705L75.0283 39.7939H149.971L119.061 66.0705C115.278 69.2869 109.721 69.2869 105.938 66.0705Z" fill="#40A2E3"/>
</g>
<mask id="mask3_491_9140" style="mask-type:alpha" maskUnits="userSpaceOnUse" x="184" y="280" width="101" height="67">
<rect x="184.686" y="280.364" width="99.3492" height="66.3608" rx="11.9161" fill="#C4C4C4"/>
</mask>
<g mask="url(#mask3_491_9140)">
<rect x="184.686" y="280.364" width="99.3492" height="66.3608" rx="11.9161" fill="white"/>
<path opacity="0.53" d="M226.137 314.152L185.272 280.364H283.454L242.589 314.152C237.815 318.1 230.911 318.1 226.137 314.152Z" fill="#40A2E3"/>
</g>
<mask id="mask4_491_9140" style="mask-type:alpha" maskUnits="userSpaceOnUse" x="79" y="142" width="161" height="111">
<rect x="79.3359" y="142.82" width="160.207" height="109.889" rx="19.7323" fill="#C4C4C4"/>
</mask>
<g mask="url(#mask4_491_9140)">
<rect x="79.3359" y="142.82" width="160.207" height="109.889" rx="19.7323" fill="white"/>
<path opacity="0.53" d="M145.604 198.286L80.2783 142.82H238.601L173.276 198.286C165.296 205.062 153.584 205.062 145.604 198.286Z" fill="#40A2E3"/>
</g>
<line opacity="0.7" x1="-6.05231" y1="173.697" x2="59.2805" y2="173.697" stroke="white" stroke-width="7.20983" stroke-linecap="round"/>
<line opacity="0.7" x1="-32.3326" y1="195.136" x2="33.0002" y2="195.136" stroke="white" stroke-width="7.20983" stroke-linecap="round"/>
<line opacity="0.7" x1="-0.0913718" y1="216.334" x2="65.2414" y2="216.334" stroke="white" stroke-width="7.20983" stroke-linecap="round"/>
<path d="M47.8007 326.068C47.829 325.688 47.914 325.323 47.914 324.935C47.914 317.112 41.5702 310.768 33.7473 310.768C32.104 310.768 30.5485 311.102 29.0808 311.618C26.2787 306.076 20.5468 302.268 13.914 302.268C5.37436 302.268 -1.67213 308.569 -2.88196 316.772C-7.07529 317.772 -10.362 321.084 -11.2998 325.303C-12.3056 325.076 -13.3455 324.935 -14.4193 324.935C-22.2421 324.935 -28.5859 331.279 -28.5859 339.101C-28.5859 346.924 -22.2421 353.268 -14.4193 353.268C-6.59646 353.268 34.4245 353.268 42.2473 353.268C50.0702 353.268 56.414 346.924 56.414 339.101C56.414 333.248 52.8638 328.23 47.8007 326.068Z" fill="#79BACB"/>
<path d="M349.508 90.3335C349.542 89.8879 349.641 89.4589 349.641 89.0033C349.641 79.8215 342.196 72.3756 333.014 72.3756C331.085 72.3756 329.259 72.768 327.536 73.3732C324.248 66.8685 317.52 62.3989 309.735 62.3989C299.712 62.3989 291.441 69.795 290.021 79.4224C285.099 80.5963 281.242 84.4839 280.141 89.4357C278.96 89.1696 277.74 89.0033 276.479 89.0033C267.297 89.0033 259.852 96.4492 259.852 105.631C259.852 114.813 267.297 122.259 276.479 122.259C285.661 122.259 333.808 122.259 342.99 122.259C352.172 122.259 359.618 114.813 359.618 105.631C359.618 98.7605 355.451 92.8709 349.508 90.3335Z" fill="#79BACB"/>
<path d="M85.6875 279.082C85.7074 278.815 85.7672 278.558 85.7672 278.285C85.7672 272.787 81.3086 268.329 75.8107 268.329C74.6557 268.329 73.5625 268.564 72.531 268.926C70.5616 265.031 66.5332 262.355 61.8715 262.355C55.8697 262.355 50.9174 266.783 50.0671 272.548C47.1199 273.251 44.81 275.579 44.1509 278.544C43.444 278.385 42.7132 278.285 41.9585 278.285C36.4605 278.285 32.002 282.744 32.002 288.242C32.002 293.74 36.4605 298.198 41.9585 298.198C47.4565 298.198 76.2866 298.198 81.7846 298.198C87.2826 298.198 91.7411 293.74 91.7411 288.242C91.7411 284.128 89.246 280.601 85.6875 279.082Z" fill="#79BACB"/>
<path d="M269.607 57.2191C269.627 56.9523 269.686 56.6954 269.686 56.4226C269.686 50.9246 265.228 46.4661 259.73 46.4661C258.575 46.4661 257.482 46.7011 256.45 47.0635C254.481 43.1685 250.452 40.4922 245.791 40.4922C239.789 40.4922 234.837 44.9208 233.986 50.6857C231.039 51.3886 228.729 53.7164 228.07 56.6815C227.363 56.5222 226.632 56.4226 225.878 56.4226C220.38 56.4226 215.921 60.8812 215.921 66.3791C215.921 71.8771 220.38 76.3357 225.878 76.3357C231.376 76.3357 260.206 76.3357 265.704 76.3357C271.202 76.3357 275.66 71.8771 275.66 66.3791C275.66 62.2651 273.165 58.7385 269.607 57.2191Z" fill="#79BACB"/>
</g>
</g>
</svg>
