<svg width="241" height="54" viewBox="0 0 241 54" fill="none" xmlns="http://www.w3.org/2000/svg">
<path d="M48.4253 9.35502H41.9284V4.47609C41.9284 2.01424 40.2087 0 38.1067 0H32.7564C30.6545 0 28.9347 2.01424 28.9347 4.47609V9.35502H21.941C18.9983 9.35502 16.6289 12.1302 16.6289 15.5768V39.6134C16.6289 40.6429 17.4315 41.18 18.3104 41.18C22.5525 41.0457 27.406 37.7334 29.2022 36.3458L29.3169 36.1668L21.406 35.2268C20.9856 35.182 20.871 34.5106 21.2531 34.2868C24.0812 32.5859 29.2787 31.6907 31.457 31.4221C32.1067 31.3326 32.7182 30.9745 33.1768 30.4374L38.336 24.2156C38.6418 23.8575 38.4125 23.1861 37.9539 23.2309L32.9857 23.3652C32.5653 23.3652 32.4124 22.7385 32.7564 22.47C35.4698 20.59 43.1896 19.0681 43.1896 19.0681C48.0049 12.3988 50.1832 12.0854 50.8711 11.9959C51.1769 11.9512 51.7119 11.9512 52.2469 11.9512C52.5145 11.9512 52.7438 12.0854 52.9348 12.2645C51.9794 10.5188 50.3361 9.35502 48.4253 9.35502ZM31.0366 9.35502V4.78941C31.0366 3.67039 31.801 2.81994 32.7182 2.81994H38.0685C39.0239 2.81994 39.7501 3.71515 39.7501 4.78941V9.39978H31.0366V9.35502Z" fill="#40A2E3"/>
<path d="M53.2406 12.8916C53.2788 13.1602 53.2405 13.4287 53.1259 13.6973C51.5972 16.562 47.508 19.9638 47.2787 23.1866C47.1259 25.2008 46.4762 27.0808 45.8647 28.3789C45.5972 28.9608 44.8329 28.737 44.8329 28.0655L44.9475 24.5294C41.6227 29.5427 36.2723 33.7502 32.2978 36.3911C26.3359 50.8041 8.22118 51.565 0.463173 51.2069C-0.0718617 51.1622 -0.186512 52.0574 0.348523 52.2364C4.70524 53.4897 13.4569 54.9221 28.4761 53.2212C51.8265 50.5355 53.7756 20.0533 53.7756 20.0533V15.622C53.7374 14.6373 53.5463 13.6973 53.2406 12.8916Z" fill="#0D9276"/>
<path d="M53.2393 12.8913C53.2011 12.6675 53.0865 12.4437 52.9336 12.2646C53.0482 12.4437 53.1247 12.6675 53.2393 12.8913Z" fill="#0D9276"/>
<path d="M240.978 21.233C240.705 21.133 240.257 21.083 239.636 21.083C239.139 21.083 238.617 21.1116 238.07 21.1687C237.523 21.2116 237.169 21.2473 237.008 21.2758C237.008 21.2473 237.144 21.4544 237.418 21.8971C237.691 22.3256 237.934 22.8255 238.145 23.3968C238.368 23.9539 238.48 24.5109 238.48 25.0679C238.48 26.5105 238.163 27.746 237.53 28.7744C236.896 29.8027 236.07 30.5812 235.051 31.1096C234.044 31.6238 232.988 31.8809 231.882 31.8809C231.261 31.8809 230.465 31.7524 229.496 31.4953C229.459 31.5238 229.316 31.631 229.067 31.8166C228.757 32.0452 228.527 32.2594 228.378 32.4594C228.241 32.645 228.173 32.9164 228.173 33.2735C228.173 33.6306 228.334 33.9019 228.657 34.0876C228.98 34.259 229.415 34.3804 229.962 34.4518C230.509 34.509 231.379 34.5661 232.572 34.6232C233.466 34.6661 234.467 34.7304 235.573 34.8161C237.151 34.9446 238.424 35.4159 239.394 36.2301C240.363 37.0442 240.847 38.1654 240.847 39.5937C240.847 40.8792 240.431 42.0075 239.599 42.9788C238.766 43.95 237.641 44.6927 236.225 45.2069C234.821 45.7354 233.274 45.9996 231.584 45.9996C230.18 45.9996 228.962 45.8211 227.93 45.464C226.899 45.1212 226.11 44.6713 225.563 44.1142C225.029 43.5715 224.762 43.0073 224.762 42.4217C224.762 41.7933 224.992 41.1005 225.451 40.3435C225.911 39.5866 226.632 38.7939 227.614 37.9654C226.918 37.6369 226.371 37.2156 225.973 36.7014C225.588 36.1872 225.395 35.6159 225.395 34.9874C225.395 34.2305 225.663 33.5306 226.197 32.8879C226.731 32.2451 227.489 31.5953 228.471 30.9382C227.489 30.2955 226.731 29.5028 226.197 28.5601C225.663 27.6175 225.395 26.5462 225.395 25.3465C225.395 24.061 225.669 22.9112 226.216 21.8971C226.775 20.8688 227.545 20.0689 228.527 19.4976C229.521 18.9263 230.633 18.6406 231.863 18.6406C233.342 18.6406 234.709 19.0191 235.964 19.7761C236.088 19.719 236.368 19.6119 236.803 19.4548C237.238 19.2834 237.753 19.1191 238.35 18.962C238.959 18.8049 239.512 18.7263 240.009 18.7263C240.183 18.7263 240.357 18.7406 240.531 18.7692C240.717 18.7835 240.835 18.7977 240.885 18.812L240.978 21.233ZM228.713 24.8966C228.713 26.5248 229.005 27.8603 229.589 28.9029C230.186 29.9456 231.068 30.4669 232.236 30.4669C233.243 30.4669 233.988 30.0384 234.473 29.1814C234.97 28.3245 235.218 27.1604 235.218 25.6893C235.218 24.5323 235.063 23.5468 234.752 22.7327C234.454 21.9043 234.038 21.283 233.504 20.8688C232.969 20.4403 232.373 20.226 231.714 20.226C231.155 20.226 230.646 20.426 230.186 20.8259C229.738 21.2116 229.378 21.7614 229.105 22.4756C228.844 23.1755 228.713 23.9824 228.713 24.8966ZM232.199 38.4154C231.254 38.4011 230.186 38.3154 228.993 38.1583C227.788 39.3437 227.185 40.4292 227.185 41.4148C227.185 42.1004 227.458 42.6502 228.005 43.0645C228.564 43.4929 229.217 43.7929 229.962 43.9643C230.72 44.1357 231.422 44.2214 232.068 44.2214C232.975 44.2214 233.914 44.1 234.883 43.8572C235.852 43.6286 236.666 43.2716 237.325 42.7859C237.983 42.3003 238.312 41.7076 238.312 41.0077C238.312 40.2364 237.94 39.6294 237.194 39.1866C236.461 38.7439 235.324 38.5011 233.783 38.4582L232.199 38.4154Z" fill="#0D9276"/>
<path d="M208.212 33.7234C208.212 34.9517 208.479 35.8444 209.013 36.4015C209.56 36.9442 210.386 37.2799 211.492 37.4084C211.492 37.6227 211.486 37.8369 211.474 38.0511C211.461 38.2654 211.455 38.4082 211.455 38.4796H201.856L201.837 37.794C201.837 37.5655 201.843 37.4084 201.856 37.3227C202.577 37.1227 203.117 36.9442 203.477 36.7871C203.85 36.63 204.155 36.3729 204.391 36.0158C204.627 35.6587 204.745 35.1588 204.745 34.5161V22.9041C204.596 22.5756 204.304 22.2828 203.869 22.0257C203.434 21.7543 202.974 21.5329 202.49 21.3615C202.017 21.1758 201.781 21.0901 201.781 21.1044L201.837 20.376L206.926 18.9191L208.063 18.8334L208.268 22.3042C208.951 21.2473 209.821 20.376 210.877 19.6904C211.946 18.9906 213.095 18.6406 214.326 18.6406C216.127 18.6406 217.525 19.2262 218.519 20.3974C219.513 21.5686 220.054 23.3183 220.141 25.6464C220.178 26.5605 220.197 27.496 220.197 28.453V33.2306C220.197 34.2733 220.253 35.0303 220.365 35.5016C220.476 35.973 220.65 36.3015 220.887 36.4872C221.135 36.6586 221.545 36.8442 222.117 37.0442L222.9 37.3227C222.912 37.4084 222.918 37.5655 222.918 37.794L222.9 38.4796H213.71C213.71 38.3939 213.704 38.2511 213.692 38.0511C213.679 37.8369 213.673 37.6227 213.673 37.4084C213.76 37.3656 214.009 37.2799 214.419 37.1513C215.077 36.9371 215.587 36.7085 215.947 36.4657C216.32 36.2229 216.544 35.8301 216.618 35.2874C216.68 34.8732 216.711 34.3233 216.711 33.6377V28.8601C216.711 26.9604 216.649 25.4964 216.525 24.4681C216.413 23.4397 216.102 22.597 215.593 21.94C215.096 21.283 214.288 20.9545 213.17 20.9545C212.288 20.9545 211.436 21.2473 210.616 21.8329C209.809 22.4185 209.007 23.1969 208.212 24.1681V33.7234Z" fill="#0D9276"/>
<path d="M190.541 18.6406C192.193 18.6406 193.697 19.0548 195.051 19.8832C196.418 20.6974 197.499 21.8686 198.294 23.3968C199.09 24.9108 199.487 26.6748 199.487 28.6887C199.487 30.7026 199.09 32.4879 198.294 34.0448C197.499 35.5873 196.437 36.7871 195.107 37.6441C193.778 38.4868 192.324 38.9081 190.746 38.9081C189.18 38.9081 187.714 38.4725 186.347 37.6012C184.98 36.73 183.886 35.5231 183.066 33.9805C182.246 32.4237 181.836 30.6669 181.836 28.7101C181.836 26.7533 182.234 25.0108 183.029 23.4825C183.824 21.94 184.887 20.7474 186.216 19.9047C187.558 19.062 189 18.6406 190.541 18.6406ZM190.988 37.237C192.566 37.237 193.765 36.5871 194.585 35.2874C195.405 33.9876 195.815 32.2808 195.815 30.167C195.815 28.3387 195.592 26.6605 195.144 25.1322C194.709 23.5897 194.082 22.3613 193.262 21.4472C192.442 20.5331 191.497 20.0761 190.429 20.0761C189.484 20.0761 188.646 20.3403 187.912 20.8688C187.192 21.3972 186.62 22.2114 186.198 23.3111C185.775 24.4109 185.564 25.7892 185.564 27.4461C185.564 29.0743 185.787 30.6454 186.235 32.1594C186.682 33.6591 187.316 34.8803 188.136 35.823C188.956 36.7657 189.907 37.237 190.988 37.237Z" fill="#0D9276"/>
<path d="M176.542 33.4667C176.542 34.6664 176.753 35.5948 177.175 36.2519C177.61 36.8946 178.325 37.2802 179.319 37.4088C179.319 37.623 179.313 37.8373 179.3 38.0515C179.288 38.2658 179.281 38.4086 179.281 38.48H170.111L170.092 37.4088C170.204 37.3231 170.347 37.2445 170.521 37.1731C170.707 37.1017 170.894 37.0374 171.08 36.9803C171.627 36.8089 172.056 36.6232 172.366 36.4233C172.677 36.209 172.863 35.8948 172.925 35.4806C173.025 34.8664 173.075 34.238 173.075 33.5952L173.056 13.4349C172.907 13.1492 172.602 12.8707 172.143 12.5993C171.695 12.3136 171.254 12.078 170.819 11.8923C170.384 11.6923 170.105 11.5709 169.98 11.5281L170.018 10.7782L175.199 9.14997L176.542 9V33.4667Z" fill="#0D9276"/>
<path d="M150.97 27.0824L150.616 28.1108C150.057 29.7819 149.616 31.1602 149.293 32.2457C148.97 33.3169 148.808 34.1453 148.808 34.7309C148.808 35.2451 148.97 35.6664 149.293 35.9949C149.628 36.3235 150.007 36.5663 150.43 36.7234C150.864 36.8805 151.393 37.0305 152.014 37.1733L152.368 37.259V38.4802H143.57V37.3661C143.744 37.209 143.918 37.0804 144.092 36.9805C144.279 36.8662 144.508 36.7448 144.782 36.6163C145.217 36.4163 145.565 36.2092 145.826 35.9949C146.099 35.7807 146.341 35.4451 146.553 34.988C146.677 34.7023 146.801 34.381 146.925 34.0239C147.062 33.6525 147.149 33.4097 147.186 33.2955L147.41 32.6313L154.381 12.1067C154.431 11.9496 154.468 11.6782 154.493 11.2926C154.505 11.0069 154.524 10.7784 154.549 10.607C154.586 10.4213 154.648 10.2571 154.735 10.1143C155.344 10.1143 155.866 10.1857 156.301 10.3285C156.748 10.4713 157.196 10.7356 157.643 11.1212L166.198 34.7095C166.36 35.1523 166.546 35.5093 166.758 35.7807C166.969 36.0378 167.186 36.2378 167.41 36.3806C167.646 36.5091 167.963 36.6662 168.361 36.8519C168.696 36.9805 169.05 37.1519 169.423 37.3661L169.386 38.4802H158.538L158.5 37.3661C159.084 37.1661 159.581 36.9662 159.992 36.7662C160.414 36.5663 160.793 36.2877 161.129 35.9307C161.464 35.5736 161.632 35.138 161.632 34.6238C161.632 34.0525 161.011 31.9314 159.768 28.2607C159.693 28.0465 159.619 27.8394 159.544 27.6394C159.482 27.4395 159.426 27.2538 159.376 27.0824H150.97ZM155.015 14.6562L151.604 25.197H158.687L155.015 14.6562Z" fill="#0D9276"/>
<path d="M136.542 13.3063C136.381 13.0206 136.064 12.735 135.592 12.4493C135.132 12.1637 134.678 11.9209 134.231 11.7209C133.796 11.5209 133.51 11.3995 133.374 11.3567L133.411 10.6068L138.667 9.14997L140.009 9V34.2165C140.009 35.0735 140.326 35.6877 140.96 36.059C141.606 36.4304 142.296 36.6161 143.029 36.6161V37.7944L138.052 38.7371H136.803L136.635 35.4163C135.753 36.5875 134.827 37.4659 133.858 38.0515C132.889 38.6228 131.851 38.9085 130.745 38.9085C129.341 38.9085 128.055 38.5228 126.887 37.7516C125.731 36.966 124.818 35.8734 124.147 34.4736C123.476 33.0596 123.141 31.4385 123.141 29.6103C123.141 27.5107 123.513 25.6325 124.259 23.9757C125.017 22.3188 126.055 21.0262 127.372 20.0978C128.689 19.1695 130.161 18.7053 131.789 18.7053C132.547 18.7053 133.287 18.8409 134.007 19.1123C134.728 19.3694 135.573 19.7622 136.542 20.2907V13.3063ZM136.542 27.5535C136.542 26.1681 136.437 25.054 136.225 24.2113C136.014 23.3544 135.585 22.5974 134.939 21.9403C134.442 21.4404 133.908 21.0548 133.336 20.7834C132.765 20.4978 132.187 20.3549 131.603 20.3549C130.621 20.3549 129.751 20.7192 128.993 21.4476C128.235 22.176 127.645 23.1473 127.223 24.3613C126.813 25.5611 126.608 26.8608 126.608 28.2605C126.608 29.6174 126.813 30.9172 127.223 32.1598C127.645 33.3881 128.273 34.3951 129.105 35.1806C129.938 35.9662 130.944 36.359 132.125 36.359C133.069 36.359 133.908 36.1233 134.641 35.652C135.387 35.1663 136.02 34.5236 136.542 33.7238V27.5535Z" fill="#40A2E3"/>
<path d="M106.028 33.7234C106.028 34.9517 106.295 35.8444 106.83 36.4015C107.376 36.9442 108.203 37.2799 109.309 37.4084C109.309 37.6227 109.303 37.8369 109.29 38.0511C109.278 38.2654 109.271 38.4082 109.271 38.4796H99.6722L99.6536 37.794C99.6536 37.5655 99.6598 37.4084 99.6722 37.3227C100.393 37.1227 100.933 36.9442 101.294 36.7871C101.667 36.63 101.971 36.3729 102.207 36.0158C102.443 35.6587 102.561 35.1588 102.561 34.5161V22.9041C102.412 22.5756 102.12 22.2828 101.685 22.0257C101.25 21.7543 100.791 21.5329 100.306 21.3615C99.8338 21.1758 99.5977 21.0901 99.5977 21.1044L99.6536 20.376L104.742 18.9191L105.879 18.8334L106.084 22.3042C106.768 21.2473 107.637 20.376 108.694 19.6904C109.762 18.9906 110.912 18.6406 112.142 18.6406C113.944 18.6406 115.342 19.2262 116.336 20.3974C117.33 21.5686 117.87 23.3183 117.957 25.6464C117.995 26.5605 118.013 27.496 118.013 28.453V33.2306C118.013 34.2733 118.069 35.0303 118.181 35.5016C118.293 35.973 118.467 36.3015 118.703 36.4872C118.951 36.6586 119.362 36.8442 119.933 37.0442L120.716 37.3227C120.728 37.4084 120.735 37.5655 120.735 37.794L120.716 38.4796H111.527C111.527 38.3939 111.521 38.2511 111.508 38.0511C111.496 37.8369 111.49 37.6227 111.49 37.4084C111.577 37.3656 111.825 37.2799 112.235 37.1513C112.894 36.9371 113.403 36.7085 113.764 36.4657C114.136 36.2229 114.36 35.8301 114.435 35.2874C114.497 34.8732 114.528 34.3233 114.528 33.6377V28.8601C114.528 26.9604 114.466 25.4964 114.341 24.4681C114.23 23.4397 113.919 22.597 113.409 21.94C112.912 21.283 112.105 20.9545 110.986 20.9545C110.104 20.9545 109.253 21.2473 108.433 21.8329C107.625 22.4185 106.823 23.1969 106.028 24.1681V33.7234Z" fill="#40A2E3"/>
<path d="M85.7132 27.2104C85.7008 27.3532 85.6946 27.5603 85.6946 27.8317C85.6946 29.6313 85.9742 31.1382 86.5334 32.3522C87.105 33.552 87.863 34.4447 88.8073 35.0303C89.7642 35.6016 90.8328 35.8873 92.0133 35.8873C93.579 35.8873 95.0888 35.3731 96.5427 34.3447L97.0832 34.9446C96.785 35.773 96.2817 36.4872 95.5734 37.087C94.8776 37.6869 94.0823 38.144 93.1876 38.4582C92.3053 38.7581 91.4479 38.9081 90.6154 38.9081C89.0497 38.9081 87.6393 38.4868 86.3842 37.6441C85.1416 36.8014 84.1662 35.623 83.4579 34.109C82.762 32.5951 82.4141 30.8597 82.4141 28.9029C82.4141 26.9176 82.7931 25.1465 83.5511 23.5897C84.3091 22.0185 85.3156 20.8045 86.5706 19.9475C87.8381 19.0763 89.1926 18.6406 90.634 18.6406C91.8145 18.6406 92.8769 18.9191 93.8213 19.4762C94.7781 20.0189 95.5548 20.7902 96.1512 21.79C96.7477 22.7755 97.1267 23.911 97.2882 25.1965C97.4249 25.8535 97.4933 26.4605 97.4933 27.0176V27.2104H85.7132ZM92.4234 25.8392C92.9701 25.8107 93.4299 25.6964 93.8027 25.4964C93.7157 23.7968 93.3678 22.4685 92.7589 21.5115C92.1624 20.5545 91.3112 20.0761 90.2053 20.0761C89.3976 20.0761 88.6769 20.3546 88.0431 20.9116C87.4218 21.4686 86.9186 22.2114 86.5334 23.1398C86.1481 24.0539 85.8996 25.0608 85.7878 26.1606L92.4234 25.8392Z" fill="#40A2E3"/>
<path d="M62.7677 29.8674C62.892 30.1102 62.9914 30.3601 63.0659 30.6172C63.1529 30.8743 63.2461 31.21 63.3455 31.6242C63.3952 31.767 63.4387 31.9313 63.476 32.1169C63.9109 33.7595 64.7372 35.0235 65.955 35.9091C67.1728 36.7946 68.5645 37.2374 70.1302 37.2374C70.9504 37.2374 71.7456 37.0731 72.5161 36.7446C73.2989 36.4018 73.9389 35.8948 74.4359 35.2235C74.9454 34.5379 75.2001 33.7095 75.2001 32.7383C75.2001 31.8956 74.9392 31.11 74.4173 30.3816C73.9078 29.6531 73.2678 29.0033 72.4974 28.4319C71.7394 27.8463 70.6894 27.1251 69.3474 26.2681C67.7692 25.2683 66.4893 24.3827 65.5077 23.6115C64.526 22.8402 63.6934 21.9261 63.01 20.8691C62.3266 19.7979 61.9848 18.591 61.9848 17.2484C61.9848 15.5916 62.3887 14.2276 63.1964 13.1563C64.0165 12.0708 65.0603 11.2853 66.3278 10.7997C67.6077 10.2998 68.9559 10.0498 70.3725 10.0498C71.5903 10.0498 72.8019 10.2212 74.0072 10.564C75.225 10.9068 76.3806 11.3995 77.4741 12.0423L77.7164 18.1482H76.5608C76.4117 17.8197 76.2377 17.2984 76.0389 16.5842L75.8525 15.9629C75.43 14.5632 74.6969 13.5063 73.6531 12.7921C72.6217 12.0637 71.4288 11.6995 70.0743 11.6995C69.3784 11.6995 68.6764 11.8352 67.9681 12.1065C67.2598 12.3779 66.6633 12.7993 66.1787 13.3706C65.7065 13.9276 65.4704 14.6203 65.4704 15.4488C65.4704 16.22 65.7189 16.9413 66.216 17.6126C66.713 18.2839 67.3281 18.8981 68.0613 19.4551C68.7944 19.9979 69.8071 20.6835 71.0995 21.5119C72.7522 22.5688 74.088 23.5043 75.1069 24.3185C76.1383 25.1183 77.0143 26.0895 77.7351 27.2322C78.4682 28.3748 78.8348 29.6674 78.8348 31.11C78.8348 32.8954 78.4061 34.3879 77.5487 35.5877C76.6913 36.7732 75.5791 37.6444 74.2122 38.2015C72.8578 38.7585 71.4163 39.037 69.8879 39.037C68.521 39.037 67.0485 38.8442 65.4704 38.4586C63.9047 38.0586 62.6372 37.5159 61.668 36.8303V29.9102L62.7677 29.8674Z" fill="#40A2E3"/>
</svg>
